<?xml version="1.0" encoding="UTF-8"?>
<svg id="Capa_2" data-name="Capa 2" xmlns="http://www.w3.org/2000/svg" viewBox="0 0 256.41 41.6">
  <defs>
    <style>
      .cls-1 {
        fill: #fff;
        stroke-width: 0px;
      }
    </style>
  </defs>
  <g id="Capa_1-2" data-name="Capa 1">
    <g>
      <path class="cls-1" d="M80.31,36.91c0-.14.06-1.5-1.32-1.5-.13,0-.77-.04-.81.56v2.34h.81c.09,0,1.31,0,1.31-1.4M82.66,41.4h-.83c-.15,0-.3-.02-.45-.06-.22-.06-.4-.17-.55-.34-.03-.03-.08-.08-.11-.12-.14-.18-.27-.35-.39-.54-.17-.25-.34-.5-.49-.76-.34-.55-.6-1.03-.65-1.11h-.98v2.2c.02.71.86.55.89.55v.17h-2.37v-.12s.69.02.72-.6v-4.71c0-.06,0-.11-.03-.17-.13-.46-.69-.44-.69-.44v-.12h2.27s2.14-.09,2.14,1.48c0,.94-.62,1.37-1.19,1.57l.14.23c.13.23.27.45.41.68.14.23.29.45.43.66.08.12.16.24.24.34.31.42.7.88,1.22,1.02.07.03.14.03.22.04.02,0,.04,0,.06,0v.11Z"/>
      <path class="cls-1" d="M91.18,41.4h-4.49v-.12s.66.02.72-.56v-4.76c-.03-.62-.72-.6-.72-.6v-.12h4.28v1.55h-.2c0-.77-.16-1.38-1.17-1.38h-.72s-.68-.04-.71.52v2.28h.6c.71-.03.8-.57.8-1.13h.15v2.4h-.15c0-.55-.08-1.08-.76-1.11h-.63v2.32c.03.56.7.51.71.51h.93c1.01,0,1.17-.77,1.17-1.55h.2v1.72Z"/>
      <path class="cls-1" d="M99.17,39.83c0,.14-.02.29-.05.45-.08.37-.29.69-.6.91-.24.16-.51.25-.79.3-.2.03-.4.04-.6.02-.19-.02-.39-.06-.58-.13-.09-.03-.18-.08-.27-.13-.09-.06-.18-.12-.27-.17-.08-.03-.17-.05-.24,0-.07.07-.09.16-.12.24l-.02.13h-.16l.02-1.01v-1.08s.19,0,.19,0v.03c0,.29.07.59.17.86.08.21.18.4.31.58.08.09.16.18.25.25.11.09.22.13.35.18.08.03.16.05.24.06.18.03.37.03.55,0,.5-.1.77-.55.85-1.03.13-.84-1-1.52-1.95-2.07-.94-.55-.94-1.41-.94-1.41-.02-.29,0-.59.13-.86.13-.28.37-.49.65-.62.2-.09.42-.15.64-.18.08,0,.15,0,.23,0h.03c.13,0,.28.02.41.07.19.05.38.13.55.24.13.08.32.23.44.06.05-.06.08-.13.09-.21l.02-.12h.17l-.02.98v.81h-.19c0-.19-.06-.4-.12-.58-.08-.21-.17-.41-.3-.59-.07-.09-.15-.19-.24-.25-.12-.09-.25-.13-.39-.18-.33-.09-.72-.11-1.01.1-.12.09-.22.2-.3.32,0,0-.77,1.06,1.12,1.99,1.14.55,1.76,1.33,1.76,2.04"/>
      <path class="cls-1" d="M108.01,38.34c0-1.68-.87-3.04-1.96-3.04s-1.95,1.36-1.95,3.04.87,3.04,1.95,3.04,1.96-1.36,1.96-3.04M108.8,38.38c0,1.77-1.23,3.22-2.74,3.22s-2.74-1.45-2.74-3.22,1.23-3.22,2.74-3.22,2.74,1.44,2.74,3.22"/>
      <path class="cls-1" d="M116.55,36.91c0-.14.06-1.5-1.32-1.5-.14,0-.77-.04-.81.56v2.34h.81c.09,0,1.31,0,1.31-1.4M118.9,41.4h-.83c-.15,0-.3-.02-.45-.06-.22-.06-.4-.17-.55-.34-.03-.03-.08-.08-.11-.12-.14-.18-.27-.35-.39-.54-.17-.25-.34-.5-.49-.76-.34-.55-.6-1.03-.65-1.11h-.98v2.2c.02.71.86.55.89.55v.17h-2.37v-.12s.69.02.72-.6v-4.71c0-.06,0-.11-.03-.17-.13-.46-.69-.44-.69-.44v-.12h2.27s2.14-.09,2.14,1.48c0,.94-.62,1.37-1.19,1.57l.14.23c.13.23.27.45.41.68.14.23.29.45.43.66.08.12.16.24.24.34.31.42.7.88,1.22,1.02.07.03.14.03.22.04.02,0,.04,0,.06,0v.11Z"/>
      <path class="cls-1" d="M126.56,37.09h-.2c0-.77-.16-1.66-1.17-1.66h-.65v5.24c0,.06,0,.11.03.17.15.47.86.45.86.45v.12h-2.54v-.12s.71.03.87-.45c.02-.06.02-.11.02-.17v-5.24h-.66c-1.01,0-1.17.88-1.17,1.66h-.2v-1.82h4.81v1.82Z"/>
      <path class="cls-1" d="M136.97,35.73c-.04-.08-.1-.16-.18-.22-.07-.05-.14-.08-.23-.11-.09-.03-.27-.03-.27-.03v-.12h2.19v.12s-.59-.03-.71.46c0,.05-.02.1-.02.15v2.26h2.9v-2.26c0-.05,0-.1-.02-.15-.12-.49-.71-.46-.71-.46v-.12h2.19v.12s-.59-.03-.7.46c-.02.05-.02.1-.02.15v4.69s0,.11.02.17c.13.46.7.44.7.44v.12h-2.19v-.12s.6.03.71-.49c0-.04.02-.09.02-.14v-2.24h-2.9v2.27c.03.63.72.6.72.6v.12h-2.19v-.12s.57.03.7-.44c.02-.06.02-.12.02-.17,0,0,0-4.52,0-4.69,0-.09,0-.18-.04-.25"/>
      <path class="cls-1" d="M150.98,38.34c0-1.68-.87-3.04-1.96-3.04s-1.95,1.36-1.95,3.04.87,3.04,1.95,3.04,1.96-1.36,1.96-3.04M151.76,38.38c0,1.77-1.23,3.22-2.74,3.22s-2.74-1.45-2.74-3.22,1.23-3.22,2.74-3.22,2.74,1.44,2.74,3.22"/>
      <path class="cls-1" d="M160.72,37.09h-.2c0-.77-.16-1.66-1.17-1.66h-.65v5.24c0,.06,0,.11.03.17.15.47.86.45.86.45v.12h-2.54v-.12s.71.03.87-.45c.02-.06.02-.11.02-.17v-5.24h-.66c-1.01,0-1.17.88-1.17,1.66h-.2v-1.82h4.81v1.82Z"/>
      <path class="cls-1" d="M169.49,41.4h-4.49v-.12s.66.02.72-.56v-4.76c-.03-.62-.72-.6-.72-.6v-.12h4.28v1.55h-.2c0-.77-.16-1.38-1.17-1.38h-.72s-.68-.04-.71.52v2.28h.6c.7-.03.8-.57.8-1.13h.15v2.4h-.15c0-.55-.08-1.08-.76-1.11h-.63v2.32c.03.56.7.51.71.51h.93c1.01,0,1.17-.77,1.17-1.55h.2v1.72Z"/>
      <path class="cls-1" d="M178.22,39.57v1.82h-4.45v-.12s.69.02.72-.6v-4.71s0-.11-.03-.17c-.13-.46-.7-.44-.7-.44v-.12h2.37v.12s-.78-.03-.88.52c0,.03,0,.08,0,.11v4.68s0,.07,0,.09c.08.5.69.45.71.45h.89c1.01,0,1.17-.88,1.17-1.66h.2Z"/>
      <path class="cls-1" d="M15.8,13.46h-.61c-.01.22-.07,1.01-.3,1.94-.25,1-.75,2.38-1.74,3.21-.35.3-.77.51-1.17.71l-.11.05c-.44.19-.9.36-1.39.49-.97.24-1.89.23-2.73-.03-.68-.2-1.32-.56-1.94-1.09-.47-.4-.9-.94-1.36-1.69-.35-.62-.65-1.28-.9-1.96-.01-.06-.03-.1-.05-.15-.02-.05-.04-.1-.06-.16-.64-1.93-.87-3.97-.68-6.05.24-2.73.94-4.86,2.07-6.33.9-1.18,1.86-1.62,2.35-1.78.58-.15,1.16-.22,1.72-.22.99,0,1.98.23,2.86.65.97.44,1.73,1.07,2.24,1.86.13.21.27.44.38.65.26.53.47,1.15.63,1.91.05.38.11.76.14,1.14v.02h.55l-.03-2.8.08-3.45h-.47c-.02.27-.11,1.34-.63,1.63-.2.11-.44.09-.7-.07-.07-.02-.16-.08-.23-.14-1.43-1.19-3.1-1.82-4.81-1.82h-.51s-2.12.06-4.19,1.39C2.28,2.61,0,5.2,0,10.59c0,4.56,2.31,9.89,8.82,9.89h.08c1.74,0,3.49-.66,4.93-1.85.34-.27.64-.35.89-.23.55.26.64,1.38.66,1.65h.48l-.05-3.45v-3.13Z"/>
      <path class="cls-1" d="M26.95,19.6c-.38.01-2.25,0-2.35-1.71v-7.52h2.08c2.19.08,2.51,1.75,2.52,3.57h.36v-7.61h-.36c0,.76-.06,1.71-.44,2.42-.41.77-1.12,1.17-2.18,1.2h-1.98V2.56c.1-1.73,1.97-1.75,2.34-1.74h2.33c3.14,0,3.8,1.77,3.81,4.43h.53V.41h-13.64v.26c.37,0,2.22.13,2.32,1.98v15.3c-.17,1.72-1.96,1.84-2.32,1.85v.26h14.32v-5.42h-.53c0,2.33-.46,4.97-3.81,4.97h-2.99Z"/>
      <path class="cls-1" d="M45.54,19.62c-.36.01-2.1,0-2.33-1.51-.03-.08-.03-.2-.03-.31V2.75c0-.11,0-.25.03-.37.3-1.63,2.44-1.72,2.83-1.72v-.26h-7.49v.26c.33,0,1.87.09,2.24,1.45.05.19.08.38.08.56v15.14c-.1,1.85-1.95,1.97-2.32,1.98v.26h14.18v-5.74h-.53c0,2.3-.42,5.32-3.81,5.32h-2.86Z"/>
      <path class="cls-1" d="M64.05,19.6c-.38.01-2.25,0-2.35-1.71v-7.52h2.08c2.19.08,2.51,1.75,2.52,3.57h.36v-7.61h-.36c0,.76-.06,1.71-.44,2.42-.41.77-1.12,1.17-2.18,1.2h-1.98V2.56c.1-1.73,1.97-1.75,2.35-1.74h2.33c3.14,0,3.8,1.77,3.81,4.43h.53V.41h-13.64v.26c.37,0,2.22.13,2.32,1.98v15.3c-.17,1.72-1.96,1.84-2.32,1.85v.26h14.32v-5.42h-.53c0,2.33-.46,4.97-3.81,4.97h-3Z"/>
      <path class="cls-1" d="M84.52,19.32l-.27.08c-.39.08-.75.14-1.09.16-.27.02-.53.04-.77.04-.11,0-.21,0-.32-.01-.05,0-.09-.02-.14-.02-.09-.01-.19-.02-.29-.06-.7-.21-1.12-.66-1.25-1.34-.03-.14-.03-.28-.03-.42v-7.71h3.67c1.3,0,2.11.54,2.56.99.85.86,1.28,2.23,1.26,4.07-.02,2.18-1.18,3.64-3.34,4.22M80.37,2.51c0-1.09.91-1.61,1.7-1.74h0c.5-.06.99-.05,1.42.03.83.15,1.52.51,2,1.05.24.24.44.54.63.96.27.7.41,1.54.41,2.51,0,1.63-.53,2.85-1.56,3.62-.58.45-1.31.69-2.11.69h-2.49V2.51ZM84.55,9.7l-.4-.03.39-.09c3.95-.91,4.54-3.38,4.54-4.78,0-1.19-.38-2.16-1.13-2.89-1.62-1.58-4.44-1.51-4.47-1.51h-7.71v.26h0c.24,0,1.12.04,1.72.62.38.36.57.87.57,1.5v14.81c0,.62-.19,1.12-.57,1.46-.62.57-1.53.58-1.78.57v.42h8.22c1.06,0,2.14-.21,3.13-.62,1.57-.66,3.44-2.03,3.44-4.86,0-4.08-4.56-4.75-5.96-4.86"/>
      <path class="cls-1" d="M105.04,9.15c-.32.29-.68.52-1.18.74-.3.13-.64.2-.97.28l-.09.02c-.25.03-.5.06-.74.06h-2.65V2.64c.07-1.25.94-1.87,2.57-1.84h.08c1.3,0,2.33.37,3.06,1.11.58.58,1.26,1.7,1.24,3.73v.06c0,.86-.12,1.54-.38,2.13-.19.5-.52.96-.93,1.32M134.89,20.79s-.03.04-.05.06c-.05.05-.1.13-.15.21l-.49.52c-.19.22-.41.43-.68.68-.62.59-1.27,1.1-1.98,1.55-.87.58-1.84,1.05-2.87,1.39-1.2.41-2.42.66-3.63.73-3.9.31-7.63-.73-10.51-2.93-1.52-1.14-2.96-2.69-4.41-4.74-.81-1.13-1.6-2.43-2.41-3.98-.34-.66-.67-1.34-.98-1.99l-.02-.04c-.19-.39-.36-.79-.53-1.18-.12-.28-.24-.55-.36-.83-.01-.04-.03-.07-.04-.1-.03-.06-.05-.13-.07-.2v-.05s.03-.02.03-.02c1.44-.62,3.15-1.95,3.15-4.73,0-1.21-.4-2.21-1.2-2.98-1.94-1.86-5.58-1.72-5.62-1.72h-7.25v.26c.36,0,2.12.1,2.29,1.84v15.3c-.1,1.85-1.95,1.97-2.32,1.98v.26h7.49v-.41c-.97.12-1.77-.04-2.26-.45-.38-.32-.58-.79-.6-1.4v-7.14h1.3c.13,0,.26,0,.39,0,.51,0,1.03,0,1.54-.06.01,0,.04,0,.07,0,.22-.03.27-.03.3,0l.02.02v.02s.32.77.32.77c.67,1.64,1.32,3.03,1.99,4.26.73,1.4,1.56,2.76,2.48,4.05l.65.86c2.92,3.58,5.75,5.71,8.93,6.71,3.87,1.22,8.26.93,11.72-.78,1.82-.86,3.47-2.2,4.75-3.87.39-.53.7-1.02.94-1.45.05-.09.09-.17.13-.24.04-.07.06-.13.09-.17l.05-.08-.07-.05s-.03.04-.04.06h0s-.01.02-.01.02c-.02.01-.04.03-.07.06"/>
      <path class="cls-1" d="M118.92,11.11l2.89-7.65,2.92,7.65.38,1.03h-6.57l.38-1.03ZM116.7,18.36c-.12-.46-.09-1,.08-1.6l1.58-4.21h6.91l.37.99,1.27,3.32c.1.26.16.48.19.72.1.66-.02,1.19-.36,1.56-.5.55-1.3.59-1.53.59v.31h6.52v-.32l-.09-.02c-.14-.03-.28-.09-.42-.17-1.05-.64-1.54-1.87-1.97-2.95-.05-.14-.11-.27-.16-.4l-1.21-3.14c-.45-1.14-.91-2.35-1.4-3.7l-1.38-3.65c-.38-.97-.73-1.96-1.08-2.92-.11-.26-.21-.52-.31-.78-.1-.26-.2-.53-.31-.78l-.02-.08-2.98-.64c.12.11.22.23.3.37.09.11.14.22.2.34l.05.09.63,1.68v.02s-3.11,8.16-3.11,8.16l-2.51,6.65c-.84,1.64-1.85,1.89-2.1,1.92v.32h5.28v-.31h-.02c-.39,0-2.04-.08-2.4-1.37"/>
      <path class="cls-1" d="M136.35.88h2.19v16.93c0,.19-.03.35-.08.56-.22.64-.78,1.1-1.64,1.33-.52.14-.99.15-1.16.15h0v.26h8.06v-.26c-.16,0-.64-.01-1.16-.15-.85-.23-1.41-.68-1.61-1.32-.06-.21-.08-.37-.08-.56V.88h2.16c3.39,0,3.8,3.02,3.81,5.32h.53V.46h-15.34v5.74h.53c0-2.3.42-5.32,3.81-5.32"/>
      <path class="cls-1" d="M158.65,19.6c-.38.01-2.25,0-2.35-1.71v-7.52h2.08c2.19.08,2.51,1.75,2.52,3.57h.36v-7.61h-.36c0,.76-.06,1.71-.44,2.42-.41.77-1.13,1.17-2.18,1.2h-1.98V2.56c.1-1.73,1.97-1.75,2.34-1.74h2.33c3.14,0,3.8,1.77,3.81,4.43h.53V.41h-13.64v.26c.37,0,2.22.13,2.32,1.98v15.3c-.17,1.72-1.96,1.84-2.32,1.85v.26h14.32v-5.42h-.53c0,2.33-.46,4.97-3.81,4.97h-3Z"/>
      <path class="cls-1" d="M190,6.36v.06c0,5.05-3.91,5.2-4.35,5.2h-2.68V2.75c0-.14,0-.25.03-.37.16-1.07.99-1.61,2.48-1.61h.14c1.23,0,2.22.37,2.95,1.11.95.96,1.44,2.51,1.43,4.48M178.37.41v.26c.33,0,1.84.09,2.21,1.45.05.19.08.38.08.56v15.14c-.1,1.85-1.95,1.97-2.32,1.98v.26h7.49v-.34c-.51.02-1.68-.02-2.36-.67-.33-.32-.5-.74-.5-1.26v-5.74h2.65s3.28.03,5.31-1.97c1.08-1.06,1.62-2.51,1.62-4.29,0-1.23-.47-5.27-6.5-5.37h-7.68Z"/>
      <path class="cls-1" d="M198.59,12.14l.38-1.03,2.89-7.65,2.92,7.65.38,1.03h-6.57ZM211.27,19.53c-1.05-.64-1.54-1.87-1.97-2.95-.05-.14-.11-.27-.16-.4l-1.21-3.14c-.45-1.14-.91-2.35-1.4-3.7l-1.38-3.65c-.38-.97-.74-1.96-1.08-2.92-.11-.26-.21-.52-.31-.78-.1-.26-.2-.53-.31-.78l-.02-.08-2.98-.64c.12.11.22.23.3.37.09.11.14.22.2.34l.05.09.63,1.68v.02s-3.11,8.16-3.11,8.16l-2.51,6.65c-.84,1.64-1.85,1.89-2.1,1.92v.32h5.28v-.31c-.34,0-2.05-.05-2.43-1.37-.12-.46-.1-1,.08-1.6l1.58-4.21h6.91l.37.99,1.27,3.32c.1.26.16.48.19.72.1.66-.02,1.19-.36,1.56-.5.55-1.3.59-1.53.59v.31h6.52v-.32l-.09-.02c-.14-.03-.28-.09-.42-.17"/>
      <path class="cls-1" d="M224.29,9.64c-.97.54-1.96.58-2.25.58h-2.68V2.64c.07-1.24.91-1.87,2.49-1.87.03,0,.06,0,.08,0h.08c1.3,0,2.32.37,3.05,1.11.58.59,1.27,1.71,1.24,3.73v.05c0,1.86-.7,3.23-2.02,3.97M232.9,19.65c-1.66-.42-2.89-1.83-3.97-3.29-.29-.37-.55-.75-.79-1.11v-.02c-.46-.69-.92-1.39-1.38-2.12-.46-.73-.9-1.47-1.32-2.19l-.47-.79.07-.02c2.52-.89,3.79-2.57,3.79-5,0-1.21-.4-2.21-1.2-2.98-1.94-1.86-5.58-1.72-5.62-1.72h-7.25v.26c.33,0,1.84.1,2.21,1.45.06.2.08.37.08.56v15.14c-.1,1.85-1.95,1.97-2.32,1.98v.26h7.49v-.41c-.96.12-1.77-.04-2.26-.45-.38-.32-.58-.79-.6-1.4v-7.14h3.25l.02.03c.04.06.12.2.23.39.37.64,1.05,1.84,1.88,3.18.52.84,1.06,1.66,1.59,2.46.32.47.76,1.1,1.26,1.73.1.13.23.26.34.37.48.53,1.05.88,1.76,1.07.45.13.92.19,1.44.19h2.61v-.23s-.1,0-.14-.03c-.24-.03-.49-.06-.71-.14"/>
      <path class="cls-1" d="M252.59,18.03l-6.48-9.31.03-.04,4.78-6.35c.58-.8,1.44-1.35,2.41-1.54.27-.06.48-.08.57-.08v-.31h-5.46v.36h.02c.29,0,1.26.04,1.64.62.22.34.19.8-.09,1.36-.09.21-.2.4-.33.55l-3.4,4.54c-.72.94-1.76,1.56-2.93,1.75l-.61.06V2.56c.15-1.77,1.96-1.89,2.32-1.9v-.26h-6.92v.26c.36,0,2.14.13,2.29,1.89v15.38c-.17,1.74-1.93,1.84-2.29,1.85v.26h6.92v-.26c-.37,0-2.22-.11-2.32-1.98v-7.74h.44c.73.08,1.41.48,1.86,1.11l5.05,7.27c.17.33.19.59.06.8-.24.39-.94.43-1.16.43v.36h5.95v-.4c-.25-.03-1.26-.24-2.33-1.61"/>
      <path class="cls-1" d="M9.68,8.39c-1.15-.08-1.7-.68-1.76-1.95,0-.06-.06-.11-.12-.11-.06,0-.12.06-.11.12.02,1.24-.57,1.86-1.86,1.94-.06,0-.11.06-.11.12,0,.06.05.12.12.12,1.25.04,1.84.66,1.87,1.94,0,.06.05.12.12.12h0c.06,0,.12-.05.12-.12.04-1.26.58-1.86,1.76-1.95.06,0,.11-.06.11-.12,0-.06-.05-.11-.11-.12"/>
      <path class="cls-1" d="M167.25,9.52c-1.15-.08-1.7-.68-1.76-1.95,0-.06-.06-.11-.12-.11-.06,0-.12.06-.11.12.02,1.24-.57,1.86-1.87,1.94-.06,0-.11.06-.11.12,0,.06.05.12.11.12,1.25.04,1.84.66,1.87,1.94,0,.06.05.12.12.12.06,0,.12-.05.12-.11.04-1.26.58-1.86,1.76-1.95.06,0,.11-.06.11-.12,0-.06-.05-.11-.11-.12"/>
      <path class="cls-1" d="M48.75,16.17c-1.15-.08-1.7-.68-1.76-1.95,0-.06-.06-.11-.12-.11-.06,0-.12.06-.11.12.02,1.24-.57,1.86-1.86,1.94-.06,0-.11.06-.11.12,0,.06.05.12.11.12,1.25.04,1.84.66,1.87,1.94,0,.06.05.12.12.12h0c.06,0,.12-.05.12-.11.04-1.26.58-1.86,1.76-1.95.06,0,.11-.06.11-.12,0-.06-.05-.11-.11-.12"/>
      <path class="cls-1" d="M12.01,12.58c-.58-.6-.6-1.2-.07-1.89.04-.05.03-.12-.01-.16s-.11-.04-.16,0c-.64.54-1.21.53-1.87-.04-.05-.04-.12-.04-.16,0-.04.04-.05.11,0,.16.54.67.56,1.25.07,1.88-.04.05-.03.12.01.16.05.04.12.04.16,0,.65-.6,1.22-.41,1.88.07.02.02.05.02.07.02.03,0,.07-.01.09-.04.04-.05.04-.12,0-.16"/>
      <path class="cls-1" d="M169.43,7.79c-.58-.6-.6-1.2-.07-1.89.04-.05.03-.12-.01-.16s-.11-.04-.16,0c-.64.54-1.21.53-1.87-.04-.05-.04-.12-.04-.16,0-.04.04-.05.11,0,.16.54.67.56,1.25.07,1.88-.04.05-.03.12.01.16.05.04.12.04.16,0,.65-.6,1.22-.41,1.88.07.02.02.05.02.07.02.03,0,.07-.01.09-.04.04-.05.04-.12,0-.16"/>
      <path class="cls-1" d="M222.88,5c-.54-.64-.53-1.22.04-1.87.04-.05.04-.12,0-.16-.04-.05-.11-.05-.16,0-.67.54-1.25.56-1.88.07-.05-.04-.12-.03-.16.01-.04.05-.04.12,0,.16.6.65.41,1.22-.07,1.88-.03.05-.03.11.01.15,0,0,0,0,0,0,.05.04.12.04.16,0,.6-.58,1.2-.6,1.88-.07.05.04.12.03.16-.01.04-.04.04-.11,0-.16"/>
      <path class="cls-1" d="M256.3,11.97c-1.25-.04-1.86-.58-1.95-1.76,0-.06-.06-.11-.12-.11h0c-.06,0-.11.05-.12.11-.08,1.15-.68,1.7-1.94,1.77-.06,0-.11.06-.11.12,0,.06.05.11.12.11h0c1.24-.02,1.86.57,1.94,1.87,0,.06.06.11.12.11h0c.06,0,.11-.05.12-.12.04-1.25.66-1.85,1.94-1.87.06,0,.12-.05.12-.12,0-.06-.05-.12-.11-.12"/>
      <path class="cls-1" d="M135.12,12.49c-.92.86-1.72.9-2.62.14-.05-.04-.1-.04-.16,0-.04.04-.05.11,0,.16.76.87.72,1.68-.13,2.62-.04.05-.04.12,0,.17.05.04.12.06.17,0,.86-.89,1.72-.91,2.69-.05.05.04.12.04.16,0,0,0,0,0,0,0,.04-.05.04-.12,0-.16-.85-.91-.84-1.77.05-2.7.04-.05.04-.12,0-.17-.04-.05-.12-.05-.17,0"/>
      <path class="cls-1" d="M252.54,8.02s-.12-.04-.16,0c-.6.58-1.2.6-1.88.07-.05-.04-.12-.03-.16.01-.04.04-.04.11,0,.16.54.64.53,1.21-.04,1.87-.04.05-.04.12,0,.16.02.02.05.04.09.04.03,0,.05,0,.07-.03.67-.54,1.25-.56,1.88-.07.05.04.12.03.16-.01.04-.05.04-.12,0-.16-.6-.65-.41-1.22.07-1.88.04-.05.03-.12-.02-.16"/>
      <path class="cls-1" d="M70.45,11.48c-.83-.07-1.23-.49-1.29-1.35,0-.06-.06-.11-.12-.11-.07,0-.11.05-.12.11-.09.86-.48,1.28-1.27,1.38-.06,0-.11.06-.1.12,0,.06.05.11.11.11.88.04,1.15.58,1.28,1.38,0,.06.06.1.12.1h0c.06,0,.11-.06.11-.12.01-.84.42-1.28,1.28-1.39.06,0,.11-.06.1-.12,0-.06-.05-.11-.11-.12"/>
      <path class="cls-1" d="M94.86,3.9c-.58-.6-.6-1.2-.07-1.89.04-.05.03-.12-.01-.16-.04-.04-.11-.04-.16,0-.64.54-1.21.53-1.87-.04-.05-.04-.12-.04-.16,0-.04.04-.05.11,0,.16.54.67.56,1.25.07,1.88-.04.05-.03.12.01.16.05.04.12.04.16,0,.65-.6,1.22-.41,1.88.07.02.01.05.02.07.02.03,0,.07-.01.09-.04.04-.05.04-.12,0-.16"/>
      <path class="cls-1" d="M191.96,17.25c-.58-.6-.6-1.2-.07-1.89.04-.05.03-.12-.01-.16s-.11-.04-.16,0c-.64.54-1.21.53-1.87-.04-.05-.04-.12-.04-.16,0-.04.04-.05.11,0,.16.54.67.56,1.25.07,1.88-.04.05-.03.12.01.16.05.04.12.04.16,0,.65-.6,1.22-.41,1.88.07.02.01.05.02.07.02.03,0,.07-.01.09-.04.04-.05.04-.12,0-.16"/>
    </g>
  </g>
</svg>