<?xml version="1.0" encoding="UTF-8"?>
<svg id="Capa_2" data-name="Capa 2" xmlns="http://www.w3.org/2000/svg" viewBox="0 0 269.07 109.89">
  <defs>
    <style>
      .cls-1 {
        fill: #fff;
        stroke-width: 0px;
      }
    </style>
  </defs>
  <g id="Capa_1-2" data-name="Capa 1">
    <g>
      <path class="cls-1" d="M10.97,101.39c3,4.05,6.24,7.73,12.07,7.73,2.61,0,4.82-.7,4.82-1.86,0,0,.07-.02.15-.02.2,0,.57.09.57.57,0,1.47-3.85,2.08-5.78,2.08-6.24,0-10.49-3.04-13.93-7.95l-2.3-3.28c-.57-.81-1.12-1.12-1.75-1.12-.29,0-.5.04-.72.11v4.6c0,1.01.39,1.29,1.27,1.42l.72.11v.64s-1.38-.07-3.09-.07c-1.53,0-3,.07-3,.07v-.64l.57-.11c.94-.18,1.42-.88,1.42-2.15v-10.27c0-1.01-.37-1.29-1.27-1.42l-.72-.11v-.64s1.38.07,3.09.07c1.53,0,3-.07,3-.07v.64l-.44.11c-.9.22-1.55.88-1.55,2.15v4.67h1.42l4.1-5.8c.11-.15.15-.29.15-.42,0-.35-.29-.55-.74-.61l-.64-.09v-.64s1.8.07,3.04.07c1.07,0,2.67-.07,2.67-.07v.64l-.72.09c-1.2.15-2.02.7-2.67,1.62l-3.5,4.88,3.77,5.08Z"/>
      <path class="cls-1" d="M23.9,103.78v.64s-1.38-.07-3.09-.07c-1.53,0-3,.07-3,.07v-.64l.57-.11c.94-.18,1.42-.88,1.42-2.15v-10.27c0-1.01-.37-1.29-1.27-1.42l-.72-.11v-.64s1.38.07,3.09.07c1.53,0,3-.07,3-.07v.64l-.44.11c-.9.22-1.56.88-1.56,2.15v10.27c0,1.01.39,1.29,1.27,1.42l.72.11Z"/>
      <path class="cls-1" d="M38.04,89.72v-.64s1.91.09,3,.09c.99,0,2.39-.09,2.39-.09v.64l-.39.11c-.81.22-1.47.88-1.47,2.15v12.55l-.68.09-10.78-12.2v9.83c0,1.01.33,1.29,1.56,1.42l1.05.11v.64s-2.08-.07-3.22-.07-2.54.07-2.54.07v-.64l.57-.11c.94-.18,1.42-.88,1.42-2.15v-10.27c0-1.01-.37-1.29-1.27-1.42l-.72-.11v-.64c1.09.07,2.36.07,3.46.07.2.48.53.85,1.01,1.4l9.07,10.36v-9.66c0-.99-.28-1.29-1.4-1.42l-1.05-.11Z"/>
      <path class="cls-1" d="M59.95,89.37v3.53h-.63c-.39-1.95-2.15-3.26-4.99-3.26-3.39,0-5.63,2.98-5.63,6.83,0,4.86,3.07,7.43,6.48,7.43,2.1,0,2.87-.92,2.87-1.93v-1.99c0-1.01-.37-1.29-1.27-1.42l-.72-.11v-.64h5.76v.64l-.39.11c-.9.24-1.34,1.01-1.34,2.04v3.35c-1.42,0-3,.83-5.76.83-4.21,0-7.93-2.74-7.93-7.64,0-4.34,2.98-8.34,8.34-8.34,1.97,0,3.79.59,5.21.59"/>
      <path class="cls-1" d="M68.8,102.25c0,.94.7,1.42,1.69,1.42,3.72,0,7.01-.99,7.01-6.61,0-3.94-2.58-7.23-7.03-7.23-.66,0-1.42.09-1.66.15v12.26ZM71.42,89.09c5.83,0,8.37,3.26,8.37,7.31,0,4.42-2.98,8.02-8.74,8.02-1.25,0-1.64-.07-3.35-.07-1.53,0-3,.07-3,.07v-.64l.57-.11c.94-.18,1.42-.88,1.42-2.15v-10.27c0-1.01-.37-1.29-1.27-1.42l-.72-.11v-.64s1.69.07,3.09.07,2.26-.07,3.64-.07"/>
      <path class="cls-1" d="M84.93,96.47c0,4.75,2.91,7.45,6.09,7.45,3.46,0,5.26-2.98,5.26-6.83,0-4.75-2.91-7.45-6.13-7.45-3.42,0-5.21,2.98-5.21,6.83M82.63,97.12c0-4.34,2.96-8.34,8.48-8.34,4.12,0,7.47,2.85,7.47,7.64,0,4.34-2.96,8.34-8.48,8.34-4.12,0-7.47-2.85-7.47-7.64"/>
      <path class="cls-1" d="M104.11,91.45c.07-.96-.48-1.49-1.23-1.62l-.66-.11v-.64s2.02.07,3.9.07c.04.48.09.83.39,1.49l4.91,10.67,4.64-10.12c.61-1.34.61-2.04.61-2.04,1.49,0,3.7-.07,3.7-.07v.64l-.59.13c-.72.15-1.29.64-1.23,1.42l.94,10.82c.09,1.09.55,1.42,1.62,1.58l.75.11v.64s-2.06-.07-3.44-.07-3.39.07-3.39.07v-.64l.57-.11c1.14-.22,1.75-1.23,1.64-2.83l-.59-8.5-5.37,12.18-.66.09-5.63-12.11-.63,8.65c-.09,1.18-.22,2.3,1.42,2.52l.79.11v.64s-1.29-.07-3.04-.07c-1.23,0-2.56.07-2.56.07v-.64l.57-.11c1.27-.22,1.77-1.53,1.88-3.13l.68-9.09Z"/>
      <path class="cls-1" d="M131.8,96.47c0,4.75,2.91,7.45,6.09,7.45,3.46,0,5.26-2.98,5.26-6.83,0-4.75-2.91-7.45-6.13-7.45-3.42,0-5.21,2.98-5.21,6.83M129.5,97.12c0-4.34,2.96-8.34,8.48-8.34,4.12,0,7.47,2.85,7.47,7.64,0,4.34-2.96,8.34-8.48,8.34-4.12,0-7.47-2.85-7.47-7.64"/>
      <path class="cls-1" d="M158.34,92.33h-.53c-.13-1.47-1.25-2.5-3.72-2.5-.59,0-1.25.09-1.49.15v6.35h1.66c1.36,0,1.8-.68,1.97-1.66l.15-.88h.55s-.07,1.62-.07,2.78c0,1.23.07,2.43.07,2.43h-.55l-.09-.5c-.13-.81-.64-1.31-1.84-1.31h-1.86v5.06c0,1.01.39,1.31,1.27,1.42l.9.11v.64s-1.18-.07-3.26-.07c-1.58,0-3,.07-3,.07v-.64l.57-.11c.94-.18,1.42-.88,1.42-2.15v-10.27c0-1.01-.37-1.29-1.27-1.42l-.72-.11v-.64s2.06.06,3.09.06c3.61,0,6.75-.06,6.75-.06v3.24Z"/>
      <path class="cls-1" d="M172.66,89.98h-1.45c-2.02,0-3.04.64-3.5,2.15l-.55-.11.24-3.28h.53s.18.35.88.35h10.1c.66,0,.88-.35.88-.35h.48l-.24,3.39-.55-.11c0-1.51-.99-2.04-2.3-2.04h-2.41v12.27c0,1.01.39,1.29,1.27,1.42l.72.11v.64s-1.38-.07-3.09-.07c-1.53,0-3,.07-3,.07v-.64l.57-.11c.94-.18,1.42-.88,1.42-2.15v-11.54Z"/>
      <path class="cls-1" d="M195.67,96.05v-4.8c0-1.01-.37-1.29-1.27-1.42l-.72-.11v-.64s1.38.07,3.09.07c1.53,0,3.11-.07,3.11-.07v.64l-.55.11c-.92.18-1.56.88-1.56,2.15v10.27c0,1.01.39,1.31,1.27,1.42l.83.11v.64s-1.49-.07-3.2-.07c-1.53,0-3,.07-3,.07v-.64l.57-.11c.94-.18,1.42-.88,1.42-2.15v-4.58h-8.26v5.3c0,1.01.39,1.31,1.27,1.42l.83.11v.64s-1.49-.07-3.2-.07c-1.53,0-3,.07-3,.07v-.64l.57-.11c.94-.18,1.42-.88,1.42-2.15v-10.27c0-1.01-.37-1.29-1.27-1.42l-.72-.11v-.64s1.38.07,3.09.07c1.53,0,3.11-.07,3.11-.07v.64l-.55.11c-.92.18-1.55.88-1.55,2.15v4.07h8.26Z"/>
      <path class="cls-1" d="M212.87,92.35h-.53c-.13-1.47-1.25-2.52-3.72-2.52-.59,0-1.25.09-1.49.15v6.15h1.66c1.36,0,1.8-.68,1.97-1.66l.15-.88h.55s-.07,1.62-.07,2.78c0,1.23.07,2.43.07,2.43h-.55l-.09-.5c-.13-.81-.64-1.31-1.84-1.31h-1.86v5.26c0,.94.7,1.42,1.69,1.42,2.76,0,3.59-1.12,4.21-2.74l.53.07-.48,3.42s-4.95-.07-7.03-.07c-1.58,0-3,.07-3,.07v-.64l.57-.11c.94-.18,1.42-.88,1.42-2.15v-10.27c0-1.01-.37-1.29-1.27-1.42l-.72-.11v-.64s2.06.06,3.09.06c3.61,0,6.75-.06,6.75-.06v3.26Z"/>
      <path class="cls-1" d="M230.49,92.66h-.63c0-1.82-1.23-3-3.15-3-1.49,0-2.56,1.01-2.56,2.32,0,3.2,6.88,3.72,6.88,8.43,0,2.67-2.06,4.36-4.95,4.36-2.28,0-2.54-.66-4.27-.66v-3.57h.64c.09,1.62,1.16,3.35,3.5,3.35,1.6,0,3.18-.92,3.18-2.67,0-3.61-6.68-3.46-6.68-8.45,0-2.17,1.6-3.99,4.58-3.99,1.45,0,2.41.46,3.68.46l-.2,3.42Z"/>
      <path class="cls-1" d="M244.5,89.72v-.64s1.49.07,2.63.07c1.2,0,2.63-.07,2.63-.07v.64l-.44.11c-.9.22-1.56.88-1.56,2.15v7.32c0,3.61-1.71,5.48-5.65,5.48s-5.67-1.82-5.67-5.48v-8.04c0-1.01-.37-1.29-1.27-1.42l-.72-.11v-.64s1.38.07,3.09.07c1.82,0,3.11-.07,3.11-.07v.64l-.55.11c-.9.18-1.55.88-1.55,2.15v7.38c0,2.67.9,4.36,4.05,4.36s4.01-1.95,4.01-4.36v-8.1c0-1.01-.37-1.31-1.27-1.42l-.83-.11Z"/>
      <path class="cls-1" d="M263.68,89.72v-.64s1.91.09,3,.09c.99,0,2.39-.09,2.39-.09v.64l-.39.11c-.81.22-1.47.88-1.47,2.15v12.55l-.68.09-10.78-12.2v9.83c0,1.01.33,1.29,1.56,1.42l1.05.11v.64s-2.08-.07-3.22-.07-2.54.07-2.54.07v-.64l.57-.11c.94-.18,1.42-.88,1.42-2.15v-10.27c0-1.01-.37-1.29-1.27-1.42l-.72-.11v-.64c1.09.07,2.36.07,3.46.07.2.48.53.85,1.01,1.4l9.07,10.36v-9.66c0-.99-.29-1.29-1.4-1.42l-1.05-.11Z"/>
      <g>
        <polyline class="cls-1" points="120.63 36.72 120.63 36.72 120.63 36.73 120.63 36.72"/>
        <polyline class="cls-1" points="131.88 52.82 131.88 52.82 131.88 52.82 131.88 52.82"/>
        <polygon class="cls-1" points="148.38 36.63 148.38 36.63 148.38 36.64 148.38 36.63"/>
        <polyline class="cls-1" points="148.22 42.16 148.22 42.16 148.22 42.15 148.22 42.16"/>
        <polyline class="cls-1" points="131.87 52.82 131.88 52.82 131.87 52.82 131.87 52.82"/>
        <polyline class="cls-1" points="120.63 36.72 120.63 36.72 120.63 36.72 120.63 36.72"/>
        <polyline class="cls-1" points="148.22 42.16 148.22 42.16 148.22 42.16 148.22 42.16"/>
        <path class="cls-1" d="M134.53,49.8h-.01c-5.94,0-10.77-4.85-10.77-10.8,0-5.94,4.84-10.77,10.78-10.77h.01c5.94,0,10.77,4.85,10.77,10.79,0,5.94-4.84,10.77-10.78,10.77M172.26,38.1c-.61,0-1.1.47-1.17,1.05l-22.71-2.52h0s0,0,0,0l-.41-1.04c1.24-.7,3.96-2,6.64-1.76,3.08.27,4.69-2.64,5.4-3.46,1.41-1.6,3.8-1.68,3.8-1.68,0,0-2.31-1.55-5.95,1.61-1.87,1.62-4.38.63-5.99.59-1.31-.03-3.54.13-5.29,1.11l-.24-.62,8.5-14.22,1.33-.63.5-1.97-1.84.87-.37,1.43-11.96,10.51s-.35-.18-.87-.44c.02-1.48.31-4.58,2.33-6.37,2.32-2.05,1.31-5.22,1.22-6.3-.19-2.13,1.4-3.92,1.4-3.92,0,0-2.72.61-2.93,5.43-.11,2.47-2.56,3.61-3.7,4.76-.92.92-1.86,2.72-2.25,4.68-.23-.06-.39-.07-.42,0l-2.25-22.83c.6-.06,1.07-.57,1.07-1.19,0-.66-.53-1.2-1.19-1.2s-1.19.54-1.19,1.19c0,.6.45,1.1,1.03,1.18l-2.96,22.83s0,0,0,0c-.02-.05-.4.09-.95.32-.8-1.01-2.54-3.57-2.26-6.37.31-3.08-2.58-4.72-3.38-5.45-1.58-1.44-1.63-3.83-1.63-3.83,0,0-1.58,2.29,1.53,5.98,1.59,1.89.57,4.39.51,6.01-.05,1.37.45,3.52,1.59,5.28-.45.21-.75.35-.75.35l-11.95-10.76-.39-1.51-1.85-.86.51,1.97,1.36.64,8.49,14.52-.18.46c-1.34-.12-4.79-.61-6.83-2.63-2.2-2.18-5.29-.97-6.36-.8-2.11.33-4-1.15-4-1.15,0,0,.79,2.67,5.6,2.58,2.47-.05,3.77,2.32,4.98,3.38,1.04.91,3,2.31,5.09,2.58l-.31.81s0,0,0,0h0s-22.65,2.83-22.65,2.83c-.07-.59-.57-1.05-1.18-1.05-.66,0-1.2.53-1.2,1.19,0,.66.53,1.2,1.19,1.2.62,0,1.13-.47,1.19-1.07l22.84,2.44.14.3c-.98.83-3.69,2.85-6.58,2.72-3.09-.14-4.57,2.84-5.25,3.68-1.34,1.66-3.73,1.84-3.73,1.84,0,0,2.38,1.45,5.88-1.86,1.8-1.7,4.35-.81,5.96-.84,1.39-.02,3.82-.32,5.56-1.55l.35.76-10.54,11.84-1.53.42-.84,1.86,1.96-.54.65-1.43,13.75-8.81s.45.19,1.07.44c-.08,1.19-.49,4.42-2.68,6.35-2.32,2.05-1.31,5.22-1.22,6.3.19,2.13-1.4,3.92-1.4,3.92,0,0,2.72-.61,2.93-5.43.11-2.47,2.56-3.61,3.7-4.76.96-.96,1.88-2.86,2.22-4.91.39.16.64.27.65.27,0,0,0,0,0,0h0l2.93,22.84c-.58.08-1.03.58-1.03,1.18,0,.66.53,1.2,1.19,1.2.66,0,1.2-.53,1.2-1.19,0-.62-.47-1.13-1.07-1.19l2.26-22.88.56-.24c.81,1.03,2.52,3.57,2.24,6.35-.31,3.08,2.58,4.73,3.38,5.45,1.58,1.44,1.63,3.83,1.63,3.83,0,0,1.58-2.29-1.53-5.98-1.59-1.89-.57-4.39-.51-6.01.05-1.36-.43-3.46-1.55-5.21l.93-.4,13.77,8.77.66,1.44,1.97.53-.84-1.85-1.52-.42-10.58-11.82.47-1.04c1.42.19,4.54.8,6.44,2.76,2.16,2.22,5.27,1.06,6.35.91,2.11-.29,3.98,1.21,3.98,1.21,0,0-.74-2.69-5.56-2.67-2.47,0-3.73-2.38-4.93-3.47-.94-.85-2.67-2.15-4.56-2.58l.09-.19s0,0,0,0h0s22.87-2.71,22.87-2.71c.08.6.59,1.05,1.2,1.04.66,0,1.19-.55,1.18-1.21,0-.66-.55-1.19-1.21-1.18"/>
        <path class="cls-1" d="M138.22,42.7l-2.6-1.28-1.01,4.28-1.11-4.3-2.65,1.31,1.28-2.6-4.28-1.01,4.3-1.11-1.31-2.65,2.6,1.28,1.01-4.28,1.11,4.3,2.65-1.31-1.28,2.6,4.28,1.01-4.3,1.11,1.31,2.65ZM134.55,29.11h-.01c-5.46,0-9.9,4.44-9.91,9.89,0,5.46,4.43,9.91,9.89,9.92h.01c5.45,0,9.9-4.44,9.91-9.89,0-5.46-4.43-9.91-9.89-9.92"/>
        <polygon class="cls-1" points="148.38 36.63 148.38 36.63 148.38 36.63 148.38 36.63"/>
      </g>
    </g>
  </g>
</svg>