<?xml version="1.0" encoding="UTF-8"?>
<svg width="189.593px" height="60.309px" viewBox="0 0 189.593 60.309" version="1.1" xmlns="http://www.w3.org/2000/svg" xmlns:xlink="http://www.w3.org/1999/xlink">
    <title>Group 50</title>
    <defs>
        <polygon id="path-1" points="0 0 4.737 0 4.737 7.3454 0 7.3454"></polygon>
        <polygon id="path-3" points="0 0 20.1465 0 20.1465 32.211 0 32.211"></polygon>
        <polygon id="path-5" points="0 0 43.0688 0 43.0688 43.3884 0 43.3884"></polygon>
    </defs>
    <g id="Page-1" stroke="none" stroke-width="1" fill="none" fill-rule="evenodd">
        <g id="01-Homepage-Desk-DELUXXE" transform="translate(-58, -15)">
            <g id="Group-50" transform="translate(58, 15)">
                <path d="M61.4272,51.0283 C61.4272,51.2223 61.4232,51.4513 61.4162,51.7153 C61.4112,51.9793 61.4042,52.2113 61.3992,52.4153 C61.4082,52.5173 61.4162,52.6583 61.4202,52.8393 C61.4252,53.0183 61.4272,53.1223 61.4272,53.1513 C61.4272,53.3363 61.4182,53.4373 61.3992,53.4573 C61.3152,53.3023 61.2362,53.1423 61.1622,52.9783 C61.1432,52.8513 61.1252,52.6523 61.1062,52.3803 C60.7432,52.2703 60.3302,52.1873 59.8692,52.1283 C59.4072,52.0693 58.9712,52.0393 58.5622,52.0393 C58.5622,52.4173 58.5512,52.8913 58.5292,53.4613 C58.5072,54.0333 58.4962,54.3223 58.4962,54.3313 L58.4962,57.3413 C58.4962,57.5913 58.5072,57.9583 58.5292,58.4463 C58.5512,58.9343 58.5622,59.3073 58.5622,59.5643 C58.7842,59.5643 59.0442,59.5863 59.3402,59.6293 C59.6372,59.6713 59.7862,59.7583 59.7862,59.8883 C59.7862,59.9363 59.6942,59.9593 59.5092,59.9593 C59.4172,59.9593 59.1912,59.9423 58.8322,59.9123 C58.4712,59.8823 58.2222,59.8663 58.0842,59.8663 C57.9922,59.8663 57.6872,59.8883 57.1712,59.9313 C56.9672,59.9493 56.7972,59.9593 56.6572,59.9593 C56.4832,59.9593 56.3952,59.9363 56.3952,59.8893 C56.3952,59.7983 56.5262,59.7233 56.7902,59.6653 C57.0522,59.6053 57.3222,59.5753 57.5982,59.5753 C57.5982,59.3163 57.6142,58.9433 57.6432,58.4553 C57.6722,57.9673 57.6862,57.5983 57.6862,57.3483 L57.6862,54.3353 C57.6862,54.0853 57.6722,53.7083 57.6432,53.2003 C57.6142,52.6933 57.5982,52.3063 57.5982,52.0393 C57.1292,52.0393 56.6982,52.0643 56.3082,52.1143 C55.9172,52.1643 55.5232,52.2523 55.1272,52.3803 C55.1102,52.7703 55.0872,53.0343 55.0582,53.1703 C54.9932,53.2693 54.9262,53.3653 54.8522,53.4573 C54.8232,53.4473 54.8052,53.3903 54.7962,53.2863 C54.7872,53.1803 54.7832,53.1093 54.7832,53.0723 C54.7832,52.8353 54.7852,52.6823 54.7902,52.6143 C54.7942,52.5453 54.8052,52.4843 54.8232,52.4283 C54.8332,52.3483 54.8282,52.1663 54.8092,51.8893 C54.7912,51.6103 54.7732,51.3343 54.7552,51.0613 C54.8012,51.0793 54.8562,51.0933 54.9202,51.1023 C54.9662,51.2583 55.0132,51.4093 55.0582,51.5563 C56.0262,51.7033 57.0342,51.7763 58.0842,51.7763 C59.1432,51.7763 60.1572,51.7033 61.1232,51.5553 C61.1412,51.3323 61.2122,51.1573 61.3312,51.0283 L61.4272,51.0283 Z" id="Fill-1" fill="#FFFFFF"></path>
                <path d="M67.8597,59.8881 C67.8597,59.9391 67.7947,59.9641 67.6657,59.9641 C67.5727,59.9641 67.3987,59.9481 67.1477,59.9151 C66.8947,59.8841 66.7407,59.8661 66.6847,59.8661 C66.5827,59.8661 66.4037,59.8841 66.1447,59.9151 C65.8847,59.9481 65.7307,59.9641 65.6807,59.9641 C65.5587,59.9641 65.4977,59.9421 65.4977,59.8991 C65.4977,59.8121 65.6297,59.7441 65.8977,59.6921 C65.9827,59.6781 66.1157,59.6631 66.2957,59.6481 C66.3247,59.3521 66.3407,59.0741 66.3447,58.8131 C66.3477,58.5521 66.3507,58.2481 66.3507,57.9001 L66.3507,56.8361 L63.2217,56.8361 L63.2217,57.9001 C63.2217,58.1021 63.2297,58.4341 63.2457,58.8971 C63.2617,59.3611 63.2707,59.6111 63.2707,59.6481 C63.3687,59.6481 63.5307,59.6561 63.7537,59.6741 C63.9747,59.6911 64.0867,59.7631 64.0867,59.8901 C64.0867,59.9391 64.0177,59.9641 63.8797,59.9641 C63.7667,59.9641 63.6507,59.9571 63.5357,59.9421 C63.1257,59.8921 62.9177,59.8661 62.9097,59.8661 C62.8167,59.8661 62.6477,59.8841 62.4027,59.9151 C62.1577,59.9481 61.9857,59.9641 61.8847,59.9641 C61.7627,59.9641 61.7017,59.9421 61.7017,59.8961 C61.7017,59.8291 61.7947,59.7701 61.9827,59.7181 C62.1697,59.6651 62.3497,59.6391 62.5237,59.6391 C62.5727,59.0831 62.5977,58.5041 62.5977,57.8981 L62.5977,55.5401 C62.5977,54.9201 62.5727,54.3351 62.5237,53.7871 C62.3927,53.7871 62.2487,53.7731 62.0897,53.7451 C61.8307,53.6941 61.7017,53.6271 61.7017,53.5411 C61.7017,53.4911 61.7697,53.4671 61.9067,53.4671 C62.0137,53.4671 62.1967,53.4831 62.4507,53.5141 C62.7067,53.5441 62.8597,53.5591 62.9097,53.5591 C62.9957,53.5591 63.1577,53.5441 63.3947,53.5141 C63.6327,53.4831 63.8017,53.4671 63.9037,53.4671 C64.0247,53.4671 64.0867,53.4891 64.0867,53.5331 C64.0867,53.6141 64.0037,53.6771 63.8387,53.7201 C63.6737,53.7651 63.4847,53.7871 63.2707,53.7871 C63.2707,53.9891 63.2617,54.3221 63.2457,54.7851 C63.2297,55.2511 63.2217,55.5001 63.2217,55.5381 L63.2217,56.6501 L66.3507,56.6501 L66.3507,55.5381 L66.3507,55.3121 C66.3507,54.8081 66.3317,54.3021 66.2957,53.7911 C66.1157,53.7831 65.9827,53.7761 65.8977,53.7691 C65.6297,53.7261 65.4977,53.6511 65.4977,53.5431 C65.4977,53.4921 65.5617,53.4671 65.6907,53.4671 C65.7847,53.4671 65.9567,53.4831 66.2087,53.5141 C66.4597,53.5441 66.6187,53.5591 66.6847,53.5591 C66.7767,53.5591 66.9467,53.5441 67.1907,53.5141 C67.4347,53.4831 67.5937,53.4671 67.6657,53.4671 C67.7947,53.4671 67.8597,53.4911 67.8597,53.5411 C67.8597,53.5981 67.7677,53.6531 67.5827,53.7061 C67.3997,53.7601 67.2257,53.7871 67.0607,53.7871 C67.0317,54.0751 67.0117,54.3421 67.0007,54.5871 C66.9907,54.8321 66.9847,55.1501 66.9847,55.5401 L66.9847,57.8981 C66.9847,58.2791 66.9877,58.5911 66.9947,58.8321 C67.0017,59.0751 67.0247,59.3431 67.0607,59.6391 C67.1827,59.6391 67.3467,59.6591 67.5527,59.6991 C67.7567,59.7391 67.8597,59.8011 67.8597,59.8881" id="Fill-3" fill="#FFFFFF"></path>
                <g id="Group-7" transform="translate(68.3555, 52.9636)">
                    <mask id="mask-2" fill="white">
                        <use xlink:href="#path-1"></use>
                    </mask>
                    <g id="Clip-6"></g>
                    <path d="M4.715,7.34 C4.658,7.361 4.612,7.322 4.575,7.22 C4.568,7.191 4.553,7.14 4.532,7.068 C4.136,7.009 3.744,6.968 3.358,6.943 C2.973,6.918 2.591,6.905 2.217,6.905 C1.842,6.905 1.502,6.913 1.195,6.932 C0.889,6.951 0.562,6.97 0.216,6.993 C0.072,6.993 0,6.974 0,6.939 C0,6.828 0.094,6.757 0.282,6.724 C0.47,6.692 0.651,6.676 0.825,6.676 C0.876,6.121 0.9,5.541 0.9,4.935 L0.9,2.577 C0.9,1.958 0.876,1.374 0.825,0.825 C0.702,0.825 0.533,0.809 0.32,0.772 C0.106,0.736 0,0.671 0,0.577 C0,0.526 0.094,0.501 0.28,0.501 C0.67,0.525 1.009,0.544 1.298,0.559 C1.586,0.575 1.893,0.583 2.218,0.583 C2.593,0.583 2.962,0.57 3.326,0.544 C3.69,0.518 4.07,0.471 4.467,0.403 C4.517,0.217 4.558,0.097 4.586,0.045 C4.623,0.03 4.666,0.015 4.716,0 C4.723,0.014 4.717,0.149 4.7,0.405 C4.681,0.662 4.666,0.886 4.651,1.081 C4.658,1.162 4.666,1.268 4.673,1.4 C4.68,1.534 4.684,1.615 4.684,1.643 C4.684,1.802 4.668,1.885 4.641,1.893 C4.582,1.773 4.525,1.648 4.467,1.522 C4.46,1.423 4.449,1.268 4.435,1.056 C4.146,0.963 3.834,0.897 3.499,0.854 C3.164,0.811 2.826,0.79 2.487,0.79 C2.141,0.79 1.835,0.805 1.568,0.832 C1.568,1.034 1.562,1.367 1.548,1.83 C1.531,2.293 1.526,2.542 1.526,2.578 L1.526,3.57 L2.445,3.57 C3.058,3.57 3.637,3.497 4.187,3.353 C4.23,3.078 4.261,2.899 4.283,2.812 C4.335,2.762 4.388,2.711 4.445,2.66 C4.453,2.682 4.449,2.815 4.435,3.056 C4.42,3.297 4.406,3.509 4.391,3.69 C4.399,3.791 4.408,3.929 4.418,4.101 C4.43,4.274 4.435,4.43 4.435,4.566 C4.435,4.718 4.424,4.794 4.402,4.794 C4.309,4.794 4.25,4.697 4.224,4.501 C4.198,4.307 4.187,4.141 4.187,4.004 C3.912,3.925 3.635,3.869 3.358,3.836 C3.081,3.804 2.775,3.788 2.445,3.788 L1.526,3.788 L1.526,4.934 C1.526,5.136 1.531,5.468 1.548,5.929 C1.562,6.39 1.568,6.64 1.568,6.676 C2.246,6.676 2.737,6.661 3.04,6.633 C3.608,6.582 4.078,6.471 4.445,6.298 C4.453,6.126 4.464,5.997 4.478,5.911 C4.521,5.646 4.593,5.514 4.694,5.514 C4.723,5.514 4.737,5.582 4.737,5.719 C4.737,5.805 4.731,5.906 4.721,6.021 C4.711,6.137 4.702,6.231 4.694,6.302 C4.694,6.331 4.702,6.474 4.715,6.729 C4.731,6.985 4.737,7.139 4.737,7.189 L4.737,7.275 C4.737,7.296 4.731,7.318 4.715,7.34" id="Fill-5" fill="#FFFFFF" mask="url(#mask-2)"></path>
                </g>
                <path d="M84.8661,55.8574 C84.8661,55.9594 84.7671,56.0374 84.5691,56.0914 C84.5421,56.1004 84.4131,56.1254 84.1881,56.1614 L84.1881,58.3154 C84.1881,58.3974 84.2031,58.5034 84.2321,58.6324 C84.2611,58.7624 84.2771,58.8494 84.2771,58.8944 C84.2771,59.0234 84.1771,59.0974 83.9791,59.1154 C83.7801,59.1334 83.3821,59.3044 82.7841,59.6274 C82.2401,59.9214 81.6051,60.0684 80.8761,60.0684 C79.7711,60.0684 78.8861,59.6634 78.2231,58.8544 C77.6051,58.1174 77.2971,57.2164 77.2971,56.1484 C77.2971,54.9334 77.6691,53.8854 78.4151,53.0024 C79.2061,52.0544 80.2011,51.5794 81.3981,51.5794 C81.7661,51.5794 82.1581,51.6384 82.5731,51.7554 C82.8751,51.8444 83.2581,51.9824 83.7191,52.1704 C83.7281,52.1514 83.7781,51.9054 83.8701,51.4314 C83.9161,51.1624 83.9981,51.0284 84.1191,51.0284 C84.1641,51.0284 84.1881,51.1334 84.1881,51.3474 C84.1881,51.5334 84.1711,51.7724 84.1391,52.0704 C84.1061,52.3664 84.0611,52.6574 84.0041,52.9444 C83.9961,52.9814 83.9911,53.0504 83.9911,53.1534 C83.9911,53.2734 84.0061,53.4914 84.0381,53.8054 C84.0681,54.1204 84.0831,54.3334 84.0831,54.4444 C84.0831,54.6214 84.0591,54.7084 84.0111,54.7084 C83.9241,54.7084 83.8511,54.5744 83.7931,54.3054 C83.7351,54.0384 83.7061,53.6914 83.7061,53.2664 C83.3211,52.8654 82.9011,52.5454 82.4461,52.3084 C81.9921,52.0714 81.5251,51.9514 81.0481,51.9514 C80.2031,51.9514 79.4871,52.2764 78.9001,52.9254 C78.3131,53.5744 78.0191,54.4064 78.0191,55.4184 C78.0191,56.5234 78.3521,57.5014 79.0201,58.3534 C79.6871,59.2054 80.5001,59.6304 81.4581,59.6304 C81.7621,59.6304 82.0681,59.5804 82.3761,59.4784 C82.6861,59.3774 83.0191,59.2204 83.3791,59.0084 L83.3791,56.1754 C83.1241,56.1574 82.9381,56.1434 82.8201,56.1344 C82.4481,56.0874 82.2631,56.0044 82.2631,55.8844 C82.2631,55.8214 82.3461,55.7874 82.5101,55.7874 C82.6671,55.7874 82.7901,55.7934 82.8821,55.8014 C83.3511,55.8464 83.5881,55.8684 83.5991,55.8684 C83.6911,55.8684 83.8651,55.8524 84.1221,55.8214 C84.3801,55.7904 84.5531,55.7744 84.6451,55.7744 C84.7921,55.7744 84.8661,55.8014 84.8661,55.8574" id="Fill-8" fill="#FFFFFF"></path>
                <path d="M90.5179,59.6141 C90.5179,59.7321 90.3929,59.8291 90.1439,59.9091 C89.8969,59.9901 89.6929,60.0291 89.5349,60.0291 C89.3619,60.0291 89.1979,59.9581 89.0489,59.8131 C88.9459,59.7191 88.8209,59.5571 88.6679,59.3241 L87.1619,57.0871 C87.0829,56.9661 87.0429,56.8821 87.0429,56.8331 C87.0429,56.7771 87.1119,56.7491 87.2489,56.7491 L87.4759,56.7491 L87.7469,56.7491 C88.1949,56.7491 88.5609,56.6581 88.8439,56.4761 C89.2179,56.2281 89.4059,55.8291 89.4059,55.2771 C89.4059,54.7101 89.2149,54.2931 88.8319,54.0231 C88.5219,53.8051 88.1019,53.6971 87.5769,53.6971 C87.3149,53.6971 87.0679,53.7191 86.8289,53.7621 C86.8289,53.9651 86.8209,54.3001 86.8049,54.7661 C86.7889,55.2331 86.7809,55.4841 86.7809,55.5211 L86.7809,57.8671 C86.7809,58.0781 86.7889,58.4151 86.8049,58.8831 C86.8209,59.3491 86.8289,59.5941 86.8289,59.6161 C86.9999,59.6301 87.1889,59.6541 87.3939,59.6871 C87.5969,59.7191 87.6999,59.7861 87.6999,59.8871 C87.6999,59.9241 87.6309,59.9421 87.4939,59.9421 C87.4359,59.9421 87.2759,59.9291 87.0139,59.9041 C86.7519,59.8791 86.5699,59.8661 86.4699,59.8661 C86.3979,59.8661 86.1779,59.8851 85.8109,59.9201 C85.6669,59.9351 85.5439,59.9421 85.4439,59.9421 C85.3229,59.9421 85.2609,59.9241 85.2609,59.8871 C85.2609,59.8231 85.3429,59.7691 85.5099,59.7251 C85.7029,59.6901 85.8939,59.6541 86.0809,59.6171 C86.1319,59.0841 86.1569,58.5051 86.1569,57.8781 L86.1569,55.5421 C86.1569,54.9221 86.1309,54.3381 86.0809,53.7901 C85.8619,53.7621 85.6979,53.7401 85.5889,53.7261 C85.3699,53.6901 85.2609,53.6291 85.2609,53.5431 C85.2609,53.4851 85.3469,53.4571 85.5199,53.4571 C85.6209,53.4571 85.7909,53.4691 86.0299,53.4971 C86.2689,53.5241 86.4309,53.5391 86.5169,53.5391 C86.6909,53.5391 86.9539,53.5241 87.3029,53.4971 C87.6539,53.4691 87.9159,53.4571 88.0889,53.4571 C88.6029,53.4571 89.0349,53.5761 89.3909,53.8151 C89.8159,54.0971 90.0289,54.5021 90.0289,55.0321 C90.0289,55.5971 89.8129,56.0601 89.3799,56.4231 C88.9469,56.7861 88.4279,56.9661 87.8219,56.9661 L89.3709,59.0981 C89.5079,59.2781 89.6089,59.3951 89.6729,59.4531 C89.7969,59.5601 89.9229,59.6141 90.0529,59.6141 C90.0679,59.6141 90.1189,59.6001 90.2089,59.5701 C90.2989,59.5411 90.3689,59.5271 90.4199,59.5271 C90.4849,59.5271 90.5179,59.5561 90.5179,59.6141" id="Fill-10" fill="#FFFFFF"></path>
                <path d="M94.3812,57.6267 L93.2662,54.8047 L92.2232,57.6267 L94.3812,57.6267 Z M96.7072,59.8897 C96.6702,59.9267 96.5772,59.9457 96.4252,59.9457 C96.3542,59.9457 96.1892,59.9317 95.9332,59.9067 C95.6772,59.8817 95.4912,59.8697 95.3762,59.8697 C95.3042,59.8697 95.0872,59.8867 94.7282,59.9227 C94.5832,59.9377 94.4572,59.9457 94.3482,59.9457 C94.2042,59.9457 94.1132,59.9267 94.0792,59.8897 C94.1512,59.8397 94.2222,59.7887 94.2952,59.7367 C94.5832,59.6717 94.8382,59.6397 95.0622,59.6397 C94.9832,59.3157 94.8602,58.9407 94.6952,58.5147 C94.5722,58.2127 94.4862,57.9847 94.4362,57.8347 L92.1422,57.8347 C91.9252,58.4697 91.7562,59.0717 91.6342,59.6417 C91.8802,59.6707 92.0612,59.6917 92.1772,59.7067 C92.3222,59.7727 92.4632,59.8337 92.6022,59.8907 C92.5732,59.9267 92.4942,59.9457 92.3632,59.9457 C92.3042,59.9457 92.1682,59.9317 91.9502,59.9067 C91.7342,59.8817 91.5752,59.8697 91.4732,59.8697 C91.3942,59.8697 91.1882,59.8867 90.8552,59.9227 C90.7182,59.9377 90.6072,59.9457 90.5202,59.9457 C90.3982,59.9457 90.3212,59.9267 90.2932,59.8897 C90.3502,59.8397 90.4142,59.7887 90.4862,59.7367 C90.7182,59.6717 90.9262,59.6397 91.1142,59.6397 C91.2872,59.2647 91.4142,58.9837 91.4932,58.7967 C91.6152,58.5227 91.7342,58.2307 91.8502,57.9217 L93.1582,54.5357 C93.0722,54.3257 93.0002,54.1507 92.9432,54.0127 C92.8562,53.8307 92.7732,53.6627 92.6942,53.5097 L93.3982,53.1937 C93.5052,53.5987 93.6322,54.0047 93.7762,54.4117 C93.8412,54.5777 93.9962,54.9757 94.2412,55.6077 L95.2122,58.0917 C95.3262,58.3937 95.4332,58.6557 95.5352,58.8707 C95.5772,58.9787 95.7032,59.2337 95.9102,59.6397 C96.0682,59.6397 96.2732,59.6757 96.5232,59.7487 C96.5882,59.7997 96.6502,59.8467 96.7072,59.8897 L96.7072,59.8897 Z" id="Fill-12" fill="#FFFFFF"></path>
                <path d="M103.1794,53.5405 C103.1794,53.6035 103.0904,53.6615 102.9154,53.7105 C102.7384,53.7585 102.5694,53.7835 102.4114,53.7835 C102.3464,54.2095 102.3024,54.6695 102.2814,55.1635 C102.2604,55.6575 102.2494,56.1865 102.2494,56.7495 L102.2494,59.9085 C102.2494,60.0095 102.2314,60.0595 102.1954,60.0595 C102.1654,60.0595 102.1354,60.0395 102.1014,60.0015 C102.0694,59.9615 102.0444,59.9295 102.0324,59.9095 L98.1904,54.5345 L98.1904,57.3345 L98.2144,58.3415 C98.2144,58.5505 98.2224,58.7445 98.2394,58.9255 C98.2584,59.1065 98.2894,59.3435 98.3334,59.6395 C98.5344,59.6475 98.6854,59.6575 98.7864,59.6725 C99.1044,59.7155 99.2634,59.7875 99.2634,59.8885 C99.2634,59.9395 99.2024,59.9645 99.0804,59.9645 C98.9634,59.9645 98.8254,59.9535 98.6624,59.9315 C98.4994,59.9095 98.3174,59.8875 98.1154,59.8655 C98.0574,59.8655 97.8734,59.8845 97.5624,59.9205 C97.4404,59.9345 97.3354,59.9425 97.2494,59.9425 C97.1344,59.9425 97.0764,59.9235 97.0764,59.8875 C97.0764,59.8145 97.1754,59.7535 97.3734,59.7065 C97.5704,59.6605 97.7134,59.6365 97.8004,59.6365 C97.8654,59.3035 97.9094,58.9745 97.9354,58.6495 C97.9604,58.3245 97.9734,57.9445 97.9734,57.5105 L97.9734,54.2685 C97.8434,54.0235 97.6274,53.8235 97.3254,53.6725 C97.2084,53.6145 97.1524,53.5575 97.1524,53.4985 C97.1524,53.4695 97.1874,53.4565 97.2594,53.4565 C97.2744,53.4565 97.4244,53.4795 97.7054,53.5255 C97.8144,53.5445 97.9184,53.5545 98.0204,53.5545 C98.1144,53.5545 98.1964,53.5405 98.2704,53.5135 L102.0324,58.7235 L102.0324,56.1455 C102.0324,55.7265 102.0194,55.3305 101.9984,54.9585 C101.9764,54.5875 101.9404,54.1955 101.8904,53.7835 C101.7664,53.7835 101.5914,53.7655 101.3594,53.7295 C101.1284,53.6935 101.0134,53.6275 101.0134,53.5325 C101.0134,53.4815 101.0744,53.4565 101.1964,53.4565 C101.2854,53.4565 101.4434,53.4725 101.6794,53.5045 C101.9134,53.5385 102.0674,53.5545 102.1394,53.5545 C102.2264,53.5545 102.3384,53.5445 102.4754,53.5245 C102.8004,53.4795 102.9814,53.4565 103.0164,53.4565 C103.1254,53.4565 103.1794,53.4835 103.1794,53.5405" id="Fill-14" fill="#FFFFFF"></path>
                <path d="M108.5925,56.6131 C108.5925,55.7051 108.3665,54.9851 107.9155,54.4531 C107.4635,53.9191 106.8585,53.6521 106.1015,53.6521 C105.8405,53.6521 105.5415,53.7001 105.2015,53.7931 C105.1975,54.3841 105.1945,54.9571 105.1945,55.5101 L105.1945,57.6451 C105.1945,58.5131 105.1975,59.1771 105.2015,59.6371 C105.5625,59.7241 105.8915,59.7671 106.1875,59.7671 C106.9375,59.7671 107.5265,59.4851 107.9525,58.9201 C108.3795,58.3541 108.5925,57.5861 108.5925,56.6131 M109.3145,56.6891 C109.3145,57.7041 109.0335,58.5071 108.4705,59.0941 C107.9075,59.6811 107.1615,59.9751 106.2305,59.9751 C106.0935,59.9751 105.9455,59.9641 105.7875,59.9421 C105.3235,59.8771 105.0715,59.8451 105.0285,59.8451 C104.8405,59.8451 104.6495,59.8581 104.4525,59.8861 C104.2545,59.9141 104.0435,59.9431 103.8205,59.9751 C103.6985,59.9751 103.6375,59.9351 103.6375,59.8541 C103.6375,59.7891 103.7445,59.7381 103.9615,59.7011 C104.1765,59.6651 104.3435,59.6481 104.4585,59.6481 C104.4665,59.6051 104.4685,59.3591 104.4685,58.9151 C104.4685,58.4701 104.4735,58.0891 104.4815,57.7711 C104.4815,57.0621 104.4795,56.3601 104.4765,55.6621 C104.4725,54.9651 104.4675,54.3381 104.4595,53.7821 C104.3015,53.7661 104.1565,53.7481 104.0265,53.7281 C103.7665,53.6841 103.6375,53.6221 103.6375,53.5431 C103.6375,53.4771 103.6985,53.4461 103.8215,53.4461 C103.9075,53.4461 104.0165,53.4521 104.1455,53.4681 C104.5355,53.5141 104.8195,53.5391 104.9995,53.5391 C105.1655,53.5391 105.3205,53.5311 105.4645,53.5171 C105.9545,53.4691 106.2185,53.4461 106.2535,53.4461 C107.2275,53.4461 107.9805,53.7251 108.5145,54.2831 C109.0485,54.8421 109.3145,55.6421 109.3145,56.6891" id="Fill-16" fill="#FFFFFF"></path>
                <path d="M122.1593,59.8993 C122.1593,59.9643 122.0723,59.9973 121.8953,59.9973 C121.7383,59.9973 121.5553,59.9823 121.3483,59.9533 C121.1413,59.9243 120.9073,59.8943 120.6493,59.8663 C120.5373,59.8663 120.2513,59.8963 119.7883,59.9593 C119.6043,59.9843 119.4513,59.9973 119.3323,59.9973 C119.1763,59.9973 119.0973,59.9723 119.0973,59.9223 C119.0973,59.8043 119.2853,59.7103 119.6633,59.6413 C119.7833,59.6213 119.9733,59.6013 120.2313,59.5813 C120.2313,59.2293 120.2263,58.7893 120.2213,58.2613 C120.2133,57.7333 120.2123,57.4653 120.2123,57.4553 L119.8293,52.3183 L117.6443,58.6713 C117.6173,58.7973 117.5753,58.8593 117.5203,58.8593 C117.4653,58.8593 117.4063,58.7973 117.3423,58.6713 L115.0123,53.5743 L114.8063,55.9903 C114.8063,56.4063 114.8013,56.8543 114.7913,57.3353 C114.7393,58.5273 114.7143,59.2753 114.7143,59.5813 C114.9713,59.5903 115.1613,59.6043 115.2823,59.6233 C115.6763,59.6783 115.8753,59.7703 115.8753,59.8993 C115.8753,59.9643 115.7883,59.9973 115.6133,59.9973 C115.4923,59.9973 115.2713,59.9753 114.9483,59.9323 C114.6263,59.8873 114.4233,59.8663 114.3413,59.8663 C114.2223,59.8663 114.0213,59.8873 113.7403,59.9323 C113.4593,59.9753 113.2913,59.9973 113.2353,59.9973 C113.0873,59.9973 113.0143,59.9643 113.0143,59.8993 C113.0143,59.7983 113.1413,59.7193 113.3933,59.6643 C113.6473,59.6083 113.8443,59.5813 113.9813,59.5813 C114.1003,59.0913 114.2073,58.5143 114.3003,57.8473 C114.3733,57.3583 114.4423,56.7843 114.5073,56.1283 L114.7983,53.0593 C114.6313,52.5813 114.4323,52.2593 114.2033,52.0933 C113.9923,51.9993 113.7893,51.9003 113.5953,51.7973 C113.5953,51.7213 113.6793,51.6833 113.8443,51.6833 C113.9283,51.6833 114.0863,51.6993 114.3223,51.7293 C114.5563,51.7593 114.7293,51.7743 114.8413,51.7743 C114.9613,51.7743 115.0573,51.7593 115.1323,51.7273 C115.2693,52.1163 115.4003,52.4553 115.5193,52.7463 C115.6393,53.0353 115.7743,53.3433 115.9213,53.6663 L117.7263,57.5643 L119.7543,51.7313 C119.8823,51.7693 120.0423,51.7893 120.2363,51.7893 C120.3183,51.7893 120.6393,51.7593 121.1993,51.7003 C121.2713,51.7093 121.3453,51.7173 121.4193,51.7273 C121.4193,51.8963 121.3013,51.9953 121.0683,52.0243 C120.8353,52.0513 120.6883,52.0763 120.6243,52.0933 L120.9583,57.1653 C120.9583,57.5163 120.9913,57.9043 121.0553,58.3303 C121.1193,58.7583 121.1783,59.1743 121.2353,59.5813 C121.4633,59.5813 121.6763,59.6113 121.8683,59.6713 C122.0633,59.7313 122.1593,59.8073 122.1593,59.8993" id="Fill-18" fill="#FFFFFF"></path>
                <path d="M126.2867,57.6267 L125.1717,54.8047 L124.1287,57.6267 L126.2867,57.6267 Z M128.6127,59.8897 C128.5767,59.9267 128.4827,59.9457 128.3307,59.9457 C128.2597,59.9457 128.0947,59.9317 127.8387,59.9067 C127.5827,59.8817 127.3967,59.8697 127.2827,59.8697 C127.2097,59.8697 126.9927,59.8867 126.6337,59.9227 C126.4897,59.9377 126.3627,59.9457 126.2537,59.9457 C126.1107,59.9457 126.0207,59.9267 125.9827,59.8897 C126.0567,59.8397 126.1287,59.7887 126.1997,59.7367 C126.4897,59.6717 126.7437,59.6397 126.9687,59.6397 C126.8897,59.3157 126.7657,58.9407 126.6007,58.5147 C126.4777,58.2127 126.3917,57.9847 126.3407,57.8347 L124.0477,57.8347 C123.8327,58.4697 123.6627,59.0717 123.5397,59.6417 C123.7847,59.6707 123.9677,59.6917 124.0837,59.7067 C124.2287,59.7727 124.3687,59.8337 124.5077,59.8907 C124.4787,59.9267 124.3997,59.9457 124.2677,59.9457 C124.2107,59.9457 124.0737,59.9317 123.8567,59.9067 C123.6397,59.8817 123.4807,59.8697 123.3787,59.8697 C123.2997,59.8697 123.0937,59.8867 122.7617,59.9227 C122.6237,59.9377 122.5127,59.9457 122.4257,59.9457 C122.3027,59.9457 122.2267,59.9267 122.1987,59.8897 C122.2557,59.8397 122.3217,59.7887 122.3927,59.7367 C122.6237,59.6717 122.8317,59.6397 123.0197,59.6397 C123.1927,59.2647 123.3197,58.9837 123.3997,58.7967 C123.5207,58.5227 123.6407,58.2307 123.7567,57.9217 L125.0637,54.5357 C124.9777,54.3257 124.9057,54.1507 124.8467,54.0127 C124.7617,53.8307 124.6787,53.6627 124.5997,53.5097 L125.3037,53.1937 C125.4117,53.5987 125.5387,54.0047 125.6827,54.4117 C125.7467,54.5777 125.9017,54.9757 126.1477,55.6077 L127.1177,58.0917 C127.2327,58.3937 127.3387,58.6557 127.4407,58.8707 C127.4837,58.9787 127.6087,59.2337 127.8167,59.6397 C127.9737,59.6397 128.1787,59.6757 128.4287,59.7487 C128.4937,59.7997 128.5557,59.8467 128.6127,59.8897 L128.6127,59.8897 Z" id="Fill-20" fill="#FFFFFF"></path>
                <path d="M134.1982,53.565 C134.1982,53.614 134.1122,53.664 133.9402,53.715 C133.7312,53.757 133.6152,53.782 133.5952,53.791 C133.4432,53.985 133.2922,54.193 133.1412,54.415 C133.0402,54.574 132.9082,54.794 132.7422,55.075 L131.7152,56.729 L131.7152,57.901 C131.7152,58.17 131.7252,58.51 131.7422,58.922 C131.7602,59.335 131.7692,59.577 131.7692,59.65 C131.9432,59.665 132.0722,59.679 132.1582,59.692 C132.4262,59.736 132.5572,59.806 132.5572,59.899 C132.5572,59.942 132.4932,59.964 132.3642,59.964 C132.2852,59.964 132.1252,59.948 131.8902,59.915 C131.6512,59.883 131.4862,59.866 131.3942,59.866 C131.2702,59.866 131.0872,59.883 130.8372,59.915 C130.5902,59.948 130.4392,59.964 130.3892,59.964 C130.2602,59.964 130.1952,59.939 130.1952,59.888 C130.1952,59.802 130.3282,59.733 130.5952,59.684 C130.6822,59.669 130.8192,59.654 131.0062,59.639 C131.0352,59.344 131.0512,59.075 131.0602,58.833 C131.0682,58.592 131.0702,58.279 131.0702,57.898 L131.0702,56.783 L129.3342,53.786 C129.2122,53.773 129.1002,53.755 129.0002,53.734 C128.8132,53.691 128.7192,53.627 128.7192,53.542 C128.7192,53.491 128.7842,53.467 128.9152,53.467 C128.9942,53.467 129.1372,53.478 129.3462,53.503 C129.5562,53.525 129.6972,53.539 129.7682,53.539 C129.8402,53.539 129.9752,53.525 130.1742,53.503 C130.3732,53.478 130.5152,53.467 130.6022,53.467 C130.7252,53.467 130.7872,53.491 130.7872,53.542 C130.7872,53.627 130.6822,53.691 130.4722,53.734 C130.3422,53.755 130.2162,53.773 130.0932,53.786 L131.6132,56.499 L132.3912,55.206 C132.5122,54.997 132.6302,54.772 132.7452,54.526 C132.8312,54.346 132.9342,54.101 133.0552,53.791 C132.8822,53.77 132.7122,53.745 132.5452,53.715 C132.4072,53.679 132.3402,53.625 132.3402,53.553 C132.3402,53.496 132.4292,53.467 132.6082,53.467 C132.7252,53.467 132.8402,53.473 132.9572,53.487 C133.0712,53.5 133.1712,53.51 133.2582,53.517 C133.3452,53.517 133.4782,53.508 133.6582,53.491 C133.8372,53.476 133.9432,53.467 133.9722,53.467 C134.1242,53.467 134.1982,53.499 134.1982,53.565" id="Fill-22" fill="#FFFFFF"></path>
                <path d="M138.2453,57.6267 L137.1303,54.8047 L136.0863,57.6267 L138.2453,57.6267 Z M140.5703,59.8897 C140.5343,59.9267 140.4413,59.9457 140.2883,59.9457 C140.2163,59.9457 140.0533,59.9317 139.7973,59.9067 C139.5403,59.8817 139.3553,59.8697 139.2403,59.8697 C139.1683,59.8697 138.9513,59.8867 138.5913,59.9227 C138.4463,59.9377 138.3213,59.9457 138.2123,59.9457 C138.0683,59.9457 137.9773,59.9267 137.9433,59.8897 C138.0133,59.8397 138.0873,59.7887 138.1583,59.7367 C138.4463,59.6717 138.7023,59.6397 138.9273,59.6397 C138.8473,59.3157 138.7243,58.9407 138.5583,58.5147 C138.4353,58.2127 138.3503,57.9847 138.3003,57.8347 L136.0053,57.8347 C135.7893,58.4697 135.6203,59.0717 135.4983,59.6417 C135.7443,59.6707 135.9253,59.6917 136.0413,59.7067 C136.1863,59.7727 136.3273,59.8337 136.4663,59.8907 C136.4363,59.9267 136.3563,59.9457 136.2263,59.9457 C136.1693,59.9457 136.0313,59.9317 135.8143,59.9067 C135.5983,59.8817 135.4393,59.8697 135.3383,59.8697 C135.2583,59.8697 135.0523,59.8867 134.7203,59.9227 C134.5833,59.9377 134.4703,59.9457 134.3833,59.9457 C134.2613,59.9457 134.1853,59.9267 134.1563,59.8897 C134.2133,59.8397 134.2793,59.7887 134.3503,59.7367 C134.5813,59.6717 134.7903,59.6397 134.9783,59.6397 C135.1523,59.2647 135.2773,58.9837 135.3573,58.7967 C135.4793,58.5227 135.5983,58.2307 135.7143,57.9217 L137.0223,54.5357 C136.9363,54.3257 136.8643,54.1507 136.8073,54.0127 C136.7203,53.8307 136.6373,53.6627 136.5583,53.5097 L137.2613,53.1937 C137.3703,53.5987 137.4963,54.0047 137.6403,54.4117 C137.7043,54.5777 137.8603,54.9757 138.1053,55.6077 L139.0763,58.0917 C139.1913,58.3937 139.2973,58.6557 139.3983,58.8707 C139.4413,58.9787 139.5673,59.2337 139.7743,59.6397 C139.9323,59.6397 140.1363,59.6757 140.3883,59.7487 C140.4523,59.7997 140.5123,59.8467 140.5703,59.8897 L140.5703,59.8897 Z" id="Fill-24" fill="#FFFFFF"></path>
                <path d="M147.0423,53.5405 C147.0423,53.6035 146.9553,53.6615 146.7783,53.7105 C146.6013,53.7585 146.4343,53.7835 146.2753,53.7835 C146.2103,54.2095 146.1673,54.6695 146.1453,55.1635 C146.1233,55.6575 146.1143,56.1865 146.1143,56.7495 L146.1143,59.9085 C146.1143,60.0095 146.0963,60.0595 146.0583,60.0595 C146.0293,60.0595 145.9983,60.0395 145.9663,60.0015 C145.9333,59.9615 145.9103,59.9295 145.8953,59.9095 L142.0553,54.5345 L142.0553,57.3345 L142.0773,58.3415 C142.0773,58.5505 142.0853,58.7445 142.1053,58.9255 C142.1223,59.1065 142.1513,59.3435 142.1973,59.6395 C142.3973,59.6475 142.5493,59.6575 142.6523,59.6725 C142.9683,59.7155 143.1263,59.7875 143.1263,59.8885 C143.1263,59.9395 143.0653,59.9645 142.9443,59.9645 C142.8283,59.9645 142.6883,59.9535 142.5263,59.9315 C142.3633,59.9095 142.1803,59.8875 141.9793,59.8655 C141.9223,59.8655 141.7373,59.8845 141.4263,59.9205 C141.3033,59.9345 141.1993,59.9425 141.1123,59.9425 C140.9983,59.9425 140.9393,59.9235 140.9393,59.8875 C140.9393,59.8145 141.0393,59.7535 141.2363,59.7065 C141.4333,59.6605 141.5783,59.6365 141.6633,59.6365 C141.7293,59.3035 141.7723,58.9745 141.7993,58.6495 C141.8243,58.3245 141.8373,57.9445 141.8373,57.5105 L141.8373,54.2685 C141.7073,54.0235 141.4913,53.8235 141.1883,53.6725 C141.0713,53.6145 141.0163,53.5575 141.0163,53.4985 C141.0163,53.4695 141.0513,53.4565 141.1243,53.4565 C141.1373,53.4565 141.2873,53.4795 141.5683,53.5255 C141.6773,53.5445 141.7823,53.5545 141.8853,53.5545 C141.9773,53.5545 142.0603,53.5405 142.1343,53.5135 L145.8953,58.7235 L145.8953,56.1455 C145.8953,55.7265 145.8833,55.3305 145.8623,54.9585 C145.8403,54.5875 145.8043,54.1955 145.7543,53.7835 C145.6323,53.7835 145.4553,53.7655 145.2223,53.7295 C144.9933,53.6935 144.8773,53.6275 144.8773,53.5325 C144.8773,53.4815 144.9383,53.4565 145.0613,53.4565 C145.1483,53.4565 145.3083,53.4725 145.5423,53.5045 C145.7773,53.5385 145.9313,53.5545 146.0043,53.5545 C146.0893,53.5545 146.2013,53.5445 146.3393,53.5245 C146.6643,53.4795 146.8453,53.4565 146.8803,53.4565 C146.9883,53.4565 147.0423,53.4835 147.0423,53.5405" id="Fill-26" fill="#FFFFFF"></path>
                <path d="M148.5422,53.8466 L148.5422,54.3146 C148.6252,54.3176 148.7052,54.3026 148.7832,54.2716 C148.8612,54.2396 148.8992,54.1646 148.8992,54.0446 C148.8992,53.9836 148.8812,53.9316 148.8412,53.8886 C148.8002,53.8466 148.7362,53.8246 148.6502,53.8246 C148.6192,53.8246 148.5832,53.8316 148.5422,53.8466 L148.5422,53.8466 Z M148.5422,54.3686 L148.5422,54.6676 C148.5422,54.7236 148.5462,54.7646 148.5532,54.7896 C148.5632,54.8156 148.5782,54.8306 148.6002,54.8376 C148.6222,54.8446 148.6582,54.8486 148.7072,54.8506 L148.7072,54.8976 L148.2292,54.8976 L148.2292,54.8506 C148.2832,54.8506 148.3182,54.8456 148.3412,54.8356 C148.3622,54.8246 148.3742,54.8086 148.3802,54.7856 C148.3852,54.7636 148.3872,54.7236 148.3872,54.6676 L148.3872,53.9806 C148.3872,53.9286 148.3812,53.8916 148.3722,53.8676 C148.3632,53.8426 148.3472,53.8286 148.3272,53.8206 C148.3052,53.8136 148.2722,53.8096 148.2292,53.8096 L148.2292,53.7706 L148.5612,53.7706 C148.6552,53.7706 148.7252,53.7736 148.7742,53.7776 C148.8202,53.7816 148.8642,53.7936 148.9022,53.8126 C148.9402,53.8286 148.9772,53.8576 149.0142,53.8976 C149.0502,53.9376 149.0682,53.9916 149.0682,54.0606 C149.0682,54.1326 149.0452,54.1956 148.9962,54.2466 C148.9482,54.2986 148.8752,54.3286 148.7772,54.3406 L148.9942,54.6326 C148.9992,54.6386 149.0042,54.6456 149.0092,54.6566 C149.0542,54.7176 149.0902,54.7616 149.1192,54.7866 C149.1482,54.8116 149.1742,54.8286 149.2002,54.8366 C149.2242,54.8436 149.2512,54.8486 149.2802,54.8506 L149.2802,54.8976 L149.0122,54.8976 C149.0052,54.8836 149.0002,54.8756 148.9992,54.8736 C148.9952,54.8656 148.9872,54.8546 148.9772,54.8416 C148.9652,54.8286 148.9542,54.8126 148.9392,54.7946 C148.9352,54.7856 148.9312,54.7766 148.9212,54.7656 C148.9132,54.7576 148.9072,54.7516 148.9072,54.7476 L148.6312,54.3686 L148.5422,54.3686 Z M148.6622,53.4436 C148.5402,53.4436 148.4242,53.4676 148.3132,53.5126 C148.2022,53.5606 148.1042,53.6256 148.0192,53.7106 C147.9322,53.7946 147.8672,53.8936 147.8202,54.0056 C147.7722,54.1176 147.7472,54.2356 147.7472,54.3596 C147.7472,54.5256 147.7892,54.6786 147.8722,54.8186 C147.9542,54.9606 148.0652,55.0716 148.2062,55.1546 C148.3472,55.2366 148.5002,55.2776 148.6632,55.2776 C148.8272,55.2776 148.9802,55.2366 149.1242,55.1536 C149.2642,55.0716 149.3772,54.9586 149.4602,54.8186 C149.5402,54.6786 149.5822,54.5256 149.5822,54.3596 C149.5822,54.2316 149.5592,54.1126 149.5112,54.0016 C149.4652,53.8916 149.3992,53.7946 149.3142,53.7096 C149.2292,53.6256 149.1302,53.5606 149.0182,53.5126 C148.9042,53.4676 148.7862,53.4436 148.6622,53.4436 L148.6622,53.4436 Z M148.6622,53.3696 C148.7992,53.3696 148.9262,53.3946 149.0462,53.4456 C149.1662,53.4946 149.2712,53.5646 149.3632,53.6566 C149.4552,53.7466 149.5282,53.8536 149.5792,53.9746 C149.6292,54.0946 149.6562,54.2226 149.6562,54.3586 C149.6562,54.5376 149.6112,54.7036 149.5222,54.8556 C149.4332,55.0086 149.3122,55.1286 149.1602,55.2176 C149.0092,55.3066 148.8422,55.3506 148.6632,55.3506 C148.5292,55.3506 148.4022,55.3246 148.2812,55.2736 C148.1602,55.2216 148.0542,55.1506 147.9642,55.0596 C147.8732,54.9686 147.8022,54.8616 147.7512,54.7396 C147.7012,54.6176 147.6752,54.4906 147.6752,54.3586 C147.6752,54.1786 147.7192,54.0136 147.8082,53.8626 C147.8962,53.7106 148.0172,53.5906 148.1702,53.5026 C148.3232,53.4146 148.4862,53.3696 148.6622,53.3696 L148.6622,53.3696 Z" id="Fill-28" fill="#FFFFFF"></path>
                <path d="M50.9051,53.0841 C50.9051,53.2331 50.9021,53.4101 50.8971,53.6121 C50.8921,53.8161 50.8871,53.9951 50.8831,54.1511 C50.8911,54.2301 50.8961,54.3391 50.9001,54.4781 C50.9031,54.6161 50.9051,54.6961 50.9051,54.7191 C50.9051,54.8601 50.8981,54.9381 50.8831,54.9541 C50.8191,54.8351 50.7581,54.7121 50.7011,54.5851 C50.6861,54.4881 50.6721,54.3341 50.6581,54.1251 C50.3781,54.0401 50.0601,53.9761 49.7061,53.9301 C49.3501,53.8851 49.0151,53.8621 48.7001,53.8621 C48.7001,54.1531 48.6911,54.5181 48.6741,54.9571 C48.6571,55.3971 48.6481,55.6201 48.6481,55.6271 L48.6481,57.9441 C48.6481,58.1361 48.6571,58.4191 48.6741,58.7951 C48.6911,59.1701 48.7001,59.4581 48.7001,59.6551 C48.8711,59.6551 49.0701,59.6721 49.2991,59.7051 C49.5271,59.7371 49.6421,59.8041 49.6421,59.9051 C49.6421,59.9411 49.5711,59.9591 49.4291,59.9591 C49.3581,59.9591 49.1831,59.9471 48.9081,59.9231 C48.6301,59.9001 48.4381,59.8871 48.3311,59.8871 C48.2611,59.8871 48.0261,59.9051 47.6281,59.9381 C47.4721,59.9511 47.3411,59.9591 47.2331,59.9591 C47.0991,59.9591 47.0321,59.9411 47.0321,59.9061 C47.0321,59.8361 47.1321,59.7781 47.3361,59.7331 C47.5371,59.6861 47.7451,59.6631 47.9581,59.6631 C47.9581,59.4641 47.9691,59.1781 47.9921,58.8021 C48.0141,58.4261 48.0251,58.1421 48.0251,57.9491 L48.0251,55.6291 C48.0251,55.4381 48.0141,55.1471 47.9921,54.7561 C47.9691,54.3661 47.9581,54.0681 47.9581,53.8621 C47.5961,53.8621 47.2641,53.8821 46.9641,53.9201 C46.6631,53.9581 46.3601,54.0261 46.0551,54.1251 C46.0421,54.4251 46.0241,54.6281 46.0031,54.7321 C45.9521,54.8091 45.9001,54.8831 45.8431,54.9541 C45.8221,54.9461 45.8071,54.9021 45.8001,54.8221 C45.7941,54.7401 45.7901,54.6861 45.7901,54.6581 C45.7901,54.4751 45.7921,54.3571 45.7951,54.3051 C45.7991,54.2511 45.8071,54.2051 45.8221,54.1621 C45.8281,54.1001 45.8251,53.9611 45.8111,53.7471 C45.7971,53.5321 45.7831,53.3201 45.7691,53.1091 C45.8041,53.1231 45.8461,53.1341 45.8961,53.1411 C45.9321,53.2611 45.9671,53.3771 46.0031,53.4911 C46.7471,53.6041 47.5241,53.6601 48.3311,53.6601 C49.1471,53.6601 49.9271,53.6041 50.6711,53.4901 C50.6851,53.3181 50.7401,53.1831 50.8311,53.0841 L50.9051,53.0841 Z" id="Fill-30" fill="#FFFFFF"></path>
                <path d="M44.0385,57.6267 L42.9235,54.8047 L41.8795,57.6267 L44.0385,57.6267 Z M46.3635,59.8897 C46.3275,59.9267 46.2345,59.9457 46.0815,59.9457 C46.0095,59.9457 45.8465,59.9317 45.5905,59.9067 C45.3335,59.8817 45.1485,59.8697 45.0335,59.8697 C44.9615,59.8697 44.7445,59.8867 44.3845,59.9227 C44.2395,59.9377 44.1145,59.9457 44.0055,59.9457 C43.8615,59.9457 43.7705,59.9267 43.7365,59.8897 C43.8065,59.8397 43.8805,59.7887 43.9515,59.7367 C44.2395,59.6717 44.4955,59.6397 44.7205,59.6397 C44.6405,59.3157 44.5175,58.9407 44.3515,58.5147 C44.2285,58.2127 44.1435,57.9847 44.0935,57.8347 L41.7985,57.8347 C41.5825,58.4697 41.4135,59.0717 41.2915,59.6417 C41.5375,59.6707 41.7185,59.6917 41.8345,59.7067 C41.9795,59.7727 42.1205,59.8337 42.2595,59.8907 C42.2295,59.9267 42.1495,59.9457 42.0195,59.9457 C41.9625,59.9457 41.8245,59.9317 41.6075,59.9067 C41.3915,59.8817 41.2325,59.8697 41.1315,59.8697 C41.0515,59.8697 40.8455,59.8867 40.5135,59.9227 C40.3765,59.9377 40.2635,59.9457 40.1765,59.9457 C40.0545,59.9457 39.9785,59.9267 39.9495,59.8897 C40.0065,59.8397 40.0725,59.7887 40.1435,59.7367 C40.3745,59.6717 40.5835,59.6397 40.7715,59.6397 C40.9455,59.2647 41.0715,58.9837 41.1505,58.7967 C41.2725,58.5227 41.3915,58.2307 41.5075,57.9217 L42.8155,54.5357 C42.7295,54.3257 42.6575,54.1507 42.6005,54.0127 C42.5135,53.8307 42.4305,53.6627 42.3515,53.5097 L43.0545,53.1937 C43.1635,53.5987 43.2895,54.0047 43.4335,54.4117 C43.4975,54.5777 43.6535,54.9757 43.8985,55.6077 L44.8695,58.0917 C44.9845,58.3937 45.0905,58.6557 45.1915,58.8707 C45.2345,58.9787 45.3605,59.2337 45.5675,59.6397 C45.7255,59.6397 45.9295,59.6757 46.1815,59.7487 C46.2455,59.7997 46.3055,59.8467 46.3635,59.8897 L46.3635,59.8897 Z" id="Fill-32" fill="#FFFFFF"></path>
                <path d="M62.6,13.0314 C63.24,13.3104 63.795,13.6534 64.248,14.0514 C64.705,14.4534 65.076,14.8734 65.351,15.2984 L65.58,15.6564 C65.781,15.9744 65.956,16.2494 66.131,16.4864 L66.889,16.1284 L65.665,11.1764 L46.897,11.2294 L46.769,12.0644 C47.247,12.2154 47.656,12.4964 47.985,12.9014 C48.298,13.2884 48.465,13.9774 48.465,14.8964 L48.465,39.6694 C48.465,40.5874 48.299,41.2774 47.985,41.6644 C47.667,42.0554 47.261,42.3504 46.742,42.5664 L46.906,43.3884 L65.691,43.3884 L66.841,38.4114 L66.049,38.1104 C65.878,38.4254 65.642,38.8234 65.348,39.2944 C65.075,39.7294 64.707,40.1454 64.254,40.5304 C63.798,40.9174 63.242,41.2554 62.6,41.5334 C61.975,41.8054 61.209,41.9434 60.321,41.9434 L51.563,41.9684 L51.538,27.7364 L57.728,27.7364 C58.646,27.7364 59.336,27.9024 59.722,28.2164 C60.115,28.5364 60.41,28.9424 60.625,29.4594 L61.447,29.2904 L61.395,24.7214 L60.56,24.5974 C60.409,25.0744 60.127,25.4834 59.722,25.8124 C59.336,26.1254 58.647,26.2924 57.727,26.2924 L51.563,26.3164 L51.538,12.6224 L60.322,12.6224 C61.207,12.6224 61.973,12.7594 62.6,13.0314" id="Fill-34" fill="#FFFFFF"></path>
                <path d="M104.52,39.2943 C104.245,39.7343 103.875,40.1593 103.42,40.5583 C102.966,40.9573 102.412,41.3003 101.772,41.5783 C101.148,41.8503 100.381,41.9883 99.494,41.9883 L75.577,42.0143 L75.577,14.8963 C75.577,13.9773 75.743,13.2873 76.057,12.9013 C76.375,12.5093 76.782,12.2143 77.299,11.9993 L77.131,11.1773 L70.908,11.2293 L70.782,12.0643 C71.26,12.2153 71.669,12.4973 71.998,12.9013 C72.312,13.2883 72.478,13.9783 72.478,14.8963 L72.478,39.6693 C72.478,40.5873 72.312,41.2773 71.998,41.6633 C71.679,42.0553 71.273,42.3503 70.755,42.5663 L70.92,43.3883 L104.864,43.3883 L106.014,38.4113 L105.222,38.1103 C105.05,38.4263 104.813,38.8253 104.52,39.2943" id="Fill-36" fill="#FFFFFF"></path>
                <path d="M102.2996,11.2296 L102.1686,12.0626 C102.4176,12.1456 102.7026,12.2596 103.0176,12.4036 C103.3006,12.5316 103.5706,12.7096 103.8196,12.9306 C104.0606,13.1476 104.2676,13.4206 104.4346,13.7416 C104.5936,14.0476 104.6746,14.4366 104.6746,14.8956 L104.6746,25.3596 C104.6746,26.8306 104.5066,28.1816 104.1766,29.3746 C103.8536,30.5426 103.3276,31.5596 102.6136,32.3986 C101.9036,33.2346 100.9836,33.8916 99.8786,34.3536 C98.7616,34.8206 97.3686,35.0566 95.7376,35.0566 C94.6336,35.0566 93.5566,34.8696 92.5386,34.5016 C91.5346,34.1406 90.6356,33.5596 89.8676,32.7776 C89.0966,31.9926 88.4766,30.9856 88.0246,29.7826 C87.5686,28.5736 87.3376,27.0856 87.3376,25.3596 L87.3376,14.8506 C87.3376,13.9356 87.5026,13.2556 87.8136,12.8846 C88.1306,12.5046 88.5386,12.2156 89.0596,11.9996 L88.8926,11.1776 L82.6686,11.2296 L82.5366,12.0626 C82.9906,12.2136 83.3956,12.4976 83.7416,12.9076 C84.0666,13.2936 84.2386,13.9806 84.2386,14.8956 L84.2386,25.3596 C84.2386,26.6716 84.4006,28.0096 84.7206,29.3346 C85.0476,30.6906 85.6566,31.9386 86.5276,33.0416 C87.4026,34.1526 88.6026,35.0616 90.0926,35.7446 C91.5766,36.4246 93.4756,36.7696 95.7376,36.7696 C99.1046,36.7696 101.7066,35.7956 103.4736,33.8736 C105.2296,31.9606 106.1196,29.0966 106.1196,25.3596 L106.1196,14.8956 C106.1196,14.4346 106.1996,14.0466 106.3586,13.7416 C106.5266,13.4186 106.7336,13.1466 106.9736,12.9316 C107.2206,12.7116 107.4956,12.5346 107.7916,12.4056 L108.0376,12.3006 C108.2856,12.1946 108.5196,12.0956 108.7316,11.9806 L108.5236,11.1776 L102.2996,11.2296 Z" id="Fill-38" fill="#FFFFFF"></path>
                <path d="M136.2669,41.4824 C135.7879,40.9024 135.2799,40.1944 134.7539,39.3764 L126.1399,26.1334 L132.7869,15.7684 C133.4229,14.7864 134.0869,13.9464 134.7619,13.2714 C135.3749,12.6584 135.9779,12.2184 136.5049,12.0004 L136.3379,11.1774 L130.1139,11.2294 L129.9819,12.0624 C130.2089,12.1384 130.4719,12.2774 130.7639,12.4764 C131.0249,12.6544 131.2379,12.9044 131.3959,13.2214 C131.5529,13.5344 131.6199,13.9164 131.5949,14.3554 C131.5699,14.7914 131.3459,15.3594 130.9509,15.9924 L125.3169,24.7794 L118.8789,14.8264 C118.4379,14.1514 118.2569,13.5294 118.3439,12.9754 C118.4219,12.4754 118.6439,12.1744 119.0659,11.9994 L118.8979,11.1774 L112.6739,11.2294 L112.5489,12.0644 C113.0239,12.2144 113.4919,12.5784 113.9389,13.1434 C114.4379,13.7754 114.9719,14.5244 115.5239,15.3674 L123.4679,27.5824 L116.2399,38.7964 C115.6039,39.7794 114.9389,40.6194 114.2649,41.2944 C113.6519,41.9074 113.0489,42.3474 112.5219,42.5654 L112.6889,43.3884 L118.9129,43.3364 L119.0449,42.5034 C118.8179,42.4274 118.5549,42.2884 118.2629,42.0894 C118.0009,41.9104 117.7879,41.6604 117.6299,41.3434 C117.4739,41.0314 117.4069,40.6494 117.4319,40.2094 C117.4569,39.7674 117.6739,39.2164 118.0759,38.5734 L124.2479,28.9354 L131.2659,39.7394 C131.7069,40.4134 131.8859,41.0364 131.8009,41.5884 C131.7229,42.0894 131.4999,42.3904 131.0789,42.5664 L131.2439,43.3884 L137.4589,43.3884 L137.8319,43.3364 L137.9469,42.6184 L137.6019,42.5034 C137.1499,42.3524 136.7009,42.0084 136.2669,41.4824" id="Fill-40" fill="#FFFFFF"></path>
                <path d="M182.5342,53.7938 C180.2152,53.7938 178.1022,53.4418 176.2542,52.7488 C174.4002,52.0538 172.6732,51.0838 171.1212,49.8658 C169.5592,48.6388 168.0882,47.1528 166.7482,45.4478 C165.3932,43.7258 164.0722,41.8288 162.8192,39.8098 C161.5672,37.7928 160.2922,35.6098 159.0302,33.3238 C157.7442,30.9958 156.4422,28.7318 155.1572,26.5908 L162.1632,15.8178 C162.7992,14.8638 163.4652,14.0288 164.1452,13.3358 C164.7582,12.7078 165.3592,12.2618 165.8842,12.0448 L165.7172,11.2218 L159.4022,11.2738 L159.2512,12.0998 C159.5882,12.2298 159.9712,12.4808 160.3912,12.8458 C160.7532,13.1608 160.9292,13.5828 160.9292,14.1358 C160.9292,14.7258 160.6992,15.3618 160.2422,16.0348 L154.3062,25.1698 C151.8752,21.2108 149.5682,17.7048 147.4422,14.7428 C145.1972,11.6158 142.9202,8.9818 140.6732,6.9148 C138.4072,4.8308 136.0082,3.2528 133.5412,2.2238 C131.1082,1.2088 128.3842,0.6948 125.4472,0.6948 L124.7782,0.6988 L124.8422,2.1578 L125.2512,2.1578 C127.8052,2.1578 130.1122,2.5538 132.1062,3.3348 C134.1082,4.1178 135.9322,5.1838 137.5262,6.5028 C139.1322,7.8318 140.6032,9.3928 141.9012,11.1418 C143.2152,12.9148 144.4622,14.7978 145.6092,16.7368 C146.7542,18.6748 147.8872,20.6858 148.9752,22.7128 C150.0442,24.7028 151.1482,26.5648 152.2622,28.2538 L145.3522,38.7938 C144.6842,39.8098 144.0112,40.6668 143.3502,41.3418 C142.7532,41.9518 142.1652,42.3728 141.6502,42.5588 L141.8002,43.3878 L148.0672,43.3358 L148.1812,42.4978 C147.8302,42.3968 147.4522,42.1728 147.0572,41.8308 C146.7162,41.5348 146.5432,41.0948 146.5412,40.5598 C146.5682,40.2598 146.6252,39.9278 146.7102,39.5738 C146.7852,39.2598 146.9572,38.9138 147.2302,38.5318 L153.0652,29.5878 C154.2992,31.7218 155.5202,33.7968 156.7002,35.7658 C158.0112,37.9568 159.3802,40.0448 160.7682,41.9698 C162.1592,43.8998 163.6392,45.6978 165.1662,47.3148 C166.7042,48.9428 168.3702,50.3648 170.1172,51.5388 C171.8732,52.7198 173.7992,53.6488 175.8452,54.3008 C177.8942,54.9518 180.1452,55.2828 182.5342,55.2828 L183.0062,55.2828 L182.9442,53.7938 L182.5342,53.7938 Z" id="Fill-42" fill="#FFFFFF"></path>
                <g id="Group-46" transform="translate(169.4465, 11.1769)">
                    <mask id="mask-4" fill="white">
                        <use xlink:href="#path-3"></use>
                    </mask>
                    <g id="Clip-45"></g>
                    <path d="M18.605,28.118 C18.332,28.553 17.965,28.969 17.511,29.354 C17.055,29.741 16.499,30.079 15.858,30.357 C15.233,30.629 14.466,30.766 13.578,30.766 L4.821,30.791 L4.795,16.56 L10.986,16.56 C11.903,16.56 12.593,16.726 12.98,17.04 C13.372,17.358 13.667,17.764 13.882,18.282 L14.704,18.114 L14.652,13.544 L13.817,13.42 C13.666,13.898 13.384,14.307 12.98,14.635 C12.594,14.949 11.904,15.115 10.984,15.115 L4.82,15.14 L4.795,1.445 L13.579,1.445 C14.464,1.445 15.231,1.583 15.858,1.855 C16.496,2.133 17.051,2.476 17.505,2.875 C17.962,3.277 18.334,3.697 18.608,4.122 L18.837,4.48 C19.039,4.798 19.213,5.073 19.388,5.309 L20.147,4.952 L18.922,0 L0.155,0.053 L0.027,0.888 C0.504,1.038 0.913,1.32 1.242,1.724 C1.556,2.112 1.722,2.802 1.722,3.719 L1.722,28.493 C1.722,29.411 1.556,30.1 1.243,30.486 C0.924,30.878 0.518,31.174 0,31.389 L0.164,32.211 L18.949,32.211 L20.099,27.235 L19.307,26.934 C19.135,27.249 18.899,27.647 18.605,28.118" id="Fill-44" fill="#FFFFFF" mask="url(#mask-4)"></path>
                </g>
                <g id="Group-49">
                    <mask id="mask-6" fill="white">
                        <use xlink:href="#path-5"></use>
                    </mask>
                    <g id="Clip-48"></g>
                    <path d="M36.0428,6.5864 C35.7058,6.2614 35.3478,5.9404 34.9758,5.6274 L35.0188,5.5764 L34.6468,5.2894 C34.1398,4.8984 33.5998,4.5094 33.0348,4.1334 L32.8228,3.9954 C31.5148,3.1204 30.1058,2.3664 28.6358,1.7544 C26.4388,0.8404 24.0918,0.2774 21.6628,0.0804 C21.0608,0.0274 20.4588,-0.0006 19.8748,-0.0006 L19.7798,-0.0006 C18.8428,0.0044 17.9008,0.0744 16.9768,0.2084 C15.0408,0.4884 13.0868,1.1034 11.1668,2.0354 C10.6448,2.2894 10.1018,2.5904 9.5548,2.9314 C8.1988,3.7734 6.8758,4.8364 5.6228,6.0914 C4.1168,7.5954 2.8838,9.3744 1.9578,11.3754 C1.0358,13.3704 0.4328,15.4744 0.1638,17.6284 C-0.1032,19.7834 -0.0442,21.9724 0.3418,24.1354 C0.7308,26.3194 1.5018,28.3864 2.6328,30.2784 L2.7478,30.4714 L4.6198,30.5904 L4.2568,29.9124 C3.3508,28.2244 2.6558,26.4554 2.1938,24.6544 C1.7338,22.8704 1.5948,21.0354 1.7788,19.2004 C1.9618,17.3674 2.5158,15.4994 3.4258,13.6474 C4.3378,11.7934 5.7398,9.9144 7.5928,8.0614 C9.7898,5.8644 12.1918,4.2824 14.7298,3.3604 C16.9558,2.5544 19.1978,2.1444 21.3938,2.1444 C21.7118,2.1444 22.0288,2.1534 22.3458,2.1694 C23.8258,2.2494 25.2928,2.4924 26.6688,2.8804 C28.9268,3.7504 30.9838,5.0324 32.7818,6.6884 C34.6388,8.4024 36.1918,10.5514 37.3968,13.0784 C38.6008,15.6044 39.2558,18.5664 39.3438,21.8874 C39.4308,24.3364 39.1648,26.7984 38.5518,29.2054 C37.9418,31.6004 36.9798,33.7634 35.6898,35.6334 C34.4068,37.4914 32.7478,39.0184 30.7598,40.1704 C28.7818,41.3174 26.4058,41.8994 23.6958,41.8994 L19.3678,41.9224 L19.3678,14.8964 C19.3678,13.9814 19.5398,13.2934 19.8648,12.9084 C20.1968,12.5144 20.6248,12.2174 21.1728,12.0024 L21.0118,11.1774 L14.5198,11.2294 L14.3948,12.0644 C14.8778,12.2174 15.2978,12.4954 15.6428,12.8904 C15.9668,13.2644 16.1528,13.9314 16.1788,14.8064 L16.1788,39.6694 C16.1788,40.5844 16.0068,41.2724 15.6828,41.6574 C15.3508,42.0504 14.9228,42.3464 14.3748,42.5634 L14.5318,43.3884 L23.7878,43.3884 C26.8798,43.3884 29.6578,42.8404 32.0468,41.7604 C34.4348,40.6804 36.4718,39.1984 38.1028,37.3544 C39.7288,35.5144 40.9788,33.3334 41.8148,30.8714 C42.6468,28.4214 43.0688,25.7694 43.0688,22.9814 C43.0068,19.7154 42.3468,16.6464 41.1058,13.8604 C39.8648,11.0764 38.1608,8.6294 36.0428,6.5864" id="Fill-47" fill="#FFFFFF" mask="url(#mask-6)"></path>
                </g>
            </g>
        </g>
    </g>
</svg>