<?xml version="1.0" encoding="utf-8"?>
<!-- Generator: Adobe Illustrator 22.0.1, SVG Export Plug-In . SVG Version: 6.00 Build 0)  -->
<svg version="1.1" id="Capa_1" xmlns="http://www.w3.org/2000/svg" xmlns:xlink="http://www.w3.org/1999/xlink" x="0px" y="0px"
	 viewBox="0 0 97 18" style="enable-background:new 0 0 97 18;" xml:space="preserve">
<style type="text/css">
	.st0{fill:#FFFFFF;}
</style>
<title>The-Grand-Bliss-Logo</title>
<desc>Created with Sketch.</desc>
<g>
	<path class="st0" d="M3.7,6.2c-2.5,0-3.6,0-3.6,0s0,1.1-0.2,2.2l0.2,0C1,6.9,1.3,6.6,1.7,6.6h1v4.5c0,0.3-0.4,0.4-1.1,0.6l0,0.1
		c0,0,1.2,0,2,0c0.8,0,2.1,0,2.1,0v-0.1c-0.7-0.2-1.1-0.3-1.1-0.6V6.6h0.9c0.5,0,0.8,0.3,1.6,1.9l0.2,0C7.2,7.3,7.2,6.2,7.2,6.2
		S6.2,6.2,3.7,6.2z"/>
	<path class="st0" d="M18.6,6.3l0-0.1c0,0-1.1,0-2,0c-0.8,0-1.9,0-1.9,0l0,0.1c0.5,0.1,0.9,0.2,0.9,0.6v1.8h-3.5V6.9
		c0-0.4,0.4-0.5,0.9-0.6l0-0.1c0,0-1.1,0-1.9,0c-0.8,0-2,0-2,0l0,0.1c0.7,0.2,1,0.3,1,0.6v4.2c0,0.3-0.3,0.4-1,0.6l0,0.1
		c0,0,1.1,0,2,0c0.8,0,1.9,0,1.9,0l0-0.1c-0.5-0.1-0.9-0.2-0.9-0.6v-2h3.5v2c0,0.4-0.4,0.5-0.9,0.6l0,0.1c0,0,1.1,0,1.9,0
		c0.8,0,2,0,2,0l0-0.1c-0.7-0.2-1-0.3-1-0.6V6.9C17.6,6.6,18,6.5,18.6,6.3z"/>
	<path class="st0" d="M28.1,11.8c0,0,0.1-1.1,0.3-2.3l-0.1,0c-0.8,1.4-1.2,1.9-1.8,1.9h-2.1c-0.5,0-0.9-0.1-0.9-0.5V9.1H25
		c0.3,0,0.5,0.1,1,1.1l0.1,0c0,0,0-0.7,0-1.3c0-0.7,0-1.4,0-1.4l-0.1,0c-0.5,1-0.7,1.1-1,1.1h-1.5V6.6h2.8c0.5,0,0.8,0.4,1.6,1.6
		l0.2,0c-0.1-0.9-0.2-2-0.2-2s-1.9,0-5.5,0c-0.6,0-1.8,0-1.8,0l0,0.1c0.7,0.2,1,0.3,1,0.6v4.2c0,0.3-0.3,0.4-1,0.6l0,0.1
		c0,0,1.1,0,1.8,0C26.1,11.8,28.1,11.8,28.1,11.8z"/>
	<path class="st0" d="M40.7,11.4h-2.1c-0.5,0-0.9-0.1-0.9-0.5V9.1h1.5c0.3,0,0.5,0.1,1,1.1l0.1,0c0,0,0-0.7,0-1.3c0-0.7,0-1.4,0-1.4
		l-0.1,0c-0.5,1-0.7,1.1-1,1.1h-1.5V6.6h2.8c0.5,0,0.8,0.4,1.6,1.6l0.2,0c-0.1-0.9-0.2-2-0.2-2s-1.9,0-5.5,0c-0.6,0-1.8,0-1.8,0
		l0,0.1c0.7,0.2,1,0.3,1,0.6v4.2c0,0.3-0.3,0.4-1,0.6l0,0.1c0,0,1.1,0,1.8,0c3.8,0,5.8,0,5.8,0s0.1-1.1,0.3-2.3l-0.1,0
		C41.6,10.9,41.2,11.4,40.7,11.4z"/>
	<path class="st0" d="M50,8.2c-0.7-0.1-2.4-0.2-3.1-0.3C46.2,7.8,46,7.7,46,7.3c0-0.5,0.7-0.9,2.1-0.9c0.8,0,1.5,0.1,1.9,0.5
		c0.2,0.2,0.5,0.5,0.8,0.9l0.2,0c-0.1-1.1-0.1-1.7-0.1-1.7h-0.3c0,0.1-0.2,0.2-0.3,0.2c-0.3,0-0.8-0.4-2.2-0.4
		c-1.8,0-3.2,0.7-3.2,1.9c0,0.7,0.4,1.2,1.2,1.5c0.7,0.2,2.5,0.3,3.2,0.4c1,0.1,1.1,0.3,1.1,0.7c0,0.6-0.7,1.1-2.1,1.1
		c-0.9,0-1.9-0.3-2.2-0.5c-0.4-0.4-0.8-0.7-1.2-1.3l-0.2,0c0.2,1,0.3,2.1,0.3,2.1h0.3c0.1-0.2,0.2-0.3,0.4-0.3
		c0.4,0,0.9,0.5,2.7,0.5c1.9,0,3.2-1,3.2-2.2C51.5,9,51.2,8.5,50,8.2z"/>
	<path class="st0" d="M59.1,11.7c-0.7-0.2-1.1-0.3-1.1-0.6V6.6h0.9c0.5,0,0.8,0.3,1.6,1.9l0.2,0c-0.2-1.1-0.2-2.2-0.2-2.2
		s-1,0-3.5,0c-2.5,0-3.6,0-3.6,0s0,1.1-0.2,2.2l0.2,0c0.9-1.5,1.2-1.9,1.6-1.9h1v4.5c0,0.3-0.4,0.4-1.1,0.6l0,0.1c0,0,1.2,0,2,0
		c0.8,0,2.1,0,2.1,0V11.7z"/>
	<path class="st0" d="M63.9,11.8l0-0.1c-0.7-0.2-0.9-0.5-0.6-0.9l0.3-0.5h2.9l0.3,0.6c0.2,0.4,0.1,0.6-0.7,0.7l0,0.1
		c0,0,1.2,0,2.1,0c0.9,0,1.8,0,1.8,0l0-0.1c-0.7-0.2-0.8-0.3-1.1-0.7l-2.8-4.8h-0.7l-2.8,4.7c-0.3,0.5-0.5,0.6-1.1,0.8l0,0.1
		c0,0,0.3,0,1,0C63.4,11.8,63.9,11.8,63.9,11.8z M65,7.9l1.2,2.1h-2.4L65,7.9z"/>
	<path class="st0" d="M74.6,6.2c-2.5,0-3.6,0-3.6,0s0,1.1-0.2,2.2l0.2,0c0.9-1.5,1.2-1.9,1.6-1.9h1v4.5c0,0.3-0.4,0.4-1.1,0.6l0,0.1
		c0,0,1.2,0,2,0c0.8,0,2.1,0,2.1,0v-0.1c-0.7-0.2-1.1-0.3-1.1-0.6V6.6h0.9c0.5,0,0.8,0.3,1.6,1.9l0.2,0c-0.2-1.1-0.2-2.2-0.2-2.2
		S77.2,6.2,74.6,6.2z"/>
	<path class="st0" d="M86.1,11.4H84c-0.5,0-0.9-0.1-0.9-0.5V9.1h1.5c0.3,0,0.5,0.1,1,1.1l0.1,0c0,0,0-0.7,0-1.3c0-0.7,0-1.4,0-1.4
		l-0.1,0c-0.5,1-0.7,1.1-1,1.1h-1.5V6.6h2.8c0.5,0,0.8,0.4,1.6,1.6l0.2,0c-0.1-0.9-0.2-2-0.2-2s-1.8,0-5.5,0c-0.6,0-1.8,0-1.8,0
		l0,0.1c0.7,0.2,1,0.3,1,0.6v4.2c0,0.3-0.3,0.4-1,0.6l0,0.1c0,0,1.1,0,1.8,0c3.8,0,5.7,0,5.7,0s0.1-1.1,0.3-2.3l-0.1,0
		C87.1,10.9,86.7,11.4,86.1,11.4z"/>
	<path class="st0" d="M95.5,8.2c-0.7-0.1-2.4-0.2-3.1-0.3c-0.7-0.1-0.9-0.3-0.9-0.6c0-0.5,0.7-0.9,2.1-0.9c0.8,0,1.5,0.1,1.9,0.5
		c0.2,0.2,0.5,0.5,0.8,0.9l0.2,0c-0.1-1.1-0.1-1.7-0.1-1.7h-0.3c0,0.1-0.2,0.2-0.3,0.2c-0.3,0-0.8-0.4-2.2-0.4
		c-1.8,0-3.2,0.7-3.2,1.9c0,0.7,0.4,1.2,1.2,1.5c0.7,0.2,2.5,0.3,3.2,0.4c1,0.1,1.1,0.3,1.1,0.7c0,0.6-0.7,1.1-2.1,1.1
		c-0.9,0-1.9-0.3-2.2-0.5c-0.4-0.4-0.8-0.7-1.2-1.3l-0.2,0c0.2,1,0.3,2.1,0.3,2.1h0.3c0.1-0.2,0.2-0.3,0.4-0.3
		c0.4,0,0.9,0.5,2.7,0.5c1.9,0,3.2-1,3.2-2.2C97,9,96.6,8.5,95.5,8.2z"/>
</g>
</svg>
