<?xml version="1.0" encoding="iso-8859-1"?>
<!-- Generator: Adobe Illustrator 19.0.0, SVG Export Plug-In . SVG Version: 6.00 Build 0)  -->
<svg version="1.1" id="Capa_1" xmlns="http://www.w3.org/2000/svg" xmlns:xlink="http://www.w3.org/1999/xlink" x="0px" y="0px"
	 viewBox="0 0 130 80" style="enable-background:new 0 0 130 80;" xml:space="preserve">
<g id="XMLID_108_">
	<g id="XMLID_948_">
		<g>
			<defs>
				<rect id="SVGID_1_" x="12.5" y="12.5" width="103" height="55"/>
			</defs>
			<clipPath id="SVGID_2_">
				<use xlink:href="#SVGID_1_"  style="overflow:visible;"/>
			</clipPath>
		</g>
		<g>
			<defs>
				<rect id="SVGID_3_" x="12.5" y="12.5" width="103" height="55"/>
			</defs>
			<defs>
				<path id="SVGID_4_" d="M63.641,26.517c-0.84-0.425-1.46-0.932-1.861-1.525c-0.4-0.592-0.6-1.175-0.6-1.741
					c0-0.229,0.052-0.345,0.16-0.345c0.214,0.992,0.513,1.727,0.894,2.206c0.383,0.476,0.957,0.884,1.725,1.219
					c0.997,0.443,1.861,0.556,2.595,0.345c0.851-0.247,1.609-0.786,2.272-1.618c0.658-0.833,1.051-1.762,1.177-2.789
					c-2.421-1.17-4.993-1.751-7.715-1.751c-2.081,0-4.045,0.345-5.898,1.033c0.643,0.477,1.164,1.028,1.578,1.646
					c0.409,0.624,0.614,1.159,0.614,1.623c0,0.318-0.136,0.479-0.412,0.479c-1.372,0-2.178-1.181-2.414-3.535
					c-1.996,0.904-3.466,2.23-4.403,3.985c-0.23,0.445-0.493,1.186-0.792,2.229c-0.162,0.568-0.241,1.242-0.241,2.02
					c0,3.206,1.24,5.725,3.716,7.569l0.293,0.238c0,0.091-0.051,0.134-0.16,0.134c-0.142,0-0.58-0.315-1.31-0.942
					c-0.731-0.63-1.393-1.571-1.983-2.828c-0.592-1.258-0.887-2.728-0.887-4.41c0-0.725,0.072-1.356,0.214-1.885
					c0.232-0.851,0.51-1.575,0.831-2.178c0.98-1.825,2.442-3.278,4.381-4.356c-1.511-0.838-3.637-1.258-6.359-1.258
					c-3.996,0-7.33,1.07-10.004,3.21c-2.674,2.142-4.01,4.879-4.01,8.215c0,3.628,1.572,6.396,4.712,8.308
					c0.181-1.501,0.669-2.772,1.471-3.796c-1.122-0.921-1.682-2.188-1.682-3.798c0-0.142,0.148-0.214,0.444-0.214
					c0.315,0,0.474,0.23,0.474,0.682c0,1.295,0.363,2.332,1.089,3.11c0.672-0.903,1.474-1.604,2.404-2.097
					c0.932-0.496,1.833-0.743,2.7-0.743c2.003,0,3.004,0.749,3.004,2.244c0,0.73-0.354,1.306-1.057,1.725
					c-0.707,0.42-1.56,0.627-2.557,0.627c-1.943,0-3.46-0.398-4.548-1.194c-0.821,1.234-1.261,2.502-1.312,3.798
					c1.23,0.67,2.604,1.088,4.12,1.263c0.464,0.069,0.697,0.15,0.697,0.236l-0.482,0.107c-1.195,0-2.642-0.397-4.335-1.185
					c0.035,1.578,0.569,2.835,1.602,3.775c1.035,0.937,2.228,1.406,3.587,1.406c0.192,0,0.593-0.06,1.198-0.187l0.164,0.107
					c0,0.098-0.175,0.189-0.524,0.278c-0.348,0.09-0.7,0.131-1.054,0.131c-1.605,0-2.902-0.508-3.891-1.515
					c-0.991-1.011-1.489-2.357-1.489-4.039v-0.215c-1.774-0.904-3.173-2.17-4.193-3.8c-1.023-1.629-1.533-3.49-1.533-5.582
					c0-3.17,1.497-5.826,4.487-7.972c2.992-2.144,6.365-3.216,10.125-3.216c3.027,0,5.377,0.468,7.053,1.409v-0.507
					c0-1.403,0.336-2.64,1.006-3.71c0.667-1.07,1.636-1.875,2.906-2.41c0.141-0.29,0.303-0.437,0.482-0.437
					c0.125,0,0.23,0.034,0.32,0.098l0.215-0.098c0.088-0.25,0.257-0.376,0.51-0.376l0.318,0.155l0.215-0.071
					c0.108-0.39,0.314-0.584,0.614-0.584c0.308,0,0.522,0.194,0.645,0.584h0.242c0.126-0.169,0.252-0.254,0.377-0.254
					c0.25,0,0.408,0.109,0.482,0.325l0.239,0.055l0.213-0.126c0.145,0,0.306,0.124,0.485,0.364c1.534,0.532,2.806,1.453,3.814,2.765
					c1.008,1.307,1.533,2.868,1.568,4.673c2.151,1.168,3.812,2.626,4.974,4.371c1.164,1.743,1.746,3.607,1.746,5.592
					c0,2.919-1.133,5.344-3.393,7.275c1.495,0.94,2.702,2.222,3.606,3.852c0.913,1.627,1.37,3.284,1.37,4.966
					c0,2.602-1.013,4.803-3.027,6.6c-2.017,1.797-4.392,2.697-7.121,2.697c-1.178,0-2.456-0.213-3.829-0.639
					c0.214,0.658,0.323,1.403,0.323,2.239c0,2.025-0.863,3.747-2.586,5.17c-1.72,1.42-3.689,2.13-5.904,2.13
					c-1.659,0-3.283-0.358-4.872-1.081c-1.588-0.718-2.801-1.611-3.641-2.675c-0.839-1.061-1.257-1.787-1.257-2.174l0.12-0.159
					l0.213,0.238c0.335,0.814,0.958,1.678,1.865,2.59c0.91,0.911,2.091,1.627,3.552,2.15c1.458,0.522,2.857,0.784,4.189,0.784
					c1.975,0,3.727-0.713,5.258-2.133c1.531-1.424,2.298-3.079,2.298-4.969c0-0.797-0.133-1.574-0.401-2.333
					c-1.123-0.496-2.01-1.055-2.669-1.675c-0.661-0.619-0.988-1.203-0.988-1.751c0-0.301,0.185-0.451,0.56-0.451
					c0.465,0,1.088,0.333,1.868,0.996c0.783,0.663,1.415,1.544,1.899,2.642c1.387,0.443,2.827,0.663,4.323,0.663
					c2.186,0,4.208-0.83,6.057-2.49c1.849-1.662,2.777-3.957,2.777-6.886c0-1.419-0.396-2.892-1.19-4.418
					c-0.79-1.526-1.845-2.706-3.166-3.539c-0.641,0.46-1.279,0.825-1.922,1.09c-0.695,0.284-1.716,0.549-3.069,0.797
					c-0.198,0.034-0.56,0.051-1.096,0.051c-0.983,0-1.953-0.159-2.922-0.479c-0.975-0.317-1.708-0.679-2.207-1.086v0.558
					c0.442,0.088,0.661,0.3,0.661,0.638c0,0.159-0.071,0.304-0.215,0.428c-0.145,0.126-0.294,0.191-0.446,0.191v1.837
					c0,0.313-0.059,0.468-0.176,0.468c-0.101,0-0.153-0.136-0.153-0.405v-1.859c-0.161,0-0.32-0.061-0.47-0.186
					c-0.154-0.127-0.229-0.269-0.229-0.432c0-0.338,0.233-0.547,0.699-0.639v-4.804c0-0.285-0.035-0.518-0.112-0.705
					c-0.074-0.187-0.109-0.35-0.109-0.492c0-0.213,0.07-0.372,0.214-0.476v-0.265c-0.437-0.128-0.655-0.383-0.655-0.772
					c0-0.158,0.069-0.316,0.208-0.479c0.133-0.158,0.287-0.235,0.447-0.235v-0.268c-0.144-0.107-0.214-0.267-0.214-0.479
					c0-0.16,0.036-0.333,0.109-0.517c0.077-0.186,0.112-0.413,0.112-0.678v-1.142c0-0.282,0.06-0.423,0.176-0.423
					c0.101,0,0.153,0.142,0.153,0.423v1.142c0,0.265,0.032,0.492,0.092,0.678c0.061,0.184,0.089,0.357,0.089,0.517
					c0,0.211-0.066,0.372-0.21,0.479v0.268c0.161,0,0.318,0.077,0.465,0.235c0.151,0.163,0.225,0.321,0.225,0.479
					c0,0.39-0.231,0.644-0.69,0.772v0.265c0.144,0.104,0.21,0.263,0.21,0.476c0,0.142-0.029,0.305-0.089,0.492
					s-0.092,0.42-0.092,0.705v3.983l0.189,0.134c1.393,0.885,2.957,1.326,4.688,1.326c0.609,0,1.047-0.017,1.313-0.053
					c0.715-0.092,1.707-0.351,2.972-0.783c0.538-0.181,1.119-0.485,1.746-0.917c-0.965-0.556-1.932-0.836-2.896-0.836
					c-1.231,0-2.116,0.053-2.652,0.159c-0.536,0.107-0.86,0.158-0.967,0.158c-0.163,0-0.241-0.051-0.241-0.158l0.992-0.252
					c0.946-0.157,1.786-0.234,2.518-0.234h0.242c1.178,0,2.311,0.3,3.403,0.901c2.178-1.822,3.271-4.174,3.271-7.063
					c0-1.891-0.553-3.654-1.648-5.283c-1.101-1.627-2.672-2.964-4.708-4.009c-0.128,1.011-0.513,1.933-1.157,2.776
					c-0.642,0.838-1.41,1.401-2.3,1.685C65.839,27.208,64.762,27.084,63.641,26.517 M58.125,31.133c0.57,1.322,0.86,2.74,0.86,4.255
					c0,2.89-0.906,5.239-2.711,7.043c-1.811,1.808-3.761,2.709-5.848,2.709c-1.417,0-2.561-0.327-3.431-0.986
					c-0.87-0.655-1.302-1.436-1.302-2.342c0-0.672,0.194-1.223,0.577-1.651c0.391-0.424,0.897-0.639,1.525-0.639
					c1.509,0,2.265,0.628,2.265,1.88c0,0.487-0.164,0.895-0.493,1.214c-0.331,0.321-0.725,0.481-1.183,0.481
					c-0.604,0-1.171-0.192-1.701-0.582c0,0.694,0.338,1.255,1.02,1.672c0.679,0.416,1.647,0.626,2.901,0.626
					c1.251,0,2.529-0.679,3.826-2.038c1.296-1.361,1.946-3.324,1.946-5.883c0-2.14-0.506-4.002-1.523-5.594
					c-1.012-1.588-2.438-2.713-4.272-3.365l-0.349-0.107c-0.765-0.299-1.744-0.45-2.936-0.45c-2.083,0-3.745,0.55-4.983,1.646
					c-1.237,1.098-1.853,2.317-1.853,3.661c0,0.159-0.158,0.239-0.474,0.239c-0.296,0-0.444-0.211-0.444-0.637
					c0-1.97,0.857-3.611,2.576-4.932c1.716-1.323,3.904-1.983,6.554-1.983c0.729,0,1.516,0.091,2.35,0.268l0.322,0.051
					c3.007,0.803,5.216,2.507,6.624,5.117c1.234-1.456,3.12-2.902,5.658-4.34c0.143-0.087,0.251-0.15,0.324-0.185
					c1.483-0.907,2.539-1.829,3.163-2.769l0.242-0.258l0.259,0.039c0,0.245-0.289,0.664-0.865,1.268
					c-0.573,0.599-0.861,0.944-0.861,1.031c0,0.318,0.224,0.663,0.668,1.035l0.325,0.211c1.932,1.189,2.901,2.491,2.901,3.908
					c0,1.805-0.969,3.548-2.902,5.231c1.072,0.373,2.042,0.994,2.899,1.864c0.072,0.071,0.189,0.193,0.349,0.372
					c0.517,0.57,0.903,1.146,1.156,1.727l0.157,0.348c0.29,0.746,0.435,1.507,0.435,2.289c0,2.058-0.728,3.796-2.183,5.216
					c-1.451,1.42-3.24,2.13-5.36,2.13c-1.194,0-2.265-0.384-3.219-1.154c-0.954-0.768-1.432-1.683-1.432-2.746
					c0-0.651,0.192-1.234,0.573-1.746c0.383-0.512,0.894-0.86,1.535-1.035l0.349-0.05l0.427-0.055c0.674,0,1.226,0.203,1.656,0.605
					c0.425,0.404,0.639,0.92,0.639,1.548c0,0.588-0.167,1.057-0.498,1.41c-0.334,0.349-0.778,0.523-1.336,0.523
					c-1.105,0-1.657-0.559-1.657-1.677c0-0.751,0.503-1.214,1.506-1.389c0-0.315-0.328-0.473-0.989-0.473
					c-0.538,0-0.984,0.256-1.34,0.77c-0.357,0.514-0.534,1.106-0.534,1.784c0,0.848,0.405,1.615,1.218,2.296
					c0.809,0.683,1.698,1.024,2.661,1.024c1.498,0,2.639-0.674,3.424-2.019c0.787-1.344,1.179-3.141,1.179-5.386
					c0-0.448-0.036-0.794-0.109-1.042l-0.054-0.376c-0.09-0.729-0.373-1.514-0.845-2.352l-0.218-0.266
					c-0.308-0.589-0.738-1.087-1.28-1.5c-1.213,0.821-2.273,1.23-3.178,1.23c-0.179,0-0.409-0.043-0.696-0.134l-0.346-0.159
					c-0.144-0.143-0.214-0.32-0.214-0.537c0-0.302,0.07-0.522,0.214-0.667l0.346-0.32c0.517-0.322,1.337-0.481,2.459-0.481
					c0.392,0,0.937,0.072,1.631,0.213c0.744-0.829,1.116-1.66,1.116-2.494c0-0.619-0.161-1.22-0.479-1.802
					c-0.323-0.585-0.903-1.161-1.745-1.726c-0.839-0.564-1.361-0.976-1.562-1.234c-0.201-0.255-0.419-0.631-0.66-1.128
					c-0.159,0-0.712,0.331-1.653,0.995C60.277,29.029,59.245,29.952,58.125,31.133 M41.779,35.978
					c1.017,0.829,2.343,1.245,3.983,1.245c1.016,0,1.808-0.206,2.38-0.621c0.569-0.417,0.853-0.971,0.853-1.661
					c0-1.079-0.819-1.619-2.457-1.619C44.754,33.321,43.168,34.207,41.779,35.978 M43.547,50.738c0-1.341,0.832-2.566,2.498-3.677
					c1.666-1.11,3.618-1.665,5.853-1.665c2.304,0,4.21,0.702,5.719,2.106l0.269,0.192c0.175,0,0.627-0.473,1.355-1.424
					c0.098,0,0.151,0.075,0.151,0.221c0,0.16-0.286,0.54-0.852,1.139c-0.569,0.604-1.223,1.115-1.963,1.54
					c-1.694,0.937-2.836,1.859-3.432,2.76l-0.108,0.105l-0.148-0.109c0-0.293,0.735-1.073,2.202-2.336
					c0-0.266-0.497-0.698-1.494-1.293c-1.002-0.597-2.381-0.894-4.147-0.894c-1.607,0-2.936,0.304-3.975,0.908
					c-1.043,0.606-1.563,1.435-1.563,2.487c0,0.265-0.063,0.397-0.195,0.397C43.601,51.194,43.547,51.043,43.547,50.738
					 M43.912,50.74c0,1.085,0.492,2.006,1.467,2.771c0.981,0.766,2.353,1.149,4.118,1.149h0.642c0.23-0.479,0.532-0.86,0.907-1.142
					c0.374-0.285,0.731-0.425,1.067-0.425c0.517,0,0.775,0.176,0.775,0.528c0,0.667-0.693,1.108-2.074,1.32
					c-0.108,0.318-0.161,0.714-0.161,1.187c0,1.091,0.55,2.04,1.651,2.839c1.103,0.804,2.314,1.202,3.632,1.202
					c1.179,0,2.28-0.337,3.315-1.01l0.323-0.186l0.105,0.107c0,0.16-0.394,0.435-1.177,0.827s-1.674,0.59-2.673,0.59
					c-1.444,0-2.787-0.466-4.031-1.398c-1.241-0.931-1.861-2.072-1.861-3.418c0-0.196,0.032-0.424,0.105-0.693h-0.479
					c-1.899,0-3.38-0.413-4.435-1.236c-1.055-0.825-1.581-1.847-1.581-3.065c0-0.269,0.054-0.405,0.171-0.405
					C43.849,50.282,43.912,50.436,43.912,50.74 M50.929,54.509c0.498-0.054,0.894-0.156,1.187-0.305
					c0.296-0.15,0.444-0.298,0.444-0.439c0-0.231-0.144-0.345-0.43-0.345C51.651,53.42,51.249,53.781,50.929,54.509 M70.039,21.446
					c-0.056-1.66-0.573-3.097-1.559-4.311c-0.989-1.215-2.183-2.093-3.585-2.635l-0.374,0.035c-0.212,0-0.363-0.095-0.452-0.29
					h-0.16l-0.319,0.182c-0.108,0-0.232-0.086-0.372-0.257h-0.296c-0.108,0.441-0.302,0.659-0.585,0.659
					c-0.302,0-0.541-0.194-0.719-0.584c-0.108,0.156-0.247,0.235-0.428,0.235c-0.122,0-0.249-0.034-0.374-0.098l-0.132,0.044
					c0,0.346-0.214,0.518-0.639,0.518l-0.318-0.081c-2.454,1.258-3.679,3.241-3.679,5.945v0.159c2.023-0.955,4.069-1.434,6.13-1.434
					C64.895,19.533,67.515,20.17,70.039,21.446 M57.956,24.471c0-0.353-0.168-0.791-0.507-1.314
					c-0.336-0.523-0.794-1.013-1.365-1.473c0.105,0.936,0.307,1.679,0.611,2.23c0.303,0.547,0.655,0.823,1.053,0.823
					C57.887,24.736,57.956,24.649,57.956,24.471 M63.685,55.567c-0.374-0.902-0.842-1.622-1.402-2.162
					c-0.563-0.541-1.004-0.81-1.324-0.81c-0.233,0-0.35,0.087-0.35,0.263c0,0.409,0.273,0.86,0.817,1.357
					C61.969,54.709,62.724,55.163,63.685,55.567 M65.559,36.403c-0.508-0.327-1.031-0.492-1.572-0.492
					c-0.525,0-0.957,0.107-1.296,0.314c-0.34,0.208-0.51,0.456-0.51,0.747c0,0.362,0.241,0.543,0.732,0.543
					C63.786,37.515,64.668,37.144,65.559,36.403"/>
			</defs>
			<clipPath id="SVGID_5_">
				<use xlink:href="#SVGID_3_"  style="overflow:visible;"/>
			</clipPath>
			<clipPath id="SVGID_6_" style="clip-path:url(#SVGID_5_);">
				<use xlink:href="#SVGID_4_"  style="overflow:visible;"/>
			</clipPath>
			<rect id="XMLID_593_" x="29.052" y="8.221" style="clip-path:url(#SVGID_6_);fill:#918668;" width="54.618" height="62.637"/>
		</g>
	</g>
	<g id="XMLID_942_">
		<g>
			<defs>
				<rect id="SVGID_7_" x="12.5" y="12.5" width="103" height="55"/>
			</defs>
			<clipPath id="SVGID_8_">
				<use xlink:href="#SVGID_7_"  style="overflow:visible;"/>
			</clipPath>
		</g>
		<g>
			<defs>
				<rect id="SVGID_9_" x="12.5" y="12.5" width="103" height="55"/>
			</defs>
			<defs>
				<path id="SVGID_10_" d="M86.423,47.729l0.11,0.11c-1.149,0.866-2.104,1.677-2.865,2.437c-0.769,0.757-1.194,1.136-1.285,1.136
					l-0.111-0.109c0.417-0.483,0.624-0.798,0.624-0.948c0-0.302-0.265-0.73-0.793-1.283c-0.528-0.555-1.296-0.83-2.319-0.83
					c-0.125,0-0.449,0.18-0.964,0.546c-0.124,0-0.182-0.06-0.182-0.181c0-0.095,0.495-0.452,1.485-1.074
					c0.993-0.622,1.759-0.933,2.298-0.933c0.452,0,1.381,0.583,2.789,1.75c0.138,0,0.347-0.102,0.619-0.309
					C86.096,47.834,86.295,47.729,86.423,47.729 M79.223,47.767c-0.097,0.035-0.146-0.04-0.146-0.219
					c0.768-0.601,1.261-1.131,1.475-1.597c0.217-0.468,0.325-1.36,0.325-2.682v-9.607c0-1.708,0.53-3.135,1.588-4.277
					c1.059-1.144,2.422-1.715,4.093-1.715c0.843,0,1.589,0.264,2.233,0.794c0.648,0.529,0.97,1.112,0.97,1.746
					c0,0.495-0.145,0.888-0.434,1.179c-0.287,0.293-0.668,0.438-1.136,0.438c-0.398,0-0.739-0.127-1.018-0.385
					c-0.281-0.261-0.419-0.585-0.419-0.977c0-0.587,0.137-0.992,0.405-1.216c0.271-0.219,0.773-0.359,1.504-0.413
					c0-0.127-0.209-0.299-0.621-0.514c-0.414-0.217-0.962-0.325-1.645-0.325c-1.024,0-1.814,0.353-2.37,1.057
					c-0.561,0.705-0.836,1.715-0.836,3.035v10.452c0,0.846-0.232,1.658-0.692,2.441c-0.465,0.783-1.103,1.432-1.916,1.941
					C79.767,47.431,79.315,47.714,79.223,47.767"/>
			</defs>
			<clipPath id="SVGID_11_">
				<use xlink:href="#SVGID_9_"  style="overflow:visible;"/>
			</clipPath>
			<clipPath id="SVGID_12_" style="clip-path:url(#SVGID_11_);">
				<use xlink:href="#SVGID_10_"  style="overflow:visible;"/>
			</clipPath>
			<rect id="XMLID_581_" x="73.639" y="22.669" style="clip-path:url(#SVGID_12_);fill:#918668;" width="21.122" height="33.743"/>
		</g>
	</g>
	<g id="XMLID_934_">
		<g>
			<defs>
				<rect id="SVGID_13_" x="12.5" y="12.5" width="103" height="55"/>
			</defs>
			<clipPath id="SVGID_14_">
				<use xlink:href="#SVGID_13_"  style="overflow:visible;"/>
			</clipPath>
		</g>
		<g>
			<defs>
				<rect id="SVGID_15_" x="12.5" y="12.5" width="103" height="55"/>
			</defs>
			<defs>
				<path id="SVGID_16_" d="M88.711,28.594c0.073,0.081,0.105,0.16,0.105,0.239v0.143l-0.142,0.009
					c-0.681,0.051-1.173,0.182-1.417,0.381c-0.23,0.191-0.349,0.559-0.349,1.096c0,0.349,0.121,0.633,0.37,0.864
					c0.25,0.231,0.55,0.343,0.914,0.343c0.425,0,0.771-0.131,1.025-0.389c0.26-0.262,0.39-0.623,0.39-1.072
					C89.607,29.631,89.307,29.088,88.711,28.594 M86.557,27.82c-1.616,0-2.957,0.562-3.979,1.666
					c-1.025,1.112-1.548,2.516-1.548,4.174v9.609c0,1.357-0.109,2.254-0.338,2.745c-0.199,0.434-0.614,0.91-1.261,1.446
					c0.222-0.138,0.58-0.364,1.071-0.669c0.785-0.493,1.412-1.13,1.863-1.888c0.445-0.757,0.671-1.552,0.671-2.365V32.087
					c0-1.351,0.294-2.404,0.87-3.13c0.584-0.739,1.423-1.115,2.49-1.115c0.526,0,0.984,0.064,1.364,0.192
					C87.385,27.892,86.982,27.82,86.557,27.82 M79.785,48.087c1.059,0,1.876,0.296,2.431,0.879c0.561,0.589,0.835,1.042,0.835,1.39
					c0,0.096-0.038,0.239-0.261,0.548c0.179-0.163,0.426-0.398,0.771-0.738c0.559-0.558,1.229-1.15,1.998-1.765
					c-0.134,0.067-0.249,0.103-0.347,0.103h-0.057l-0.042-0.037c-1.709-1.419-2.406-1.714-2.691-1.714
					c-0.507,0-1.251,0.305-2.216,0.909c-0.837,0.524-1.186,0.777-1.328,0.897C79.48,48.144,79.679,48.087,79.785,48.087
					 M82.38,51.567h-0.062l-0.257-0.254l0.094-0.109c0.559-0.649,0.586-0.821,0.586-0.847c0-0.181-0.129-0.529-0.75-1.179
					c-0.501-0.525-1.222-0.782-2.208-0.782c-0.016,0-0.175,0.022-0.875,0.516l-0.039,0.028h-0.05c-0.208,0-0.338-0.127-0.338-0.333
					c0-0.092,0-0.178,0.756-0.686c-0.025,0.007-0.042,0.008-0.058,0.008c-0.078,0-0.259-0.037-0.259-0.381v-0.075l0.06-0.045
					c0.746-0.582,1.228-1.1,1.429-1.539c0.206-0.444,0.308-1.325,0.308-2.618v-9.609c0-1.738,0.55-3.212,1.631-4.38
					c1.082-1.173,2.498-1.767,4.205-1.767c0.878,0,1.662,0.28,2.332,0.83c0.682,0.556,1.028,1.183,1.028,1.866
					c0,0.532-0.163,0.966-0.481,1.287c-0.314,0.318-0.732,0.481-1.245,0.481c-0.44,0-0.818-0.143-1.126-0.426
					c-0.308-0.289-0.468-0.655-0.468-1.089c0-0.631,0.157-1.08,0.463-1.333c0.265-0.217,0.699-0.355,1.319-0.423
					c-0.078-0.062-0.207-0.144-0.41-0.252c-0.392-0.205-0.921-0.308-1.574-0.308c-0.966,0-1.724,0.336-2.249,0.998
					c-0.53,0.671-0.802,1.661-0.802,2.942V42.54c0,0.87-0.24,1.715-0.712,2.52c-0.449,0.757-1.064,1.397-1.831,1.905
					c0.664-0.348,1.197-0.518,1.62-0.518c0.311,0,0.945,0.182,2.838,1.744c0.075-0.016,0.223-0.076,0.475-0.27
					c0.303-0.234,0.519-0.345,0.689-0.345h0.063l0.281,0.279l-0.141,0.107c-1.136,0.854-2.096,1.671-2.85,2.423
					C82.581,51.567,82.48,51.567,82.38,51.567"/>
			</defs>
			<clipPath id="SVGID_17_">
				<use xlink:href="#SVGID_15_"  style="overflow:visible;"/>
			</clipPath>
			<clipPath id="SVGID_18_" style="clip-path:url(#SVGID_17_);">
				<use xlink:href="#SVGID_16_"  style="overflow:visible;"/>
			</clipPath>
			<rect id="XMLID_577_" x="73.484" y="22.514" style="clip-path:url(#SVGID_18_);fill:#918668;" width="21.433" height="34.053"/>
		</g>
	</g>
	<g id="XMLID_928_">
		<g>
			<defs>
				<rect id="SVGID_19_" x="12.5" y="12.5" width="103" height="55"/>
			</defs>
			<clipPath id="SVGID_20_">
				<use xlink:href="#SVGID_19_"  style="overflow:visible;"/>
			</clipPath>
		</g>
		<g>
			<defs>
				<rect id="SVGID_21_" x="12.5" y="12.5" width="103" height="55"/>
			</defs>
			<defs>
				<path id="SVGID_22_" d="M89.739,46.156c0,0.422,0.151,0.826,0.454,1.212c0.303,0.388,0.626,0.58,0.966,0.58
					c0.407,0,0.794-0.159,1.149-0.476l0.111,0.15c0,0.124-0.365,0.466-1.092,1.027c-0.729,0.557-1.685,1.394-2.874,2.51
					l-0.148-0.111c0-0.149,0.112-0.317,0.331-0.502c0.22-0.187,0.33-0.385,0.33-0.588l-0.317-0.426
					c-0.621-0.672-0.929-1.326-0.929-1.963v-7.417c0-0.267-0.175-0.521-0.522-0.768c-0.345-0.247-0.588-0.371-0.729-0.371
					c-0.122,0-0.421,0.157-0.879,0.473l-0.112-0.256c1.873-1.454,3.092-2.533,3.663-3.234l0.156-0.156
					c0.171,0,0.259,0.047,0.259,0.144c0,0.126-0.332,0.563-0.991,1.313c0,0.194,0.233,0.451,0.704,0.775
					c0.466,0.324,0.992,0.582,1.569,0.776c-0.732,0.315-1.1,0.679-1.1,1.082L89.739,46.156L89.739,46.156z M88.092,29.09
					c0.352,0,0.678,0.136,0.98,0.409c0.297,0.277,0.446,0.587,0.446,0.941c0,0.353-0.132,0.665-0.394,0.94
					c-0.264,0.272-0.571,0.409-0.925,0.409c-0.352,0-0.673-0.136-0.965-0.409c-0.289-0.275-0.434-0.587-0.434-0.94
					c0-0.354,0.134-0.664,0.398-0.941C87.461,29.226,87.757,29.09,88.092,29.09L88.092,29.09L88.092,29.09z"/>
			</defs>
			<clipPath id="SVGID_23_">
				<use xlink:href="#SVGID_21_"  style="overflow:visible;"/>
			</clipPath>
			<clipPath id="SVGID_24_" style="clip-path:url(#SVGID_23_);">
				<use xlink:href="#SVGID_22_"  style="overflow:visible;"/>
			</clipPath>
			<rect id="XMLID_421_" x="80.478" y="24.09" style="clip-path:url(#SVGID_24_);fill:#918668;" width="16.941" height="32.07"/>
		</g>
	</g>
	<g id="XMLID_920_">
		<g>
			<defs>
				<rect id="SVGID_25_" x="12.5" y="12.5" width="103" height="55"/>
			</defs>
			<clipPath id="SVGID_26_">
				<use xlink:href="#SVGID_25_"  style="overflow:visible;"/>
			</clipPath>
		</g>
		<g>
			<defs>
				<rect id="SVGID_27_" x="12.5" y="12.5" width="103" height="55"/>
			</defs>
			<defs>
				<path id="SVGID_28_" d="M88.092,29.243c-0.291,0-0.549,0.119-0.785,0.361c-0.237,0.249-0.353,0.521-0.353,0.837
					c0,0.31,0.126,0.581,0.387,0.826c0.261,0.247,0.541,0.369,0.855,0.369c0.313,0,0.578-0.119,0.815-0.362
					c0.235-0.247,0.349-0.52,0.349-0.833c0-0.31-0.13-0.58-0.396-0.832C88.693,29.362,88.406,29.243,88.092,29.243L88.092,29.243
					L88.092,29.243z M88.198,31.943c-0.389,0-0.751-0.152-1.069-0.452c-0.32-0.304-0.484-0.657-0.484-1.049s0.148-0.745,0.44-1.047
					c0.599-0.618,1.444-0.595,2.093-0.008c0.33,0.308,0.495,0.662,0.495,1.055c0,0.39-0.146,0.741-0.437,1.044
					C88.941,31.789,88.594,31.943,88.198,31.943L88.198,31.943L88.198,31.943z M86.471,38.858c0.179,0,0.432,0.124,0.82,0.401
					c0.393,0.281,0.585,0.574,0.585,0.891v7.418c0,0.596,0.298,1.222,0.887,1.86l0.358,0.477v0.051c0,0.25-0.128,0.487-0.382,0.704
					c-0.101,0.085-0.167,0.157-0.207,0.214c1.126-1.05,2.011-1.82,2.701-2.345c0.419-0.323,0.666-0.537,0.815-0.676
					c-0.281,0.167-0.58,0.25-0.888,0.25c-0.39,0-0.755-0.217-1.087-0.642c-0.324-0.41-0.488-0.85-0.488-1.306v-6.226
					c0-0.398,0.288-0.754,0.86-1.062c-0.457-0.182-0.882-0.405-1.264-0.668c-0.525-0.362-0.771-0.65-0.771-0.903v-0.057l0.038-0.043
					c0.75-0.853,0.912-1.119,0.945-1.199c-0.011,0-0.021-0.001-0.034-0.001l-0.109,0.108c-0.534,0.658-1.671,1.674-3.38,3.015
					C86.238,38.893,86.384,38.858,86.471,38.858L86.471,38.858L86.471,38.858z M88.464,51.36l-0.313-0.236v-0.076
					c0-0.196,0.127-0.398,0.386-0.62c0.165-0.14,0.258-0.281,0.274-0.424l-0.286-0.38c-0.631-0.685-0.958-1.378-0.958-2.055v-7.418
					c0-0.21-0.153-0.426-0.456-0.642c-0.434-0.31-0.589-0.343-0.639-0.343c-0.013,0-0.167,0.016-0.793,0.447l-0.152,0.105
					l-0.235-0.535l0.094-0.073c1.855-1.442,3.077-2.522,3.638-3.209l0.213-0.215h0.064c0.371,0,0.411,0.21,0.411,0.3
					s0,0.239-0.981,1.359c0.031,0.088,0.153,0.277,0.629,0.604c0.453,0.313,0.966,0.567,1.531,0.754l0.381,0.128l-0.37,0.158
					c-0.67,0.289-1.008,0.606-1.008,0.941v6.226c0,0.393,0.139,0.758,0.423,1.118c0.27,0.347,0.554,0.523,0.843,0.523
					c0.367,0,0.719-0.147,1.045-0.439l0.128-0.111l0.24,0.326v0.049c0,0.13-0.091,0.329-1.15,1.15
					c-0.72,0.547-1.655,1.366-2.863,2.498L88.464,51.36L88.464,51.36z"/>
			</defs>
			<clipPath id="SVGID_29_">
				<use xlink:href="#SVGID_27_"  style="overflow:visible;"/>
			</clipPath>
			<clipPath id="SVGID_30_" style="clip-path:url(#SVGID_29_);">
				<use xlink:href="#SVGID_28_"  style="overflow:visible;"/>
			</clipPath>
			<rect id="XMLID_417_" x="80.291" y="23.939" style="clip-path:url(#SVGID_30_);fill:#918668;" width="17.283" height="32.421"/>
		</g>
	</g>
	<g id="XMLID_916_">
		<g>
			<defs>
				<rect id="SVGID_31_" x="12.5" y="12.5" width="103" height="55"/>
			</defs>
			<clipPath id="SVGID_32_">
				<use xlink:href="#SVGID_31_"  style="overflow:visible;"/>
			</clipPath>
		</g>
		<g>
			<defs>
				<rect id="SVGID_33_" x="12.5" y="12.5" width="103" height="55"/>
			</defs>
			<defs>
				<path id="SVGID_34_" d="M96.933,38.064c-1.396,1.017-2.09,2.109-2.09,3.285c0,1.507,0.557,2.258,1.671,2.258
					c0.395,0,1.026-0.334,1.888-1.004c0.86-0.667,1.709-1.002,2.533-1.002c0.792,0,1.429,0.198,1.916,0.595
					c0.484,0.401,0.73,0.928,0.73,1.583c0,0.618-0.312,1.27-0.927,1.949c-0.624,0.682-1.719,1.448-3.29,2.293
					c-1.575,0.848-2.57,1.426-2.996,1.727c-0.426,0.302-0.785,0.675-1.087,1.119c-0.1,0-0.148-0.051-0.148-0.147
					c0-0.095,0.055-0.209,0.165-0.341c0.113-0.132,0.167-0.276,0.167-0.426c0-0.088-0.151-0.261-0.451-0.522
					c-0.298-0.26-0.692-0.388-1.181-0.388c-0.91,0-1.625,0.456-2.152,1.373l-0.134,0.154c-0.108,0-0.16-0.053-0.16-0.16
					c0-0.286,0.408-0.849,1.225-1.685c0.819-0.837,1.792-1.254,2.923-1.254c0.844,0,1.578,0.259,2.209,0.782l0.215,0.13l0.377-0.207
					c1.199-0.612,1.968-1.17,2.306-1.676c0.342-0.507,0.515-1.039,0.515-1.597c0-0.61-0.187-1.095-0.552-1.452
					c-0.371-0.36-0.847-0.54-1.443-0.54c-0.429,0-1.08,0.335-1.949,1.003c-0.869,0.671-1.673,1.005-2.408,1.005
					c-0.573,0-1.068-0.229-1.482-0.679c-0.409-0.454-0.617-0.989-0.617-1.611c0-0.888,0.391-1.774,1.166-2.662
					c0.778-0.888,2.173-1.856,4.182-2.912c0.989-0.55,1.676-1.126,2.066-1.726l0.079-0.113l0.11,0.218
					c0,0.13-0.151,0.347-0.457,0.658c-0.308,0.31-0.46,0.528-0.46,0.655c0.599,0.487,1.092,0.729,1.473,0.729
					c0.471,0,0.974-0.182,1.502-0.546l0.108,0.144c0,0.094-0.417,0.517-1.256,1.274s-1.492,1.135-1.962,1.135
					C98.826,39.487,98.052,39.012,96.933,38.064"/>
			</defs>
			<clipPath id="SVGID_35_">
				<use xlink:href="#SVGID_33_"  style="overflow:visible;"/>
			</clipPath>
			<clipPath id="SVGID_36_" style="clip-path:url(#SVGID_35_);">
				<use xlink:href="#SVGID_34_"  style="overflow:visible;"/>
			</clipPath>
			<rect id="XMLID_411_" x="86.39" y="30.219" style="clip-path:url(#SVGID_36_);fill:#918668;" width="22.192" height="25.65"/>
		</g>
	</g>
	<g id="XMLID_910_">
		<g>
			<defs>
				<rect id="SVGID_37_" x="12.5" y="12.5" width="103" height="55"/>
			</defs>
			<clipPath id="SVGID_38_">
				<use xlink:href="#SVGID_37_"  style="overflow:visible;"/>
			</clipPath>
		</g>
		<g>
			<defs>
				<rect id="SVGID_39_" x="12.5" y="12.5" width="103" height="55"/>
			</defs>
			<defs>
				<path id="SVGID_40_" d="M95.537,47.627c-1.08,0-2.029,0.405-2.809,1.208c-0.876,0.893-1.112,1.309-1.169,1.49l0.007-0.009
					c0.536-0.937,1.304-1.426,2.267-1.426c0.526,0,0.961,0.144,1.285,0.429c0.416,0.362,0.501,0.516,0.501,0.635
					c0,0.113-0.024,0.22-0.071,0.322c0.219-0.246,0.462-0.46,0.731-0.651c0.441-0.314,1.453-0.898,3.012-1.738
					c1.547-0.832,2.64-1.593,3.249-2.262c0.59-0.649,0.887-1.271,0.887-1.847c0-0.61-0.218-1.088-0.675-1.464
					c-0.453-0.37-1.065-0.559-1.816-0.559c-0.787,0-1.61,0.326-2.438,0.97c-0.898,0.696-1.548,1.034-1.984,1.034
					c-1.21,0-1.827-0.81-1.827-2.411c0-1.219,0.727-2.367,2.156-3.408l0.096-0.071l0.094,0.078c1.35,1.146,1.955,1.386,2.226,1.386
					c0.428,0,1.054-0.369,1.86-1.095c0.584-0.529,0.89-0.827,1.046-0.993c-0.45,0.257-0.885,0.388-1.301,0.388
					c-0.418,0-0.948-0.257-1.569-0.765l-0.056-0.045V36.75c0-0.091,0.032-0.225,0.251-0.485c-0.367,0.318-0.822,0.627-1.358,0.927
					c-1.995,1.048-3.385,2.015-4.143,2.877c-0.747,0.857-1.127,1.719-1.127,2.562c0,0.578,0.196,1.086,0.579,1.507
					c0.887,0.969,2.214,0.79,3.681-0.342c0.905-0.699,1.572-1.037,2.042-1.037c0.629,0,1.152,0.197,1.549,0.585
					c0.396,0.387,0.597,0.911,0.597,1.56c0,0.584-0.182,1.15-0.539,1.683c-0.358,0.533-1.13,1.098-2.364,1.727l-0.451,0.247
					l-0.291-0.175C97.043,47.872,96.353,47.627,95.537,47.627L95.537,47.627L95.537,47.627z M95.365,51.023h-0.083
					c-0.184,0-0.302-0.118-0.302-0.302c0-0.13,0.066-0.275,0.201-0.438c0.09-0.106,0.13-0.211,0.13-0.329
					c-0.003,0-0.045-0.099-0.397-0.404c-0.266-0.235-0.63-0.353-1.08-0.353c-0.854,0-1.515,0.424-2.015,1.295l-0.197,0.234h-0.073
					c-0.192,0-0.313-0.121-0.313-0.315c0-0.213,0.132-0.63,1.271-1.791c0.845-0.864,1.863-1.302,3.031-1.302
					c0.879,0,1.653,0.276,2.308,0.819l0.117,0.07l0.302-0.164c1.172-0.599,1.932-1.146,2.253-1.626
					c0.323-0.482,0.488-0.992,0.488-1.514c0-0.563-0.17-1.014-0.505-1.341c-0.344-0.334-0.781-0.497-1.334-0.497
					c-0.268,0-0.81,0.169-1.855,0.972c-1.607,1.239-3.105,1.39-4.098,0.307c-0.436-0.483-0.659-1.06-0.659-1.715
					c0-0.919,0.407-1.848,1.203-2.763c0.794-0.904,2.176-1.867,4.228-2.947c0.957-0.532,1.634-1.095,2.009-1.674l0.229-0.326
					l0.245,0.516c0,0.119-0.056,0.313-0.505,0.765c-0.265,0.272-0.363,0.418-0.395,0.489c0.533,0.421,0.966,0.634,1.297,0.634
					c0.441,0,0.917-0.174,1.417-0.519l0.122-0.085l0.227,0.306v0.049c0,0.099,0,0.21-1.303,1.388
					c-0.879,0.79-1.557,1.175-2.069,1.175c-0.463,0-1.228-0.45-2.334-1.38c-1.279,0.959-1.928,1.999-1.928,3.089
					c0,1.417,0.497,2.105,1.517,2.105c0.247,0,0.762-0.169,1.794-0.972c0.883-0.684,1.768-1.033,2.628-1.033
					c0.825,0,1.502,0.213,2.015,0.631c0.522,0.432,0.786,1.003,0.786,1.7c0,0.654-0.326,1.347-0.968,2.053
					c-0.634,0.695-1.756,1.478-3.33,2.327c-1.546,0.832-2.55,1.41-2.981,1.717c-0.407,0.292-0.751,0.645-1.049,1.081L95.365,51.023
					L95.365,51.023z"/>
			</defs>
			<clipPath id="SVGID_41_">
				<use xlink:href="#SVGID_39_"  style="overflow:visible;"/>
			</clipPath>
			<clipPath id="SVGID_42_" style="clip-path:url(#SVGID_41_);">
				<use xlink:href="#SVGID_40_"  style="overflow:visible;"/>
			</clipPath>
			<rect id="XMLID_408_" x="86.235" y="29.922" style="clip-path:url(#SVGID_42_);fill:#918668;" width="22.502" height="26.102"/>
		</g>
	</g>
	<g id="XMLID_906_">
		<g>
			<defs>
				<rect id="SVGID_43_" x="12.5" y="12.5" width="103" height="55"/>
			</defs>
			<clipPath id="SVGID_44_">
				<use xlink:href="#SVGID_43_"  style="overflow:visible;"/>
			</clipPath>
		</g>
		<g>
			<defs>
				<rect id="SVGID_45_" x="12.5" y="12.5" width="103" height="55"/>
			</defs>
			<defs>
				<path id="SVGID_46_" d="M108.695,38.064c-1.399,1.017-2.094,2.109-2.094,3.285c0,1.507,0.557,2.258,1.673,2.258
					c0.394,0,1.025-0.334,1.888-1.004c0.86-0.667,1.711-1.002,2.534-1.002c0.791,0,1.431,0.198,1.915,0.595
					c0.486,0.401,0.728,0.928,0.728,1.583c0,0.618-0.31,1.27-0.929,1.949c-0.615,0.682-1.714,1.448-3.285,2.293
					c-1.575,0.848-2.572,1.426-2.997,1.727c-0.426,0.302-0.787,0.675-1.087,1.119c-0.098,0-0.148-0.051-0.148-0.147
					c0-0.095,0.057-0.209,0.167-0.341c0.111-0.132,0.168-0.276,0.168-0.426c0-0.088-0.152-0.261-0.452-0.522
					c-0.299-0.26-0.691-0.388-1.184-0.388c-0.907,0-1.622,0.456-2.149,1.373l-0.134,0.154c-0.107,0-0.16-0.053-0.16-0.16
					c0-0.286,0.407-0.849,1.223-1.685c0.818-0.837,1.796-1.254,2.924-1.254c0.844,0,1.581,0.259,2.212,0.782l0.215,0.13l0.374-0.207
					c1.202-0.612,1.969-1.17,2.307-1.676c0.344-0.507,0.512-1.039,0.512-1.597c0-0.61-0.183-1.095-0.552-1.452
					c-0.367-0.36-0.846-0.54-1.438-0.54c-0.433,0-1.079,0.335-1.952,1.003c-0.869,0.671-1.672,1.005-2.406,1.005
					c-0.574,0-1.066-0.229-1.476-0.679c-0.414-0.454-0.624-0.989-0.624-1.611c0-0.888,0.388-1.774,1.168-2.662
					c0.778-0.888,2.169-1.856,4.181-2.912c0.99-0.55,1.675-1.126,2.067-1.726l0.077-0.113l0.108,0.218
					c0,0.13-0.15,0.347-0.456,0.658c-0.309,0.31-0.459,0.528-0.459,0.655c0.6,0.487,1.093,0.729,1.471,0.729
					c0.475,0,0.974-0.182,1.5-0.546l0.113,0.144c0,0.094-0.421,0.517-1.26,1.274c-0.837,0.757-1.488,1.135-1.961,1.135
					C110.587,39.487,109.814,39.012,108.695,38.064"/>
			</defs>
			<clipPath id="SVGID_47_">
				<use xlink:href="#SVGID_45_"  style="overflow:visible;"/>
			</clipPath>
			<clipPath id="SVGID_48_" style="clip-path:url(#SVGID_47_);">
				<use xlink:href="#SVGID_46_"  style="overflow:visible;"/>
			</clipPath>
			<rect id="XMLID_404_" x="98.15" y="30.219" style="clip-path:url(#SVGID_48_);fill:#918668;" width="22.19" height="25.65"/>
		</g>
	</g>
	<g id="XMLID_900_">
		<g>
			<defs>
				<rect id="SVGID_49_" x="12.5" y="12.5" width="103" height="55"/>
			</defs>
			<clipPath id="SVGID_50_">
				<use xlink:href="#SVGID_49_"  style="overflow:visible;"/>
			</clipPath>
		</g>
		<g>
			<defs>
				<rect id="SVGID_51_" x="12.5" y="12.5" width="103" height="55"/>
			</defs>
			<defs>
				<path id="SVGID_52_" d="M107.297,47.627c-1.082,0-2.03,0.405-2.812,1.208c-0.864,0.884-1.109,1.3-1.166,1.491l0.007-0.01
					c0.535-0.937,1.304-1.426,2.267-1.426c0.526,0,0.961,0.143,1.288,0.428c0.419,0.366,0.501,0.516,0.501,0.636
					c0,0.113-0.023,0.218-0.072,0.319c0.22-0.243,0.464-0.46,0.729-0.647c0.442-0.314,1.453-0.898,3.013-1.738
					c1.555-0.838,2.648-1.598,3.247-2.262c0.589-0.646,0.887-1.268,0.887-1.847c0-0.613-0.219-1.091-0.673-1.464
					c-0.452-0.37-1.064-0.559-1.816-0.559c-0.787,0-1.611,0.326-2.438,0.97c-0.897,0.696-1.548,1.034-1.984,1.034
					c-1.213,0-1.828-0.81-1.828-2.411c0-1.219,0.726-2.367,2.159-3.408l0.1-0.071l0.092,0.078c1.35,1.146,1.956,1.386,2.224,1.386
					c0.428,0,1.055-0.369,1.857-1.095c0.587-0.53,0.896-0.83,1.051-0.997c-0.448,0.259-0.884,0.392-1.302,0.392
					c-0.416,0-0.945-0.257-1.568-0.763l-0.056-0.047V36.75c0-0.091,0.033-0.223,0.247-0.484c-0.37,0.319-0.821,0.629-1.356,0.925
					c-1.989,1.043-3.381,2.011-4.14,2.877c-0.748,0.854-1.13,1.717-1.13,2.562c0,0.588,0.191,1.079,0.584,1.507
					c0.386,0.424,0.828,0.629,1.362,0.629c0.697,0,1.477-0.326,2.312-0.971c0.91-0.699,1.579-1.037,2.045-1.037
					c0.632,0,1.152,0.197,1.549,0.585c0.393,0.385,0.595,0.908,0.595,1.56c0,0.591-0.181,1.157-0.538,1.685
					c-0.355,0.531-1.128,1.096-2.362,1.726l-0.449,0.247l-0.291-0.175C108.814,47.878,108.1,47.627,107.297,47.627L107.297,47.627
					L107.297,47.627z M107.125,51.023h-0.084c-0.183,0-0.302-0.118-0.302-0.302c0-0.131,0.066-0.276,0.203-0.439
					c0.088-0.106,0.13-0.211,0.13-0.328c-0.002-0.002-0.044-0.097-0.397-0.405c-0.272-0.238-0.627-0.352-1.083-0.352
					c-0.854,0-1.515,0.424-2.015,1.295l-0.197,0.234h-0.073c-0.191,0-0.314-0.125-0.314-0.315c0-0.213,0.132-0.629,1.268-1.791
					c0.845-0.864,1.864-1.302,3.034-1.302c0.879,0,1.656,0.276,2.309,0.819l0.119,0.07l0.299-0.164
					c1.174-0.599,1.932-1.146,2.253-1.626c0.324-0.476,0.485-0.986,0.485-1.514c0-0.566-0.168-1.016-0.505-1.34
					c-0.341-0.335-0.775-0.499-1.331-0.499c-0.389,0-1.015,0.327-1.856,0.972c-1.606,1.239-3.104,1.393-4.091,0.306
					c-0.44-0.479-0.665-1.057-0.665-1.714c0-0.921,0.407-1.852,1.207-2.764c0.795-0.907,2.177-1.871,4.225-2.946
					c0.956-0.53,1.631-1.094,2.011-1.674l0.225-0.33l0.244,0.52c0,0.119-0.056,0.313-0.502,0.763
					c-0.266,0.271-0.36,0.419-0.395,0.489c0.529,0.417,0.976,0.635,1.298,0.635c0.44,0,0.916-0.174,1.415-0.519l0.121-0.082
					l0.233,0.301v0.052c0,0.101,0,0.206-1.308,1.388c-0.876,0.79-1.554,1.175-2.066,1.175c-0.46,0-1.225-0.45-2.331-1.38
					c-1.284,0.959-1.935,2-1.935,3.089c0,1.417,0.498,2.105,1.52,2.105c0.248,0,0.762-0.169,1.794-0.972
					c0.883-0.684,1.768-1.033,2.628-1.033c0.827,0,1.504,0.214,2.014,0.631c0.52,0.427,0.783,1,0.783,1.7
					c0,0.658-0.324,1.348-0.966,2.053c-0.622,0.69-1.742,1.473-3.329,2.327c-1.547,0.832-2.55,1.41-2.981,1.717
					c-0.411,0.293-0.754,0.647-1.049,1.081L107.125,51.023L107.125,51.023z"/>
			</defs>
			<clipPath id="SVGID_53_">
				<use xlink:href="#SVGID_51_"  style="overflow:visible;"/>
			</clipPath>
			<clipPath id="SVGID_54_" style="clip-path:url(#SVGID_53_);">
				<use xlink:href="#SVGID_52_"  style="overflow:visible;"/>
			</clipPath>
			<rect id="XMLID_401_" x="97.995" y="29.917" style="clip-path:url(#SVGID_54_);fill:#918668;" width="22.499" height="26.106"/>
		</g>
	</g>
	<g id="XMLID_896_">
		<g>
			<defs>
				<rect id="SVGID_55_" x="12.5" y="12.5" width="103" height="55"/>
			</defs>
			<clipPath id="SVGID_56_">
				<use xlink:href="#SVGID_55_"  style="overflow:visible;"/>
			</clipPath>
		</g>
		<g>
			<defs>
				<rect id="SVGID_57_" x="12.5" y="12.5" width="103" height="55"/>
			</defs>
			<defs>
				<path id="SVGID_58_" d="M17.852,40.915v6.467c0,0.128,0.027,0.227,0.088,0.292c0.058,0.068,0.164,0.123,0.317,0.164v0.201h-2.68
					v-0.201c0.149-0.042,0.258-0.097,0.317-0.164c0.058-0.064,0.086-0.163,0.086-0.292v-6.467h-2.665
					c-0.128,0-0.226,0.028-0.292,0.087c-0.068,0.057-0.122,0.164-0.164,0.314h-0.202V39.11h0.202
					c0.046,0.154,0.101,0.26,0.169,0.313c0.061,0.061,0.159,0.091,0.282,0.091h7.205c0.13,0,0.23-0.03,0.296-0.091
					c0.067-0.053,0.124-0.159,0.164-0.313h0.203v2.207h-0.203c-0.041-0.151-0.097-0.257-0.164-0.314
					c-0.066-0.059-0.166-0.087-0.296-0.087L17.852,40.915L17.852,40.915z"/>
			</defs>
			<clipPath id="SVGID_59_">
				<use xlink:href="#SVGID_57_"  style="overflow:visible;"/>
			</clipPath>
			<clipPath id="SVGID_60_" style="clip-path:url(#SVGID_59_);">
				<use xlink:href="#SVGID_58_"  style="overflow:visible;"/>
			</clipPath>
			<rect id="XMLID_397_" x="7.655" y="34.11" style="clip-path:url(#SVGID_60_);fill:#918668;" width="18.522" height="18.929"/>
		</g>
	</g>
	<g id="XMLID_890_">
		<g>
			<defs>
				<rect id="SVGID_61_" x="12.5" y="12.5" width="103" height="55"/>
			</defs>
			<clipPath id="SVGID_62_">
				<use xlink:href="#SVGID_61_"  style="overflow:visible;"/>
			</clipPath>
		</g>
		<g>
			<defs>
				<rect id="SVGID_63_" x="12.5" y="12.5" width="103" height="55"/>
			</defs>
			<defs>
				<path id="SVGID_64_" d="M15.872,47.885h2.088c-0.057-0.032-0.101-0.071-0.138-0.113c-0.081-0.086-0.122-0.217-0.122-0.39V40.76
					h2.816c0.167,0,0.303,0.043,0.397,0.125c0.042,0.036,0.079,0.082,0.11,0.139v-1.623c-0.033,0.057-0.07,0.105-0.113,0.14
					c-0.089,0.082-0.225,0.124-0.394,0.124h-7.205c-0.168,0-0.303-0.047-0.39-0.135c-0.039-0.031-0.077-0.076-0.109-0.134v1.627
					c0.032-0.056,0.07-0.103,0.112-0.139c0.092-0.082,0.223-0.125,0.393-0.125h2.82v6.622c0,0.167-0.044,0.299-0.127,0.393
					C15.972,47.816,15.928,47.853,15.872,47.885L15.872,47.885L15.872,47.885z M18.41,48.193h-2.989v-0.471l0.113-0.032
					c0.163-0.045,0.22-0.091,0.239-0.115c0.035-0.039,0.051-0.103,0.051-0.192v-6.314h-2.51c-0.089,0-0.153,0.016-0.19,0.048
					c-0.027,0.023-0.076,0.082-0.115,0.238l-0.031,0.114H12.5v-2.512h0.475l0.031,0.112c0.047,0.161,0.097,0.217,0.118,0.238
					c0.042,0.038,0.104,0.053,0.184,0.053h7.205c0.092,0,0.157-0.017,0.192-0.049c0.025-0.02,0.076-0.076,0.118-0.239l0.03-0.115
					h0.478v2.512h-0.478l-0.03-0.114c-0.043-0.156-0.092-0.215-0.116-0.237c-0.038-0.033-0.107-0.049-0.195-0.049h-2.508v6.314
					c0,0.089,0.016,0.153,0.047,0.187c0.03,0.035,0.091,0.079,0.244,0.12l0.113,0.031v0.472H18.41z"/>
			</defs>
			<clipPath id="SVGID_65_">
				<use xlink:href="#SVGID_63_"  style="overflow:visible;"/>
			</clipPath>
			<clipPath id="SVGID_66_" style="clip-path:url(#SVGID_65_);">
				<use xlink:href="#SVGID_64_"  style="overflow:visible;"/>
			</clipPath>
			<rect id="XMLID_394_" x="7.5" y="33.957" style="clip-path:url(#SVGID_66_);fill:#918668;" width="18.832" height="19.236"/>
		</g>
	</g>
	<g id="XMLID_886_">
		<g>
			<defs>
				<rect id="SVGID_67_" x="12.5" y="12.5" width="103" height="55"/>
			</defs>
			<clipPath id="SVGID_68_">
				<use xlink:href="#SVGID_67_"  style="overflow:visible;"/>
			</clipPath>
		</g>
		<g>
			<defs>
				<rect id="SVGID_69_" x="12.5" y="12.5" width="103" height="55"/>
			</defs>
			<defs>
				<path id="SVGID_70_" d="M27.889,44.992h-3.931v2.403c0,0.132,0.033,0.23,0.088,0.297c0.059,0.072,0.167,0.126,0.316,0.173v0.175
					h-2.495v-0.175c0.148-0.035,0.252-0.091,0.312-0.163c0.059-0.07,0.092-0.169,0.092-0.3v-5.723c0-0.13-0.03-0.227-0.089-0.294
					c-0.059-0.066-0.164-0.122-0.315-0.167v-0.177h2.495v0.177c-0.149,0.043-0.257,0.095-0.316,0.164
					c-0.055,0.07-0.088,0.168-0.088,0.297v2.045h3.931v-2.045c0-0.13-0.029-0.227-0.085-0.294c-0.057-0.066-0.164-0.122-0.319-0.167
					v-0.177h2.495v0.177c-0.152,0.043-0.256,0.095-0.312,0.164c-0.061,0.07-0.09,0.168-0.09,0.297v5.716
					c0,0.132,0.03,0.23,0.09,0.297c0.056,0.072,0.16,0.126,0.312,0.173v0.175h-2.495v-0.175c0.145-0.035,0.252-0.091,0.312-0.163
					c0.063-0.07,0.092-0.169,0.092-0.3V44.992L27.889,44.992z"/>
			</defs>
			<clipPath id="SVGID_71_">
				<use xlink:href="#SVGID_69_"  style="overflow:visible;"/>
			</clipPath>
			<clipPath id="SVGID_72_" style="clip-path:url(#SVGID_71_);">
				<use xlink:href="#SVGID_70_"  style="overflow:visible;"/>
			</clipPath>
			<rect id="XMLID_390_" x="16.867" y="36.041" style="clip-path:url(#SVGID_72_);fill:#918668;" width="18.113" height="16.998"/>
		</g>
	</g>
	<g id="XMLID_880_">
		<g>
			<defs>
				<rect id="SVGID_73_" x="12.5" y="12.5" width="103" height="55"/>
			</defs>
			<clipPath id="SVGID_74_">
				<use xlink:href="#SVGID_73_"  style="overflow:visible;"/>
			</clipPath>
		</g>
		<g>
			<defs>
				<rect id="SVGID_75_" x="12.5" y="12.5" width="103" height="55"/>
			</defs>
			<defs>
				<path id="SVGID_76_" d="M27.824,47.885h1.831c-0.042-0.03-0.08-0.063-0.108-0.099c-0.081-0.088-0.122-0.218-0.122-0.391v-5.717
					c0-0.167,0.044-0.301,0.126-0.397c0.027-0.031,0.059-0.061,0.097-0.085h-1.831c0.041,0.026,0.077,0.056,0.104,0.088
					c0.082,0.098,0.122,0.229,0.122,0.395v2.198h-4.238v-2.198c0-0.162,0.042-0.293,0.124-0.392
					c0.025-0.034,0.059-0.065,0.102-0.091h-1.837c0.04,0.024,0.074,0.055,0.104,0.084c0.085,0.099,0.128,0.231,0.128,0.398v5.724
					c0,0.165-0.043,0.298-0.125,0.397c-0.028,0.031-0.059,0.06-0.094,0.086h1.832c-0.044-0.028-0.081-0.061-0.109-0.096
					c-0.082-0.097-0.124-0.23-0.124-0.393v-2.558h4.238v2.565c0,0.171-0.044,0.305-0.132,0.401
					C27.887,47.833,27.858,47.861,27.824,47.885L27.824,47.885L27.824,47.885z M30.136,48.193H27.33v-0.452l0.122-0.027
					c0.108-0.026,0.188-0.064,0.226-0.11c0.041-0.044,0.057-0.11,0.057-0.202v-2.257h-3.621v2.25c0,0.088,0.018,0.158,0.052,0.198
					c0.021,0.026,0.081,0.075,0.241,0.123l0.111,0.032v0.444h-2.806V47.74l0.121-0.027c0.11-0.026,0.188-0.064,0.232-0.113
					c0.034-0.041,0.05-0.111,0.05-0.199v-5.724c0-0.088-0.015-0.156-0.049-0.194c-0.02-0.023-0.085-0.073-0.241-0.121l-0.113-0.032
					v-0.444h2.806v0.445l-0.112,0.032c-0.161,0.045-0.219,0.091-0.239,0.116c-0.034,0.039-0.052,0.109-0.052,0.197v1.892h3.621
					v-1.892c0-0.088-0.016-0.158-0.05-0.197c-0.013-0.013-0.068-0.068-0.243-0.118l-0.113-0.032v-0.444h2.806v0.446l-0.112,0.031
					c-0.163,0.044-0.218,0.09-0.236,0.113c-0.038,0.044-0.057,0.11-0.057,0.2v5.717c0,0.091,0.019,0.156,0.05,0.193
					c0.026,0.033,0.082,0.081,0.244,0.128l0.11,0.032v0.448H30.136z"/>
			</defs>
			<clipPath id="SVGID_77_">
				<use xlink:href="#SVGID_75_"  style="overflow:visible;"/>
			</clipPath>
			<clipPath id="SVGID_78_" style="clip-path:url(#SVGID_77_);">
				<use xlink:href="#SVGID_76_"  style="overflow:visible;"/>
			</clipPath>
			<rect id="XMLID_387_" x="16.712" y="35.889" style="clip-path:url(#SVGID_78_);fill:#918668;" width="18.425" height="17.304"/>
		</g>
	</g>
	<g id="XMLID_876_">
		<g>
			<defs>
				<rect id="SVGID_79_" x="12.5" y="12.5" width="103" height="55"/>
			</defs>
			<clipPath id="SVGID_80_">
				<use xlink:href="#SVGID_79_"  style="overflow:visible;"/>
			</clipPath>
		</g>
		<g>
			<defs>
				<rect id="SVGID_81_" x="12.5" y="12.5" width="103" height="55"/>
			</defs>
			<defs>
				<path id="SVGID_82_" d="M33.306,45.063v1.708h4.467c0.128,0,0.229-0.03,0.298-0.086c0.07-0.057,0.124-0.164,0.167-0.315h0.174
					v2.07h-0.174c-0.039-0.146-0.093-0.251-0.164-0.311c-0.069-0.058-0.173-0.09-0.302-0.09h-6.559v-0.172
					c0.148-0.039,0.253-0.092,0.314-0.165c0.061-0.068,0.091-0.169,0.091-0.298v-5.725c0-0.128-0.028-0.227-0.089-0.292
					c-0.059-0.067-0.163-0.123-0.316-0.168v-0.175h6.361c0.135,0,0.235-0.031,0.304-0.087c0.07-0.059,0.127-0.163,0.168-0.312h0.173
					v2.069h-0.173c-0.041-0.152-0.098-0.258-0.168-0.315c-0.069-0.057-0.169-0.088-0.304-0.088h-4.268v1.534h2.651
					c0.132,0,0.231-0.03,0.297-0.087c0.07-0.06,0.131-0.164,0.174-0.317h0.173v2.026h-0.173c-0.041-0.15-0.097-0.252-0.167-0.313
					c-0.069-0.06-0.167-0.091-0.304-0.091H33.306L33.306,45.063z"/>
			</defs>
			<clipPath id="SVGID_83_">
				<use xlink:href="#SVGID_81_"  style="overflow:visible;"/>
			</clipPath>
			<clipPath id="SVGID_84_" style="clip-path:url(#SVGID_83_);">
				<use xlink:href="#SVGID_82_"  style="overflow:visible;"/>
			</clipPath>
			<rect id="XMLID_383_" x="26.213" y="35.644" style="clip-path:url(#SVGID_84_);fill:#918668;" width="17.198" height="17.795"/>
		</g>
	</g>
	<g id="XMLID_870_">
		<g>
			<defs>
				<rect id="SVGID_85_" x="12.5" y="12.5" width="103" height="55"/>
			</defs>
			<clipPath id="SVGID_86_">
				<use xlink:href="#SVGID_85_"  style="overflow:visible;"/>
			</clipPath>
		</g>
		<g>
			<defs>
				<rect id="SVGID_87_" x="12.5" y="12.5" width="103" height="55"/>
			</defs>
			<defs>
				<path id="SVGID_88_" d="M31.552,47.885h6.22c0.164,0,0.304,0.043,0.402,0.124c0.03,0.027,0.058,0.057,0.083,0.093v-1.397
					c-0.027,0.039-0.057,0.071-0.09,0.097c-0.093,0.08-0.229,0.122-0.394,0.122h-4.621V44.91h2.803c0.172,0,0.307,0.042,0.406,0.128
					c0.032,0.027,0.06,0.059,0.086,0.095V43.77c-0.027,0.04-0.058,0.073-0.092,0.103c-0.096,0.083-0.229,0.124-0.4,0.124h-2.803
					v-1.84h4.422c0.168,0,0.303,0.042,0.401,0.121c0.034,0.028,0.062,0.06,0.09,0.099v-1.4c-0.025,0.038-0.054,0.069-0.085,0.096
					c-0.1,0.082-0.237,0.123-0.406,0.123H31.54c0.043,0.027,0.078,0.057,0.106,0.091c0.082,0.087,0.127,0.221,0.127,0.392v5.724
					c0,0.167-0.042,0.301-0.129,0.399C31.62,47.832,31.587,47.86,31.552,47.885L31.552,47.885L31.552,47.885z M38.566,48.592h-0.447
					l-0.029-0.115c-0.038-0.144-0.084-0.206-0.114-0.234c-0.041-0.032-0.114-0.051-0.203-0.051h-6.714v-0.447l0.117-0.028
					c0.147-0.039,0.209-0.082,0.233-0.114c0.047-0.055,0.057-0.139,0.057-0.202v-5.724c0-0.088-0.016-0.153-0.047-0.187
					c-0.027-0.031-0.088-0.08-0.247-0.127l-0.113-0.032v-0.444h6.516c0.097,0,0.167-0.016,0.207-0.052
					c0.023-0.019,0.073-0.079,0.117-0.235l0.032-0.111h0.443v2.377h-0.443l-0.032-0.114c-0.045-0.159-0.094-0.218-0.117-0.238
					c-0.041-0.033-0.113-0.052-0.207-0.052H33.46v1.226h2.495c0.065,0,0.151-0.007,0.198-0.048c0.029-0.024,0.082-0.088,0.125-0.242
					l0.031-0.112h0.446v2.333h-0.449l-0.028-0.113c-0.041-0.146-0.088-0.209-0.118-0.236c-0.043-0.036-0.108-0.054-0.205-0.054
					H33.46v1.4h4.313c0.09,0,0.16-0.018,0.2-0.051c0.025-0.02,0.07-0.074,0.116-0.236l0.032-0.113h0.444L38.566,48.592
					L38.566,48.592z"/>
			</defs>
			<clipPath id="SVGID_89_">
				<use xlink:href="#SVGID_87_"  style="overflow:visible;"/>
			</clipPath>
			<clipPath id="SVGID_90_" style="clip-path:url(#SVGID_89_);">
				<use xlink:href="#SVGID_88_"  style="overflow:visible;"/>
			</clipPath>
			<rect id="XMLID_380_" x="26.058" y="35.49" style="clip-path:url(#SVGID_90_);fill:#918668;" width="17.508" height="18.102"/>
		</g>
	</g>
	<g id="XMLID_864_">
		<g>
			<defs>
				<rect id="SVGID_91_" x="12.5" y="12.5" width="103" height="55"/>
			</defs>
			<clipPath id="SVGID_92_">
				<use xlink:href="#SVGID_91_"  style="overflow:visible;"/>
			</clipPath>
		</g>
		<g>
			<defs>
				<rect id="SVGID_93_" x="12.5" y="12.5" width="103" height="55"/>
			</defs>
			<defs>
				<path id="SVGID_94_" d="M79.18,56.248v1.693c0,0.094,0.013,0.162,0.045,0.2c0.029,0.039,0.087,0.069,0.172,0.093v0.113h-0.973
					v-0.113c0.085-0.024,0.145-0.053,0.173-0.093c0.03-0.037,0.044-0.105,0.044-0.2v-3.849c0-0.095-0.014-0.161-0.044-0.201
					c-0.027-0.039-0.088-0.069-0.173-0.089v-0.111h2.573c0.353,0,0.631,0.016,0.836,0.057c0.206,0.036,0.382,0.101,0.533,0.196
					c0.157,0.094,0.282,0.226,0.379,0.391c0.112,0.188,0.165,0.401,0.165,0.637c0,0.356-0.118,0.646-0.356,0.869
					c-0.235,0.225-0.561,0.353-0.976,0.384l1.194,1.838c0.069,0.117,0.173,0.171,0.308,0.171v0.113h-1.09v-0.113
					c0.114-0.016,0.168-0.048,0.168-0.095c0-0.023-0.036-0.096-0.118-0.221l-1.066-1.671H79.18V56.248z M79.18,55.805h1.904
					c0.257,0,0.451-0.007,0.584-0.031c0.132-0.023,0.249-0.06,0.35-0.115c0.235-0.139,0.351-0.368,0.351-0.687
					c0-0.323-0.118-0.553-0.362-0.689c-0.108-0.057-0.229-0.097-0.363-0.12c-0.129-0.02-0.335-0.031-0.611-0.031H79.18V55.805
					L79.18,55.805z"/>
			</defs>
			<clipPath id="SVGID_95_">
				<use xlink:href="#SVGID_93_"  style="overflow:visible;"/>
			</clipPath>
			<clipPath id="SVGID_96_" style="clip-path:url(#SVGID_95_);">
				<use xlink:href="#SVGID_94_"  style="overflow:visible;"/>
			</clipPath>
			<rect id="XMLID_376_" x="73.424" y="48.692" style="clip-path:url(#SVGID_96_);fill:#918668;" width="14.656" height="14.655"/>
		</g>
	</g>
	<g id="XMLID_856_">
		<g>
			<defs>
				<rect id="SVGID_97_" x="12.5" y="12.5" width="103" height="55"/>
			</defs>
			<clipPath id="SVGID_98_">
				<use xlink:href="#SVGID_97_"  style="overflow:visible;"/>
			</clipPath>
		</g>
		<g>
			<defs>
				<rect id="SVGID_99_" x="12.5" y="12.5" width="103" height="55"/>
			</defs>
			<defs>
				<path id="SVGID_100_" d="M79.268,55.719h1.817c0.267,0,0.449-0.011,0.571-0.03c0.125-0.021,0.231-0.056,0.32-0.106
					c0.206-0.123,0.307-0.322,0.307-0.612c0-0.293-0.103-0.494-0.315-0.613c-0.099-0.052-0.213-0.088-0.334-0.11
					c-0.128-0.02-0.336-0.031-0.6-0.031h-1.767L79.268,55.719L79.268,55.719z M81.084,55.893h-1.992v-1.848h1.942
					c0.277,0,0.488,0.01,0.627,0.033c0.143,0.023,0.273,0.066,0.391,0.128c0.27,0.151,0.405,0.408,0.405,0.765
					c0,0.352-0.132,0.608-0.393,0.762c-0.111,0.06-0.235,0.103-0.379,0.127C81.55,55.883,81.359,55.893,81.084,55.893L81.084,55.893
					L81.084,55.893z M82.182,58.259h0.659c-0.057-0.035-0.106-0.084-0.144-0.15l-1.271-1.959l0.145-0.012
					c0.393-0.03,0.704-0.151,0.924-0.36c0.221-0.209,0.33-0.472,0.33-0.805c0-0.223-0.052-0.422-0.152-0.592
					c-0.091-0.155-0.205-0.273-0.35-0.363c-0.146-0.089-0.314-0.151-0.502-0.184c-0.195-0.04-0.465-0.057-0.822-0.057H78.6
					c0.027,0.016,0.052,0.037,0.068,0.06c0.043,0.056,0.061,0.138,0.061,0.256v3.848c0,0.119-0.018,0.199-0.061,0.254
					c-0.016,0.023-0.041,0.044-0.072,0.063h0.635c-0.033-0.018-0.057-0.04-0.074-0.063c-0.044-0.055-0.064-0.136-0.064-0.254v-1.78
					h1.929l1.091,1.711c0.133,0.198,0.133,0.243,0.133,0.266C82.245,58.195,82.221,58.234,82.182,58.259L82.182,58.259
					L82.182,58.259z M83.168,58.434h-1.265v-0.272l0.073-0.011c0.045-0.007,0.073-0.016,0.086-0.023
					c-0.012-0.024-0.039-0.074-0.093-0.161l-1.044-1.632h-1.657v1.607c0,0.097,0.019,0.134,0.027,0.147
					c0.008,0.009,0.037,0.036,0.128,0.062l0.062,0.018v0.264h-1.15V58.17l0.063-0.018c0.097-0.028,0.124-0.052,0.128-0.061
					c0.008-0.008,0.027-0.041,0.027-0.148v-3.848c0-0.102-0.015-0.138-0.027-0.153c-0.001-0.003-0.03-0.032-0.124-0.055
					l-0.068-0.014v-0.268h2.663c0.37,0,0.648,0.019,0.854,0.059c0.211,0.037,0.399,0.107,0.562,0.209
					c0.171,0.103,0.304,0.24,0.408,0.421c0.118,0.195,0.177,0.425,0.177,0.68c0,0.378-0.127,0.692-0.382,0.931
					c-0.223,0.211-0.519,0.344-0.886,0.394l1.115,1.72c0.054,0.089,0.13,0.131,0.236,0.131h0.088L83.168,58.434L83.168,58.434z"/>
			</defs>
			<clipPath id="SVGID_101_">
				<use xlink:href="#SVGID_99_"  style="overflow:visible;"/>
			</clipPath>
			<clipPath id="SVGID_102_" style="clip-path:url(#SVGID_101_);">
				<use xlink:href="#SVGID_100_"  style="overflow:visible;"/>
			</clipPath>
			<rect id="XMLID_372_" x="73.335" y="48.605" style="clip-path:url(#SVGID_102_);fill:#918668;" width="14.834" height="14.829"/>
		</g>
	</g>
	<g id="XMLID_852_">
		<g>
			<defs>
				<rect id="SVGID_103_" x="12.5" y="12.5" width="103" height="55"/>
			</defs>
			<clipPath id="SVGID_104_">
				<use xlink:href="#SVGID_103_"  style="overflow:visible;"/>
			</clipPath>
		</g>
		<g>
			<defs>
				<rect id="SVGID_105_" x="12.5" y="12.5" width="103" height="55"/>
			</defs>
			<defs>
				<path id="SVGID_106_" d="M84.586,56.173v1.731h3.008c0.094,0,0.164-0.013,0.202-0.046c0.041-0.026,0.074-0.084,0.094-0.171H88
					v0.876h-0.11c-0.026-0.088-0.057-0.144-0.096-0.174c-0.041-0.029-0.109-0.045-0.208-0.045H83.83v-0.109
					c0.088-0.024,0.146-0.053,0.176-0.093c0.03-0.036,0.041-0.105,0.041-0.201v-3.845c0-0.095-0.014-0.164-0.041-0.202
					c-0.03-0.039-0.09-0.07-0.176-0.094v-0.11h3.721c0.097,0,0.161-0.015,0.201-0.042c0.041-0.028,0.069-0.086,0.092-0.173h0.114
					v0.873h-0.114c-0.02-0.085-0.05-0.142-0.089-0.17c-0.043-0.03-0.107-0.047-0.207-0.047h-2.961v1.6h1.94
					c0.097,0,0.167-0.013,0.204-0.045c0.041-0.031,0.072-0.087,0.094-0.171h0.11v0.872h-0.11c-0.023-0.084-0.054-0.142-0.094-0.173
					c-0.037-0.029-0.107-0.043-0.204-0.043h-1.941V56.173z"/>
			</defs>
			<clipPath id="SVGID_107_">
				<use xlink:href="#SVGID_105_"  style="overflow:visible;"/>
			</clipPath>
			<clipPath id="SVGID_108_" style="clip-path:url(#SVGID_107_);">
				<use xlink:href="#SVGID_106_"  style="overflow:visible;"/>
			</clipPath>
			<rect id="XMLID_366_" x="78.83" y="48.476" style="clip-path:url(#SVGID_108_);fill:#918668;" width="14.171" height="15.087"/>
		</g>
	</g>
	<g id="XMLID_846_">
		<g>
			<defs>
				<rect id="SVGID_109_" x="12.5" y="12.5" width="103" height="55"/>
			</defs>
			<clipPath id="SVGID_110_">
				<use xlink:href="#SVGID_109_"  style="overflow:visible;"/>
			</clipPath>
		</g>
		<g>
			<defs>
				<rect id="SVGID_111_" x="12.5" y="12.5" width="103" height="55"/>
			</defs>
			<defs>
				<path id="SVGID_112_" d="M84.008,58.258h3.58c0.117,0,0.201,0.02,0.259,0.061c0.025,0.018,0.046,0.042,0.065,0.074v-0.531
					c-0.019,0.029-0.043,0.052-0.065,0.069c-0.047,0.039-0.13,0.06-0.252,0.06h-3.096v-1.905h2.027c0.121,0,0.204,0.018,0.258,0.059
					c0.025,0.018,0.046,0.043,0.064,0.07v-0.528c-0.018,0.029-0.039,0.051-0.064,0.069c-0.051,0.043-0.133,0.061-0.258,0.061h-2.027
					v-1.773h3.049c0.112,0,0.195,0.02,0.256,0.061c0.025,0.019,0.048,0.043,0.065,0.069V53.65c-0.017,0.029-0.04,0.053-0.065,0.071
					c-0.061,0.04-0.141,0.057-0.253,0.057h-3.546c0.028,0.018,0.051,0.039,0.069,0.06c0.042,0.06,0.06,0.142,0.06,0.259v3.845
					c0,0.126-0.018,0.203-0.058,0.254C84.058,58.221,84.036,58.24,84.008,58.258L84.008,58.258L84.008,58.258z M88.088,58.65h-0.262
					l-0.018-0.061c-0.027-0.087-0.048-0.118-0.065-0.127c-0.011-0.009-0.05-0.029-0.154-0.029h-3.847V58.17l0.064-0.019
					c0.092-0.024,0.121-0.048,0.129-0.059c0.006-0.009,0.024-0.034,0.024-0.15v-3.845c0-0.114-0.02-0.147-0.024-0.152
					c-0.007-0.009-0.038-0.035-0.129-0.061l-0.064-0.017v-0.262h3.809c0.096,0,0.139-0.018,0.155-0.027
					c0.009-0.007,0.032-0.035,0.054-0.123l0.016-0.064h0.268v1.046h-0.27L87.76,54.37c-0.022-0.086-0.048-0.115-0.06-0.124
					c-0.016-0.008-0.061-0.027-0.152-0.027h-2.875v1.427h1.853c0.109,0,0.141-0.02,0.149-0.025c0.019-0.015,0.043-0.048,0.064-0.126
					l0.018-0.065h0.266v1.046h-0.266l-0.018-0.064c-0.023-0.086-0.049-0.118-0.063-0.127c-0.005-0.004-0.035-0.026-0.15-0.026
					h-1.853v1.559h2.922c0.11,0,0.141-0.02,0.145-0.024c0.024-0.016,0.05-0.055,0.066-0.124l0.015-0.067h0.266L88.088,58.65
					L88.088,58.65z"/>
			</defs>
			<clipPath id="SVGID_113_">
				<use xlink:href="#SVGID_111_"  style="overflow:visible;"/>
			</clipPath>
			<clipPath id="SVGID_114_" style="clip-path:url(#SVGID_113_);">
				<use xlink:href="#SVGID_112_"  style="overflow:visible;"/>
			</clipPath>
			<rect id="XMLID_363_" x="78.742" y="48.39" style="clip-path:url(#SVGID_114_);fill:#918668;" width="14.346" height="15.259"/>
		</g>
	</g>
	<g id="XMLID_842_">
		<g>
			<defs>
				<rect id="SVGID_115_" x="12.5" y="12.5" width="103" height="55"/>
			</defs>
			<clipPath id="SVGID_116_">
				<use xlink:href="#SVGID_115_"  style="overflow:visible;"/>
			</clipPath>
		</g>
		<g>
			<defs>
				<rect id="SVGID_117_" x="12.5" y="12.5" width="103" height="55"/>
			</defs>
			<defs>
				<path id="SVGID_118_" d="M93.292,53.981l-0.494,0.878l-0.096-0.049c0.039-0.103,0.058-0.165,0.058-0.192
					c0-0.067-0.085-0.142-0.256-0.221c-0.456-0.213-0.945-0.32-1.463-0.32c-0.421,0-0.789,0.078-1.104,0.233
					c-0.151,0.077-0.271,0.178-0.358,0.301c-0.088,0.124-0.133,0.251-0.133,0.388c0,0.113,0.037,0.223,0.104,0.322
					c0.067,0.1,0.161,0.175,0.271,0.227c0.126,0.056,0.271,0.095,0.439,0.118c0.168,0.02,0.441,0.04,0.822,0.048
					c0.526,0.017,0.901,0.042,1.13,0.076c0.226,0.032,0.414,0.09,0.56,0.17c0.39,0.216,0.585,0.546,0.585,0.986
					c0,0.421-0.179,0.767-0.532,1.035c-0.393,0.3-0.93,0.449-1.615,0.449c-0.397,0-0.742-0.04-1.037-0.118
					c-0.294-0.081-0.645-0.226-1.055-0.441c-0.114-0.051-0.185-0.079-0.203-0.079c-0.036,0-0.09,0.041-0.16,0.122l-0.093-0.056
					L89.177,57l0.094,0.053c-0.042,0.093-0.063,0.154-0.063,0.185c0,0.075,0.146,0.188,0.438,0.337
					c0.266,0.138,0.52,0.235,0.762,0.296c0.242,0.063,0.509,0.092,0.795,0.092c0.58,0,1.016-0.127,1.315-0.381
					c0.202-0.166,0.303-0.369,0.303-0.601c0-0.306-0.173-0.513-0.513-0.629c-0.11-0.039-0.227-0.063-0.343-0.074
					c-0.12-0.009-0.453-0.027-1.004-0.047c-0.396-0.015-0.702-0.044-0.925-0.09c-0.223-0.043-0.418-0.113-0.596-0.21
					c-0.162-0.091-0.291-0.219-0.384-0.383c-0.097-0.163-0.143-0.344-0.143-0.537c0-0.327,0.123-0.61,0.372-0.848
					c0.18-0.169,0.434-0.306,0.756-0.404c0.323-0.103,0.677-0.153,1.06-0.153c0.314,0,0.607,0.031,0.877,0.094
					c0.266,0.063,0.571,0.168,0.909,0.321c0.074,0.032,0.124,0.048,0.141,0.048c0.04,0,0.098-0.045,0.168-0.138L93.292,53.981
					L93.292,53.981z"/>
			</defs>
			<clipPath id="SVGID_119_">
				<use xlink:href="#SVGID_117_"  style="overflow:visible;"/>
			</clipPath>
			<clipPath id="SVGID_120_" style="clip-path:url(#SVGID_119_);">
				<use xlink:href="#SVGID_118_"  style="overflow:visible;"/>
			</clipPath>
			<rect id="XMLID_359_" x="83.662" y="48.606" style="clip-path:url(#SVGID_120_);fill:#918668;" width="14.696" height="14.823"/>
		</g>
	</g>
	<g id="XMLID_836_">
		<g>
			<defs>
				<rect id="SVGID_121_" x="12.5" y="12.5" width="103" height="55"/>
			</defs>
			<clipPath id="SVGID_122_">
				<use xlink:href="#SVGID_121_"  style="overflow:visible;"/>
			</clipPath>
		</g>
		<g>
			<defs>
				<rect id="SVGID_123_" x="12.5" y="12.5" width="103" height="55"/>
			</defs>
			<defs>
				<path id="SVGID_124_" d="M88.915,57.704c0.034,0,0.074,0.011,0.24,0.088c0.399,0.208,0.748,0.353,1.044,0.437
					c0.288,0.075,0.63,0.115,1.012,0.115c0.663,0,1.19-0.146,1.561-0.432c0.331-0.25,0.498-0.574,0.498-0.966
					c0-0.41-0.176-0.709-0.541-0.91c-0.136-0.074-0.315-0.129-0.53-0.161c-0.223-0.032-0.601-0.056-1.117-0.072
					c-0.448-0.01-0.712-0.036-0.829-0.049c-0.175-0.023-0.33-0.066-0.466-0.124c-0.13-0.062-0.232-0.148-0.308-0.259
					c-0.077-0.115-0.116-0.241-0.116-0.371c0-0.152,0.049-0.295,0.146-0.437c0.094-0.133,0.226-0.243,0.389-0.328
					c0.331-0.162,0.714-0.243,1.146-0.243c0.529,0,1.035,0.109,1.501,0.327c0.191,0.088,0.292,0.178,0.306,0.276l0.257-0.458
					c-0.027,0.015-0.054,0.022-0.081,0.022c-0.026,0-0.062-0.01-0.174-0.056c-0.332-0.148-0.633-0.254-0.898-0.316
					c-0.259-0.06-0.548-0.093-0.855-0.093c-0.377,0-0.724,0.051-1.032,0.149c-0.311,0.093-0.552,0.223-0.724,0.385
					c-0.23,0.221-0.346,0.479-0.346,0.785c0,0.179,0.046,0.344,0.133,0.492c0.084,0.148,0.203,0.268,0.354,0.352
					c0.168,0.092,0.354,0.159,0.568,0.202c0.219,0.043,0.516,0.071,0.913,0.087c0.545,0.02,0.883,0.037,1.005,0.047
					c0.128,0.013,0.251,0.037,0.365,0.078c0.379,0.129,0.572,0.368,0.572,0.712c0,0.26-0.112,0.484-0.334,0.667
					c-0.311,0.268-0.772,0.401-1.372,0.401c-0.3,0-0.573-0.032-0.817-0.094c-0.25-0.062-0.515-0.164-0.779-0.304
					c-0.389-0.198-0.471-0.305-0.482-0.39l-0.276,0.46C88.87,57.71,88.892,57.704,88.915,57.704 M91.211,58.517
					c-0.399,0-0.756-0.04-1.059-0.122c-0.31-0.086-0.671-0.236-1.073-0.448c-0.089-0.039-0.144-0.063-0.167-0.069
					c0,0.005-0.028,0.025-0.089,0.092l-0.05,0.053l-0.23-0.136l0.601-1.003l0.24,0.135l-0.033,0.074
					c-0.054,0.112-0.056,0.146-0.056,0.147c0.002,0,0.037,0.077,0.39,0.258c0.253,0.134,0.503,0.231,0.742,0.289
					c0.229,0.06,0.489,0.09,0.773,0.09c0.557,0,0.98-0.121,1.26-0.36c0.179-0.15,0.271-0.329,0.271-0.535
					c0-0.264-0.148-0.444-0.452-0.547c-0.102-0.036-0.21-0.059-0.324-0.069c-0.12-0.009-0.455-0.027-0.998-0.047
					c-0.406-0.015-0.712-0.046-0.938-0.09c-0.235-0.047-0.437-0.119-0.623-0.221c-0.176-0.101-0.318-0.241-0.419-0.416
					c-0.104-0.173-0.155-0.368-0.155-0.579c0-0.351,0.135-0.659,0.398-0.911c0.194-0.181,0.459-0.325,0.793-0.425
					c0.322-0.103,0.69-0.155,1.084-0.155c0.32,0,0.621,0.031,0.897,0.095c0.273,0.064,0.584,0.173,0.925,0.326
					c0.074,0.031,0.101,0.038,0.11,0.041c-0.003-0.005,0.031-0.023,0.094-0.103l0.045-0.057l0.243,0.122l-0.577,1.031l-0.24-0.127
					l0.025-0.071c0.042-0.112,0.053-0.15,0.053-0.161c0,0-0.017-0.055-0.203-0.14c-0.445-0.207-0.924-0.313-1.428-0.313
					c-0.402,0-0.762,0.075-1.064,0.225c-0.138,0.071-0.249,0.163-0.327,0.272c-0.08,0.112-0.117,0.221-0.117,0.337
					c0,0.095,0.031,0.187,0.09,0.275c0.055,0.084,0.133,0.149,0.233,0.196c0.12,0.052,0.259,0.09,0.414,0.111
					c0.113,0.011,0.372,0.038,0.813,0.048c0.533,0.015,0.906,0.04,1.14,0.073c0.236,0.036,0.435,0.097,0.589,0.181
					c0.419,0.232,0.629,0.591,0.629,1.063c0,0.451-0.189,0.822-0.564,1.104C92.475,58.359,91.915,58.517,91.211,58.517"/>
			</defs>
			<clipPath id="SVGID_125_">
				<use xlink:href="#SVGID_123_"  style="overflow:visible;"/>
			</clipPath>
			<clipPath id="SVGID_126_" style="clip-path:url(#SVGID_125_);">
				<use xlink:href="#SVGID_124_"  style="overflow:visible;"/>
			</clipPath>
			<rect id="XMLID_356_" x="83.543" y="48.521" style="clip-path:url(#SVGID_126_);fill:#918668;" width="14.901" height="14.996"/>
		</g>
	</g>
	<g id="XMLID_830_">
		<g>
			<defs>
				<rect id="SVGID_127_" x="12.5" y="12.5" width="103" height="55"/>
			</defs>
			<clipPath id="SVGID_128_">
				<use xlink:href="#SVGID_127_"  style="overflow:visible;"/>
			</clipPath>
		</g>
		<g>
			<defs>
				<rect id="SVGID_129_" x="12.5" y="12.5" width="103" height="55"/>
			</defs>
			<defs>
				<path id="SVGID_130_" d="M96.832,53.607c0.826,0,1.494,0.215,2,0.647c0.283,0.235,0.496,0.529,0.637,0.876
					c0.116,0.286,0.175,0.59,0.175,0.919c0,0.443-0.128,0.858-0.381,1.245c-0.276,0.427-0.668,0.734-1.162,0.924
					c-0.372,0.142-0.794,0.211-1.261,0.211c-0.823,0-1.484-0.214-1.989-0.645c-0.281-0.24-0.49-0.532-0.637-0.877
					c-0.117-0.281-0.173-0.578-0.173-0.891c0-0.459,0.124-0.886,0.374-1.274c0.277-0.422,0.667-0.73,1.17-0.921
					C95.936,53.685,96.353,53.616,96.832,53.607 M96.832,54.077c-0.701,0-1.257,0.194-1.666,0.585
					c-0.376,0.36-0.562,0.813-0.562,1.355c0,0.547,0.185,0.998,0.562,1.359c0.407,0.391,0.965,0.587,1.674,0.587
					c0.712,0,1.271-0.196,1.682-0.587c0.372-0.362,0.56-0.801,0.56-1.331c0-0.57-0.188-1.033-0.56-1.383
					c-0.225-0.21-0.466-0.354-0.722-0.438C97.516,54.127,97.195,54.079,96.832,54.077"/>
			</defs>
			<clipPath id="SVGID_131_">
				<use xlink:href="#SVGID_129_"  style="overflow:visible;"/>
			</clipPath>
			<clipPath id="SVGID_132_" style="clip-path:url(#SVGID_131_);">
				<use xlink:href="#SVGID_130_"  style="overflow:visible;"/>
			</clipPath>
			<rect id="XMLID_352_" x="89.04" y="48.607" style="clip-path:url(#SVGID_132_);fill:#918668;" width="15.604" height="14.822"/>
		</g>
	</g>
	<g id="XMLID_822_">
		<g>
			<defs>
				<rect id="SVGID_133_" x="12.5" y="12.5" width="103" height="55"/>
			</defs>
			<clipPath id="SVGID_134_">
				<use xlink:href="#SVGID_133_"  style="overflow:visible;"/>
			</clipPath>
		</g>
		<g>
			<defs>
				<rect id="SVGID_135_" x="12.5" y="12.5" width="103" height="55"/>
			</defs>
			<defs>
				<path id="SVGID_136_" d="M96.832,54.163c-0.677,0-1.217,0.189-1.606,0.56c-0.359,0.346-0.535,0.77-0.535,1.294
					c0,0.525,0.176,0.948,0.535,1.295c0.389,0.372,0.931,0.563,1.613,0.563c0.686,0,1.231-0.191,1.622-0.563
					c0.358-0.349,0.533-0.763,0.533-1.27c0-0.543-0.179-0.987-0.533-1.318c-0.215-0.201-0.442-0.337-0.688-0.418
					C97.496,54.213,97.186,54.166,96.832,54.163 M96.839,58.049c-0.729,0-1.311-0.206-1.734-0.613
					c-0.39-0.373-0.59-0.852-0.59-1.418c0-0.567,0.2-1.045,0.59-1.419c0.423-0.405,1.005-0.61,1.726-0.61
					c0.374,0.003,0.702,0.052,0.997,0.151c0.267,0.088,0.52,0.242,0.753,0.459c0.389,0.365,0.586,0.852,0.586,1.444
					c0,0.548-0.197,1.016-0.585,1.393C98.158,57.843,97.573,58.049,96.839,58.049 M96.832,53.694
					c-0.469,0.01-0.88,0.079-1.217,0.209c-0.483,0.184-0.862,0.481-1.126,0.888c-0.237,0.368-0.361,0.78-0.361,1.228
					c0,0.304,0.055,0.591,0.166,0.855c0.144,0.338,0.345,0.614,0.616,0.845c0.482,0.412,1.132,0.624,1.929,0.624
					c0.459,0,0.873-0.071,1.23-0.206c0.479-0.183,0.854-0.483,1.12-0.889c0.245-0.373,0.368-0.777,0.368-1.199
					c0-0.317-0.057-0.609-0.167-0.887c-0.139-0.331-0.344-0.616-0.613-0.841C98.288,53.905,97.634,53.694,96.832,53.694
					 M96.839,58.516c-0.842,0-1.528-0.223-2.044-0.666c-0.287-0.243-0.511-0.551-0.664-0.908c-0.118-0.286-0.179-0.598-0.179-0.924
					c0-0.48,0.13-0.925,0.388-1.323c0.284-0.437,0.693-0.759,1.213-0.956c0.353-0.136,0.783-0.211,1.278-0.219
					c0.845,0,1.54,0.225,2.06,0.668c0.291,0.242,0.512,0.549,0.66,0.908c0.121,0.301,0.179,0.611,0.179,0.952
					c0,0.457-0.132,0.893-0.395,1.294c-0.283,0.438-0.69,0.761-1.204,0.957C97.756,58.445,97.321,58.516,96.839,58.516"/>
			</defs>
			<clipPath id="SVGID_137_">
				<use xlink:href="#SVGID_135_"  style="overflow:visible;"/>
			</clipPath>
			<clipPath id="SVGID_138_" style="clip-path:url(#SVGID_137_);">
				<use xlink:href="#SVGID_136_"  style="overflow:visible;"/>
			</clipPath>
			<rect id="XMLID_348_" x="88.953" y="48.521" style="clip-path:url(#SVGID_138_);fill:#918668;" width="15.778" height="14.995"/>
		</g>
	</g>
	<g id="XMLID_816_">
		<g>
			<defs>
				<rect id="SVGID_139_" x="12.5" y="12.5" width="103" height="55"/>
			</defs>
			<clipPath id="SVGID_140_">
				<use xlink:href="#SVGID_139_"  style="overflow:visible;"/>
			</clipPath>
		</g>
		<g>
			<defs>
				<rect id="SVGID_141_" x="12.5" y="12.5" width="103" height="55"/>
			</defs>
			<defs>
				<path id="SVGID_142_" d="M101.315,56.248v1.693c0,0.094,0.013,0.162,0.045,0.2c0.029,0.039,0.087,0.069,0.172,0.093v0.113
					h-0.973v-0.113c0.089-0.024,0.145-0.053,0.173-0.093c0.033-0.037,0.045-0.105,0.045-0.2v-3.849c0-0.095-0.012-0.161-0.045-0.201
					c-0.027-0.039-0.084-0.069-0.173-0.089v-0.111h2.573c0.354,0,0.629,0.016,0.838,0.057c0.204,0.036,0.38,0.101,0.532,0.196
					c0.156,0.094,0.283,0.226,0.378,0.391c0.11,0.188,0.165,0.401,0.165,0.637c0,0.356-0.121,0.646-0.357,0.869
					c-0.237,0.225-0.561,0.353-0.974,0.384l1.19,1.838c0.07,0.117,0.171,0.171,0.308,0.171v0.113h-1.086v-0.113
					c0.111-0.016,0.168-0.048,0.168-0.095c0-0.023-0.041-0.096-0.121-0.221l-1.066-1.671h-1.792V56.248z M101.315,55.805h1.902
					c0.258,0,0.455-0.007,0.586-0.031c0.132-0.023,0.249-0.06,0.347-0.115c0.236-0.139,0.356-0.368,0.356-0.687
					c0-0.323-0.122-0.553-0.365-0.689c-0.107-0.057-0.228-0.097-0.362-0.12c-0.129-0.02-0.335-0.031-0.614-0.031h-1.852v1.673
					H101.315z"/>
			</defs>
			<clipPath id="SVGID_143_">
				<use xlink:href="#SVGID_141_"  style="overflow:visible;"/>
			</clipPath>
			<clipPath id="SVGID_144_" style="clip-path:url(#SVGID_143_);">
				<use xlink:href="#SVGID_142_"  style="overflow:visible;"/>
			</clipPath>
			<rect id="XMLID_342_" x="95.559" y="48.692" style="clip-path:url(#SVGID_144_);fill:#918668;" width="14.654" height="14.655"/>
		</g>
	</g>
	<g id="XMLID_808_">
		<g>
			<defs>
				<rect id="SVGID_145_" x="12.5" y="12.5" width="103" height="55"/>
			</defs>
			<clipPath id="SVGID_146_">
				<use xlink:href="#SVGID_145_"  style="overflow:visible;"/>
			</clipPath>
		</g>
		<g>
			<defs>
				<rect id="SVGID_147_" x="12.5" y="12.5" width="103" height="55"/>
			</defs>
			<defs>
				<path id="SVGID_148_" d="M101.403,55.719h1.814c0.266,0,0.454-0.011,0.573-0.03c0.122-0.021,0.231-0.057,0.318-0.106
					c0.208-0.124,0.312-0.323,0.312-0.612c0-0.29-0.106-0.491-0.321-0.613c-0.096-0.052-0.209-0.088-0.331-0.11
					c-0.128-0.02-0.336-0.031-0.601-0.031h-1.765L101.403,55.719L101.403,55.719z M103.217,55.893h-1.99v-1.848h1.94
					c0.279,0,0.49,0.01,0.628,0.033c0.143,0.023,0.275,0.066,0.389,0.128c0.273,0.154,0.41,0.411,0.41,0.765
					c0,0.35-0.135,0.606-0.398,0.762c-0.105,0.059-0.234,0.103-0.376,0.127C103.688,55.883,103.497,55.893,103.217,55.893
					L103.217,55.893L103.217,55.893z M104.319,58.259h0.657c-0.059-0.035-0.107-0.084-0.146-0.148l-1.267-1.96l0.145-0.012
					c0.39-0.03,0.699-0.151,0.921-0.36c0.22-0.207,0.33-0.477,0.33-0.804c0-0.221-0.052-0.418-0.155-0.593
					c-0.084-0.15-0.2-0.271-0.346-0.362c-0.145-0.089-0.315-0.151-0.503-0.184c-0.197-0.04-0.467-0.057-0.822-0.057h-2.395
					c0.026,0.016,0.049,0.037,0.065,0.06c0.043,0.053,0.062,0.137,0.062,0.256v3.848c0,0.122-0.019,0.202-0.063,0.255
					c-0.017,0.023-0.04,0.044-0.07,0.061h0.634c-0.032-0.018-0.057-0.04-0.076-0.063c-0.041-0.055-0.062-0.136-0.062-0.254v-1.78
					h1.93l1.089,1.711c0.126,0.193,0.136,0.233,0.136,0.266C104.383,58.195,104.356,58.234,104.319,58.259L104.319,58.259
					L104.319,58.259z M105.301,58.434h-1.261v-0.272l0.074-0.011c0.045-0.007,0.072-0.016,0.086-0.023
					c-0.012-0.02-0.039-0.068-0.1-0.162l-1.04-1.631h-1.657v1.607c0,0.097,0.019,0.134,0.027,0.147
					c0.009,0.009,0.037,0.036,0.128,0.062l0.062,0.018v0.264h-1.15v-0.265l0.066-0.018c0.085-0.023,0.118-0.045,0.125-0.06
					c0.011-0.014,0.03-0.046,0.03-0.148v-3.848c0-0.101-0.017-0.138-0.029-0.15c-0.005-0.011-0.034-0.037-0.122-0.058l-0.07-0.014
					v-0.268h2.662c0.367,0,0.647,0.019,0.857,0.059c0.208,0.037,0.396,0.105,0.56,0.207c0.171,0.107,0.308,0.249,0.407,0.424
					c0.118,0.199,0.176,0.428,0.176,0.679c0,0.377-0.127,0.688-0.382,0.931c-0.222,0.211-0.52,0.343-0.883,0.394l1.11,1.72
					c0.057,0.091,0.131,0.131,0.236,0.131h0.088L105.301,58.434L105.301,58.434z"/>
			</defs>
			<clipPath id="SVGID_149_">
				<use xlink:href="#SVGID_147_"  style="overflow:visible;"/>
			</clipPath>
			<clipPath id="SVGID_150_" style="clip-path:url(#SVGID_149_);">
				<use xlink:href="#SVGID_148_"  style="overflow:visible;"/>
			</clipPath>
			<rect id="XMLID_338_" x="95.47" y="48.605" style="clip-path:url(#SVGID_150_);fill:#918668;" width="14.831" height="14.829"/>
		</g>
	</g>
	<g id="XMLID_804_">
		<g>
			<defs>
				<rect id="SVGID_151_" x="12.5" y="12.5" width="103" height="55"/>
			</defs>
			<clipPath id="SVGID_152_">
				<use xlink:href="#SVGID_151_"  style="overflow:visible;"/>
			</clipPath>
		</g>
		<g>
			<defs>
				<rect id="SVGID_153_" x="12.5" y="12.5" width="103" height="55"/>
			</defs>
			<defs>
				<path id="SVGID_154_" d="M108.131,54.132v3.811c0,0.093,0.016,0.159,0.045,0.201c0.029,0.038,0.086,0.068,0.172,0.093v0.11
					h-0.972v-0.11c0.088-0.025,0.145-0.053,0.175-0.093c0.027-0.04,0.042-0.106,0.042-0.201v-3.811h-1.584
					c-0.098,0-0.163,0.015-0.201,0.044c-0.042,0.03-0.073,0.085-0.093,0.174h-0.112v-0.874h0.112
					c0.021,0.087,0.052,0.144,0.093,0.173c0.039,0.03,0.104,0.042,0.201,0.042h3.71c0.098,0,0.164-0.012,0.203-0.042
					c0.044-0.029,0.071-0.086,0.09-0.173h0.11v0.874h-0.11c-0.019-0.089-0.047-0.144-0.09-0.174
					c-0.039-0.028-0.105-0.044-0.203-0.044H108.131L108.131,54.132z"/>
			</defs>
			<clipPath id="SVGID_155_">
				<use xlink:href="#SVGID_153_"  style="overflow:visible;"/>
			</clipPath>
			<clipPath id="SVGID_156_" style="clip-path:url(#SVGID_155_);">
				<use xlink:href="#SVGID_154_"  style="overflow:visible;"/>
			</clipPath>
			<rect id="XMLID_332_" x="100.602" y="48.476" style="clip-path:url(#SVGID_156_);fill:#918668;" width="14.52" height="14.871"/>
		</g>
	</g>
	<g id="XMLID_798_">
		<g>
			<defs>
				<rect id="SVGID_157_" x="12.5" y="12.5" width="103" height="55"/>
			</defs>
			<clipPath id="SVGID_158_">
				<use xlink:href="#SVGID_157_"  style="overflow:visible;"/>
			</clipPath>
		</g>
		<g>
			<defs>
				<rect id="SVGID_159_" x="12.5" y="12.5" width="103" height="55"/>
			</defs>
			<defs>
				<path id="SVGID_160_" d="M107.548,58.261h0.632c-0.032-0.02-0.056-0.041-0.075-0.065c-0.042-0.057-0.062-0.14-0.062-0.254
					v-3.895h1.674c0.117,0,0.201,0.019,0.256,0.061c0.023,0.016,0.043,0.036,0.062,0.061v-0.515
					c-0.019,0.028-0.041,0.051-0.066,0.069c-0.05,0.037-0.132,0.055-0.252,0.055h-3.709c-0.118,0-0.197-0.016-0.255-0.056
					c-0.025-0.019-0.046-0.043-0.065-0.07v0.524c0.019-0.026,0.039-0.051,0.065-0.068c0.058-0.043,0.139-0.06,0.255-0.06h1.671
					v3.895c0,0.111-0.017,0.197-0.058,0.251C107.604,58.218,107.579,58.241,107.548,58.261L107.548,58.261L107.548,58.261z
					 M108.435,58.435h-1.147v-0.264l0.065-0.019c0.09-0.025,0.12-0.049,0.128-0.06c0.004-0.009,0.025-0.045,0.025-0.151v-3.723
					h-1.496c-0.099,0-0.137,0.019-0.153,0.03c-0.012,0.008-0.038,0.038-0.058,0.122l-0.014,0.068h-0.27V53.39h0.268l0.016,0.065
					c0.022,0.088,0.047,0.117,0.058,0.125c0.016,0.011,0.057,0.025,0.153,0.025h3.709c0.108,0,0.142-0.02,0.148-0.024
					c0.016-0.011,0.041-0.035,0.059-0.123l0.013-0.068h0.271v1.048h-0.271l-0.013-0.071c-0.015-0.078-0.038-0.108-0.053-0.119
					c-0.011-0.008-0.047-0.03-0.154-0.03h-1.5v3.723c0,0.101,0.021,0.138,0.029,0.151c0.007,0.006,0.035,0.033,0.126,0.06
					l0.062,0.019L108.435,58.435L108.435,58.435z"/>
			</defs>
			<clipPath id="SVGID_161_">
				<use xlink:href="#SVGID_159_"  style="overflow:visible;"/>
			</clipPath>
			<clipPath id="SVGID_162_" style="clip-path:url(#SVGID_161_);">
				<use xlink:href="#SVGID_160_"  style="overflow:visible;"/>
			</clipPath>
			<rect id="XMLID_329_" x="100.514" y="48.39" style="clip-path:url(#SVGID_162_);fill:#918668;" width="14.695" height="15.045"/>
		</g>
	</g>
	<g id="XMLID_794_">
		<g>
			<defs>
				<rect id="SVGID_163_" x="12.5" y="12.5" width="103" height="55"/>
			</defs>
			<clipPath id="SVGID_164_">
				<use xlink:href="#SVGID_163_"  style="overflow:visible;"/>
			</clipPath>
		</g>
		<g>
			<defs>
				<rect id="SVGID_165_" x="12.5" y="12.5" width="103" height="55"/>
			</defs>
			<defs>
				<path id="SVGID_166_" d="M115.134,53.981l-0.491,0.878l-0.096-0.049c0.037-0.103,0.058-0.165,0.058-0.192
					c0-0.067-0.085-0.142-0.255-0.221c-0.462-0.213-0.948-0.32-1.464-0.32c-0.426,0-0.791,0.078-1.103,0.233
					c-0.151,0.077-0.271,0.178-0.358,0.301c-0.09,0.124-0.134,0.251-0.134,0.388c0,0.113,0.037,0.223,0.102,0.322
					c0.073,0.1,0.16,0.175,0.274,0.227c0.12,0.056,0.268,0.095,0.436,0.118c0.172,0.02,0.442,0.04,0.823,0.048
					c0.527,0.017,0.902,0.042,1.129,0.076c0.227,0.032,0.415,0.09,0.563,0.17c0.387,0.216,0.582,0.546,0.582,0.986
					c0,0.421-0.179,0.767-0.529,1.035c-0.39,0.3-0.93,0.449-1.616,0.449c-0.395,0-0.742-0.04-1.037-0.118
					c-0.294-0.081-0.646-0.226-1.057-0.441c-0.114-0.051-0.181-0.079-0.201-0.079c-0.038,0-0.092,0.041-0.163,0.122l-0.093-0.056
					L111.021,57l0.094,0.053c-0.045,0.093-0.066,0.154-0.066,0.185c0,0.075,0.145,0.188,0.442,0.337
					c0.263,0.138,0.513,0.235,0.759,0.296c0.246,0.063,0.508,0.092,0.795,0.092c0.578,0,1.016-0.127,1.318-0.381
					c0.198-0.166,0.299-0.369,0.299-0.601c0-0.306-0.17-0.513-0.513-0.629c-0.11-0.039-0.222-0.063-0.34-0.074
					c-0.117-0.009-0.454-0.027-1.004-0.047c-0.395-0.015-0.702-0.044-0.926-0.09c-0.227-0.043-0.423-0.113-0.596-0.21
					c-0.164-0.091-0.29-0.219-0.387-0.383c-0.094-0.163-0.143-0.344-0.143-0.537c0-0.327,0.124-0.61,0.371-0.848
					c0.181-0.169,0.437-0.306,0.759-0.404c0.321-0.103,0.675-0.153,1.06-0.153c0.314,0,0.605,0.031,0.874,0.094
					c0.268,0.063,0.574,0.168,0.909,0.321c0.077,0.032,0.126,0.048,0.144,0.048c0.038,0,0.096-0.045,0.167-0.138L115.134,53.981
					L115.134,53.981z"/>
			</defs>
			<clipPath id="SVGID_167_">
				<use xlink:href="#SVGID_165_"  style="overflow:visible;"/>
			</clipPath>
			<clipPath id="SVGID_168_" style="clip-path:url(#SVGID_167_);">
				<use xlink:href="#SVGID_166_"  style="overflow:visible;"/>
			</clipPath>
			
				<rect id="XMLID_325_" x="105.503" y="48.606" style="clip-path:url(#SVGID_168_);fill:#918668;" width="14.696" height="14.823"/>
		</g>
	</g>
	<g id="XMLID_788_">
		<g>
			<defs>
				<rect id="SVGID_169_" x="12.5" y="12.5" width="103" height="55"/>
			</defs>
			<clipPath id="SVGID_170_">
				<use xlink:href="#SVGID_169_"  style="overflow:visible;"/>
			</clipPath>
		</g>
		<g>
			<defs>
				<rect id="SVGID_171_" x="12.5" y="12.5" width="103" height="55"/>
			</defs>
			<defs>
				<path id="SVGID_172_" d="M110.759,57.704c0.035,0,0.074,0.013,0.236,0.088c0.397,0.207,0.749,0.352,1.047,0.437
					c0.288,0.075,0.629,0.115,1.013,0.115c0.665,0,1.191-0.146,1.56-0.432c0.33-0.25,0.496-0.574,0.496-0.966
					c0-0.41-0.173-0.709-0.538-0.91c-0.138-0.074-0.318-0.129-0.533-0.161c-0.22-0.032-0.598-0.056-1.118-0.072
					c-0.421-0.01-0.683-0.032-0.829-0.049c-0.179-0.023-0.334-0.066-0.464-0.125c-0.123-0.055-0.224-0.139-0.31-0.256
					c-0.077-0.12-0.117-0.246-0.117-0.373c0-0.156,0.05-0.299,0.148-0.438c0.094-0.132,0.227-0.242,0.39-0.327
					c0.324-0.162,0.71-0.243,1.146-0.243c0.525,0,1.031,0.109,1.501,0.327c0.191,0.086,0.292,0.178,0.305,0.276l0.254-0.458
					c-0.026,0.015-0.053,0.022-0.077,0.022c-0.026,0-0.061-0.009-0.177-0.056c-0.33-0.148-0.63-0.254-0.896-0.316
					c-0.26-0.06-0.547-0.093-0.854-0.093c-0.38,0-0.727,0.051-1.032,0.149c-0.312,0.095-0.556,0.225-0.727,0.385
					c-0.227,0.221-0.344,0.485-0.344,0.785c0,0.174,0.045,0.342,0.132,0.492c0.09,0.153,0.205,0.268,0.354,0.352
					c0.164,0.092,0.351,0.157,0.571,0.202c0.218,0.043,0.516,0.071,0.913,0.087c0.553,0.02,0.887,0.037,1.005,0.047
					c0.128,0.013,0.245,0.037,0.364,0.078c0.379,0.129,0.572,0.368,0.572,0.712c0,0.258-0.111,0.483-0.329,0.667
					c-0.317,0.268-0.78,0.401-1.377,0.401c-0.301,0-0.566-0.03-0.814-0.094c-0.254-0.062-0.507-0.161-0.778-0.304
					c-0.388-0.197-0.474-0.305-0.488-0.388l-0.275,0.458C110.714,57.71,110.736,57.704,110.759,57.704 M113.055,58.517
					c-0.399,0-0.756-0.04-1.06-0.122c-0.311-0.088-0.674-0.238-1.076-0.448c-0.041-0.019-0.138-0.062-0.165-0.069
					c0.001,0.003-0.027,0.023-0.09,0.092l-0.05,0.053l-0.232-0.136l0.607-1.003l0.243,0.135l-0.037,0.074
					c-0.054,0.11-0.057,0.147-0.057,0.147c0.003,0,0.038,0.078,0.395,0.258c0.257,0.136,0.5,0.231,0.742,0.289
					c0.233,0.062,0.485,0.09,0.771,0.09c0.554,0,0.978-0.121,1.264-0.36c0.177-0.15,0.266-0.33,0.266-0.535
					c0-0.264-0.149-0.444-0.451-0.547c-0.107-0.036-0.211-0.06-0.322-0.069c-0.116-0.009-0.45-0.027-0.999-0.047
					c-0.405-0.015-0.712-0.046-0.938-0.09c-0.24-0.047-0.445-0.12-0.623-0.221c-0.177-0.099-0.315-0.235-0.422-0.416
					c-0.103-0.178-0.155-0.373-0.155-0.579c0-0.35,0.134-0.656,0.399-0.911c0.19-0.181,0.46-0.323,0.795-0.425
					c0.32-0.103,0.689-0.155,1.084-0.155c0.32,0,0.62,0.031,0.894,0.095c0.275,0.064,0.586,0.173,0.924,0.326
					c0.076,0.03,0.101,0.037,0.113,0.039c-0.003-0.004,0.031-0.022,0.094-0.102l0.045-0.056l0.242,0.122l-0.576,1.031l-0.24-0.127
					l0.026-0.071c0.042-0.112,0.052-0.15,0.052-0.161c0,0-0.018-0.055-0.203-0.14c-0.449-0.207-0.929-0.313-1.428-0.313
					c-0.408,0-0.766,0.075-1.064,0.225c-0.139,0.071-0.249,0.163-0.327,0.272c-0.08,0.11-0.117,0.218-0.117,0.337
					c0,0.094,0.029,0.187,0.087,0.276c0.065,0.088,0.139,0.152,0.235,0.194c0.116,0.052,0.255,0.089,0.413,0.111
					c0.2,0.023,0.49,0.04,0.815,0.048c0.534,0.015,0.907,0.04,1.139,0.075c0.234,0.034,0.435,0.093,0.59,0.179
					c0.419,0.232,0.628,0.591,0.628,1.063c0,0.449-0.188,0.82-0.562,1.104C114.32,58.359,113.759,58.517,113.055,58.517"/>
			</defs>
			<clipPath id="SVGID_173_">
				<use xlink:href="#SVGID_171_"  style="overflow:visible;"/>
			</clipPath>
			<clipPath id="SVGID_174_" style="clip-path:url(#SVGID_173_);">
				<use xlink:href="#SVGID_172_"  style="overflow:visible;"/>
			</clipPath>
			
				<rect id="XMLID_322_" x="105.382" y="48.521" style="clip-path:url(#SVGID_174_);fill:#918668;" width="14.905" height="14.996"/>
		</g>
	</g>
	<g id="XMLID_107_">
		<path id="XMLID_783_" style="fill:#918668;" d="M114.003,33.552c0.779,0,1.398,0.63,1.398,1.413c0,0.796-0.619,1.418-1.405,1.418
			c-0.775,0-1.409-0.622-1.409-1.418c0-0.783,0.635-1.413,1.409-1.413H114.003L114.003,33.552z M113.995,33.771
			c-0.626,0-1.135,0.535-1.135,1.194c0,0.672,0.509,1.199,1.143,1.199c0.633,0.007,1.137-0.527,1.137-1.193
			s-0.503-1.201-1.137-1.201L113.995,33.771L113.995,33.771z M113.731,35.786h-0.251v-1.575c0.132-0.018,0.259-0.036,0.447-0.036
			c0.243,0,0.396,0.049,0.493,0.118c0.094,0.069,0.144,0.179,0.144,0.327c0,0.207-0.14,0.332-0.31,0.383v0.014
			c0.138,0.025,0.234,0.149,0.267,0.382c0.038,0.244,0.074,0.34,0.101,0.388h-0.267c-0.036-0.048-0.077-0.192-0.105-0.401
			c-0.04-0.2-0.141-0.276-0.343-0.276h-0.177v0.676H113.731z M113.731,34.913h0.183c0.208,0,0.386-0.072,0.386-0.269
			c0-0.138-0.1-0.276-0.386-0.276c-0.08,0-0.14,0.007-0.183,0.014V34.913L113.731,34.913z"/>
	</g>
</g>
</svg>
