<?xml version="1.0" encoding="utf-8"?>
<!-- Generator: Adobe Illustrator 22.0.1, SVG Export Plug-In . SVG Version: 6.00 Build 0)  -->
<svg version="1.1" id="Capa_1" xmlns="http://www.w3.org/2000/svg" xmlns:xlink="http://www.w3.org/1999/xlink" x="0px" y="0px"
	 viewBox="0 0 130 80" style="enable-background:new 0 0 130 80;" xml:space="preserve">
<style type="text/css">
	.st0{fill:#918668;}
</style>
<g>
	<path class="st0" d="M9,36.1c-3.1,0-4.4,0-4.4,0s0,1.4-0.2,2.8l0.2,0c1.1-1.9,1.5-2.3,2-2.3h1.2v5.7c0,0.4-0.5,0.5-1.3,0.7l0,0.1
		c0,0,1.5,0,2.5,0c1,0,2.6,0,2.6,0v-0.1c-0.8-0.2-1.3-0.3-1.3-0.7v-5.7h1.1c0.6,0,1,0.4,2,2.3l0.2,0c-0.2-1.4-0.2-2.8-0.2-2.8
		S12.1,36.1,9,36.1z"/>
	<path class="st0" d="M27.6,36.2l0-0.1c0,0-1.4,0-2.4,0c-1,0-2.3,0-2.3,0l0,0.1c0.7,0.2,1.1,0.3,1.1,0.8v2.2h-4.3V37
		c0-0.5,0.5-0.6,1.1-0.8l0-0.1c0,0-1.3,0-2.3,0c-1,0-2.4,0-2.4,0l0,0.1c0.8,0.2,1.2,0.3,1.2,0.7v5.2c0,0.4-0.4,0.5-1.2,0.7l0,0.1
		c0,0,1.4,0,2.4,0c1,0,2.3,0,2.3,0l0-0.1c-0.6-0.2-1.1-0.3-1.1-0.8v-2.5h4.3v2.5c0,0.5-0.4,0.6-1.1,0.8l0,0.1c0,0,1.3,0,2.3,0
		c1,0,2.4,0,2.4,0l0-0.1c-0.8-0.2-1.2-0.3-1.2-0.7V37C26.4,36.6,26.8,36.5,27.6,36.2z"/>
	<path class="st0" d="M39.4,43.1c0,0,0.2-1.3,0.4-2.8l-0.2,0c-1,1.7-1.5,2.3-2.2,2.3h-2.6c-0.7,0-1.1-0.2-1.1-0.7v-2.2h1.9
		c0.3,0,0.6,0.1,1.2,1.4l0.2,0c0,0,0-0.9,0-1.6c0-0.9,0-1.7,0-1.7l-0.2,0c-0.6,1.3-0.8,1.4-1.2,1.4h-1.9v-2.6h3.4c0.6,0,1,0.5,2,2
		l0.2,0c-0.1-1.1-0.2-2.5-0.2-2.5s-2.3,0-6.8,0c-0.8,0-2.3,0-2.3,0l0,0.1c0.8,0.2,1.2,0.3,1.2,0.7v5.2c0,0.4-0.4,0.5-1.2,0.7l0,0.1
		c0,0,1.3,0,2.3,0C36.9,43.1,39.4,43.1,39.4,43.1z"/>
	<path class="st0" d="M55,42.6h-2.6c-0.7,0-1.1-0.2-1.1-0.7v-2.2h1.9c0.3,0,0.6,0.1,1.2,1.4l0.2,0c0,0,0-0.9,0-1.6
		c0-0.9,0-1.7,0-1.7l-0.2,0c-0.6,1.3-0.8,1.4-1.2,1.4h-1.9v-2.6h3.4c0.6,0,1,0.5,2,2l0.2,0c-0.1-1.1-0.2-2.5-0.2-2.5s-2.3,0-6.8,0
		c-0.8,0-2.3,0-2.3,0l0,0.1c0.8,0.2,1.2,0.3,1.2,0.7v5.2c0,0.4-0.4,0.5-1.2,0.7l0,0.1c0,0,1.3,0,2.3,0c4.7,0,7.2,0,7.2,0
		s0.2-1.3,0.4-2.8l-0.2,0C56.2,42,55.7,42.6,55,42.6z"/>
	<path class="st0" d="M66.7,38.6c-0.9-0.2-3-0.2-3.9-0.4c-0.9-0.2-1.2-0.4-1.2-0.8c0-0.6,0.9-1.1,2.6-1.1c1,0,1.9,0.2,2.4,0.6
		c0.3,0.3,0.7,0.7,1,1.2l0.2,0c-0.1-1.3-0.1-2.1-0.1-2.1h-0.3c0,0.2-0.2,0.3-0.4,0.3c-0.4,0-1-0.5-2.8-0.5c-2.2,0-4,0.9-4,2.4
		c0,0.9,0.4,1.5,1.5,1.9c0.9,0.3,3.1,0.4,4,0.5c1.2,0.1,1.4,0.4,1.4,0.8c0,0.7-0.9,1.4-2.6,1.4c-1.1,0-2.3-0.4-2.7-0.7
		c-0.5-0.5-1-0.9-1.5-1.6l-0.2,0c0.2,1.2,0.3,2.6,0.3,2.6h0.3c0.1-0.3,0.2-0.4,0.5-0.4c0.5,0,1.2,0.6,3.3,0.6c2.4,0,4-1.2,4-2.7
		C68.6,39.6,68.1,38.9,66.7,38.6z"/>
	<path class="st0" d="M78,42.9c-0.8-0.2-1.3-0.3-1.3-0.7v-5.7h1.1c0.6,0,1,0.4,2,2.3l0.2,0c-0.2-1.4-0.2-2.8-0.2-2.8s-1.2,0-4.3,0
		c-3.1,0-4.4,0-4.4,0s0,1.4-0.2,2.8l0.2,0c1.1-1.9,1.5-2.3,2-2.3h1.2v5.7c0,0.4-0.5,0.5-1.3,0.7l0,0.1c0,0,1.5,0,2.5,0
		c1,0,2.6,0,2.6,0V42.9z"/>
	<path class="st0" d="M84,43.1l0-0.1c-0.9-0.2-1.1-0.6-0.8-1.1l0.3-0.6h3.6l0.4,0.7c0.3,0.5,0.1,0.7-0.9,0.9l0,0.1c0,0,1.5,0,2.7,0
		c1.2,0,2.3,0,2.3,0l0-0.1c-0.8-0.3-1-0.4-1.3-0.9l-3.5-6H86l-3.5,5.8c-0.4,0.6-0.7,0.8-1.4,1l0,0.1c0,0,0.3,0,1.3,0
		C83.4,43.1,84,43.1,84,43.1z M85.4,38.2l1.5,2.6h-3L85.4,38.2z"/>
	<path class="st0" d="M97.3,36.1c-3.1,0-4.4,0-4.4,0s0,1.4-0.2,2.8l0.2,0c1.1-1.9,1.5-2.3,2-2.3h1.2v5.7c0,0.4-0.5,0.5-1.3,0.7
		l0,0.1c0,0,1.5,0,2.5,0c1,0,2.6,0,2.6,0v-0.1c-0.8-0.2-1.3-0.3-1.3-0.7v-5.7h1.1c0.6,0,1,0.4,2,2.3l0.2,0c-0.2-1.4-0.2-2.8-0.2-2.8
		S100.5,36.1,97.3,36.1z"/>
	<path class="st0" d="M111.6,42.6H109c-0.7,0-1.1-0.2-1.1-0.7v-2.2h1.9c0.3,0,0.6,0.1,1.2,1.4l0.2,0c0,0,0-0.9,0-1.6
		c0-0.9,0-1.7,0-1.7l-0.2,0c-0.6,1.3-0.8,1.4-1.2,1.4h-1.9v-2.6h3.4c0.6,0,1,0.5,2,2l0.2,0c-0.1-1.1-0.2-2.5-0.2-2.5s-2.3,0-6.8,0
		c-0.8,0-2.3,0-2.3,0l0,0.1c0.8,0.2,1.2,0.3,1.2,0.7v5.2c0,0.4-0.4,0.5-1.2,0.7l0,0.1c0,0,1.3,0,2.3,0c4.7,0,7.2,0,7.2,0
		s0.2-1.3,0.4-2.8l-0.2,0C112.8,42,112.3,42.6,111.6,42.6z"/>
	<path class="st0" d="M123.3,38.6c-0.9-0.2-3-0.2-3.9-0.4c-0.9-0.2-1.2-0.4-1.2-0.8c0-0.6,0.9-1.1,2.6-1.1c1,0,1.9,0.2,2.4,0.6
		c0.3,0.3,0.7,0.7,1,1.2l0.2,0c-0.1-1.3-0.1-2.1-0.1-2.1h-0.3c0,0.2-0.2,0.3-0.4,0.3c-0.4,0-1-0.5-2.8-0.5c-2.2,0-4,0.9-4,2.4
		c0,0.9,0.4,1.5,1.5,1.9c0.9,0.3,3.1,0.4,4,0.5c1.2,0.1,1.4,0.4,1.4,0.8c0,0.7-0.9,1.4-2.6,1.4c-1.1,0-2.3-0.4-2.7-0.7
		c-0.5-0.5-1-0.9-1.5-1.6l-0.2,0c0.2,1.2,0.3,2.6,0.3,2.6h0.3c0.1-0.3,0.2-0.4,0.5-0.4c0.5,0,1.2,0.6,3.3,0.6c2.4,0,4-1.2,4-2.7
		C125.2,39.6,124.7,38.9,123.3,38.6z"/>
</g>
</svg>
