<?xml version="1.0" encoding="iso-8859-1"?>
<!-- Generator: Adobe Illustrator 19.0.0, SVG Export Plug-In . SVG Version: 6.00 Build 0)  -->
<svg version="1.1" id="Capa_1" xmlns="http://www.w3.org/2000/svg" xmlns:xlink="http://www.w3.org/1999/xlink" x="0px" y="0px"
	 viewBox="0 0 130 80" style="enable-background:new 0 0 130 80;" xml:space="preserve">
<g id="XMLID_28_">
	<g id="XMLID_953_">
		<defs>
			<rect id="XMLID_276_" x="7.5" y="17" width="117" height="44"/>
		</defs>
		<defs>
			<path id="XMLID_274_" d="M15.71,48.609c0,0.237-0.004,0.519-0.013,0.842c-0.007,0.326-0.015,0.61-0.02,0.86
				c0.01,0.125,0.019,0.296,0.023,0.518c0.007,0.222,0.01,0.351,0.01,0.386c0,0.226-0.012,0.351-0.033,0.373
				c-0.105-0.189-0.203-0.385-0.292-0.585c-0.023-0.157-0.048-0.402-0.068-0.735c-0.448-0.135-0.958-0.238-1.523-0.31
				c-0.57-0.073-1.106-0.11-1.61-0.11c0,0.464-0.013,1.047-0.041,1.745c-0.025,0.702-0.041,1.058-0.041,1.068v3.695
				c0,0.306,0.015,0.756,0.041,1.356c0.028,0.6,0.041,1.057,0.041,1.371c0.275,0,0.592,0.028,0.959,0.08
				c0.366,0.05,0.549,0.158,0.549,0.317c0,0.058-0.115,0.087-0.343,0.087c-0.113,0-0.392-0.018-0.833-0.057
				c-0.443-0.038-0.749-0.055-0.921-0.055c-0.114,0-0.488,0.025-1.124,0.079c-0.251,0.023-0.459,0.033-0.63,0.033
				c-0.218,0-0.321-0.029-0.321-0.085c0-0.112,0.158-0.203,0.482-0.275c0.324-0.076,0.655-0.111,0.997-0.111
				c0-0.316,0.018-0.775,0.054-1.372c0.036-0.601,0.053-1.054,0.053-1.359v-3.699c0-0.306-0.017-0.769-0.053-1.391
				c-0.036-0.625-0.054-1.098-0.054-1.427c-0.578,0-1.11,0.032-1.589,0.092c-0.48,0.061-0.966,0.171-1.453,0.327
				c-0.022,0.477-0.049,0.8-0.083,0.967c-0.08,0.124-0.164,0.241-0.254,0.353c-0.034-0.01-0.06-0.08-0.07-0.212
				c-0.01-0.128-0.015-0.213-0.015-0.259c0-0.292,0.004-0.48,0.009-0.563c0.004-0.086,0.017-0.159,0.042-0.227
				c0.012-0.1,0.005-0.321-0.018-0.663c-0.022-0.341-0.044-0.681-0.068-1.017c0.057,0.023,0.126,0.04,0.204,0.052
				c0.059,0.19,0.115,0.38,0.171,0.557c1.191,0.182,2.43,0.271,3.722,0.271c1.304,0,2.551-0.09,3.739-0.271
				c0.024-0.273,0.11-0.491,0.258-0.647H15.71L15.71,48.609z"/>
		</defs>
		<clipPath id="XMLID_2_">
			<use xlink:href="#XMLID_276_"  style="overflow:visible;"/>
		</clipPath>
		<clipPath id="XMLID_3_" style="clip-path:url(#XMLID_2_);">
			<use xlink:href="#XMLID_274_"  style="overflow:visible;"/>
		</clipPath>
		<rect id="XMLID_275_" x="2.5" y="43.609" style="clip-path:url(#XMLID_3_);fill:#918568;" width="18.21" height="20.961"/>
	</g>
	<g id="XMLID_949_">
		<defs>
			<rect id="XMLID_273_" x="7.5" y="17" width="117" height="44"/>
		</defs>
		<defs>
			<path id="XMLID_271_" d="M23.625,59.484c0,0.063-0.08,0.094-0.238,0.094c-0.115,0-0.328-0.022-0.639-0.061
				c-0.309-0.038-0.499-0.058-0.568-0.058c-0.124,0-0.347,0.02-0.666,0.058c-0.316,0.04-0.507,0.061-0.57,0.061
				c-0.151,0-0.227-0.026-0.227-0.082c0-0.104,0.164-0.19,0.494-0.252c0.105-0.019,0.269-0.036,0.49-0.053
				c0.036-0.366,0.055-0.707,0.058-1.028c0.007-0.319,0.008-0.69,0.008-1.119v-1.304h-3.849v1.303c0,0.251,0.01,0.657,0.03,1.226
				c0.019,0.569,0.03,0.877,0.03,0.921c0.122,0,0.32,0.007,0.594,0.032c0.272,0.02,0.41,0.11,0.41,0.265
				c0,0.06-0.084,0.092-0.253,0.092c-0.14,0-0.282-0.009-0.424-0.026c-0.505-0.064-0.761-0.093-0.771-0.093
				c-0.115,0-0.321,0.02-0.624,0.058c-0.3,0.04-0.513,0.061-0.638,0.061c-0.15,0-0.224-0.026-0.224-0.083
				c0-0.082,0.114-0.156,0.344-0.219c0.232-0.066,0.453-0.098,0.666-0.098c0.061-0.683,0.094-1.394,0.094-2.138v-2.895
				c0-0.76-0.033-1.478-0.094-2.151c-0.16,0-0.336-0.018-0.533-0.052c-0.319-0.06-0.477-0.144-0.477-0.251
				c0-0.06,0.084-0.09,0.252-0.09c0.132,0,0.357,0.02,0.671,0.06c0.314,0.036,0.502,0.055,0.563,0.055
				c0.108,0,0.306-0.019,0.599-0.055c0.291-0.04,0.5-0.06,0.624-0.06c0.15,0,0.225,0.029,0.225,0.081
				c0,0.102-0.102,0.176-0.304,0.231c-0.203,0.055-0.437,0.08-0.7,0.08c0,0.249-0.011,0.658-0.03,1.225
				c-0.02,0.571-0.03,0.879-0.03,0.924v1.364h3.849v-1.363v-0.279c0-0.618-0.022-1.238-0.066-1.869
				c-0.22-0.008-0.385-0.016-0.49-0.024c-0.329-0.054-0.494-0.145-0.494-0.279c0-0.063,0.08-0.093,0.239-0.093
				c0.117,0,0.329,0.02,0.638,0.06c0.309,0.036,0.504,0.055,0.585,0.055c0.114,0,0.323-0.019,0.623-0.055
				c0.301-0.04,0.496-0.06,0.585-0.06c0.158,0,0.238,0.03,0.238,0.09c0,0.071-0.113,0.138-0.339,0.203
				c-0.225,0.065-0.44,0.099-0.643,0.099c-0.037,0.355-0.06,0.682-0.073,0.983c-0.014,0.3-0.022,0.689-0.022,1.168v2.895
				c0,0.47,0.005,0.852,0.015,1.148c0.007,0.295,0.035,0.626,0.079,0.99c0.151,0,0.35,0.025,0.605,0.073
				C23.499,59.301,23.625,59.378,23.625,59.484"/>
		</defs>
		<clipPath id="XMLID_4_">
			<use xlink:href="#XMLID_273_"  style="overflow:visible;"/>
		</clipPath>
		<clipPath id="XMLID_5_" style="clip-path:url(#XMLID_4_);">
			<use xlink:href="#XMLID_271_"  style="overflow:visible;"/>
		</clipPath>
		<rect id="XMLID_272_" x="11.049" y="46.603" style="clip-path:url(#XMLID_5_);fill:#918568;" width="17.576" height="17.976"/>
	</g>
	<g id="XMLID_945_">
		<defs>
			<rect id="XMLID_270_" x="7.5" y="17" width="117" height="44"/>
		</defs>
		<defs>
			<path id="XMLID_268_" d="M30.038,59.994c-0.071,0.025-0.128-0.023-0.172-0.147c-0.009-0.034-0.028-0.098-0.054-0.187
				c-0.487-0.071-0.969-0.121-1.444-0.152c-0.474-0.031-0.944-0.047-1.405-0.047c-0.461,0-0.88,0.01-1.257,0.034
				c-0.379,0.023-0.778,0.045-1.204,0.075c-0.179,0-0.268-0.023-0.268-0.066c0-0.136,0.117-0.225,0.349-0.264
				c0.232-0.041,0.454-0.06,0.668-0.06c0.062-0.681,0.092-1.394,0.092-2.137v-2.894c0-0.76-0.03-1.477-0.092-2.152
				c-0.152,0-0.36-0.018-0.621-0.065c-0.264-0.041-0.395-0.123-0.395-0.237c0-0.062,0.117-0.093,0.347-0.093
				c0.478,0.028,0.896,0.053,1.25,0.071c0.357,0.019,0.734,0.029,1.132,0.029c0.462,0,0.916-0.017,1.365-0.048
				c0.448-0.033,0.916-0.09,1.404-0.173c0.062-0.227,0.111-0.376,0.147-0.438c0.046-0.02,0.097-0.038,0.159-0.057
				c0.01,0.017,0.001,0.184-0.019,0.497c-0.024,0.316-0.043,0.592-0.062,0.83c0.01,0.1,0.019,0.23,0.028,0.391
				c0.009,0.166,0.012,0.265,0.012,0.298c0,0.195-0.017,0.3-0.052,0.307c-0.072-0.146-0.143-0.299-0.214-0.453
				c-0.008-0.122-0.023-0.313-0.041-0.573c-0.355-0.115-0.738-0.195-1.15-0.249c-0.413-0.052-0.828-0.078-1.246-0.078
				c-0.426,0-0.801,0.019-1.131,0.052c0,0.248-0.006,0.657-0.026,1.225c-0.018,0.568-0.027,0.873-0.027,0.918v1.218h1.133
				c0.754,0,1.468-0.089,2.141-0.266c0.055-0.336,0.095-0.557,0.121-0.665c0.062-0.06,0.127-0.123,0.199-0.186
				c0.009,0.028,0.004,0.19-0.014,0.486c-0.017,0.297-0.036,0.555-0.052,0.778c0.007,0.124,0.017,0.294,0.033,0.505
				c0.013,0.213,0.019,0.404,0.019,0.572c0,0.187-0.013,0.279-0.041,0.279c-0.114,0-0.187-0.119-0.219-0.358
				c-0.03-0.241-0.047-0.444-0.047-0.611c-0.335-0.097-0.677-0.165-1.017-0.206c-0.341-0.039-0.717-0.06-1.124-0.06h-1.133v1.408
				c0,0.248,0.009,0.654,0.027,1.221c0.02,0.565,0.026,0.872,0.026,0.916c0.834,0,1.439-0.018,1.812-0.053
				c0.7-0.063,1.277-0.2,1.729-0.41c0.009-0.212,0.023-0.37,0.039-0.476c0.054-0.326,0.143-0.486,0.267-0.486
				c0.036,0,0.053,0.08,0.053,0.249c0,0.108-0.007,0.231-0.02,0.372c-0.014,0.143-0.024,0.256-0.033,0.346
				c0,0.034,0.009,0.211,0.026,0.523c0.018,0.315,0.026,0.504,0.026,0.565v0.106C30.065,59.94,30.056,59.967,30.038,59.994"/>
		</defs>
		<clipPath id="XMLID_6_">
			<use xlink:href="#XMLID_270_"  style="overflow:visible;"/>
		</clipPath>
		<clipPath id="XMLID_7_" style="clip-path:url(#XMLID_6_);">
			<use xlink:href="#XMLID_268_"  style="overflow:visible;"/>
		</clipPath>
		<rect id="XMLID_269_" x="19.234" y="45.985" style="clip-path:url(#XMLID_7_);fill:#918568;" width="15.831" height="19.016"/>
	</g>
	<g id="XMLID_941_">
		<defs>
			<rect id="XMLID_267_" x="7.5" y="17" width="117" height="44"/>
		</defs>
		<defs>
			<path id="XMLID_265_" d="M44.549,54.537c0,0.125-0.12,0.221-0.363,0.289c-0.035,0.008-0.193,0.038-0.469,0.085v2.643
				c0,0.099,0.017,0.232,0.053,0.388c0.038,0.159,0.054,0.268,0.054,0.322c0,0.157-0.119,0.249-0.366,0.273
				c-0.241,0.022-0.732,0.231-1.469,0.626c-0.669,0.362-1.453,0.542-2.347,0.542c-1.362,0-2.447-0.496-3.266-1.492
				c-0.759-0.904-1.139-2.007-1.139-3.32c0-1.492,0.457-2.778,1.376-3.863c0.976-1.163,2.198-1.746,3.672-1.746
				c0.453,0,0.932,0.072,1.444,0.217c0.372,0.109,0.844,0.278,1.408,0.51c0.013-0.023,0.075-0.326,0.189-0.909
				c0.055-0.329,0.158-0.494,0.305-0.494c0.055,0,0.086,0.128,0.086,0.392c0,0.227-0.022,0.522-0.061,0.887
				c-0.041,0.362-0.096,0.721-0.166,1.074c-0.01,0.045-0.018,0.128-0.018,0.255c0,0.149,0.02,0.416,0.058,0.8
				c0.038,0.388,0.056,0.649,0.056,0.787c0,0.214-0.03,0.323-0.089,0.323c-0.105,0-0.193-0.167-0.267-0.495
				c-0.071-0.327-0.106-0.754-0.106-1.278c-0.476-0.491-0.993-0.882-1.552-1.176c-0.559-0.29-1.134-0.437-1.72-0.437
				c-1.038,0-1.921,0.399-2.643,1.195c-0.724,0.797-1.086,1.821-1.086,3.06c0,1.359,0.411,2.557,1.233,3.603
				c0.823,1.046,1.822,1.569,2.999,1.569c0.373,0,0.752-0.064,1.13-0.189c0.381-0.123,0.792-0.315,1.234-0.574v-3.479
				c-0.313-0.023-0.54-0.04-0.687-0.052c-0.458-0.055-0.686-0.158-0.686-0.306c0-0.077,0.103-0.118,0.304-0.118
				c0.194,0,0.347,0.009,0.458,0.017c0.576,0.055,0.871,0.082,0.882,0.082c0.113,0,0.328-0.019,0.643-0.058
				c0.317-0.04,0.531-0.056,0.644-0.056C44.459,54.436,44.549,54.468,44.549,54.537"/>
		</defs>
		<clipPath id="XMLID_8_">
			<use xlink:href="#XMLID_267_"  style="overflow:visible;"/>
		</clipPath>
		<clipPath id="XMLID_9_" style="clip-path:url(#XMLID_8_);">
			<use xlink:href="#XMLID_265_"  style="overflow:visible;"/>
		</clipPath>
		<rect id="XMLID_266_" x="30.237" y="43.609" style="clip-path:url(#XMLID_9_);fill:#918568;" width="19.313" height="21.096"/>
	</g>
	<g id="XMLID_937_">
		<defs>
			<rect id="XMLID_264_" x="7.5" y="17" width="117" height="44"/>
		</defs>
		<defs>
			<path id="XMLID_262_" d="M51.504,59.147c0,0.145-0.153,0.266-0.458,0.364c-0.305,0.098-0.555,0.148-0.749,0.148
				c-0.214,0-0.416-0.089-0.6-0.266c-0.126-0.116-0.282-0.315-0.469-0.599l-1.852-2.748c-0.099-0.149-0.146-0.251-0.146-0.311
				c0-0.069,0.084-0.105,0.253-0.105h0.28h0.333c0.551,0,1.001-0.111,1.348-0.335c0.462-0.302,0.692-0.791,0.692-1.469
				c0-0.697-0.234-1.208-0.706-1.54c-0.381-0.268-0.897-0.4-1.543-0.4c-0.321,0-0.627,0.026-0.921,0.08
				c0,0.248-0.01,0.662-0.031,1.233c-0.019,0.573-0.028,0.88-0.028,0.924v2.884c0,0.255,0.009,0.671,0.028,1.243
				c0.02,0.574,0.031,0.875,0.031,0.9c0.211,0.018,0.444,0.048,0.695,0.087c0.249,0.041,0.376,0.123,0.376,0.248
				c0,0.045-0.084,0.066-0.252,0.066c-0.073,0-0.269-0.016-0.59-0.047c-0.324-0.032-0.548-0.048-0.671-0.048
				c-0.088,0-0.358,0.024-0.811,0.069c-0.176,0.015-0.328,0.025-0.452,0.025c-0.15,0-0.227-0.022-0.227-0.066
				c0-0.082,0.103-0.145,0.308-0.2c0.239-0.045,0.474-0.088,0.704-0.134c0.062-0.652,0.094-1.366,0.094-2.134v-2.868
				c0-0.761-0.032-1.478-0.095-2.151c-0.268-0.033-0.471-0.059-0.605-0.078c-0.268-0.043-0.405-0.117-0.405-0.225
				c0-0.071,0.109-0.105,0.322-0.105c0.124,0,0.334,0.015,0.628,0.048c0.293,0.036,0.492,0.052,0.599,0.052
				c0.214,0,0.536-0.017,0.968-0.052c0.43-0.033,0.752-0.048,0.966-0.048c0.633,0,1.166,0.146,1.601,0.439
				c0.523,0.347,0.786,0.843,0.786,1.493c0,0.693-0.266,1.263-0.799,1.708c-0.531,0.445-1.172,0.665-1.918,0.665l1.906,2.619
				c0.169,0.219,0.294,0.364,0.374,0.434c0.15,0.133,0.306,0.198,0.466,0.198c0.018,0,0.082-0.016,0.193-0.054
				c0.11-0.034,0.196-0.052,0.259-0.052C51.464,59.04,51.504,59.078,51.504,59.147"/>
		</defs>
		<clipPath id="XMLID_10_">
			<use xlink:href="#XMLID_264_"  style="overflow:visible;"/>
		</clipPath>
		<clipPath id="XMLID_11_" style="clip-path:url(#XMLID_10_);">
			<use xlink:href="#XMLID_262_"  style="overflow:visible;"/>
		</clipPath>
		<rect id="XMLID_263_" x="40.034" y="46.59" style="clip-path:url(#XMLID_11_);fill:#918568;" width="16.47" height="18.069"/>
	</g>
	<g id="XMLID_931_">
		<defs>
			<rect id="XMLID_261_" x="7.5" y="17" width="117" height="44"/>
		</defs>
		<defs>
			<path id="XMLID_932_" d="M56.26,56.708l-1.373-3.465l-1.285,3.465H56.26L56.26,56.708z M59.119,59.486
				c-0.046,0.044-0.158,0.068-0.345,0.068c-0.089,0-0.29-0.015-0.605-0.046c-0.313-0.033-0.542-0.048-0.686-0.048
				c-0.088,0-0.354,0.023-0.799,0.066c-0.177,0.019-0.331,0.028-0.464,0.028c-0.179,0-0.291-0.024-0.335-0.068
				c0.089-0.063,0.178-0.125,0.267-0.188c0.356-0.079,0.671-0.119,0.944-0.119c-0.095-0.399-0.246-0.859-0.451-1.382
				c-0.15-0.373-0.257-0.649-0.317-0.836h-2.823c-0.268,0.783-0.475,1.52-0.627,2.221c0.305,0.034,0.526,0.062,0.668,0.079
				c0.179,0.082,0.353,0.157,0.524,0.226c-0.035,0.044-0.134,0.067-0.295,0.067c-0.071,0-0.239-0.015-0.506-0.046
				c-0.267-0.033-0.462-0.048-0.587-0.048c-0.098,0-0.352,0.023-0.759,0.066c-0.171,0.019-0.308,0.028-0.413,0.028
				c-0.152,0-0.245-0.024-0.281-0.068c0.071-0.063,0.151-0.125,0.241-0.188c0.282-0.079,0.539-0.119,0.769-0.119
				c0.216-0.461,0.369-0.807,0.466-1.035c0.151-0.336,0.297-0.696,0.44-1.074l1.61-4.155c-0.105-0.259-0.193-0.475-0.267-0.645
				c-0.105-0.221-0.208-0.428-0.305-0.614l0.866-0.389c0.134,0.498,0.289,0.994,0.468,1.493c0.08,0.206,0.27,0.695,0.572,1.468
				l1.193,3.051c0.142,0.371,0.272,0.694,0.397,0.957c0.052,0.131,0.208,0.444,0.462,0.944c0.196,0,0.445,0.044,0.754,0.133
				C58.976,59.376,59.051,59.434,59.119,59.486L59.119,59.486L59.119,59.486z"/>
		</defs>
		<clipPath id="XMLID_12_">
			<use xlink:href="#XMLID_261_"  style="overflow:visible;"/>
		</clipPath>
		<clipPath id="XMLID_13_" style="clip-path:url(#XMLID_12_);">
			<use xlink:href="#XMLID_932_"  style="overflow:visible;"/>
		</clipPath>
		<rect id="XMLID_260_" x="46.228" y="46.267" style="clip-path:url(#XMLID_13_);fill:#918568;" width="17.891" height="18.287"/>
	</g>
	<g id="XMLID_927_">
		<defs>
			<rect id="XMLID_257_" x="7.5" y="17" width="117" height="44"/>
		</defs>
		<defs>
			<path id="XMLID_255_" d="M67.084,51.693c0,0.077-0.111,0.147-0.324,0.207c-0.22,0.06-0.426,0.09-0.621,0.09
				c-0.08,0.525-0.132,1.089-0.159,1.695c-0.026,0.606-0.04,1.257-0.04,1.945v3.879c0,0.123-0.021,0.187-0.068,0.187
				c-0.033,0-0.071-0.027-0.113-0.073c-0.043-0.049-0.072-0.087-0.089-0.111l-4.723-6.6v3.438l0.025,1.237
				c0,0.256,0.012,0.495,0.034,0.717c0.023,0.222,0.059,0.513,0.114,0.875c0.248,0.011,0.434,0.024,0.559,0.04
				c0.388,0.055,0.586,0.141,0.586,0.265c0,0.063-0.076,0.095-0.227,0.095c-0.145,0-0.314-0.014-0.513-0.042
				c-0.199-0.025-0.425-0.054-0.674-0.079c-0.069,0-0.296,0.022-0.68,0.067c-0.15,0.016-0.28,0.028-0.386,0.028
				c-0.14,0-0.214-0.025-0.214-0.069c0-0.088,0.121-0.164,0.367-0.223c0.244-0.055,0.419-0.085,0.524-0.085
				c0.081-0.408,0.135-0.813,0.168-1.211c0.031-0.401,0.046-0.865,0.046-1.398v-3.981c-0.159-0.299-0.425-0.546-0.8-0.731
				c-0.14-0.071-0.211-0.139-0.211-0.213c0-0.036,0.044-0.052,0.135-0.052c0.017,0,0.2,0.027,0.548,0.086
				c0.133,0.021,0.262,0.036,0.384,0.036c0.118,0,0.219-0.018,0.308-0.049l4.628,6.39v-3.161c0-0.515-0.014-1.002-0.041-1.457
				c-0.026-0.456-0.071-0.937-0.132-1.444c-0.151,0-0.368-0.021-0.652-0.064c-0.283-0.047-0.427-0.126-0.427-0.245
				c0-0.059,0.077-0.092,0.225-0.092c0.109,0,0.305,0.02,0.595,0.06c0.289,0.042,0.477,0.062,0.566,0.062
				c0.108,0,0.246-0.014,0.416-0.037c0.398-0.058,0.621-0.085,0.664-0.085C67.017,51.589,67.084,51.624,67.084,51.693"/>
		</defs>
		<clipPath id="XMLID_14_">
			<use xlink:href="#XMLID_257_"  style="overflow:visible;"/>
		</clipPath>
		<clipPath id="XMLID_15_" style="clip-path:url(#XMLID_14_);">
			<use xlink:href="#XMLID_255_"  style="overflow:visible;"/>
		</clipPath>
		<rect id="XMLID_256_" x="54.573" y="46.589" style="clip-path:url(#XMLID_15_);fill:#918568;" width="17.511" height="18.107"/>
	</g>
	<g id="XMLID_921_">
		<defs>
			<rect id="XMLID_254_" x="7.5" y="17" width="117" height="44"/>
		</defs>
		<defs>
			<path id="XMLID_922_" d="M73.744,55.465c0-1.115-0.28-1.998-0.831-2.654c-0.557-0.654-1.302-0.98-2.235-0.98
				c-0.32,0-0.688,0.058-1.104,0.171c-0.007,0.726-0.01,1.427-0.01,2.108v2.621c0,1.065,0.003,1.88,0.01,2.444
				c0.443,0.107,0.849,0.16,1.212,0.16c0.924,0,1.647-0.348,2.174-1.039C73.483,57.601,73.744,56.656,73.744,55.465 M74.633,55.557
				c0,1.246-0.345,2.231-1.039,2.953c-0.692,0.721-1.61,1.08-2.756,1.08c-0.168,0-0.352-0.012-0.545-0.038
				c-0.57-0.081-0.879-0.121-0.932-0.121c-0.232,0-0.466,0.016-0.711,0.05c-0.242,0.035-0.501,0.072-0.776,0.109
				c-0.15,0-0.226-0.049-0.226-0.147c0-0.079,0.134-0.144,0.399-0.189c0.265-0.044,0.469-0.064,0.61-0.064
				c0.011-0.053,0.015-0.354,0.015-0.9c0-0.547,0.005-1.013,0.015-1.404c0-0.87-0.004-1.732-0.006-2.59
				c-0.004-0.856-0.012-1.626-0.02-2.308c-0.196-0.018-0.374-0.042-0.534-0.065c-0.319-0.055-0.479-0.131-0.479-0.227
				c0-0.08,0.076-0.119,0.227-0.119c0.105,0,0.239,0.006,0.398,0.028c0.479,0.055,0.828,0.085,1.049,0.085
				c0.206,0,0.396-0.009,0.574-0.025c0.602-0.06,0.925-0.087,0.969-0.087c1.198,0,2.125,0.342,2.782,1.028
				C74.305,53.291,74.633,54.275,74.633,55.557"/>
		</defs>
		<clipPath id="XMLID_16_">
			<use xlink:href="#XMLID_254_"  style="overflow:visible;"/>
		</clipPath>
		<clipPath id="XMLID_17_" style="clip-path:url(#XMLID_16_);">
			<use xlink:href="#XMLID_922_"  style="overflow:visible;"/>
		</clipPath>
		<rect id="XMLID_253_" x="62.647" y="46.578" style="clip-path:url(#XMLID_17_);fill:#918568;" width="16.986" height="18.012"/>
	</g>
	<g id="XMLID_917_">
		<defs>
			<rect id="XMLID_250_" x="7.5" y="17" width="117" height="44"/>
		</defs>
		<defs>
			<path id="XMLID_248_" d="M90.438,59.497c0,0.082-0.109,0.12-0.325,0.12c-0.193,0-0.416-0.017-0.672-0.053
				c-0.254-0.035-0.544-0.072-0.861-0.108c-0.138,0-0.491,0.037-1.057,0.114c-0.228,0.033-0.417,0.047-0.562,0.047
				c-0.194,0-0.292-0.03-0.292-0.091c0-0.144,0.233-0.26,0.698-0.346c0.147-0.023,0.382-0.048,0.698-0.072
				c0-0.433-0.004-0.972-0.009-1.62c-0.012-0.647-0.014-0.976-0.014-0.99l-0.469-6.303l-2.688,7.798
				c-0.034,0.153-0.085,0.23-0.153,0.23c-0.07,0-0.14-0.077-0.219-0.23l-2.865-6.259l-0.256,2.968c0,0.51-0.006,1.058-0.019,1.651
				c-0.062,1.462-0.094,2.38-0.094,2.756c0.317,0.012,0.551,0.028,0.697,0.052c0.487,0.068,0.732,0.181,0.732,0.338
				c0,0.082-0.108,0.12-0.323,0.12c-0.148,0-0.42-0.028-0.819-0.08c-0.397-0.054-0.645-0.081-0.746-0.081
				c-0.148,0-0.394,0.026-0.74,0.081c-0.347,0.053-0.552,0.08-0.621,0.08c-0.182,0-0.271-0.038-0.271-0.12
				c0-0.123,0.155-0.22,0.467-0.289c0.312-0.069,0.553-0.101,0.722-0.101c0.148-0.601,0.278-1.31,0.391-2.128
				c0.092-0.599,0.176-1.304,0.256-2.109L81.38,51.1c-0.204-0.584-0.448-0.982-0.731-1.183c-0.261-0.117-0.51-0.238-0.749-0.364
				c0-0.094,0.101-0.14,0.307-0.14c0.1,0,0.296,0.018,0.587,0.058c0.29,0.035,0.503,0.053,0.639,0.053
				c0.147,0,0.266-0.018,0.357-0.055c0.171,0.475,0.331,0.891,0.477,1.247c0.148,0.357,0.314,0.735,0.496,1.133l2.217,4.784
				l2.497-7.16c0.157,0.047,0.357,0.069,0.594,0.069c0.1,0,0.495-0.036,1.184-0.109c0.089,0.014,0.179,0.021,0.27,0.036
				c0,0.207-0.143,0.326-0.43,0.364c-0.288,0.032-0.469,0.061-0.546,0.085l0.409,6.224c0,0.432,0.041,0.91,0.118,1.431
				c0.079,0.523,0.153,1.036,0.222,1.535c0.283,0,0.544,0.038,0.781,0.112C90.319,59.292,90.438,59.384,90.438,59.497"/>
		</defs>
		<clipPath id="XMLID_18_">
			<use xlink:href="#XMLID_250_"  style="overflow:visible;"/>
		</clipPath>
		<clipPath id="XMLID_19_" style="clip-path:url(#XMLID_18_);">
			<use xlink:href="#XMLID_248_"  style="overflow:visible;"/>
		</clipPath>
		<rect id="XMLID_249_" x="74.186" y="44.413" style="clip-path:url(#XMLID_19_);fill:#918568;" width="21.252" height="20.204"/>
	</g>
	<g id="XMLID_911_">
		<defs>
			<rect id="XMLID_247_" x="7.5" y="17" width="117" height="44"/>
		</defs>
		<defs>
			<path id="XMLID_912_" d="M95.517,56.708l-1.371-3.465l-1.285,3.465H95.517L95.517,56.708z M98.378,59.486
				c-0.045,0.044-0.16,0.068-0.346,0.068c-0.089,0-0.29-0.015-0.607-0.046c-0.313-0.033-0.543-0.048-0.684-0.048
				c-0.09,0-0.357,0.023-0.798,0.066c-0.179,0.019-0.333,0.028-0.467,0.028c-0.176,0-0.288-0.024-0.334-0.068
				c0.091-0.063,0.178-0.125,0.265-0.188c0.357-0.079,0.671-0.119,0.945-0.119c-0.096-0.399-0.246-0.859-0.45-1.382
				c-0.151-0.373-0.26-0.649-0.319-0.836h-2.822c-0.267,0.783-0.475,1.52-0.628,2.221c0.305,0.034,0.529,0.062,0.671,0.079
				c0.177,0.082,0.35,0.157,0.522,0.226c-0.035,0.044-0.134,0.067-0.296,0.067c-0.071,0-0.239-0.015-0.503-0.046
				c-0.27-0.033-0.465-0.048-0.589-0.048c-0.098,0-0.352,0.023-0.76,0.066c-0.171,0.019-0.307,0.028-0.411,0.028
				c-0.153,0-0.248-0.024-0.281-0.068c0.071-0.063,0.152-0.125,0.239-0.188c0.282-0.079,0.54-0.119,0.77-0.119
				c0.214-0.461,0.368-0.807,0.469-1.035c0.148-0.336,0.294-0.696,0.438-1.074l1.608-4.155c-0.106-0.259-0.193-0.475-0.265-0.645
				c-0.107-0.221-0.209-0.428-0.307-0.614l0.867-0.389c0.133,0.498,0.289,0.994,0.467,1.493c0.08,0.206,0.269,0.695,0.572,1.468
				l1.192,3.051c0.14,0.371,0.27,0.694,0.398,0.957c0.05,0.131,0.205,0.444,0.462,0.944c0.194,0,0.445,0.044,0.753,0.133
				C98.233,59.376,98.308,59.434,98.378,59.486L98.378,59.486L98.378,59.486z"/>
		</defs>
		<clipPath id="XMLID_20_">
			<use xlink:href="#XMLID_247_"  style="overflow:visible;"/>
		</clipPath>
		<clipPath id="XMLID_21_" style="clip-path:url(#XMLID_20_);">
			<use xlink:href="#XMLID_912_"  style="overflow:visible;"/>
		</clipPath>
		<rect id="XMLID_246_" x="85.486" y="46.267" style="clip-path:url(#XMLID_21_);fill:#918568;" width="17.892" height="18.287"/>
	</g>
	<g id="XMLID_907_">
		<defs>
			<rect id="XMLID_243_" x="7.5" y="17" width="117" height="44"/>
		</defs>
		<defs>
			<path id="XMLID_241_" d="M105.252,51.722c0,0.063-0.108,0.122-0.318,0.184c-0.256,0.052-0.399,0.084-0.423,0.092
				c-0.188,0.24-0.374,0.494-0.56,0.768c-0.124,0.196-0.287,0.466-0.491,0.809l-1.264,2.03v1.439c0,0.33,0.013,0.748,0.033,1.254
				c0.023,0.505,0.032,0.804,0.032,0.893c0.214,0.019,0.373,0.034,0.48,0.053c0.328,0.053,0.493,0.139,0.493,0.252
				c0,0.055-0.081,0.082-0.241,0.082c-0.097,0-0.292-0.022-0.583-0.062c-0.294-0.039-0.498-0.059-0.611-0.059
				c-0.151,0-0.379,0.02-0.683,0.059c-0.306,0.04-0.49,0.062-0.552,0.062c-0.158,0-0.238-0.033-0.238-0.095
				c0-0.106,0.163-0.191,0.492-0.252c0.105-0.017,0.274-0.036,0.503-0.053c0.038-0.362,0.059-0.692,0.069-0.99
				c0.01-0.297,0.012-0.679,0.012-1.149v-1.367l-2.137-3.679c-0.148-0.017-0.286-0.037-0.411-0.064
				c-0.23-0.052-0.344-0.13-0.344-0.236c0-0.06,0.078-0.091,0.241-0.091c0.097,0,0.273,0.014,0.529,0.044
				c0.26,0.029,0.43,0.044,0.52,0.044c0.088,0,0.256-0.015,0.501-0.044c0.243-0.031,0.419-0.044,0.525-0.044
				c0.151,0,0.227,0.031,0.227,0.091c0,0.106-0.129,0.184-0.386,0.236c-0.161,0.028-0.315,0.048-0.469,0.064l1.873,3.331
				l0.956-1.589c0.15-0.255,0.294-0.531,0.437-0.835c0.105-0.219,0.234-0.519,0.382-0.902c-0.215-0.025-0.422-0.055-0.629-0.092
				c-0.168-0.043-0.252-0.11-0.252-0.2c0-0.069,0.108-0.104,0.329-0.104c0.142,0,0.287,0.007,0.428,0.024
				c0.142,0.018,0.264,0.029,0.371,0.037c0.106,0,0.272-0.011,0.492-0.031c0.221-0.021,0.352-0.031,0.386-0.031
				C105.159,51.603,105.252,51.641,105.252,51.722"/>
		</defs>
		<clipPath id="XMLID_22_">
			<use xlink:href="#XMLID_243_"  style="overflow:visible;"/>
		</clipPath>
		<clipPath id="XMLID_23_" style="clip-path:url(#XMLID_22_);">
			<use xlink:href="#XMLID_241_"  style="overflow:visible;"/>
		</clipPath>
		<rect id="XMLID_242_" x="93.51" y="46.603" style="clip-path:url(#XMLID_23_);fill:#918568;" width="16.742" height="17.977"/>
	</g>
	<g id="XMLID_901_">
		<defs>
			<rect id="XMLID_240_" x="7.5" y="17" width="117" height="44"/>
		</defs>
		<defs>
			<path id="XMLID_902_" d="M110.23,56.708l-1.371-3.465l-1.286,3.465H110.23L110.23,56.708z M113.092,59.486
				c-0.046,0.044-0.16,0.068-0.347,0.068c-0.089,0-0.29-0.015-0.605-0.046c-0.315-0.033-0.541-0.048-0.687-0.048
				c-0.087,0-0.352,0.023-0.796,0.066c-0.179,0.019-0.333,0.028-0.467,0.028c-0.179,0-0.289-0.024-0.333-0.068
				c0.089-0.063,0.179-0.125,0.267-0.188c0.355-0.079,0.67-0.119,0.946-0.119c-0.098-0.399-0.249-0.859-0.453-1.382
				c-0.152-0.373-0.258-0.649-0.318-0.836h-2.823c-0.267,0.783-0.475,1.52-0.627,2.221c0.305,0.034,0.528,0.062,0.67,0.079
				c0.179,0.082,0.353,0.157,0.523,0.226c-0.036,0.044-0.137,0.067-0.294,0.067c-0.071,0-0.24-0.015-0.507-0.046
				c-0.268-0.033-0.463-0.048-0.586-0.048c-0.1,0-0.355,0.023-0.762,0.066c-0.169,0.019-0.309,0.028-0.414,0.028
				c-0.15,0-0.245-0.024-0.28-0.068c0.071-0.063,0.152-0.125,0.241-0.188c0.282-0.079,0.54-0.119,0.77-0.119
				c0.213-0.461,0.367-0.807,0.467-1.035c0.151-0.336,0.296-0.696,0.44-1.074l1.61-4.155c-0.106-0.259-0.195-0.475-0.267-0.645
				c-0.107-0.221-0.208-0.428-0.307-0.614l0.865-0.389c0.135,0.498,0.291,0.994,0.47,1.493c0.076,0.206,0.27,0.695,0.57,1.468
				l1.195,3.051c0.14,0.371,0.273,0.694,0.396,0.957c0.052,0.131,0.208,0.444,0.462,0.944c0.195,0,0.446,0.044,0.756,0.133
				C112.948,59.376,113.02,59.434,113.092,59.486L113.092,59.486L113.092,59.486z"/>
		</defs>
		<clipPath id="XMLID_24_">
			<use xlink:href="#XMLID_240_"  style="overflow:visible;"/>
		</clipPath>
		<clipPath id="XMLID_25_" style="clip-path:url(#XMLID_24_);">
			<use xlink:href="#XMLID_902_"  style="overflow:visible;"/>
		</clipPath>
		<rect id="XMLID_239_" x="100.199" y="46.267" style="clip-path:url(#XMLID_25_);fill:#918568;" width="17.892" height="18.287"/>
	</g>
	<g id="XMLID_897_">
		<defs>
			<rect id="XMLID_236_" x="7.5" y="17" width="117" height="44"/>
		</defs>
		<defs>
			<path id="XMLID_234_" d="M121.055,51.693c0,0.077-0.109,0.147-0.325,0.207c-0.22,0.06-0.424,0.09-0.619,0.09
				c-0.079,0.525-0.134,1.089-0.16,1.695c-0.028,0.606-0.04,1.257-0.04,1.945v3.879c0,0.123-0.021,0.187-0.069,0.187
				c-0.032,0-0.071-0.027-0.112-0.073c-0.04-0.049-0.07-0.087-0.088-0.111l-4.723-6.6v3.438l0.025,1.237
				c0,0.256,0.014,0.495,0.035,0.717c0.022,0.222,0.058,0.513,0.113,0.875c0.247,0.011,0.434,0.024,0.56,0.04
				c0.39,0.055,0.585,0.141,0.585,0.265c0,0.063-0.076,0.095-0.225,0.095c-0.142,0-0.315-0.014-0.514-0.042
				c-0.2-0.025-0.424-0.054-0.672-0.079c-0.072,0-0.299,0.022-0.68,0.067c-0.151,0.016-0.281,0.028-0.387,0.028
				c-0.14,0-0.213-0.025-0.213-0.069c0-0.088,0.122-0.164,0.366-0.223c0.243-0.055,0.42-0.085,0.524-0.085
				c0.081-0.408,0.135-0.813,0.168-1.211c0.03-0.401,0.046-0.865,0.046-1.398v-3.981c-0.159-0.299-0.426-0.546-0.8-0.731
				c-0.141-0.071-0.212-0.139-0.212-0.213c0-0.036,0.043-0.052,0.135-0.052c0.016,0,0.201,0.027,0.546,0.086
				c0.133,0.021,0.264,0.036,0.39,0.036c0.116,0,0.215-0.018,0.306-0.049l4.627,6.39v-3.161c0-0.515-0.013-1.002-0.039-1.457
				c-0.027-0.456-0.072-0.937-0.133-1.444c-0.15,0-0.369-0.021-0.653-0.064c-0.283-0.047-0.425-0.126-0.425-0.245
				c0-0.059,0.077-0.092,0.225-0.092c0.106,0,0.305,0.02,0.593,0.06c0.291,0.042,0.477,0.062,0.568,0.062
				c0.107,0,0.243-0.014,0.414-0.037c0.398-0.058,0.621-0.085,0.664-0.085C120.988,51.589,121.055,51.624,121.055,51.693"/>
		</defs>
		<clipPath id="XMLID_26_">
			<use xlink:href="#XMLID_236_"  style="overflow:visible;"/>
		</clipPath>
		<clipPath id="XMLID_27_" style="clip-path:url(#XMLID_26_);">
			<use xlink:href="#XMLID_234_"  style="overflow:visible;"/>
		</clipPath>
		<rect id="XMLID_235_" x="108.545" y="46.589" style="clip-path:url(#XMLID_27_);fill:#918568;" width="17.51" height="18.107"/>
	</g>
	<g id="XMLID_893_">
		<defs>
			<rect id="XMLID_233_" x="7.5" y="17" width="117" height="44"/>
		</defs>
		<defs>
			<path id="XMLID_231_" d="M56.518,35.54c-0.153,0.106-0.312,0.201-0.48,0.286c0.892,1.902,2.478,3.433,4.445,4.295
				c0.09-0.155,0.191-0.302,0.301-0.445C58.886,38.865,57.36,37.384,56.518,35.54"/>
		</defs>
		<clipPath id="XMLID_29_">
			<use xlink:href="#XMLID_233_"  style="overflow:visible;"/>
		</clipPath>
		<clipPath id="XMLID_33_" style="clip-path:url(#XMLID_29_);">
			<use xlink:href="#XMLID_231_"  style="overflow:visible;"/>
		</clipPath>
		<rect id="XMLID_232_" x="51.038" y="30.54" style="clip-path:url(#XMLID_33_);fill:#918568;" width="14.746" height="14.581"/>
	</g>
	<g id="XMLID_889_">
		<defs>
			<rect id="XMLID_230_" x="7.5" y="17" width="117" height="44"/>
		</defs>
		<defs>
			<path id="XMLID_228_" d="M63.024,26.18c-0.355-0.085-0.693-0.217-1.005-0.39c-2.064,0.628-3.718,2.155-4.476,4.105
				c0.243,0.345,0.43,0.724,0.555,1.132C58.585,28.57,60.548,26.634,63.024,26.18"/>
		</defs>
		<clipPath id="XMLID_34_">
			<use xlink:href="#XMLID_230_"  style="overflow:visible;"/>
		</clipPath>
		<clipPath id="XMLID_35_" style="clip-path:url(#XMLID_34_);">
			<use xlink:href="#XMLID_228_"  style="overflow:visible;"/>
		</clipPath>
		<rect id="XMLID_229_" x="52.543" y="20.789" style="clip-path:url(#XMLID_35_);fill:#918568;" width="15.481" height="15.237"/>
	</g>
	<g id="XMLID_885_">
		<defs>
			<rect id="XMLID_227_" x="7.5" y="17" width="117" height="44"/>
		</defs>
		<defs>
			<path id="XMLID_225_" d="M58.095,33.396c-0.131,0.424-0.333,0.821-0.587,1.174c0.724,1.942,2.335,3.476,4.36,4.144
				c0.335-0.205,0.703-0.364,1.096-0.465C60.508,37.776,58.571,35.843,58.095,33.396"/>
		</defs>
		<clipPath id="XMLID_39_">
			<use xlink:href="#XMLID_227_"  style="overflow:visible;"/>
		</clipPath>
		<clipPath id="XMLID_43_" style="clip-path:url(#XMLID_39_);">
			<use xlink:href="#XMLID_225_"  style="overflow:visible;"/>
		</clipPath>
		<rect id="XMLID_226_" x="52.508" y="28.396" style="clip-path:url(#XMLID_43_);fill:#918568;" width="15.456" height="15.318"/>
	</g>
	<g id="XMLID_881_">
		<defs>
			<rect id="XMLID_224_" x="7.5" y="17" width="117" height="44"/>
		</defs>
		<defs>
			<path id="XMLID_222_" d="M56.094,28.617c0.164,0.085,0.32,0.183,0.472,0.291c0.861-1.823,2.399-3.279,4.301-4.069
				c-0.115-0.136-0.221-0.284-0.318-0.436C58.589,25.242,57.005,26.744,56.094,28.617"/>
		</defs>
		<clipPath id="XMLID_44_">
			<use xlink:href="#XMLID_224_"  style="overflow:visible;"/>
		</clipPath>
		<clipPath id="XMLID_45_" style="clip-path:url(#XMLID_44_);">
			<use xlink:href="#XMLID_222_"  style="overflow:visible;"/>
		</clipPath>
		<rect id="XMLID_223_" x="51.094" y="19.403" style="clip-path:url(#XMLID_45_);fill:#918568;" width="14.774" height="14.505"/>
	</g>
	<g id="XMLID_877_">
		<defs>
			<rect id="XMLID_221_" x="7.5" y="17" width="117" height="44"/>
		</defs>
		<defs>
			<path id="XMLID_219_" d="M66.048,25.733c-0.305,0.179-0.633,0.321-0.982,0.416c2.693,0.409,4.817,2.563,5.174,5.265
				c0.104-0.476,0.294-0.923,0.549-1.321C70.051,27.987,68.272,26.344,66.048,25.733"/>
		</defs>
		<clipPath id="XMLID_49_">
			<use xlink:href="#XMLID_221_"  style="overflow:visible;"/>
		</clipPath>
		<clipPath id="XMLID_50_" style="clip-path:url(#XMLID_49_);">
			<use xlink:href="#XMLID_219_"  style="overflow:visible;"/>
		</clipPath>
		<rect id="XMLID_220_" x="60.066" y="20.733" style="clip-path:url(#XMLID_50_);fill:#918568;" width="15.723" height="15.682"/>
	</g>
	<g id="XMLID_873_">
		<defs>
			<rect id="XMLID_218_" x="7.5" y="17" width="117" height="44"/>
		</defs>
		<defs>
			<path id="XMLID_216_" d="M72.223,35.815c-0.164-0.091-0.321-0.195-0.472-0.307c-0.867,1.929-2.487,3.465-4.497,4.259
				c0.105,0.143,0.2,0.294,0.287,0.449C69.619,39.377,71.299,37.798,72.223,35.815"/>
		</defs>
		<clipPath id="XMLID_51_">
			<use xlink:href="#XMLID_218_"  style="overflow:visible;"/>
		</clipPath>
		<clipPath id="XMLID_55_" style="clip-path:url(#XMLID_51_);">
			<use xlink:href="#XMLID_216_"  style="overflow:visible;"/>
		</clipPath>
		<rect id="XMLID_217_" x="62.255" y="30.509" style="clip-path:url(#XMLID_55_);fill:#918568;" width="14.969" height="14.709"/>
	</g>
	<g id="XMLID_869_">
		<defs>
			<rect id="XMLID_215_" x="7.5" y="17" width="117" height="44"/>
		</defs>
		<defs>
			<path id="XMLID_213_" d="M65.124,38.283c0.384,0.112,0.744,0.28,1.072,0.491c2.153-0.643,3.865-2.256,4.588-4.314
				c-0.26-0.408-0.453-0.864-0.555-1.355C69.845,35.753,67.764,37.856,65.124,38.283"/>
		</defs>
		<clipPath id="XMLID_59_">
			<use xlink:href="#XMLID_215_"  style="overflow:visible;"/>
		</clipPath>
		<clipPath id="XMLID_60_" style="clip-path:url(#XMLID_59_);">
			<use xlink:href="#XMLID_213_"  style="overflow:visible;"/>
		</clipPath>
		<rect id="XMLID_214_" x="60.124" y="28.105" style="clip-path:url(#XMLID_60_);fill:#918568;" width="15.66" height="15.669"/>
	</g>
	<g id="XMLID_865_">
		<defs>
			<rect id="XMLID_212_" x="7.5" y="17" width="117" height="44"/>
		</defs>
		<defs>
			<path id="XMLID_210_" d="M76.236,35.79c-0.598,0.345-1.29,0.543-2.029,0.543c-0.566,0-1.107-0.117-1.599-0.329
				c-0.97,2.065-2.717,3.716-4.879,4.599c0.204,0.483,0.316,1.012,0.316,1.568c0,0.681-0.167,1.324-0.467,1.887
				C71.719,42.917,75,39.782,76.236,35.79"/>
		</defs>
		<clipPath id="XMLID_61_">
			<use xlink:href="#XMLID_212_"  style="overflow:visible;"/>
		</clipPath>
		<clipPath id="XMLID_62_" style="clip-path:url(#XMLID_61_);">
			<use xlink:href="#XMLID_210_"  style="overflow:visible;"/>
		</clipPath>
		<rect id="XMLID_211_" x="62.578" y="30.79" style="clip-path:url(#XMLID_62_);fill:#918568;" width="18.657" height="18.268"/>
	</g>
	<g id="XMLID_861_">
		<defs>
			<rect id="XMLID_209_" x="7.5" y="17" width="117" height="44"/>
		</defs>
		<defs>
			<path id="XMLID_207_" d="M60.659,44.496c-4.598-1.231-8.188-4.838-9.265-9.373c-0.195-0.183-0.368-0.388-0.522-0.61
				c0.945,5.468,5.218,9.811,10.654,10.88C61.193,45.141,60.901,44.836,60.659,44.496"/>
		</defs>
		<clipPath id="XMLID_66_">
			<use xlink:href="#XMLID_209_"  style="overflow:visible;"/>
		</clipPath>
		<clipPath id="XMLID_69_" style="clip-path:url(#XMLID_66_);">
			<use xlink:href="#XMLID_207_"  style="overflow:visible;"/>
		</clipPath>
		<rect id="XMLID_208_" x="45.873" y="29.513" style="clip-path:url(#XMLID_69_);fill:#918568;" width="20.654" height="20.88"/>
	</g>
	<g id="XMLID_857_">
		<defs>
			<rect id="XMLID_206_" x="7.5" y="17" width="117" height="44"/>
		</defs>
		<defs>
			<path id="XMLID_204_" d="M51.438,29.248c1.12-4.411,4.627-7.921,9.111-9.162c0.248-0.393,0.562-0.74,0.926-1.026
				c-5.401,1.086-9.638,5.403-10.595,10.832C51.044,29.658,51.23,29.442,51.438,29.248"/>
		</defs>
		<clipPath id="XMLID_70_">
			<use xlink:href="#XMLID_206_"  style="overflow:visible;"/>
		</clipPath>
		<clipPath id="XMLID_71_" style="clip-path:url(#XMLID_70_);">
			<use xlink:href="#XMLID_204_"  style="overflow:visible;"/>
		</clipPath>
		<rect id="XMLID_205_" x="45.88" y="14.059" style="clip-path:url(#XMLID_71_);fill:#918568;" width="20.595" height="20.832"/>
	</g>
	<g id="XMLID_853_">
		<defs>
			<rect id="XMLID_203_" x="7.5" y="17" width="117" height="44"/>
		</defs>
		<defs>
			<path id="XMLID_201_" d="M76.794,35.406c-1.187,4.513-4.879,8.067-9.55,9.177c-0.252,0.343-0.555,0.639-0.9,0.886
				c5.508-0.913,9.896-5.17,10.992-10.603C77.171,35.062,76.99,35.242,76.794,35.406"/>
		</defs>
		<clipPath id="XMLID_72_">
			<use xlink:href="#XMLID_203_"  style="overflow:visible;"/>
		</clipPath>
		<clipPath id="XMLID_73_" style="clip-path:url(#XMLID_72_);">
			<use xlink:href="#XMLID_201_"  style="overflow:visible;"/>
		</clipPath>
		<rect id="XMLID_202_" x="61.344" y="29.866" style="clip-path:url(#XMLID_73_);fill:#918568;" width="20.992" height="20.603"/>
	</g>
	<rect id="XMLID_200_" x="7.5" y="17" style="fill:none;" width="117" height="44"/>
	<path id="XMLID_199_" style="fill-rule:evenodd;clip-rule:evenodd;fill:#918568;" d="M67.363,19.994
		c4.62,1.145,8.262,4.683,9.433,9.168c0.208,0.171,0.399,0.364,0.569,0.569c-1.037-5.488-5.431-9.807-10.969-10.746
		C66.773,19.263,67.101,19.604,67.363,19.994"/>
	<g id="XMLID_847_">
		<defs>
			<rect id="XMLID_198_" x="7.5" y="17" width="117" height="44"/>
		</defs>
		<defs>
			<path id="XMLID_196_" d="M67.478,24.307c-0.092,0.157-0.195,0.303-0.305,0.444c2.052,0.786,3.703,2.342,4.585,4.301
				c0.145-0.112,0.306-0.217,0.467-0.307C71.291,26.739,69.588,25.144,67.478,24.307"/>
		</defs>
		<clipPath id="XMLID_74_">
			<use xlink:href="#XMLID_198_"  style="overflow:visible;"/>
		</clipPath>
		<clipPath id="XMLID_75_" style="clip-path:url(#XMLID_74_);">
			<use xlink:href="#XMLID_196_"  style="overflow:visible;"/>
		</clipPath>
		<rect id="XMLID_197_" x="62.173" y="19.307" style="clip-path:url(#XMLID_75_);fill:#918568;" width="15.052" height="14.745"/>
	</g>
	<g id="XMLID_843_">
		<defs>
			<rect id="XMLID_195_" x="7.5" y="17" width="117" height="44"/>
		</defs>
		<defs>
			<path id="XMLID_193_" d="M52.008,28.805c0.637-0.412,1.39-0.652,2.201-0.652c0.528,0,1.03,0.101,1.495,0.284
				c0.949-1.955,2.599-3.526,4.634-4.411c-0.266-0.539-0.417-1.144-0.417-1.784c0-0.577,0.123-1.129,0.345-1.628
				C56.305,21.85,53.195,24.928,52.008,28.805"/>
		</defs>
		<clipPath id="XMLID_76_">
			<use xlink:href="#XMLID_195_"  style="overflow:visible;"/>
		</clipPath>
		<clipPath id="XMLID_77_" style="clip-path:url(#XMLID_76_);">
			<use xlink:href="#XMLID_193_"  style="overflow:visible;"/>
		</clipPath>
		<rect id="XMLID_194_" x="47.009" y="15.615" style="clip-path:url(#XMLID_77_);fill:#918568;" width="18.329" height="18.19"/>
	</g>
	<g id="XMLID_839_">
		<defs>
			<rect id="XMLID_192_" x="7.5" y="17" width="117" height="44"/>
		</defs>
		<defs>
			<path id="XMLID_190_" d="M76.24,28.775c-1.225-3.971-4.474-7.099-8.582-8.258c0.249,0.522,0.387,1.108,0.387,1.727
				c0,0.6-0.132,1.17-0.368,1.684c2.189,0.877,3.957,2.539,4.936,4.627c0.49-0.209,1.028-0.326,1.593-0.326
				C74.949,28.229,75.641,28.429,76.24,28.775"/>
		</defs>
		<clipPath id="XMLID_78_">
			<use xlink:href="#XMLID_192_"  style="overflow:visible;"/>
		</clipPath>
		<clipPath id="XMLID_79_" style="clip-path:url(#XMLID_78_);">
			<use xlink:href="#XMLID_190_"  style="overflow:visible;"/>
		</clipPath>
		<rect id="XMLID_191_" x="62.658" y="15.517" style="clip-path:url(#XMLID_79_);fill:#918568;" width="18.582" height="18.258"/>
	</g>
	<g id="XMLID_835_">
		<defs>
			<rect id="XMLID_189_" x="7.5" y="17" width="117" height="44"/>
		</defs>
		<defs>
			<path id="XMLID_187_" d="M60.339,43.96c-0.267-0.542-0.418-1.146-0.418-1.788c0-0.596,0.129-1.162,0.362-1.671
				c-2.052-0.906-3.706-2.513-4.639-4.503c-0.445,0.167-0.929,0.259-1.434,0.259c-0.831,0-1.608-0.248-2.254-0.68
				C53.11,39.558,56.286,42.722,60.339,43.96"/>
		</defs>
		<clipPath id="XMLID_80_">
			<use xlink:href="#XMLID_189_"  style="overflow:visible;"/>
		</clipPath>
		<clipPath id="XMLID_81_" style="clip-path:url(#XMLID_80_);">
			<use xlink:href="#XMLID_187_"  style="overflow:visible;"/>
		</clipPath>
		<rect id="XMLID_188_" x="46.957" y="30.578" style="clip-path:url(#XMLID_81_);fill:#918568;" width="18.382" height="18.382"/>
	</g>
	<g id="XMLID_829_">
		<defs>
			<rect id="XMLID_186_" x="7.5" y="17" width="117" height="44"/>
		</defs>
		<defs>
			<path id="XMLID_830_" d="M63.985,25.181c-1.626,0-2.944-1.315-2.944-2.937c0-1.619,1.318-2.936,2.944-2.936
				c1.625,0,2.944,1.317,2.944,2.936C66.929,23.867,65.61,25.181,63.985,25.181 M63.985,18.618c-2.003,0-3.633,1.628-3.633,3.627
				c0,1.998,1.629,3.624,3.633,3.624c2.003,0,3.631-1.626,3.631-3.624C67.616,20.246,65.988,18.618,63.985,18.618"/>
		</defs>
		<clipPath id="XMLID_82_">
			<use xlink:href="#XMLID_186_"  style="overflow:visible;"/>
		</clipPath>
		<clipPath id="XMLID_83_" style="clip-path:url(#XMLID_82_);">
			<use xlink:href="#XMLID_830_"  style="overflow:visible;"/>
		</clipPath>
		<rect id="XMLID_185_" x="55.352" y="13.618" style="clip-path:url(#XMLID_83_);fill:#918568;" width="17.264" height="17.25"/>
	</g>
	<g id="XMLID_825_">
		<defs>
			<rect id="XMLID_182_" x="7.5" y="17" width="117" height="44"/>
		</defs>
		<defs>
			<path id="XMLID_67_" d="M61.825,22.363c0,0,0.176-2.767,2.921-1.997c0,0,1.917,0.997,1.249,2.788c0,0-0.667,1.164-1.71,1.124
				c0,0,0.513-2.918-0.333-2.498C63.953,21.78,62.39,21.312,61.825,22.363"/>
		</defs>
		<clipPath id="XMLID_84_">
			<use xlink:href="#XMLID_182_"  style="overflow:visible;"/>
		</clipPath>
		<clipPath id="XMLID_85_" style="clip-path:url(#XMLID_84_);">
			<use xlink:href="#XMLID_67_"  style="overflow:visible;"/>
		</clipPath>
		<rect id="XMLID_68_" x="56.825" y="15.231" style="clip-path:url(#XMLID_85_);fill:#918568;" width="14.312" height="14.048"/>
	</g>
	<g id="XMLID_819_">
		<defs>
			<rect id="XMLID_65_" x="7.5" y="17" width="117" height="44"/>
		</defs>
		<defs>
			<path id="XMLID_820_" d="M54.211,35.145c-1.625,0-2.945-1.316-2.945-2.937c0-1.624,1.32-2.938,2.945-2.938
				c1.626,0,2.944,1.314,2.944,2.938C57.155,33.829,55.837,35.145,54.211,35.145 M54.211,28.583c-2.004,0-3.633,1.625-3.633,3.626
				c0,1.998,1.629,3.624,3.633,3.624c2.003,0,3.633-1.626,3.633-3.624C57.844,30.207,56.214,28.583,54.211,28.583"/>
		</defs>
		<clipPath id="XMLID_86_">
			<use xlink:href="#XMLID_65_"  style="overflow:visible;"/>
		</clipPath>
		<clipPath id="XMLID_87_" style="clip-path:url(#XMLID_86_);">
			<use xlink:href="#XMLID_820_"  style="overflow:visible;"/>
		</clipPath>
		<rect id="XMLID_64_" x="45.579" y="23.583" style="clip-path:url(#XMLID_87_);fill:#918568;" width="17.265" height="17.249"/>
	</g>
	<g id="XMLID_813_">
		<defs>
			<rect id="XMLID_57_" x="7.5" y="17" width="117" height="44"/>
		</defs>
		<defs>
			<path id="XMLID_814_" d="M74.207,35.22c-1.624,0-2.944-1.316-2.944-2.938c0-1.624,1.32-2.938,2.944-2.938
				c1.628,0,2.945,1.314,2.945,2.938C77.152,33.904,75.835,35.22,74.207,35.22 M74.207,28.656c-2.002,0-3.631,1.626-3.631,3.626
				c0,1.998,1.629,3.626,3.631,3.626c2.003,0,3.634-1.628,3.634-3.626C77.84,30.282,76.21,28.656,74.207,28.656"/>
		</defs>
		<clipPath id="XMLID_88_">
			<use xlink:href="#XMLID_57_"  style="overflow:visible;"/>
		</clipPath>
		<clipPath id="XMLID_89_" style="clip-path:url(#XMLID_88_);">
			<use xlink:href="#XMLID_814_"  style="overflow:visible;"/>
		</clipPath>
		<rect id="XMLID_56_" x="65.576" y="23.656" style="clip-path:url(#XMLID_89_);fill:#918568;" width="17.264" height="17.252"/>
	</g>
	<g id="XMLID_809_">
		<defs>
			<rect id="XMLID_52_" x="7.5" y="17" width="117" height="44"/>
		</defs>
		<defs>
			<path id="XMLID_47_" d="M52.052,32.326c0,0,0.175-2.767,2.921-1.996c0,0,1.917,0.996,1.249,2.786c0,0-0.667,1.165-1.71,1.122
				c0,0,0.513-2.917-0.333-2.493C54.179,31.746,52.615,31.273,52.052,32.326"/>
		</defs>
		<clipPath id="XMLID_90_">
			<use xlink:href="#XMLID_52_"  style="overflow:visible;"/>
		</clipPath>
		<clipPath id="XMLID_91_" style="clip-path:url(#XMLID_90_);">
			<use xlink:href="#XMLID_47_"  style="overflow:visible;"/>
		</clipPath>
		<rect id="XMLID_48_" x="47.052" y="25.195" style="clip-path:url(#XMLID_91_);fill:#918568;" width="14.311" height="14.046"/>
	</g>
	<g id="XMLID_803_">
		<defs>
			<rect id="XMLID_46_" x="7.5" y="17" width="117" height="44"/>
		</defs>
		<defs>
			<path id="XMLID_804_" d="M63.985,45.109c-1.626,0-2.944-1.316-2.944-2.938c0-1.619,1.318-2.938,2.944-2.938
				c1.625,0,2.944,1.318,2.944,2.938C66.929,43.793,65.61,45.109,63.985,45.109 M63.985,38.547c-2.003,0-3.633,1.627-3.633,3.624
				c0,1.999,1.629,3.626,3.633,3.626c2.003,0,3.631-1.627,3.631-3.626C67.616,40.174,65.988,38.547,63.985,38.547"/>
		</defs>
		<clipPath id="XMLID_92_">
			<use xlink:href="#XMLID_46_"  style="overflow:visible;"/>
		</clipPath>
		<clipPath id="XMLID_93_" style="clip-path:url(#XMLID_92_);">
			<use xlink:href="#XMLID_804_"  style="overflow:visible;"/>
		</clipPath>
		<rect id="XMLID_42_" x="55.352" y="33.547" style="clip-path:url(#XMLID_93_);fill:#918568;" width="17.264" height="17.25"/>
	</g>
	<g id="XMLID_799_">
		<defs>
			<rect id="XMLID_38_" x="7.5" y="17" width="117" height="44"/>
		</defs>
		<defs>
			<path id="XMLID_36_" d="M61.825,42.29c0,0,0.176-2.769,2.921-1.995c0,0,1.917,0.997,1.249,2.786c0,0-0.667,1.164-1.71,1.122
				c0,0,0.513-2.918-0.333-2.497C63.953,41.707,62.39,41.239,61.825,42.29"/>
		</defs>
		<clipPath id="XMLID_94_">
			<use xlink:href="#XMLID_38_"  style="overflow:visible;"/>
		</clipPath>
		<clipPath id="XMLID_95_" style="clip-path:url(#XMLID_94_);">
			<use xlink:href="#XMLID_36_"  style="overflow:visible;"/>
		</clipPath>
		<rect id="XMLID_37_" x="56.825" y="35.159" style="clip-path:url(#XMLID_95_);fill:#918568;" width="14.312" height="14.046"/>
	</g>
	<g id="XMLID_795_">
		<defs>
			<rect id="XMLID_32_" x="7.5" y="17" width="117" height="44"/>
		</defs>
		<defs>
			<path id="XMLID_30_" d="M71.921,32.543c0,0,0.175-2.769,2.921-1.998c0,0,1.916,0.997,1.249,2.789c0,0-0.667,1.163-1.709,1.121
				c0,0,0.511-2.918-0.334-2.495C74.048,31.959,72.486,31.49,71.921,32.543"/>
		</defs>
		<clipPath id="XMLID_96_">
			<use xlink:href="#XMLID_32_"  style="overflow:visible;"/>
		</clipPath>
		<clipPath id="XMLID_97_" style="clip-path:url(#XMLID_96_);">
			<use xlink:href="#XMLID_30_"  style="overflow:visible;"/>
		</clipPath>
		<rect id="XMLID_31_" x="66.921" y="25.409" style="clip-path:url(#XMLID_97_);fill:#918568;" width="14.311" height="14.046"/>
	</g>
</g>
</svg>
