<?xml version="1.0" encoding="iso-8859-1"?>
<!-- Generator: Adobe Illustrator 19.0.0, SVG Export Plug-In . SVG Version: 6.00 Build 0)  -->
<svg version="1.1" id="Capa_1" xmlns="http://www.w3.org/2000/svg" xmlns:xlink="http://www.w3.org/1999/xlink" x="0px" y="0px"
	 viewBox="0 0 130 80" style="enable-background:new 0 0 130 80;" xml:space="preserve">
<g id="XMLID_4_">
	<g id="XMLID_109_">
		<defs>
			<rect id="XMLID_110_" x="20.039" y="44.121" width="89.429" height="0.407"/>
		</defs>
		<clipPath id="XMLID_10_">
			<use xlink:href="#XMLID_110_"  style="overflow:visible;"/>
		</clipPath>
		<rect id="XMLID_111_" x="15.039" y="39.121" style="clip-path:url(#XMLID_10_);fill:#918668;" width="99.429" height="10.407"/>
	</g>
	<path id="XMLID_104_" style="fill-rule:evenodd;clip-rule:evenodd;fill:#918668;" d="M22.955,48.771
		c0-0.643-0.368-1.016-1.152-0.982c-0.02,0-0.095,0-0.177,0.007c-0.048,0.007-0.102,0.007-0.164,0.007v1.822
		c0.143,0.047,0.402,0.088,0.532,0.088C22.594,49.692,22.955,49.374,22.955,48.771L22.955,48.771L22.955,48.771z M20.516,51.765
		c0.143-0.02,0.3-0.068,0.3-0.115v-3.766c0-0.054-0.041-0.074-0.347-0.101l-0.273-0.02l-0.02-0.102h1.812
		c1.117,0,1.663,0.393,1.663,1.097c0,0.521-0.422,0.935-1.029,1.077l0.926,1.402c0.28,0.399,0.409,0.495,0.709,0.535l0.122,0.02
		l0.028,0.102h-1.227l-0.115-0.203l-1.117-1.836c-0.109-0.02-0.375-0.068-0.484-0.102v1.917c0,0.054,0.177,0.082,0.348,0.102
		l0.286,0.02l0.021,0.102h-1.949l0.02-0.102L20.516,51.765L20.516,51.765z"/>
	<path id="XMLID_100_" style="fill-rule:evenodd;clip-rule:evenodd;fill:#918668;" d="M27.674,51.765
		c0.211-0.02,0.32-0.055,0.32-0.115v-3.766c0-0.054-0.041-0.074-0.347-0.102l-0.204-0.02l-0.021-0.102h3.291l0.068,1.301h-0.129
		l-0.068-0.258c-0.198-0.596-0.334-0.921-1.39-0.921h-0.552v1.876l0.273-0.007c0.661-0.02,0.852-0.074,0.974-0.447l0.068-0.203
		l0.116,0.007l-0.143,1.443l-0.117-0.007l-0.02-0.196c-0.021-0.386-0.219-0.44-0.92-0.461l-0.231-0.007v1.964l0.641,0.02
		c1.084,0,1.294-0.434,1.513-0.955l0.082-0.25l0.136,0.007l-0.21,1.328h-3.387l0.021-0.102L27.674,51.765L27.674,51.765z"/>
	<path id="XMLID_96_" style="fill-rule:evenodd;clip-rule:evenodd;fill:#918668;" d="M34.021,51.765l-0.048-1.07h0.116l0.218,0.556
		c0.238,0.434,0.62,0.61,1.049,0.61c0.572,0,0.934-0.413,0.934-0.915c0-0.555-0.396-0.772-1.001-0.989
		c-0.675-0.237-1.193-0.542-1.193-1.233c0-0.556,0.464-1.158,1.363-1.158c0.375,0,0.647,0.054,0.9,0.128l0.279-0.088l0.013,1.178
		h-0.109l-0.368-0.846c-0.211-0.136-0.449-0.237-0.742-0.237c-0.47,0-0.798,0.333-0.798,0.738c0,0.522,0.43,0.732,0.975,0.929
		c0.756,0.27,1.267,0.589,1.267,1.314c0,0.63-0.599,1.307-1.56,1.307C34.9,51.995,34.41,51.893,34.021,51.765"/>
	<path id="XMLID_92_" style="fill-rule:evenodd;clip-rule:evenodd;fill:#918668;" d="M40.11,51.765c0.219-0.02,0.3-0.068,0.3-0.115
		v-3.766c0-0.054-0.041-0.074-0.347-0.102l-0.245-0.02l-0.02-0.102h1.873l-0.021,0.102l-0.293,0.027
		c-0.225,0.02-0.3,0.068-0.3,0.115v3.765c0,0.055,0.041,0.075,0.348,0.102l0.238,0.02l0.021,0.102H39.79l0.02-0.102L40.11,51.765
		L40.11,51.765z"/>
	<path id="XMLID_86_" style="fill-rule:evenodd;clip-rule:evenodd;fill:#918668;" d="M48.06,49.841c0-1.111-0.579-2.059-1.915-2.059
		h-0.334v3.847l0.463,0.136C47.453,51.744,48.06,50.851,48.06,49.841L48.06,49.841L48.06,49.841z M44.863,51.765
		c0.219-0.021,0.3-0.068,0.3-0.115v-3.766c0-0.054-0.041-0.074-0.346-0.101l-0.205-0.02l-0.021-0.102l1.676-0.02
		c1.635-0.034,2.487,0.867,2.487,2.039c0,1.212-0.873,2.214-2.637,2.214h-1.534l0.021-0.102L44.863,51.765L44.863,51.765z"/>
	<path id="XMLID_82_" style="fill-rule:evenodd;clip-rule:evenodd;fill:#918668;" d="M51.906,51.765
		c0.211-0.02,0.32-0.055,0.32-0.115v-3.766c0-0.054-0.041-0.074-0.348-0.102l-0.204-0.02l-0.02-0.102h3.291l0.068,1.301h-0.129
		l-0.068-0.258c-0.198-0.596-0.334-0.921-1.39-0.921h-0.552v1.876l0.273-0.007c0.661-0.02,0.852-0.074,0.974-0.447l0.068-0.203
		l0.117,0.007l-0.143,1.443l-0.117-0.007l-0.02-0.196c-0.021-0.386-0.218-0.44-0.92-0.461l-0.232-0.007v1.964l0.641,0.02
		c1.083,0,1.294-0.434,1.513-0.955l0.082-0.25l0.136,0.007l-0.211,1.328h-3.387l0.02-0.102L51.906,51.765L51.906,51.765z"/>
	<path id="XMLID_78_" style="fill-rule:evenodd;clip-rule:evenodd;fill:#918668;" d="M58.99,48.209l0.007,2.973
		c0,0.447,0.109,0.548,0.483,0.583l0.191,0.027l0.02,0.102H58.22l0.021-0.102l0.191-0.027c0.286-0.034,0.422-0.122,0.422-0.596
		l0.021-2.919c-0.074-0.19-0.211-0.407-0.532-0.467l-0.156-0.028l-0.021-0.102h1.226l2.556,3.279l0.013-0.007l-0.007-2.554
		c0-0.447-0.109-0.548-0.484-0.582l-0.19-0.027l-0.021-0.102h1.472l-0.021,0.102l-0.19,0.027c-0.286,0.02-0.422,0.135-0.422,0.596
		l-0.014,3.549H61.94l-2.937-3.726H58.99L58.99,48.209z"/>
	<path id="XMLID_74_" style="fill-rule:evenodd;clip-rule:evenodd;fill:#918668;" d="M73.088,51.765
		c0.211-0.02,0.32-0.055,0.32-0.115v-3.766c0-0.054-0.041-0.074-0.348-0.102l-0.204-0.02l-0.021-0.102h3.291l0.068,1.301h-0.13
		l-0.068-0.258c-0.198-0.596-0.334-0.921-1.39-0.921h-0.552v1.876l0.273-0.007c0.661-0.02,0.852-0.074,0.974-0.447l0.068-0.203
		l0.116,0.007l-0.143,1.443l-0.116-0.007l-0.021-0.196c-0.02-0.386-0.218-0.44-0.92-0.461l-0.232-0.007v1.964l0.641,0.02
		c1.083,0,1.294-0.434,1.513-0.955l0.082-0.25l0.137,0.007l-0.211,1.328h-3.387l0.021-0.102L73.088,51.765L73.088,51.765z"/>
	<path id="XMLID_70_" style="fill-rule:evenodd;clip-rule:evenodd;fill:#918668;" d="M92.532,51.765
		c0.224-0.02,0.286-0.068,0.286-0.115v-3.766c0-0.047-0.021-0.082-0.334-0.102l-0.218-0.02l-0.021-0.102h1.928l-0.021,0.102
		l-0.389,0.027c-0.218,0.02-0.3,0.068-0.3,0.115v3.84l0.532,0.027c1.036,0,1.192-0.379,1.444-1.009l0.089-0.285h0.136l-0.197,1.416
		h-3.23l0.021-0.102L92.532,51.765L92.532,51.765z"/>
	<path id="XMLID_66_" style="fill-rule:evenodd;clip-rule:evenodd;fill:#918668;" d="M99.262,50.423v-2.546
		c0-0.047-0.041-0.068-0.348-0.095l-0.272-0.027l-0.021-0.102h1.928l-0.021,0.102l-0.32,0.027c-0.218,0.02-0.3,0.068-0.3,0.115
		v2.377c0,1.023,0.43,1.443,1.267,1.443c0.77,0,1.254-0.495,1.254-1.47l-0.007-1.876c0-0.44-0.115-0.555-0.491-0.589l-0.19-0.027
		l-0.021-0.102h1.479l-0.021,0.102l-0.198,0.027c-0.293,0.034-0.415,0.135-0.415,0.603l-0.014,1.897
		c0,1.049-0.484,1.706-1.615,1.706C99.772,51.988,99.262,51.535,99.262,50.423"/>
	<path id="XMLID_59_" style="fill-rule:evenodd;clip-rule:evenodd;fill:#918668;" d="M107.885,51.765
		c0.048-0.007,0.074-0.007,0.048-0.007c0.633-0.02,1.029-0.46,1.029-0.982c0-0.65-0.49-1.104-1.199-1.104
		c-0.116,0-0.314,0-0.389,0.021v1.957l0.422,0.122C107.83,51.771,107.864,51.771,107.885,51.765L107.885,51.765L107.885,51.765z
		 M108.729,48.676c0-0.569-0.32-0.88-1.056-0.88h-0.3v1.747h0.347C108.409,49.522,108.729,49.137,108.729,48.676L108.729,48.676
		L108.729,48.676z M106.426,51.765c0.218-0.02,0.3-0.068,0.3-0.115v-3.766c0-0.054-0.041-0.074-0.348-0.102l-0.204-0.02
		l-0.021-0.102h1.683c1.247,0,1.615,0.454,1.615,0.914c0,0.481-0.389,0.874-1.254,1.003v0.02c0.981,0.054,1.472,0.569,1.472,1.137
		c0,0.698-0.633,1.159-1.826,1.159h-1.697l0.021-0.102L106.426,51.765L106.426,51.765z"/>
	<path id="XMLID_55_" style="fill-rule:evenodd;clip-rule:evenodd;fill:#918668;" d="M6.021,34.836c0-3.999,2.997-6.836,7.205-6.836
		c1.335,0,2.545,0.367,3.263,0.714l1.191-0.449l0.062,3.836h-0.328l-1.252-2.938c-0.554-0.429-1.56-0.796-3.039-0.796
		c-3.263,0-5.337,2.775-5.337,6.264c0,3.775,2.238,6.346,5.419,6.346c1.047,0,2.155-0.286,2.751-0.673v-4.183
		c0-0.143-0.164-0.204-1.005-0.266l-0.985-0.082l-0.062-0.285h5.358l-0.062,0.285l-0.883,0.103
		c-0.595,0.061-0.801,0.163-0.801,0.306v3.836l1.15-0.041l0.021,0.224c-1.58,0.551-3.941,1.143-5.645,1.143
		C8.997,41.345,6.021,38.815,6.021,34.836"/>
	<path id="XMLID_49_" style="fill-rule:evenodd;clip-rule:evenodd;fill:#918668;" d="M26.468,34.081
		c0-1.388-0.883-2.224-2.689-2.163l-0.842,0.02v4.101c0.308,0.082,0.986,0.184,1.293,0.184
		C25.606,36.162,26.468,35.408,26.468,34.081L26.468,34.081L26.468,34.081z M20.905,40.692c0.308-0.061,0.595-0.143,0.595-0.245
		v-8.305c0-0.102-0.062-0.143-0.698-0.204l-0.719-0.082l-0.062-0.286h4.27c2.484-0.02,3.716,0.897,3.716,2.448
		c0,1.224-0.944,2.142-2.402,2.448l2.135,3.244c0.554,0.776,0.759,0.939,1.375,1l0.37,0.041l0.062,0.306H26.92l-0.267-0.429
		l-2.483-4.04c-0.246-0.061-0.985-0.184-1.232-0.224v4.101c0,0.143,0.349,0.204,0.678,0.224l0.78,0.061l0.061,0.306h-4.434
		l0.062-0.306L20.905,40.692L20.905,40.692z"/>
	<path id="XMLID_43_" style="fill-rule:evenodd;clip-rule:evenodd;fill:#918668;" d="M35.112,32.938H35.03l-1.375,3.918h2.73
		L35.112,32.938L35.112,32.938z M32.936,38.937c-0.554,1.49-0.493,1.673,0.595,1.775l0.472,0.04l0.041,0.306h-3.449l0.061-0.306
		l0.431-0.04c0.801-0.102,0.883-0.224,1.766-2.632l1.949-5.489l-0.123-0.429c0.37-0.122,0.903-0.469,1.088-0.816h0.205l2.791,8.121
		c0.329,1.041,0.493,1.184,1.068,1.245l0.595,0.04l0.042,0.306h-4.291l0.041-0.306l0.657-0.04c0.554-0.061,0.678-0.286,0.431-1.082
		l-0.8-2.428h-2.976L32.936,38.937L32.936,38.937z"/>
	<path id="XMLID_39_" style="fill-rule:evenodd;clip-rule:evenodd;fill:#918668;" d="M43.345,32.775v7.101
		c0,0.592,0.246,0.776,1.006,0.837l0.534,0.04l0.041,0.306h-3.388l0.042-0.306l0.534-0.04c0.575-0.061,0.862-0.224,0.862-0.857
		l0.041-7.142c-0.185-0.347-0.534-0.694-1.129-0.776l-0.472-0.082l-0.041-0.285h2.895l5.686,7.386h0.041v-6.203
		c0-0.633-0.205-0.776-1.006-0.837l-0.513-0.061l-0.061-0.285h3.428l-0.062,0.285l-0.533,0.061
		c-0.575,0.061-0.862,0.225-0.862,0.878l-0.062,8.366h-0.411l-6.507-8.386H43.345L43.345,32.775z"/>
	<path id="XMLID_33_" style="fill-rule:evenodd;clip-rule:evenodd;fill:#918668;" d="M60.856,36.489
		c0-2.632-1.355-4.591-4.228-4.591h-0.842v8.57l1.129,0.225C59.543,40.692,60.856,38.713,60.856,36.489L60.856,36.489L60.856,36.489
		z M53.754,40.692c0.391-0.061,0.595-0.143,0.595-0.245v-8.305c0-0.103-0.061-0.143-0.698-0.204l-0.595-0.082l-0.041-0.285
		c0.739-0.02,1.396-0.02,1.95-0.02h1.929c3.552-0.061,5.502,1.877,5.502,4.611c0,2.693-2.073,4.897-5.789,4.897h-3.612l0.061-0.306
		L53.754,40.692L53.754,40.692z"/>
	<path id="XMLID_29_" style="fill-rule:evenodd;clip-rule:evenodd;fill:#918668;" d="M67.304,40.672
		c0.595-0.061,0.78-0.163,0.78-0.306V28.939c0-0.143-0.083-0.184-0.923-0.265l-0.76-0.061l-0.061-0.306h5.522L71.8,28.613
		l-1.293,0.082c-0.595,0.061-0.8,0.163-0.8,0.306v11.631l1.826,0.061c2.998,0,3.531-1.02,4.187-2.673l0.268-0.939h0.369
		l-0.698,3.979h-9.34l0.061-0.306L67.304,40.672L67.304,40.672z"/>
	<path id="XMLID_25_" style="fill-rule:evenodd;clip-rule:evenodd;fill:#918668;" d="M78.637,37.836v-5.693
		c0-0.102-0.041-0.143-0.678-0.204l-0.719-0.082l-0.061-0.286h4.393l-0.061,0.286l-0.842,0.082
		c-0.431,0.061-0.574,0.143-0.574,0.245v5.387c0,2.142,0.944,3.061,2.812,3.061c1.807,0,2.751-1.143,2.751-3.265v-4.611
		c0-0.633-0.267-0.776-1.027-0.837l-0.554-0.061l-0.041-0.286h3.448l-0.041,0.286l-0.554,0.061
		c-0.574,0.061-0.862,0.224-0.862,0.878l-0.02,4.652c0,2.428-1.129,3.877-3.572,3.877C79.868,41.325,78.637,40.305,78.637,37.836"/>
	<path id="XMLID_21_" style="fill-rule:evenodd;clip-rule:evenodd;fill:#918668;" d="M88.965,40.713
		c0.759-0.102,1.067-0.367,1.991-1.673l1.826-2.53l-2.257-3.326c-0.656-0.939-0.76-1.204-1.273-1.265l-0.596-0.061l-0.061-0.286
		h4.291l-0.041,0.286l-0.678,0.041c-0.574,0.061-0.656,0.224-0.061,1.183l1.642,2.408h0.02l1.356-1.98
		c0.923-1.306,0.739-1.489-0.123-1.591l-0.595-0.061l-0.041-0.286h3.715l-0.041,0.286l-0.492,0.061
		c-0.76,0.061-1.068,0.346-1.991,1.632l-1.602,2.204l2.772,4.061c0.451,0.694,0.533,0.837,1.027,0.898l0.574,0.04l0.061,0.307
		h-4.269l0.041-0.307l0.698-0.04c0.575-0.02,0.636-0.224,0.246-0.796l-2.094-3.163h-0.04l-1.581,2.326
		c-0.883,1.265-0.719,1.531,0.102,1.633l0.595,0.04l0.041,0.307h-3.715l0.041-0.307L88.965,40.713L88.965,40.713z"/>
	<path id="XMLID_17_" style="fill-rule:evenodd;clip-rule:evenodd;fill:#918668;" d="M100.01,40.713
		c0.759-0.102,1.067-0.367,1.991-1.673l1.826-2.53l-2.257-3.326c-0.656-0.939-0.76-1.204-1.273-1.265l-0.595-0.061l-0.062-0.286
		h4.291l-0.041,0.286l-0.678,0.041c-0.574,0.061-0.656,0.224-0.061,1.183l1.642,2.408h0.021l1.355-1.98
		c0.923-1.306,0.739-1.489-0.123-1.591l-0.595-0.061l-0.041-0.286h3.715l-0.041,0.286l-0.492,0.061
		c-0.76,0.061-1.068,0.346-1.991,1.632l-1.602,2.204l2.772,4.061c0.451,0.694,0.533,0.837,1.027,0.898l0.574,0.04l0.061,0.307
		h-4.269l0.041-0.307l0.698-0.04c0.575-0.02,0.636-0.224,0.246-0.796l-2.094-3.163h-0.04l-1.581,2.326
		c-0.883,1.265-0.719,1.531,0.102,1.633l0.595,0.04l0.041,0.307h-3.715l0.041-0.307L100.01,40.713L100.01,40.713z"/>
	<path id="XMLID_13_" style="fill-rule:evenodd;clip-rule:evenodd;fill:#918668;" d="M111.24,40.692
		c0.41-0.061,0.615-0.143,0.615-0.245v-8.305c0-0.103-0.061-0.143-0.698-0.204l-0.595-0.082l-0.041-0.286h7.636l0.164,2.857
		l-0.308,0.02l-0.164-0.592c-0.492-1.367-0.903-1.959-2.955-1.959h-1.601v4.121l1.088-0.02c1.335,0,1.725-0.184,1.95-0.999
		l0.143-0.469l0.268,0.02l-0.329,3.285l-0.246-0.02l-0.061-0.449c-0.063-0.857-0.349-1.02-1.807-1.02l-1.006-0.041v4.387
		l1.765,0.041c2.258,0,2.771-0.857,3.263-2.081l0.164-0.551h0.349l-0.492,2.959h-7.841l0.041-0.306L111.24,40.692L111.24,40.692z"/>
	<path id="XMLID_5_" style="fill-rule:evenodd;clip-rule:evenodd;fill:#918668;" d="M120.94,31.609c0.576,0,1.039,0.464,1.039,1.04
		c0,0.588-0.463,1.044-1.046,1.044c-0.579,0-1.05-0.457-1.05-1.044c0-0.576,0.471-1.04,1.05-1.04H120.94L120.94,31.609z
		 M120.934,31.772c-0.467,0-0.846,0.393-0.846,0.877c0,0.495,0.38,0.884,0.853,0.884c0.47,0.004,0.846-0.389,0.846-0.879
		c0-0.489-0.377-0.882-0.846-0.882H120.934L120.934,31.772z M120.737,33.256h-0.189v-1.16c0.099-0.015,0.191-0.03,0.334-0.03
		c0.179,0,0.296,0.038,0.368,0.087c0.071,0.053,0.107,0.13,0.107,0.241c0,0.153-0.102,0.246-0.228,0.282v0.01
		c0.104,0.018,0.171,0.11,0.196,0.282c0.03,0.181,0.056,0.251,0.076,0.287h-0.198c-0.029-0.036-0.057-0.144-0.08-0.297
		c-0.029-0.147-0.103-0.203-0.256-0.203h-0.129V33.256L120.737,33.256z M120.737,32.613h0.138c0.15,0,0.286-0.054,0.286-0.198
		c0-0.102-0.078-0.204-0.286-0.204c-0.064,0-0.104,0.004-0.138,0.01V32.613L120.737,32.613z"/>
	<g id="XMLID_2_">
		<path id="XMLID_3_" style="fill:#918668;" d="M69.75,50.566c0,0.018-0.003,0.07-0.01,0.156c-0.026,0.331-0.039,0.563-0.039,0.698
			c0,0.092,0.01,0.227,0.029,0.404v0.064c0,0.061-0.026,0.092-0.078,0.092s-0.104-0.052-0.156-0.156l-0.087-0.174
			c-0.007-0.012-0.017-0.031-0.029-0.055c-0.293,0.27-0.696,0.404-1.21,0.404c-0.657,0-1.204-0.207-1.639-0.619
			c-0.436-0.413-0.654-0.931-0.654-1.554s0.201-1.136,0.605-1.536c0.403-0.4,0.917-0.601,1.542-0.601
			c0.488,0,0.897,0.119,1.229,0.358c0.026,0.024,0.052,0.037,0.078,0.037c0.032,0,0.062-0.04,0.088-0.12
			c0.045-0.135,0.101-0.202,0.166-0.202c0.045,0,0.068,0.024,0.068,0.074c0,0.006-0.006,0.034-0.02,0.083
			c-0.039,0.208-0.062,0.518-0.068,0.928c-0.006,0.257-0.042,0.386-0.107,0.386c-0.052,0-0.087-0.046-0.107-0.137
			c-0.065-0.329-0.144-0.572-0.234-0.73c-0.208-0.347-0.55-0.52-1.025-0.52c-0.396,0-0.712,0.179-0.946,0.538
			c-0.234,0.359-0.352,0.846-0.352,1.46s0.13,1.102,0.391,1.46c0.26,0.359,0.611,0.539,1.054,0.539c0.338,0,0.62-0.107,0.844-0.322
			s0.373-0.513,0.444-0.894c0.033-0.157,0.075-0.236,0.127-0.236C69.717,50.391,69.75,50.449,69.75,50.566z"/>
	</g>
	<g id="XMLID_438_">
		<path id="XMLID_439_" style="fill:#918668;" d="M89.569,50.566c0,0.018-0.003,0.07-0.01,0.156
			c-0.026,0.331-0.039,0.563-0.039,0.698c0,0.092,0.01,0.227,0.029,0.404v0.064c0,0.061-0.026,0.092-0.078,0.092
			s-0.104-0.052-0.156-0.156l-0.087-0.174c-0.007-0.012-0.017-0.031-0.029-0.055c-0.293,0.27-0.696,0.404-1.21,0.404
			c-0.657,0-1.204-0.207-1.639-0.619c-0.436-0.413-0.654-0.931-0.654-1.554s0.201-1.136,0.605-1.536
			c0.403-0.4,0.917-0.601,1.542-0.601c0.488,0,0.897,0.119,1.229,0.358c0.026,0.024,0.052,0.037,0.078,0.037
			c0.032,0,0.062-0.04,0.088-0.12c0.045-0.135,0.101-0.202,0.166-0.202c0.045,0,0.068,0.024,0.068,0.074
			c0,0.006-0.006,0.034-0.02,0.083c-0.039,0.208-0.062,0.518-0.068,0.928c-0.006,0.257-0.042,0.386-0.107,0.386
			c-0.052,0-0.087-0.046-0.107-0.137c-0.065-0.329-0.144-0.572-0.234-0.73c-0.208-0.347-0.55-0.52-1.025-0.52
			c-0.396,0-0.712,0.179-0.946,0.538c-0.234,0.359-0.352,0.846-0.352,1.46s0.13,1.102,0.391,1.46
			c0.26,0.359,0.611,0.539,1.054,0.539c0.338,0,0.62-0.107,0.844-0.322s0.373-0.513,0.444-0.894
			c0.033-0.157,0.075-0.236,0.127-0.236C89.536,50.391,89.569,50.449,89.569,50.566z"/>
	</g>
</g>
</svg>
