<?xml version="1.0" encoding="iso-8859-1"?>
<!-- Generator: Adobe Illustrator 19.0.0, SVG Export Plug-In . SVG Version: 6.00 Build 0)  -->
<svg version="1.1" id="Capa_1" xmlns="http://www.w3.org/2000/svg" xmlns:xlink="http://www.w3.org/1999/xlink" x="0px" y="0px"
	 viewBox="0 0 130 80" style="enable-background:new 0 0 130 80;" xml:space="preserve">
<g id="XMLID_112_">
	<path id="XMLID_126_" style="fill:#918568;" d="M11.484,39.831c-0.637,0.021-1.26,0.038-1.869,0.051
		c-0.61,0.015-1.23,0.024-1.869,0.024c-0.637,0-1.261-0.008-1.868-0.024c-0.611-0.013-1.233-0.03-1.87-0.051
		c0.048,0.197,0.072,0.347,0.072,0.453c0,0.138-0.024,0.293-0.072,0.469c0.202-0.031,0.432-0.055,0.688-0.074
		c0.255-0.02,0.521-0.036,0.796-0.052c0.276-0.014,0.551-0.022,0.827-0.03c0.275-0.004,0.54-0.006,0.791-0.006
		c0.022,0.8,0.03,1.601,0.034,2.407c0,0.207,0.009,0.412,0.009,0.619v2.514c0,0.643-0.012,1.277-0.036,1.9
		c-0.025,0.623-0.052,1.238-0.081,1.842c0.222-0.02,0.459-0.031,0.711-0.031c0.25,0,0.488,0.011,0.71,0.031
		c-0.03-0.604-0.055-1.219-0.081-1.842c-0.024-0.623-0.036-1.257-0.036-1.9v-2.514c0-0.206,0.008-0.412,0.01-0.619
		c0.004-0.805,0.011-1.607,0.036-2.407c0.25,0,0.513,0.002,0.787,0.006c0.277,0.007,0.553,0.016,0.827,0.03
		c0.277,0.016,0.54,0.032,0.798,0.052c0.256,0.019,0.486,0.043,0.688,0.074c-0.048-0.176-0.073-0.327-0.073-0.453
		C11.41,40.183,11.436,40.027,11.484,39.831z"/>
	<path id="XMLID_114_" style="fill:#918568;" d="M21.628,46.13v-2.513c0-0.21,0.009-0.412,0.012-0.619
		c0.004-0.428,0.008-0.858,0.024-1.274c0.025-0.617,0.05-1.25,0.08-1.893c-0.126,0.022-0.247,0.038-0.361,0.051
		c-0.116,0.016-0.233,0.025-0.349,0.025c-0.116,0-0.232-0.009-0.348-0.025c-0.115-0.014-0.237-0.03-0.362-0.051
		c0.028,0.643,0.057,1.276,0.081,1.893c0.017,0.417,0.018,0.846,0.024,1.274c0.003,0.207,0.011,0.409,0.011,0.619v0.512
		c-0.521,0.01-1.027,0.019-1.514,0.03c-0.488,0.01-0.993,0.014-1.513,0.014c-0.521,0-1.028-0.004-1.515-0.014
		c-0.488-0.011-0.994-0.019-1.515-0.03v-0.512c0-0.21,0.009-0.412,0.011-0.619c0.006-0.428,0.01-0.858,0.026-1.274
		c0.024-0.617,0.051-1.25,0.079-1.893c-0.126,0.022-0.246,0.038-0.362,0.051c-0.116,0.016-0.232,0.025-0.348,0.025
		c-0.116,0-0.232-0.009-0.347-0.025c-0.116-0.014-0.237-0.03-0.362-0.051c0.027,0.643,0.055,1.276,0.078,1.893
		c0.017,0.417,0.018,0.846,0.024,1.274c0.003,0.207,0.012,0.409,0.012,0.619v2.513c0,0.642-0.012,1.279-0.037,1.902
		c-0.023,0.622-0.051,1.236-0.078,1.84c0.222-0.019,0.459-0.031,0.709-0.031c0.252,0,0.486,0.012,0.711,0.031
		c-0.028-0.604-0.055-1.219-0.079-1.84c-0.024-0.623-0.037-1.26-0.037-1.902v-1.315c0.521-0.009,1.027-0.016,1.515-0.021
		c0.487-0.004,0.993-0.007,1.515-0.007c0.52,0,1.025,0.002,1.513,0.007c0.487,0.005,0.993,0.012,1.514,0.021v1.315
		c0,0.642-0.013,1.279-0.036,1.902c-0.024,0.622-0.052,1.236-0.081,1.84c0.224-0.019,0.459-0.031,0.71-0.031
		c0.252,0,0.487,0.012,0.711,0.031c-0.03-0.604-0.055-1.219-0.08-1.84C21.639,47.409,21.628,46.772,21.628,46.13z"/>
	<path id="XMLID_113_" style="fill:#918568;" d="M29.562,49.265c0.004-0.082,0.018-0.159,0.036-0.226
		c-0.23,0.05-0.503,0.085-0.818,0.109c-0.314,0.027-0.648,0.044-0.999,0.059c-0.354,0.016-0.713,0.024-1.081,0.024h-1.014
		c-0.009-0.185-0.016-0.459-0.02-0.82c-0.004-0.361-0.008-0.818-0.008-1.375V46.16V45.59c0-0.156,0.004-0.286,0.008-0.387
		c0.004-0.104,0.007-0.198,0.007-0.284c0.172,0,0.406,0.002,0.703,0.008c0.293,0.004,0.607,0.008,0.941,0.013
		c0.334,0.006,0.667,0.017,1.001,0.035c0.333,0.02,0.625,0.045,0.876,0.075c-0.03-0.147-0.044-0.294-0.044-0.437
		c0-0.158,0.014-0.307,0.044-0.454c-0.212,0.02-0.438,0.036-0.672,0.049c-0.239,0.017-0.496,0.032-0.777,0.045
		c-0.28,0.015-0.588,0.028-0.926,0.037c-0.34,0.012-0.72,0.016-1.145,0.016c0-0.185-0.003-0.459-0.007-0.82
		c-0.003-0.158-0.003-0.326-0.003-0.487c-0.001-0.206-0.005-0.41-0.005-0.623c0-0.362,0.008-0.682,0.021-0.967
		c0.014-0.28,0.027-0.579,0.037-0.89c0.472,0,0.879,0.007,1.216,0.023c0.338,0.013,0.649,0.03,0.935,0.05
		c0.284,0.021,0.557,0.038,0.811,0.058c0.256,0.022,0.539,0.039,0.848,0.06c-0.03-0.147-0.045-0.294-0.045-0.44
		c0-0.145,0.015-0.29,0.045-0.438c-0.435,0.022-0.865,0.038-1.29,0.051c-0.425,0.015-0.855,0.024-1.289,0.024
		c-0.435,0-0.868-0.009-1.297-0.024c-0.43-0.014-0.862-0.03-1.299-0.051c0.031,0.625,0.057,1.248,0.083,1.871
		c0.016,0.426,0.018,0.862,0.024,1.296c0.002,0.203,0.01,0.399,0.01,0.604v2.515c0,0.642-0.012,1.273-0.034,1.891
		c-0.026,0.619-0.051,1.241-0.083,1.864c0.446-0.02,0.885-0.031,1.321-0.031h1.317h1.312c0.43,0,0.861,0.011,1.296,0.031
		c-0.027-0.098-0.043-0.224-0.043-0.379C29.555,49.425,29.556,49.349,29.562,49.265z"/>
	<path id="XMLID_134_" style="fill:#918568;" d="M51.762,48.403c-0.25-0.316-0.512-0.647-0.781-0.994
		c-0.271-0.345-0.531-0.677-0.784-0.993c-0.252-0.317-0.478-0.608-0.68-0.869c-0.203-0.264-0.364-0.468-0.479-0.616
		c0.279-0.038,0.591-0.117,0.935-0.238c0.343-0.122,0.664-0.293,0.963-0.514c0.299-0.218,0.553-0.494,0.76-0.832
		c0.068-0.109,0.119-0.224,0.165-0.347c0.095-0.257,0.148-0.539,0.148-0.858c0-0.438-0.079-0.803-0.238-1.096
		c-0.159-0.29-0.378-0.528-0.654-0.708c-0.275-0.179-0.595-0.308-0.963-0.387c-0.368-0.078-0.753-0.117-1.159-0.117
		c-0.279,0-0.555,0.013-0.825,0.038c-0.271,0.024-0.548,0.037-0.826,0.037c-0.28,0-0.557-0.008-0.826-0.022
		c-0.27-0.015-0.545-0.032-0.827-0.053c0.03,0.643,0.055,1.275,0.079,1.893c0.018,0.416,0.019,0.847,0.025,1.274
		c0.003,0.208,0.012,0.409,0.012,0.617v2.516c0,0.643-0.012,1.278-0.037,1.9c-0.024,0.623-0.049,1.237-0.079,1.84
		c0.221-0.017,0.459-0.028,0.711-0.028c0.25,0,0.488,0.01,0.709,0.028c-0.027-0.602-0.055-1.217-0.079-1.84
		c-0.023-0.622-0.036-1.257-0.036-1.9v-1.067h0.551c0.308,0.323,0.65,0.713,1.021,1.176c0.372,0.465,0.737,0.928,1.094,1.394
		c0.358,0.47,0.684,0.908,0.979,1.317c0.295,0.409,0.513,0.715,0.66,0.919c0.135-0.017,0.275-0.028,0.421-0.028h0.419h0.435
		c0.145,0,0.289,0.01,0.433,0.028c-0.134-0.135-0.314-0.334-0.536-0.598C52.251,49.01,52.014,48.721,51.762,48.403z M47.966,44.523
		c-0.194,0-0.368-0.004-0.528-0.015c-0.159-0.008-0.306-0.03-0.442-0.059v-0.835c0-0.205,0.009-0.41,0.013-0.617
		c0.004-0.321,0.004-0.64,0.017-0.961c0.02-0.525,0.038-1.057,0.058-1.593c0.153-0.02,0.342-0.036,0.564-0.051
		c0.222-0.014,0.502-0.021,0.841-0.021c0.25,0,0.507,0.026,0.768,0.079c0.261,0.054,0.502,0.152,0.723,0.301
		c0.222,0.145,0.404,0.343,0.544,0.591c0.139,0.249,0.21,0.562,0.21,0.943c0,0.268-0.045,0.498-0.112,0.711
		c-0.043,0.133-0.086,0.267-0.156,0.378c-0.179,0.286-0.402,0.516-0.674,0.686c-0.27,0.171-0.568,0.289-0.891,0.358
		C48.576,44.487,48.265,44.523,47.966,44.523z"/>
	<path id="XMLID_131_" style="fill:#918568;" d="M61.508,47.321c-0.245-0.569-0.509-1.185-0.789-1.848
		c-0.282-0.663-0.561-1.33-0.841-2.001c-0.065-0.161-0.129-0.313-0.196-0.473c-0.211-0.51-0.423-1.021-0.629-1.522
		c-0.27-0.656-0.522-1.268-0.754-1.832h-0.276c-0.489,1.132-0.975,2.246-1.46,3.355c-0.263,0.598-0.526,1.197-0.784,1.789
		c-0.745,1.687-1.509,3.38-2.292,5.085c0.165-0.019,0.344-0.029,0.537-0.029c0.193,0,0.372,0.01,0.536,0.029
		c0.125-0.448,0.314-1.016,0.566-1.702c0.25-0.687,0.532-1.411,0.84-2.172c0.299-0.008,0.594-0.016,0.884-0.022
		c0.29-0.004,0.584-0.005,0.884-0.005c0.319,0,0.638,0.001,0.957,0.005c0.317,0.006,0.632,0.014,0.942,0.022
		c0.125,0.323,0.259,0.662,0.405,1.018c0.145,0.355,0.289,0.707,0.428,1.051c0.139,0.346,0.268,0.677,0.384,0.993
		c0.116,0.318,0.209,0.588,0.277,0.812c0.134-0.019,0.262-0.029,0.382-0.029h0.384h0.384c0.121,0,0.248,0.01,0.383,0.029
		c-0.124-0.235-0.287-0.574-0.484-1.022C61.978,48.401,61.754,47.891,61.508,47.321z M58.617,45.35
		c-0.269,0.004-0.54,0.006-0.81,0.006c-0.253,0-0.512-0.005-0.783-0.013c-0.271-0.013-0.533-0.016-0.784-0.016l0.991-2.329
		l0.59-1.385l0.6,1.385l1.007,2.329C59.158,45.338,58.888,45.344,58.617,45.35z"/>
	<path id="XMLID_115_" style="fill:#918568;" d="M72.414,39.905c-0.136,0-0.299-0.027-0.492-0.075
		c0.049,0.858,0.08,1.771,0.093,2.74c0.003,0.141,0.003,0.285,0.006,0.427c0.01,0.836,0.016,1.688,0.016,2.563v1.986
		c-0.445-0.447-0.965-0.99-1.558-1.629c-0.593-0.638-1.222-1.313-1.884-2.029c-0.269-0.293-0.544-0.595-0.816-0.89
		c-0.395-0.428-0.786-0.854-1.183-1.289c-0.672-0.734-1.303-1.425-1.891-2.068h-0.233c0.019,0.331,0.031,0.833,0.037,1.506
		c0.003,0.533,0.004,1.154,0.006,1.85c0.001,0.182,0.001,0.368,0.001,0.562c0,0.321-0.006,0.687-0.017,1.095
		c-0.009,0.408-0.02,0.827-0.036,1.256c-0.013,0.428-0.034,0.858-0.058,1.286c-0.023,0.428-0.046,0.825-0.065,1.19
		c-0.019,0.367-0.04,0.682-0.065,0.944c-0.023,0.261-0.046,0.441-0.064,0.539c0.163-0.02,0.341-0.029,0.536-0.029
		c0.183,0,0.352,0.009,0.507,0.029c-0.008-0.079-0.018-0.225-0.028-0.447c-0.011-0.219-0.02-0.474-0.028-0.767
		c-0.011-0.292-0.021-0.61-0.028-0.949c-0.011-0.341-0.02-0.678-0.023-1.009c-0.004-0.329-0.01-0.647-0.014-0.949
		c-0.006-0.302-0.008-0.555-0.008-0.763c0-0.787,0.006-1.412,0.014-1.868c0.001-0.044,0.001-0.082,0.004-0.123
		c0.007-0.399,0.018-0.727,0.027-0.974c0.301,0.321,0.602,0.648,0.904,0.974c0.955,1.023,1.909,2.048,2.863,3.08
		c1.255,1.361,2.439,2.688,3.549,3.984h0.202v-0.484c0-0.234-0.001-0.508-0.006-0.824c-0.004-0.315-0.009-0.659-0.014-1.024
		c-0.004-0.365-0.01-0.727-0.014-1.088c-0.006-0.362-0.007-0.707-0.007-1.039v-0.877c0-0.282,0.009-0.656,0.028-1.126
		c0.009-0.197,0.019-0.403,0.028-0.603c0.012-0.275,0.023-0.546,0.037-0.828c0.024-0.485,0.048-0.946,0.073-1.374
		c0.024-0.428,0.046-0.751,0.064-0.965C72.685,39.879,72.53,39.905,72.414,39.905z"/>
	<path id="XMLID_127_" style="fill:#918568;" d="M84.377,42.645c-0.178-0.599-0.46-1.107-0.848-1.519
		c-0.387-0.415-0.881-0.733-1.486-0.956c-0.603-0.226-1.33-0.339-2.181-0.339c-0.366,0-0.731,0.013-1.094,0.038
		c-0.362,0.024-0.727,0.037-1.095,0.037c-0.366,0-0.731-0.008-1.092-0.024c-0.363-0.013-0.728-0.03-1.094-0.051
		c0.028,0.642,0.056,1.278,0.079,1.893c0.016,0.416,0.02,0.846,0.024,1.274c0.002,0.208,0.013,0.408,0.013,0.619v2.514
		c0,0.643-0.013,1.277-0.037,1.9c-0.023,0.623-0.05,1.237-0.079,1.842c0.327-0.02,0.652-0.031,0.97-0.031h0.971
		c0.327,0,0.652,0.006,0.97,0.016c0.319,0.011,0.642,0.015,0.97,0.015c0.571,0,1.167-0.085,1.79-0.255
		c0.624-0.17,1.192-0.46,1.709-0.871c0.52-0.408,0.944-0.946,1.276-1.614c0.334-0.667,0.502-1.488,0.502-2.462
		c0-0.611-0.075-1.159-0.195-1.672C84.424,42.882,84.409,42.756,84.377,42.645z M82.826,47.028c-0.267,0.61-0.611,1.091-1.03,1.44
		c-0.419,0.35-0.895,0.591-1.426,0.716c-0.532,0.127-1.063,0.19-1.595,0.19c-0.367,0-0.724-0.013-1.072-0.037
		c-0.348-0.023-0.622-0.06-0.826-0.109c-0.058-1.013-0.086-2.047-0.086-3.099v-2.514c0-0.21,0.006-0.412,0.007-0.619
		c0.004-0.313,0.006-0.63,0.014-0.937c0.014-0.512,0.037-1.001,0.065-1.47c0.299-0.038,0.637-0.073,1.016-0.101
		c0.377-0.03,0.782-0.046,1.216-0.046c0.6,0,1.149,0.062,1.652,0.182c0.501,0.123,0.933,0.342,1.297,0.657
		c0.361,0.318,0.648,0.751,0.854,1.295c0.05,0.13,0.092,0.269,0.13,0.419c0.12,0.471,0.181,1.025,0.181,1.672
		C83.223,45.634,83.092,46.42,82.826,47.028z"/>
	<g id="XMLID_116_">
		<path id="XMLID_141_" style="fill:#918568;" d="M123.261,41.066c-0.021-0.016-0.051-0.035-0.091-0.055
			c0.11-0.015,0.192-0.051,0.243-0.106c0.053-0.057,0.078-0.127,0.078-0.208c0-0.063-0.014-0.122-0.048-0.173
			c-0.03-0.053-0.073-0.09-0.128-0.109c-0.05-0.022-0.129-0.032-0.231-0.032h-0.506v1.151h0.15v-0.511h0.177
			c0.037,0,0.065,0,0.082,0.005c0.025,0.008,0.047,0.016,0.07,0.031c0.023,0.015,0.049,0.042,0.078,0.078
			c0.028,0.036,0.064,0.089,0.109,0.158l0.15,0.239h0.191l-0.199-0.312C123.347,41.161,123.306,41.109,123.261,41.066z
			 M123.056,40.891h-0.326v-0.379h0.362c0.084,0,0.148,0.016,0.186,0.053c0.038,0.035,0.06,0.079,0.06,0.134
			c0,0.038-0.012,0.072-0.031,0.104c-0.021,0.031-0.049,0.056-0.088,0.069C123.179,40.885,123.124,40.891,123.056,40.891z"/>
		<path id="XMLID_147_" style="fill:#918568;" d="M122.995,39.963c-0.553,0-1.001,0.452-1.001,1.007
			c0,0.555,0.449,1.009,1.001,1.009c0.55,0,0.999-0.454,0.999-1.009C123.994,40.414,123.545,39.963,122.995,39.963z M122.995,41.857
			c-0.486,0-0.882-0.397-0.882-0.887s0.396-0.887,0.882-0.887c0.485,0,0.878,0.397,0.878,0.887S123.48,41.857,122.995,41.857z"/>
		<path id="XMLID_148_" style="fill:#918568;" d="M101.147,49.208c-0.628,0.015-1.285,0.022-1.973,0.022
			c-0.009-0.711-0.018-1.519-0.027-2.422c-0.01-0.9-0.015-1.964-0.015-3.193c0-0.208,0.009-0.409,0.01-0.617
			c0.006-0.427,0.009-0.858,0.024-1.274c0.025-0.617,0.053-1.25,0.083-1.893c-0.127,0.021-0.247,0.038-0.362,0.053
			c-0.118,0.014-0.233,0.022-0.348,0.022c-0.118,0-0.234-0.008-0.348-0.022c-0.116-0.015-0.237-0.032-0.363-0.053
			c0.03,0.643,0.057,1.276,0.08,1.893c0.017,0.417,0.02,0.847,0.025,1.274c0.003,0.208,0.013,0.409,0.013,0.617v2.516
			c0,0.642-0.013,1.278-0.038,1.899c-0.023,0.623-0.05,1.238-0.08,1.84c0.464-0.017,0.912-0.028,1.339-0.028h1.343h1.331
			c0.445,0,0.891,0.011,1.334,0.028c-0.048-0.154-0.071-0.286-0.071-0.393c0-0.117,0.024-0.264,0.071-0.438
			C102.451,49.137,101.776,49.191,101.147,49.208z"/>
		<path id="XMLID_149_" style="fill:#918568;" d="M106.389,42.998c0.006-0.428,0.009-0.858,0.024-1.274
			c0.024-0.617,0.052-1.25,0.082-1.893c-0.126,0.022-0.247,0.038-0.363,0.051c-0.116,0.016-0.233,0.025-0.347,0.025
			c-0.117,0-0.232-0.009-0.348-0.025c-0.115-0.014-0.236-0.03-0.362-0.051c0.028,0.643,0.055,1.276,0.079,1.893
			c0.016,0.417,0.02,0.846,0.024,1.274c0.003,0.207,0.011,0.409,0.011,0.619v2.513c0,0.642-0.011,1.279-0.036,1.902
			c-0.024,0.622-0.051,1.236-0.079,1.84c0.221-0.019,0.458-0.031,0.71-0.031c0.25,0,0.487,0.012,0.711,0.031
			c-0.03-0.604-0.057-1.219-0.082-1.84c-0.024-0.623-0.034-1.26-0.034-1.902v-2.513C106.379,43.407,106.386,43.205,106.389,42.998z"
			/>
		<path id="XMLID_150_" style="fill:#918568;" d="M113.202,44.741c-0.338-0.204-0.701-0.377-1.094-0.517
			c-0.39-0.14-0.755-0.303-1.093-0.484c-0.338-0.179-0.621-0.402-0.847-0.666c-0.023-0.022-0.036-0.05-0.055-0.078
			c-0.187-0.254-0.287-0.585-0.287-1.002c0-0.264,0.048-0.507,0.139-0.73c0.091-0.225,0.222-0.418,0.391-0.579
			c0.17-0.158,0.368-0.283,0.594-0.371c0.227-0.088,0.477-0.134,0.746-0.134c0.27,0,0.503,0.048,0.697,0.14
			c0.193,0.094,0.36,0.208,0.499,0.345c0.141,0.136,0.251,0.286,0.335,0.444c0.08,0.163,0.146,0.31,0.194,0.446h0.176
			c0.056-0.28,0.114-0.515,0.172-0.701c0.06-0.185,0.131-0.36,0.219-0.525c-0.29-0.235-0.604-0.408-0.942-0.519
			c-0.34-0.111-0.74-0.167-1.205-0.167c-0.482,0-0.917,0.067-1.304,0.202c-0.385,0.137-0.716,0.327-0.993,0.57
			c-0.274,0.243-0.484,0.535-0.628,0.869c-0.145,0.336-0.218,0.71-0.218,1.121c0,0.214,0.02,0.409,0.053,0.591
			c0.052,0.305,0.146,0.567,0.286,0.78c0.228,0.342,0.511,0.623,0.849,0.84c0.338,0.221,0.703,0.404,1.092,0.548
			c0.393,0.145,0.757,0.308,1.096,0.484c0.336,0.173,0.619,0.393,0.848,0.657c0.224,0.263,0.338,0.619,0.338,1.068
			c0,0.291-0.048,0.567-0.145,0.824c-0.097,0.26-0.232,0.483-0.412,0.673c-0.179,0.188-0.396,0.343-0.652,0.453
			c-0.256,0.112-0.544,0.169-0.862,0.169c-0.31,0-0.589-0.046-0.841-0.14c-0.252-0.094-0.471-0.213-0.66-0.358
			c-0.188-0.145-0.349-0.309-0.478-0.489c-0.131-0.18-0.234-0.358-0.311-0.532h-0.173c-0.028,0.282-0.061,0.514-0.094,0.694
			c-0.035,0.18-0.095,0.383-0.18,0.606c0.25,0.205,0.561,0.387,0.933,0.549c0.372,0.161,0.855,0.242,1.456,0.242
			c0.56,0,1.06-0.08,1.5-0.242c0.44-0.161,0.81-0.389,1.116-0.688c0.304-0.297,0.536-0.645,0.696-1.044
			c0.16-0.4,0.239-0.824,0.239-1.271c0-0.535-0.114-0.965-0.341-1.286C113.825,45.21,113.542,44.946,113.202,44.741z"/>
		<path id="XMLID_151_" style="fill:#918568;" d="M120.449,44.741c-0.338-0.204-0.702-0.377-1.094-0.517s-0.758-0.303-1.094-0.484
			c-0.338-0.179-0.621-0.402-0.849-0.666c-0.019-0.022-0.034-0.05-0.053-0.078c-0.188-0.254-0.286-0.585-0.286-1.002
			c0-0.264,0.047-0.507,0.137-0.73c0.092-0.225,0.223-0.418,0.393-0.579c0.168-0.158,0.366-0.283,0.592-0.371
			c0.226-0.088,0.477-0.134,0.746-0.134c0.27,0,0.503,0.048,0.695,0.14c0.195,0.094,0.36,0.208,0.502,0.345
			c0.14,0.136,0.25,0.286,0.333,0.444c0.082,0.163,0.146,0.31,0.194,0.446h0.176c0.058-0.28,0.115-0.515,0.173-0.701
			c0.059-0.185,0.131-0.36,0.219-0.525c-0.291-0.235-0.605-0.408-0.943-0.519c-0.34-0.111-0.738-0.167-1.205-0.167
			c-0.481,0-0.915,0.067-1.304,0.202c-0.385,0.137-0.716,0.327-0.993,0.57c-0.274,0.243-0.484,0.535-0.628,0.869
			c-0.145,0.336-0.218,0.71-0.218,1.121c0,0.214,0.021,0.409,0.054,0.591c0.054,0.305,0.146,0.567,0.285,0.78
			c0.228,0.342,0.509,0.623,0.849,0.84c0.338,0.221,0.703,0.404,1.095,0.548c0.391,0.145,0.754,0.308,1.094,0.484
			c0.337,0.173,0.619,0.393,0.847,0.657c0.228,0.263,0.341,0.619,0.341,1.068c0,0.291-0.049,0.567-0.147,0.824
			c-0.097,0.26-0.234,0.483-0.412,0.673c-0.179,0.188-0.396,0.343-0.652,0.453c-0.256,0.112-0.544,0.169-0.862,0.169
			c-0.309,0-0.591-0.046-0.841-0.14c-0.252-0.094-0.472-0.213-0.66-0.358c-0.187-0.145-0.348-0.309-0.478-0.489
			c-0.132-0.18-0.234-0.358-0.311-0.532h-0.174c-0.028,0.282-0.061,0.514-0.094,0.694c-0.033,0.18-0.096,0.383-0.18,0.606
			c0.25,0.205,0.561,0.387,0.933,0.549c0.372,0.161,0.858,0.242,1.456,0.242c0.56,0,1.06-0.08,1.5-0.242
			c0.441-0.161,0.813-0.389,1.117-0.688c0.305-0.297,0.536-0.645,0.696-1.044c0.158-0.4,0.239-0.824,0.239-1.271
			c0-0.535-0.115-0.965-0.341-1.286C121.069,45.21,120.788,44.946,120.449,44.741z"/>
	</g>
	<path id="XMLID_120_" style="fill:#918568;" d="M33.865,44.624c-0.011-0.085-0.036-0.222-0.043-0.318
		c-0.294-4.12,1.864-6.592,4.152-6.814c2.078-0.202,4.808,0.85,5.434,3.313c0.027,0.103-0.012,0.479,0.177,0.444
		c0.075-1.126,0.074-2.695,0-3.822c-0.195,0.117-0.159,0.42-0.263,0.574c-0.569,0.827-1.565,0.004-2.256-0.32
		c-2.954-1.375-6.432,0.101-7.952,2.295c-0.941,1.357-1.548,3.858-0.795,6.114c1.029,3.078,4.398,4.554,7.599,3.885
		C36.494,50.152,34.417,48.228,33.865,44.624z"/>
	<path id="XMLID_119_" style="fill:#918568;" d="M38.681,42.015c-0.609,0.7-1.179,1.821-1.104,3.248
		c0.216-1.679,1.109-3.059,2.34-3.248c1.766-0.276,3.212,1.599,3.182,3.949c-0.022,1.699-0.832,2.939-1.723,3.629
		c1.675-0.34,3.249-1.742,3.225-4.394C44.563,41.218,40.621,39.787,38.681,42.015z"/>
	<g id="XMLID_1_">
		<path id="XMLID_125_" style="fill:#918568;" d="M88.582,43.699c-0.585-0.354-1.115-0.987-1.128-1.86
			c-0.02-1.203,0.927-2.163,2.081-2.02c0.807,0.098,1.392,0.802,1.533,1.661c0.049-0.727-0.324-1.303-0.722-1.661
			c-1.27-1.141-3.85-0.409-3.876,1.63C86.455,42.806,87.487,43.524,88.582,43.699z"/>
		<path id="XMLID_137_" style="fill:#918568;" d="M94.9,45.493c-0.403-0.901-1.338-1.523-2.47-1.835
			c0.954-0.336,1.728-0.929,2.08-1.752c0.494-1.155,0.097-2.435-0.52-3.13c-0.994-1.122-3.272-1.877-5.205-1.173
			c-0.452,0.164-1.107,0.585-1.477,0.161c-0.069-0.078-0.044-0.232-0.173-0.292c-0.048,0.576-0.049,1.38,0,1.954
			c0.123,0.019,0.099-0.174,0.116-0.227c0.411-1.259,2.195-1.796,3.557-1.695c1.498,0.113,2.912,1.378,2.719,3.49
			c-0.004,0.048-0.02,0.119-0.03,0.163c-0.219,1.12-0.813,1.919-1.745,2.356c-0.665-0.103-1.369-0.117-2.067-0.007
			c0.625-0.024,1.179,0.032,1.671,0.156c-0.523,0.173-1.124,0.261-1.821,0.233c0.794,0.13,1.602,0.101,2.337-0.069
			c1.058,0.421,1.726,1.243,1.968,2.417c0.009,0.044,0.024,0.114,0.031,0.164c0.199,2.109-1.279,3.374-2.851,3.489
			c-1.426,0.101-3.3-0.437-3.729-1.697c-0.02-0.053,0.007-0.245-0.122-0.227c-0.052,0.575-0.051,1.38,0,1.954
			c0.134-0.06,0.108-0.214,0.181-0.291c0.391-0.423,1.074-0.004,1.547,0.16c2.03,0.706,4.415-0.052,5.459-1.173
			C95.002,47.928,95.42,46.646,94.9,45.493z"/>
		<path id="XMLID_140_" style="fill:#918568;" d="M90.535,47.578c0.416-0.359,0.809-0.933,0.757-1.663
			c-0.148,0.86-0.762,1.565-1.606,1.663c-1.213,0.141-2.205-0.818-2.186-2.022c0.017-0.873,0.572-1.506,1.185-1.858
			c-1.151,0.173-2.231,0.891-2.214,2.25C86.498,47.985,89.205,48.718,90.535,47.578z"/>
	</g>
	<polygon id="XMLID_130_" style="fill:#918568;" points="64.968,31.912 68.012,30.829 64.839,31.424 66.936,28.951 64.483,31.065 
		65.074,27.866 63.999,30.933 62.923,27.866 63.512,31.065 61.062,28.951 63.16,31.424 59.987,30.829 63.028,31.912 59.987,32.997 
		63.16,32.401 61.062,34.875 63.512,32.759 62.923,35.959 63.999,32.889 65.074,35.959 64.483,32.759 66.936,34.875 64.839,32.401 
		68.012,32.997 	"/>
</g>
</svg>
