<?xml version="1.0" encoding="iso-8859-1"?>
<!-- Generator: Adobe Illustrator 19.0.0, SVG Export Plug-In . SVG Version: 6.00 Build 0)  -->
<svg version="1.1" id="Capa_1" xmlns="http://www.w3.org/2000/svg" xmlns:xlink="http://www.w3.org/1999/xlink" x="0px" y="0px"
	 viewBox="0 0 130 80" style="enable-background:new 0 0 130 80;" xml:space="preserve">
<g id="XMLID_608_">
	<g id="XMLID_927_">
		<defs>
			<rect id="XMLID_727_" x="4.3" y="29.261" width="121.4" height="21.479"/>
		</defs>
		<defs>
			<polygon id="XMLID_725_" points="4.346,49.273 4.346,49.733 122.923,49.733 122.923,49.266 4.346,49.273 			"/>
		</defs>
		<clipPath id="XMLID_2_">
			<use xlink:href="#XMLID_727_"  style="overflow:visible;"/>
		</clipPath>
		<clipPath id="XMLID_3_" style="clip-path:url(#XMLID_2_);">
			<use xlink:href="#XMLID_725_"  style="overflow:visible;"/>
		</clipPath>
		<rect id="XMLID_726_" x="-0.323" y="44.597" style="clip-path:url(#XMLID_3_);fill:#918668;" width="127.916" height="9.805"/>
	</g>
	<g id="XMLID_923_">
		<defs>
			<rect id="XMLID_724_" x="4.3" y="29.261" width="121.4" height="21.479"/>
		</defs>
		<defs>
			<polygon id="XMLID_722_" points="56.73,45.925 56.73,46.283 57.869,46.176 57.947,45.816 56.73,45.925 			"/>
		</defs>
		<clipPath id="XMLID_4_">
			<use xlink:href="#XMLID_724_"  style="overflow:visible;"/>
		</clipPath>
		<clipPath id="XMLID_5_" style="clip-path:url(#XMLID_4_);">
			<use xlink:href="#XMLID_722_"  style="overflow:visible;"/>
		</clipPath>
		<rect id="XMLID_723_" x="52.06" y="41.147" style="clip-path:url(#XMLID_5_);fill:#918668;" width="10.556" height="9.805"/>
	</g>
	<g id="XMLID_919_">
		<defs>
			<rect id="XMLID_721_" x="4.3" y="29.261" width="121.4" height="21.479"/>
		</defs>
		<defs>
			<polygon id="XMLID_719_" points="57.168,44.342 57.168,44.637 58.298,44.48 58.368,44.17 57.168,44.342 			"/>
		</defs>
		<clipPath id="XMLID_6_">
			<use xlink:href="#XMLID_721_"  style="overflow:visible;"/>
		</clipPath>
		<clipPath id="XMLID_7_" style="clip-path:url(#XMLID_6_);">
			<use xlink:href="#XMLID_719_"  style="overflow:visible;"/>
		</clipPath>
		<rect id="XMLID_720_" x="52.498" y="39.501" style="clip-path:url(#XMLID_7_);fill:#918668;" width="10.539" height="9.805"/>
	</g>
	<g id="XMLID_915_">
		<defs>
			<rect id="XMLID_718_" x="4.3" y="29.261" width="121.4" height="21.479"/>
		</defs>
		<defs>
			<polygon id="XMLID_716_" points="57.026,44.805 57.026,45.103 58.167,44.954 58.259,44.627 57.026,44.805 			"/>
		</defs>
		<clipPath id="XMLID_8_">
			<use xlink:href="#XMLID_718_"  style="overflow:visible;"/>
		</clipPath>
		<clipPath id="XMLID_9_" style="clip-path:url(#XMLID_8_);">
			<use xlink:href="#XMLID_716_"  style="overflow:visible;"/>
		</clipPath>
		<rect id="XMLID_717_" x="52.357" y="39.958" style="clip-path:url(#XMLID_9_);fill:#918668;" width="10.572" height="9.814"/>
	</g>
	<g id="XMLID_911_">
		<defs>
			<rect id="XMLID_715_" x="4.3" y="29.261" width="121.4" height="21.479"/>
		</defs>
		<defs>
			<polygon id="XMLID_713_" points="56.605,46.444 56.605,46.803 57.76,46.693 57.839,46.336 56.605,46.444 			"/>
		</defs>
		<clipPath id="XMLID_10_">
			<use xlink:href="#XMLID_715_"  style="overflow:visible;"/>
		</clipPath>
		<clipPath id="XMLID_11_" style="clip-path:url(#XMLID_10_);">
			<use xlink:href="#XMLID_713_"  style="overflow:visible;"/>
		</clipPath>
		<rect id="XMLID_714_" x="51.936" y="41.667" style="clip-path:url(#XMLID_11_);fill:#918668;" width="10.572" height="9.805"/>
	</g>
	<g id="XMLID_907_">
		<defs>
			<rect id="XMLID_712_" x="4.3" y="29.261" width="121.4" height="21.479"/>
		</defs>
		<defs>
			<polygon id="XMLID_710_" points="56.449,47.012 56.449,47.367 57.62,47.272 57.697,46.9 56.449,47.012 			"/>
		</defs>
		<clipPath id="XMLID_12_">
			<use xlink:href="#XMLID_712_"  style="overflow:visible;"/>
		</clipPath>
		<clipPath id="XMLID_13_" style="clip-path:url(#XMLID_12_);">
			<use xlink:href="#XMLID_710_"  style="overflow:visible;"/>
		</clipPath>
		<rect id="XMLID_711_" x="51.78" y="42.231" style="clip-path:url(#XMLID_13_);fill:#918668;" width="10.586" height="9.805"/>
	</g>
	<g id="XMLID_903_">
		<defs>
			<rect id="XMLID_709_" x="4.3" y="29.261" width="121.4" height="21.479"/>
		</defs>
		<defs>
			<polygon id="XMLID_707_" points="56.34,47.527 56.34,47.933 57.51,47.933 57.573,47.466 56.34,47.527 			"/>
		</defs>
		<clipPath id="XMLID_14_">
			<use xlink:href="#XMLID_709_"  style="overflow:visible;"/>
		</clipPath>
		<clipPath id="XMLID_15_" style="clip-path:url(#XMLID_14_);">
			<use xlink:href="#XMLID_707_"  style="overflow:visible;"/>
		</clipPath>
		<rect id="XMLID_708_" x="51.671" y="42.796" style="clip-path:url(#XMLID_15_);fill:#918668;" width="10.571" height="9.805"/>
	</g>
	<g id="XMLID_899_">
		<defs>
			<rect id="XMLID_706_" x="4.3" y="29.261" width="121.4" height="21.479"/>
		</defs>
		<defs>
			<polygon id="XMLID_704_" points="55.566,47.832 56.076,45.955 56.59,45.909 56.107,47.832 55.566,47.832 			"/>
		</defs>
		<clipPath id="XMLID_16_">
			<use xlink:href="#XMLID_706_"  style="overflow:visible;"/>
		</clipPath>
		<clipPath id="XMLID_17_" style="clip-path:url(#XMLID_16_);">
			<use xlink:href="#XMLID_704_"  style="overflow:visible;"/>
		</clipPath>
		<rect id="XMLID_705_" x="50.897" y="41.24" style="clip-path:url(#XMLID_17_);fill:#918668;" width="10.363" height="11.261"/>
	</g>
	<g id="XMLID_895_">
		<defs>
			<rect id="XMLID_703_" x="4.3" y="29.261" width="121.4" height="21.479"/>
		</defs>
		<defs>
			<polygon id="XMLID_701_" points="57.713,47.801 58.181,45.802 58.727,45.757 58.29,47.801 57.713,47.801 			"/>
		</defs>
		<clipPath id="XMLID_18_">
			<use xlink:href="#XMLID_703_"  style="overflow:visible;"/>
		</clipPath>
		<clipPath id="XMLID_19_" style="clip-path:url(#XMLID_18_);">
			<use xlink:href="#XMLID_701_"  style="overflow:visible;"/>
		</clipPath>
		<rect id="XMLID_702_" x="53.044" y="41.087" style="clip-path:url(#XMLID_19_);fill:#918668;" width="10.352" height="11.383"/>
	</g>
	<g id="XMLID_891_">
		<defs>
			<rect id="XMLID_700_" x="4.3" y="29.261" width="121.4" height="21.479"/>
		</defs>
		<defs>
			<polygon id="XMLID_698_" points="55.937,45.664 56.266,44.468 54.711,44.687 54.436,45.771 55.937,45.664 			"/>
		</defs>
		<clipPath id="XMLID_20_">
			<use xlink:href="#XMLID_700_"  style="overflow:visible;"/>
		</clipPath>
		<clipPath id="XMLID_21_" style="clip-path:url(#XMLID_20_);">
			<use xlink:href="#XMLID_698_"  style="overflow:visible;"/>
		</clipPath>
		<rect id="XMLID_699_" x="49.767" y="39.799" style="clip-path:url(#XMLID_21_);fill:#918668;" width="11.168" height="10.642"/>
	</g>
	<g id="XMLID_887_">
		<defs>
			<rect id="XMLID_697_" x="4.3" y="29.261" width="121.4" height="21.479"/>
		</defs>
		<defs>
			<polygon id="XMLID_695_" points="56.699,45.604 57.012,44.383 56.524,44.443 56.185,45.641 56.699,45.604 			"/>
		</defs>
		<clipPath id="XMLID_22_">
			<use xlink:href="#XMLID_697_"  style="overflow:visible;"/>
		</clipPath>
		<clipPath id="XMLID_23_" style="clip-path:url(#XMLID_22_);">
			<use xlink:href="#XMLID_695_"  style="overflow:visible;"/>
		</clipPath>
		<rect id="XMLID_696_" x="51.515" y="39.714" style="clip-path:url(#XMLID_23_);fill:#918668;" width="10.166" height="10.596"/>
	</g>
	<g id="XMLID_883_">
		<defs>
			<rect id="XMLID_694_" x="4.3" y="29.261" width="121.4" height="21.479"/>
		</defs>
		<defs>
			<polygon id="XMLID_692_" points="58.805,45.374 59.074,44.092 58.57,44.151 58.259,45.42 58.805,45.374 			"/>
		</defs>
		<clipPath id="XMLID_24_">
			<use xlink:href="#XMLID_694_"  style="overflow:visible;"/>
		</clipPath>
		<clipPath id="XMLID_25_" style="clip-path:url(#XMLID_24_);">
			<use xlink:href="#XMLID_692_"  style="overflow:visible;"/>
		</clipPath>
		<rect id="XMLID_693_" x="53.59" y="39.422" style="clip-path:url(#XMLID_25_);fill:#918668;" width="10.153" height="10.667"/>
	</g>
	<g id="XMLID_879_">
		<defs>
			<rect id="XMLID_691_" x="4.3" y="29.261" width="121.4" height="21.479"/>
		</defs>
		<defs>
			<polygon id="XMLID_689_" points="60.943,42.23 64.954,43.238 64.954,44.61 60.943,43.605 60.943,42.23 			"/>
		</defs>
		<clipPath id="XMLID_26_">
			<use xlink:href="#XMLID_691_"  style="overflow:visible;"/>
		</clipPath>
		<clipPath id="XMLID_27_" style="clip-path:url(#XMLID_26_);">
			<use xlink:href="#XMLID_689_"  style="overflow:visible;"/>
		</clipPath>
		<rect id="XMLID_690_" x="56.273" y="37.561" style="clip-path:url(#XMLID_27_);fill:#918668;" width="13.35" height="11.719"/>
	</g>
	<g id="XMLID_875_">
		<defs>
			<rect id="XMLID_688_" x="4.3" y="29.261" width="121.4" height="21.479"/>
		</defs>
		<defs>
			<polygon id="XMLID_686_" points="60.68,42.215 58.602,42.49 58.602,43.955 60.68,43.619 60.68,42.215 			"/>
		</defs>
		<clipPath id="XMLID_28_">
			<use xlink:href="#XMLID_688_"  style="overflow:visible;"/>
		</clipPath>
		<clipPath id="XMLID_29_" style="clip-path:url(#XMLID_28_);">
			<use xlink:href="#XMLID_686_"  style="overflow:visible;"/>
		</clipPath>
		<rect id="XMLID_687_" x="53.933" y="37.545" style="clip-path:url(#XMLID_29_);fill:#918668;" width="11.417" height="11.079"/>
	</g>
	<g id="XMLID_871_">
		<defs>
			<rect id="XMLID_685_" x="4.3" y="29.261" width="121.4" height="21.479"/>
		</defs>
		<defs>
			<polygon id="XMLID_683_" points="57.152,44.183 55.075,44.458 55.075,42.963 57.152,42.703 57.152,44.183 			"/>
		</defs>
		<clipPath id="XMLID_30_">
			<use xlink:href="#XMLID_685_"  style="overflow:visible;"/>
		</clipPath>
		<clipPath id="XMLID_31_" style="clip-path:url(#XMLID_30_);">
			<use xlink:href="#XMLID_683_"  style="overflow:visible;"/>
		</clipPath>
		<rect id="XMLID_684_" x="50.406" y="38.034" style="clip-path:url(#XMLID_31_);fill:#918668;" width="11.415" height="11.093"/>
	</g>
	<g id="XMLID_867_">
		<defs>
			<rect id="XMLID_682_" x="4.3" y="29.261" width="121.4" height="21.479"/>
		</defs>
		<defs>
			<polygon id="XMLID_680_" points="56.917,45.287 58.149,45.121 58.057,45.467 56.917,45.588 56.917,45.287 			"/>
		</defs>
		<clipPath id="XMLID_32_">
			<use xlink:href="#XMLID_682_"  style="overflow:visible;"/>
		</clipPath>
		<clipPath id="XMLID_33_" style="clip-path:url(#XMLID_32_);">
			<use xlink:href="#XMLID_680_"  style="overflow:visible;"/>
		</clipPath>
		<rect id="XMLID_681_" x="52.248" y="40.452" style="clip-path:url(#XMLID_33_);fill:#918668;" width="10.571" height="9.805"/>
	</g>
	<g id="XMLID_863_">
		<defs>
			<rect id="XMLID_679_" x="4.3" y="29.261" width="121.4" height="21.479"/>
		</defs>
		<defs>
			<polygon id="XMLID_677_" points="57.448,42.665 58.415,42.52 58.415,42.987 57.448,42.665 			"/>
		</defs>
		<clipPath id="XMLID_34_">
			<use xlink:href="#XMLID_679_"  style="overflow:visible;"/>
		</clipPath>
		<clipPath id="XMLID_35_" style="clip-path:url(#XMLID_34_);">
			<use xlink:href="#XMLID_677_"  style="overflow:visible;"/>
		</clipPath>
		<rect id="XMLID_678_" x="52.779" y="37.851" style="clip-path:url(#XMLID_35_);fill:#918668;" width="10.305" height="9.805"/>
	</g>
	<g id="XMLID_859_">
		<defs>
			<rect id="XMLID_676_" x="4.3" y="29.261" width="121.4" height="21.479"/>
		</defs>
		<defs>
			<polygon id="XMLID_674_" points="54.374,42.481 60.817,41.624 65.312,42.78 64.828,41.068 60.849,39.719 55.138,40.694 
				54.374,42.481 			"/>
		</defs>
		<clipPath id="XMLID_36_">
			<use xlink:href="#XMLID_676_"  style="overflow:visible;"/>
		</clipPath>
		<clipPath id="XMLID_37_" style="clip-path:url(#XMLID_36_);">
			<use xlink:href="#XMLID_674_"  style="overflow:visible;"/>
		</clipPath>
		<rect id="XMLID_675_" x="49.705" y="35.05" style="clip-path:url(#XMLID_37_);fill:#918668;" width="20.277" height="12.399"/>
	</g>
	<g id="XMLID_855_">
		<defs>
			<rect id="XMLID_673_" x="4.3" y="29.261" width="121.4" height="21.479"/>
		</defs>
		<defs>
			<polygon id="XMLID_671_" points="57.266,40.125 59.829,39.667 60.186,31.471 58.489,31.929 57.266,40.125 			"/>
		</defs>
		<clipPath id="XMLID_38_">
			<use xlink:href="#XMLID_673_"  style="overflow:visible;"/>
		</clipPath>
		<clipPath id="XMLID_39_" style="clip-path:url(#XMLID_38_);">
			<use xlink:href="#XMLID_671_"  style="overflow:visible;"/>
		</clipPath>
		<rect id="XMLID_672_" x="52.597" y="26.802" style="clip-path:url(#XMLID_39_);fill:#918668;" width="12.259" height="17.993"/>
	</g>
	<g id="XMLID_851_">
		<defs>
			<rect id="XMLID_670_" x="4.3" y="29.261" width="121.4" height="21.479"/>
		</defs>
		<defs>
			<polygon id="XMLID_668_" points="58.259,32.142 57.76,32.249 56.121,40.308 56.964,40.17 58.259,32.142 			"/>
		</defs>
		<clipPath id="XMLID_40_">
			<use xlink:href="#XMLID_670_"  style="overflow:visible;"/>
		</clipPath>
		<clipPath id="XMLID_41_" style="clip-path:url(#XMLID_40_);">
			<use xlink:href="#XMLID_668_"  style="overflow:visible;"/>
		</clipPath>
		<rect id="XMLID_669_" x="51.452" y="27.472" style="clip-path:url(#XMLID_41_);fill:#918668;" width="11.476" height="17.505"/>
	</g>
	<g id="XMLID_847_">
		<defs>
			<rect id="XMLID_667_" x="4.3" y="29.261" width="121.4" height="21.479"/>
		</defs>
		<defs>
			<polygon id="XMLID_665_" points="60.412,31.624 61.878,31.273 62.641,31.668 64.297,40.658 60.849,39.513 60.053,39.62 
				60.412,31.624 			"/>
		</defs>
		<clipPath id="XMLID_42_">
			<use xlink:href="#XMLID_667_"  style="overflow:visible;"/>
		</clipPath>
		<clipPath id="XMLID_43_" style="clip-path:url(#XMLID_42_);">
			<use xlink:href="#XMLID_665_"  style="overflow:visible;"/>
		</clipPath>
		<rect id="XMLID_666_" x="55.384" y="26.603" style="clip-path:url(#XMLID_43_);fill:#918668;" width="13.583" height="18.724"/>
	</g>
	<g id="XMLID_843_">
		<defs>
			<rect id="XMLID_664_" x="4.3" y="29.261" width="121.4" height="21.479"/>
		</defs>
		<defs>
			<polygon id="XMLID_662_" points="65.686,45.023 60.912,43.833 59.321,44.062 59.07,45.328 60.989,45.176 66.092,46.231 
				65.686,45.023 			"/>
		</defs>
		<clipPath id="XMLID_44_">
			<use xlink:href="#XMLID_664_"  style="overflow:visible;"/>
		</clipPath>
		<clipPath id="XMLID_45_" style="clip-path:url(#XMLID_44_);">
			<use xlink:href="#XMLID_662_"  style="overflow:visible;"/>
		</clipPath>
		<rect id="XMLID_663_" x="54.401" y="39.164" style="clip-path:url(#XMLID_45_);fill:#918668;" width="16.36" height="11.736"/>
	</g>
	<g id="XMLID_839_">
		<defs>
			<rect id="XMLID_661_" x="4.3" y="29.261" width="121.4" height="21.479"/>
		</defs>
		<defs>
			<polygon id="XMLID_659_" points="52.661,48.025 53.86,46.103 55.815,45.982 55.261,48.025 52.661,48.025 			"/>
		</defs>
		<clipPath id="XMLID_46_">
			<use xlink:href="#XMLID_661_"  style="overflow:visible;"/>
		</clipPath>
		<clipPath id="XMLID_47_" style="clip-path:url(#XMLID_46_);">
			<use xlink:href="#XMLID_659_"  style="overflow:visible;"/>
		</clipPath>
		<rect id="XMLID_660_" x="47.992" y="41.313" style="clip-path:url(#XMLID_47_);fill:#918668;" width="12.492" height="11.381"/>
	</g>
	<g id="XMLID_835_">
		<defs>
			<rect id="XMLID_658_" x="4.3" y="29.261" width="121.4" height="21.479"/>
		</defs>
		<defs>
			<polygon id="XMLID_656_" points="58.514,48.025 58.993,45.686 60.981,45.539 66.603,46.602 67.192,48.025 58.514,48.025 			"/>
		</defs>
		<clipPath id="XMLID_48_">
			<use xlink:href="#XMLID_658_"  style="overflow:visible;"/>
		</clipPath>
		<clipPath id="XMLID_49_" style="clip-path:url(#XMLID_48_);">
			<use xlink:href="#XMLID_656_"  style="overflow:visible;"/>
		</clipPath>
		<rect id="XMLID_657_" x="53.845" y="40.87" style="clip-path:url(#XMLID_49_);fill:#918668;" width="18.017" height="11.824"/>
	</g>
	<g id="XMLID_831_">
		<defs>
			<rect id="XMLID_655_" x="4.3" y="29.261" width="121.4" height="21.479"/>
		</defs>
		<defs>
			<path id="XMLID_653_" d="M4.3,47.779c0.335-0.041,0.461-0.165,0.461-0.472v-9.245c0-0.349-0.084-0.513-0.461-0.656V37.22h3.166
				v0.185c-0.379,0.061-0.547,0.287-0.547,0.492c0,0.061,0,0.124,0.022,0.164l2.641,6.662l2.472-6.662
				c0.022-0.082,0.044-0.205,0.044-0.288c0-0.204-0.127-0.287-0.463-0.368V37.22h3.145v0.185c-0.357,0.123-0.483,0.287-0.483,0.656
				v9.245c0,0.307,0.169,0.451,0.524,0.472v0.204h-2.473v-0.204c0.378-0.041,0.504-0.145,0.504-0.472v-8.304L9.644,47.84H9.497
				l-3.373-8.692v8.159c0,0.307,0.146,0.431,0.524,0.472v0.204H4.3V47.779L4.3,47.779z"/>
		</defs>
		<clipPath id="XMLID_50_">
			<use xlink:href="#XMLID_655_"  style="overflow:visible;"/>
		</clipPath>
		<clipPath id="XMLID_51_" style="clip-path:url(#XMLID_50_);">
			<use xlink:href="#XMLID_653_"  style="overflow:visible;"/>
		</clipPath>
		<rect id="XMLID_654_" x="-0.369" y="32.551" style="clip-path:url(#XMLID_51_);fill:#918668;" width="19.859" height="20.101"/>
	</g>
	<g id="XMLID_825_">
		<defs>
			<rect id="XMLID_652_" x="4.3" y="29.261" width="121.4" height="21.479"/>
		</defs>
		<defs>
			<path id="XMLID_826_" d="M15.974,47.737c0.357-0.083,0.524-0.266,0.651-0.616l2.325-7.112c0.064-0.186,0.084-0.328,0.084-0.37
				c0-0.122-0.125-0.225-0.377-0.245v-0.245h2.872v0.245c-0.231,0.02-0.355,0.123-0.355,0.328c0,0.062,0.02,0.164,0.062,0.288
				l2.474,7.112c0.125,0.35,0.209,0.555,0.586,0.616v0.246h-2.305v-0.246c0.252-0.042,0.335-0.144,0.335-0.328
				c0-0.083,0-0.185-0.042-0.288l-0.545-1.639h-3.311l-0.566,1.639c-0.042,0.124-0.063,0.205-0.063,0.268
				c0,0.204,0.147,0.306,0.398,0.348v0.246h-2.222V47.737L15.974,47.737z M21.338,44.354L20.04,40.52l-1.259,3.834H21.338
				L21.338,44.354z"/>
		</defs>
		<clipPath id="XMLID_52_">
			<use xlink:href="#XMLID_652_"  style="overflow:visible;"/>
		</clipPath>
		<clipPath id="XMLID_53_" style="clip-path:url(#XMLID_52_);">
			<use xlink:href="#XMLID_826_"  style="overflow:visible;"/>
		</clipPath>
		<rect id="XMLID_651_" x="11.304" y="34.478" style="clip-path:url(#XMLID_53_);fill:#918668;" width="17.66" height="18.174"/>
	</g>
	<g id="XMLID_821_">
		<defs>
			<rect id="XMLID_648_" x="4.3" y="29.261" width="121.4" height="21.479"/>
		</defs>
		<defs>
			<path id="XMLID_646_" d="M26.462,47.737c0.42-0.124,0.462-0.226,0.462-0.596v-3.278l-2.599-4.101
				c-0.147-0.224-0.273-0.328-0.607-0.369v-0.245h2.661v0.245c-0.335,0.02-0.461,0.041-0.461,0.266c0,0.041,0.02,0.102,0.063,0.163
				l1.781,2.809l1.719-2.767c0.041-0.062,0.063-0.123,0.063-0.205c0-0.185-0.126-0.226-0.504-0.266v-0.245h2.579v0.245
				c-0.377,0.02-0.567,0.123-0.734,0.41l-2.537,4.059v3.278c0,0.33,0.167,0.492,0.524,0.596v0.246h-2.411V47.737L26.462,47.737z"/>
		</defs>
		<clipPath id="XMLID_54_">
			<use xlink:href="#XMLID_648_"  style="overflow:visible;"/>
		</clipPath>
		<clipPath id="XMLID_55_" style="clip-path:url(#XMLID_54_);">
			<use xlink:href="#XMLID_646_"  style="overflow:visible;"/>
		</clipPath>
		<rect id="XMLID_647_" x="19.048" y="34.478" style="clip-path:url(#XMLID_55_);fill:#918668;" width="17.24" height="18.174"/>
	</g>
	<g id="XMLID_815_">
		<defs>
			<rect id="XMLID_645_" x="4.3" y="29.261" width="121.4" height="21.479"/>
		</defs>
		<defs>
			<path id="XMLID_816_" d="M30.894,47.737c0.358-0.083,0.524-0.266,0.651-0.616l2.325-7.112c0.063-0.186,0.084-0.328,0.084-0.37
				c0-0.122-0.125-0.225-0.377-0.245v-0.245h2.871v0.245c-0.231,0.02-0.356,0.123-0.356,0.328c0,0.062,0.021,0.164,0.063,0.288
				l2.472,7.112c0.126,0.35,0.21,0.555,0.587,0.616v0.246h-2.306v-0.246c0.252-0.042,0.335-0.144,0.335-0.328
				c0-0.083,0-0.185-0.041-0.288l-0.546-1.639h-3.311l-0.567,1.639c-0.041,0.124-0.063,0.205-0.063,0.268
				c0,0.204,0.146,0.306,0.398,0.348v0.246h-2.222V47.737L30.894,47.737z M36.26,44.354l-1.3-3.834l-1.257,3.834H36.26L36.26,44.354
				z"/>
		</defs>
		<clipPath id="XMLID_56_">
			<use xlink:href="#XMLID_645_"  style="overflow:visible;"/>
		</clipPath>
		<clipPath id="XMLID_57_" style="clip-path:url(#XMLID_56_);">
			<use xlink:href="#XMLID_816_"  style="overflow:visible;"/>
		</clipPath>
		<rect id="XMLID_644_" x="26.225" y="34.478" style="clip-path:url(#XMLID_57_);fill:#918668;" width="17.66" height="18.174"/>
	</g>
	<g id="XMLID_811_">
		<defs>
			<rect id="XMLID_641_" x="4.3" y="29.261" width="121.4" height="21.479"/>
		</defs>
		<defs>
			<path id="XMLID_639_" d="M40.284,47.779c0.335-0.041,0.482-0.185,0.482-0.493v-7.463c0-0.306-0.167-0.45-0.524-0.469v-0.206h3.04
				v0.206c-0.356,0.06-0.524,0.224-0.524,0.43c0,0.061,0.021,0.143,0.063,0.205l3.249,5.104v-5.27c0-0.306-0.167-0.43-0.523-0.469
				v-0.206h2.264v0.206c-0.335,0.04-0.482,0.184-0.482,0.491v7.463c0,0.307,0.168,0.451,0.523,0.472v0.204h-2.282v-0.204
				c0.272-0.041,0.398-0.102,0.398-0.288c0-0.04,0-0.082-0.021-0.143l-3.919-6.151v6.11c0,0.307,0.146,0.431,0.502,0.472v0.204
				h-2.242V47.779L40.284,47.779z"/>
		</defs>
		<clipPath id="XMLID_58_">
			<use xlink:href="#XMLID_641_"  style="overflow:visible;"/>
		</clipPath>
		<clipPath id="XMLID_59_" style="clip-path:url(#XMLID_58_);">
			<use xlink:href="#XMLID_639_"  style="overflow:visible;"/>
		</clipPath>
		<rect id="XMLID_640_" x="35.572" y="34.478" style="clip-path:url(#XMLID_59_);fill:#918668;" width="16.946" height="18.174"/>
	</g>
	<g id="XMLID_805_">
		<defs>
			<rect id="XMLID_638_" x="4.3" y="29.261" width="121.4" height="21.479"/>
		</defs>
		<defs>
			<path id="XMLID_806_" d="M79.352,41.707c0,1.559-1.173,2.583-2.955,2.583h-2.034v2.911c0,0.389,0.084,0.491,0.485,0.594v0.246
				h-2.411v-0.246c0.398-0.102,0.482-0.204,0.482-0.594v-7.155c0-0.39-0.084-0.492-0.482-0.595v-0.247h3.856
				C78.242,39.205,79.352,40.19,79.352,41.707L79.352,41.707L79.352,41.707z M76.104,43.141c1.194,0,1.782-0.451,1.782-1.373
				c0-0.984-0.628-1.415-1.93-1.415h-1.593v2.787H76.104L76.104,43.141z"/>
		</defs>
		<clipPath id="XMLID_60_">
			<use xlink:href="#XMLID_638_"  style="overflow:visible;"/>
		</clipPath>
		<clipPath id="XMLID_61_" style="clip-path:url(#XMLID_60_);">
			<use xlink:href="#XMLID_806_"  style="overflow:visible;"/>
		</clipPath>
		<rect id="XMLID_637_" x="67.767" y="34.535" style="clip-path:url(#XMLID_61_);fill:#918668;" width="16.254" height="18.175"/>
	</g>
	<g id="XMLID_799_">
		<defs>
			<rect id="XMLID_634_" x="4.3" y="29.261" width="121.4" height="21.479"/>
		</defs>
		<defs>
			<path id="XMLID_800_" d="M79.538,47.795c0.357-0.081,0.523-0.266,0.65-0.614l2.326-7.115c0.064-0.185,0.084-0.328,0.084-0.369
				c0-0.123-0.125-0.225-0.378-0.246v-0.246h2.872v0.246c-0.23,0.021-0.355,0.124-0.355,0.329c0,0.061,0.02,0.163,0.061,0.287
				l2.475,7.115c0.125,0.347,0.209,0.553,0.585,0.614v0.247h-2.305v-0.247c0.251-0.039,0.336-0.143,0.336-0.327
				c0-0.084,0-0.186-0.042-0.287L85.3,45.539H81.99l-0.566,1.642c-0.042,0.123-0.063,0.203-0.063,0.266
				c0,0.204,0.145,0.308,0.398,0.347v0.247h-2.221V47.795L79.538,47.795z M84.902,44.413l-1.298-3.834l-1.259,3.834H84.902
				L84.902,44.413z"/>
		</defs>
		<clipPath id="XMLID_62_">
			<use xlink:href="#XMLID_634_"  style="overflow:visible;"/>
		</clipPath>
		<clipPath id="XMLID_63_" style="clip-path:url(#XMLID_62_);">
			<use xlink:href="#XMLID_800_"  style="overflow:visible;"/>
		</clipPath>
		<rect id="XMLID_633_" x="74.868" y="34.536" style="clip-path:url(#XMLID_63_);fill:#918668;" width="17.659" height="18.175"/>
	</g>
	<g id="XMLID_795_">
		<defs>
			<rect id="XMLID_630_" x="4.3" y="29.261" width="121.4" height="21.479"/>
		</defs>
		<defs>
			<path id="XMLID_628_" d="M88.99,47.795c0.397-0.102,0.503-0.205,0.503-0.594v-7.155c0-0.39-0.106-0.492-0.503-0.595v-0.246h2.43
				v0.246c-0.398,0.103-0.481,0.205-0.481,0.595v6.764h3.898c0.271,0,0.419-0.142,0.461-0.471h0.251v2.091h-0.251
				c-0.063-0.307-0.17-0.389-0.481-0.389H88.99V47.795L88.99,47.795z"/>
		</defs>
		<clipPath id="XMLID_64_">
			<use xlink:href="#XMLID_630_"  style="overflow:visible;"/>
		</clipPath>
		<clipPath id="XMLID_65_" style="clip-path:url(#XMLID_64_);">
			<use xlink:href="#XMLID_628_"  style="overflow:visible;"/>
		</clipPath>
		<rect id="XMLID_629_" x="84.321" y="34.536" style="clip-path:url(#XMLID_65_);fill:#918668;" width="15.898" height="18.564"/>
	</g>
	<g id="XMLID_789_">
		<defs>
			<rect id="XMLID_627_" x="4.3" y="29.261" width="121.4" height="21.479"/>
		</defs>
		<defs>
			<path id="XMLID_790_" d="M96.185,47.795c0.357-0.081,0.525-0.266,0.649-0.614l2.328-7.115c0.063-0.185,0.083-0.328,0.083-0.369
				c0-0.123-0.126-0.225-0.376-0.246v-0.246h2.871v0.246c-0.229,0.021-0.356,0.124-0.356,0.329c0,0.061,0.022,0.163,0.062,0.287
				l2.474,7.115c0.126,0.347,0.209,0.553,0.587,0.614v0.247h-2.306v-0.247c0.252-0.039,0.335-0.143,0.335-0.327
				c0-0.084,0-0.186-0.042-0.287l-0.545-1.642h-3.31l-0.567,1.642c-0.042,0.123-0.062,0.203-0.062,0.266
				c0,0.204,0.146,0.308,0.398,0.347v0.247h-2.222V47.795L96.185,47.795z M101.551,44.413l-1.299-3.834l-1.257,3.834H101.551
				L101.551,44.413z"/>
		</defs>
		<clipPath id="XMLID_66_">
			<use xlink:href="#XMLID_627_"  style="overflow:visible;"/>
		</clipPath>
		<clipPath id="XMLID_67_" style="clip-path:url(#XMLID_66_);">
			<use xlink:href="#XMLID_790_"  style="overflow:visible;"/>
		</clipPath>
		<rect id="XMLID_626_" x="91.516" y="34.536" style="clip-path:url(#XMLID_67_);fill:#918668;" width="17.66" height="18.175"/>
	</g>
	<g id="XMLID_785_">
		<defs>
			<rect id="XMLID_623_" x="4.3" y="29.261" width="121.4" height="21.479"/>
		</defs>
		<defs>
			<path id="XMLID_621_" d="M112.933,47.118c-0.19-0.062-0.336-0.102-0.399-0.102c-0.376,0-1.133,1.231-3.08,1.231
				c-2.432,0-4.193-1.929-4.193-4.613c0-2.727,1.803-4.654,4.213-4.654c1.573,0,2.432,0.923,2.914,0.923
				c0.085,0,0.209-0.041,0.356-0.103l0.19,0.143l-1.427,1.825l-0.187-0.145c0.021-0.061,0.021-0.122,0.021-0.184
				c0-0.615-0.777-1.23-1.886-1.23c-1.573,0-2.705,1.394-2.705,3.404c0,2.05,1.112,3.402,2.746,3.402
				c1.174,0,1.991-0.779,1.991-1.352c0-0.063-0.041-0.185-0.104-0.369l0.209-0.144l1.531,1.824L112.933,47.118L112.933,47.118z"/>
		</defs>
		<clipPath id="XMLID_68_">
			<use xlink:href="#XMLID_623_"  style="overflow:visible;"/>
		</clipPath>
		<clipPath id="XMLID_69_" style="clip-path:url(#XMLID_68_);">
			<use xlink:href="#XMLID_621_"  style="overflow:visible;"/>
		</clipPath>
		<rect id="XMLID_622_" x="100.591" y="34.311" style="clip-path:url(#XMLID_69_);fill:#918668;" width="17.198" height="18.606"/>
	</g>
	<g id="XMLID_781_">
		<defs>
			<rect id="XMLID_620_" x="4.3" y="29.261" width="121.4" height="21.479"/>
		</defs>
		<defs>
			<path id="XMLID_618_" d="M122.449,46.258h0.23v2.193h-0.23c-0.042-0.287-0.211-0.41-0.503-0.41h-7.189v-0.247
				c0.397-0.102,0.481-0.226,0.481-0.594v-9.084c0-0.369-0.084-0.511-0.481-0.614v-0.226h7.104c0.294,0,0.44-0.142,0.483-0.471
				h0.232v2.112h-0.232c-0.063-0.309-0.189-0.41-0.502-0.41h-5.052v3.301h3.731c0.272,0,0.42-0.144,0.461-0.472h0.252v2.112h-0.252
				c-0.064-0.308-0.169-0.41-0.482-0.41h-3.71v3.668h5.178C122.259,46.708,122.406,46.586,122.449,46.258"/>
		</defs>
		<clipPath id="XMLID_70_">
			<use xlink:href="#XMLID_620_"  style="overflow:visible;"/>
		</clipPath>
		<clipPath id="XMLID_71_" style="clip-path:url(#XMLID_70_);">
			<use xlink:href="#XMLID_618_"  style="overflow:visible;"/>
		</clipPath>
		<rect id="XMLID_619_" x="110.087" y="32.138" style="clip-path:url(#XMLID_71_);fill:#918668;" width="17.261" height="20.983"/>
	</g>
	<g id="XMLID_773_">
		<defs>
			<rect id="XMLID_617_" x="4.3" y="29.261" width="121.4" height="21.479"/>
		</defs>
		<defs>
			<path id="XMLID_774_" d="M125.4,37.904c0,0.269-0.097,0.498-0.287,0.687c-0.191,0.19-0.424,0.285-0.698,0.285
				c-0.273,0-0.507-0.094-0.701-0.28c-0.192-0.187-0.291-0.415-0.291-0.687c0-0.266,0.098-0.493,0.291-0.683
				c0.194-0.19,0.428-0.283,0.701-0.283c0.275,0,0.507,0.093,0.698,0.281C125.304,37.41,125.4,37.637,125.4,37.904L125.4,37.904
				L125.4,37.904z M125.25,37.91c0-0.225-0.082-0.42-0.244-0.585c-0.164-0.165-0.359-0.247-0.591-0.247
				c-0.228,0-0.425,0.082-0.589,0.247c-0.165,0.165-0.247,0.36-0.247,0.585c0,0.225,0.082,0.42,0.249,0.584
				c0.164,0.164,0.36,0.247,0.587,0.247c0.232,0,0.427-0.08,0.591-0.244C125.168,38.333,125.25,38.138,125.25,37.91L125.25,37.91
				L125.25,37.91z M124.878,38.425l-0.095-0.01l-0.091,0.01l-0.103-0.134l-0.335-0.37l-0.059,0.001v0.501l-0.074-0.008l-0.072,0.01
				v-1.04h0.347c0.128,0,0.221,0.019,0.281,0.057c0.06,0.038,0.089,0.095,0.089,0.171c0,0.08-0.035,0.148-0.107,0.201
				c-0.06,0.048-0.139,0.079-0.234,0.091L124.878,38.425L124.878,38.425z M124.625,37.634c0-0.052-0.02-0.094-0.056-0.124
				c-0.036-0.032-0.08-0.047-0.133-0.047h-0.24v0.374h0.177c0.076,0,0.136-0.019,0.182-0.057
				C124.601,37.742,124.625,37.694,124.625,37.634L124.625,37.634L124.625,37.634z"/>
		</defs>
		<clipPath id="XMLID_72_">
			<use xlink:href="#XMLID_617_"  style="overflow:visible;"/>
		</clipPath>
		<clipPath id="XMLID_73_" style="clip-path:url(#XMLID_72_);">
			<use xlink:href="#XMLID_774_"  style="overflow:visible;"/>
		</clipPath>
		<rect id="XMLID_616_" x="118.755" y="32.274" style="clip-path:url(#XMLID_73_);fill:#918668;" width="11.315" height="11.271"/>
	</g>
	<g id="XMLID_769_">
		<defs>
			<rect id="XMLID_611_" x="4.3" y="29.261" width="121.4" height="21.479"/>
		</defs>
		<defs>
			<path id="XMLID_609_" d="M67.726,48.025c1.084-2.007,1.58-4.025,1.58-6.634c0-6.502-4.211-11.782-9.392-11.782
				c-5.196,0-9.408,5.28-9.408,11.782c0,2.272,0.679,4.834,1.568,6.634h0.249c-0.921-1.8-1.632-4.375-1.632-6.679
				c0-6.38,4.12-11.554,9.222-11.554c5.072,0,9.207,5.174,9.207,11.554c0,2.457-0.554,4.802-1.602,6.679H67.726L67.726,48.025z"/>
		</defs>
		<clipPath id="XMLID_74_">
			<use xlink:href="#XMLID_611_"  style="overflow:visible;"/>
		</clipPath>
		<clipPath id="XMLID_75_" style="clip-path:url(#XMLID_74_);">
			<use xlink:href="#XMLID_609_"  style="overflow:visible;"/>
		</clipPath>
		<rect id="XMLID_610_" x="45.836" y="24.94" style="clip-path:url(#XMLID_75_);fill:#918668;" width="28.139" height="27.754"/>
	</g>
</g>
</svg>
